<svg width="140" height="13" viewBox="0 0 140 13" fill="none" xmlns="http://www.w3.org/2000/svg">
<g clip-path="url(#clip0_155_50747)">
<path d="M10.7996 6.6709C10.5349 6.6709 10.3203 6.59431 10.3203 6.49984C10.3203 6.40538 10.5349 6.32879 10.7996 6.32879L129.509 6.32879L129.509 6.6709L10.7996 6.6709Z" fill="#C7A85C"/>
<path d="M31.4746 9.40787L108.526 9.40787L108.526 9.23682L31.4746 9.23682L31.4746 9.40787Z" fill="#C7A85C"/>
<path d="M31.4746 3.93424L108.526 3.93424L108.526 3.76318L31.4746 3.76318L31.4746 3.93424Z" fill="#C7A85C"/>
<path d="M8.98095 6.57187C9.00765 6.59842 9.05092 6.59841 9.07763 6.57187C9.10434 6.54532 9.10438 6.50224 9.07768 6.47567L3.21355 0.640747C3.20073 0.627989 3.18333 0.620778 3.16519 0.620773C3.14706 0.620771 3.12965 0.627951 3.11683 0.640699C2.97605 0.780709 2.84076 0.92623 2.71376 1.07455V1.0746C2.33889 1.4997 2.01902 1.95489 1.75162 2.42917V2.42922C1.53367 2.80521 1.35444 3.19195 1.20562 3.58934V3.58939C1.0567 3.97621 0.940916 4.37115 0.855432 4.7742V4.77425C0.775566 5.1411 0.720533 5.51369 0.695578 5.88651C0.676189 6.09837 0.667969 6.31262 0.667969 6.52377C0.667969 6.56133 0.698598 6.5918 0.736368 6.5918C0.774138 6.5918 0.804767 6.56133 0.804767 6.52377C0.804767 6.31604 0.812796 6.10595 0.831753 5.8988C0.831804 5.89825 0.83186 5.89769 0.831897 5.89714C0.854801 5.55375 0.903823 5.21005 0.974735 4.87049L0.989211 4.80261L0.989258 4.80228C1.0681 4.43055 1.1731 4.06609 1.30652 3.7088L1.3336 3.63744L1.33384 3.63682C1.47118 3.27008 1.6346 2.9131 1.83085 2.56575L1.87054 2.49639L1.87092 2.49567C2.11754 2.05826 2.40946 1.63747 2.74875 1.24221L2.81725 1.16351L2.81792 1.16274C2.92794 1.03425 3.04437 0.907813 3.16533 0.785285L8.98095 6.57187Z" fill="#C7A85C"/>
<path d="M7.60088 6.57949C7.63181 6.60103 7.67446 6.59356 7.69612 6.56281C7.7178 6.53204 7.71028 6.48959 7.67935 6.46804L1.8552 2.40986C1.85296 2.4078 1.85064 2.40584 1.84815 2.40409L1.36279 2.06434C1.33597 2.03964 1.29415 2.04018 1.26808 2.0661C1.24137 2.09267 1.24137 2.13574 1.26808 2.1623L1.27081 2.16502L1.27517 2.16898C1.27667 2.17023 1.27822 2.17143 1.27982 2.17255L1.76523 2.5124C1.76746 2.51445 1.76979 2.51639 1.77228 2.51812L7.60088 6.57949Z" fill="#C7A85C"/>
<path d="M7.61023 6.58557C7.64455 6.60124 7.68515 6.58632 7.70092 6.5522C7.71668 6.51807 7.70163 6.47769 7.66732 6.462L1.29712 3.55131C1.29336 3.54959 1.28942 3.54832 1.28543 3.54731L0.758509 3.30762C0.731789 3.28855 0.694422 3.29088 0.670409 3.31477C0.643716 3.34132 0.643719 3.38436 0.670409 3.41092L0.673141 3.41368L0.677647 3.41778C0.682321 3.42167 0.687525 3.42489 0.693081 3.42741L1.2374 3.67497L1.24421 3.67764C1.24562 3.67811 1.24708 3.67845 1.24852 3.67883L7.61023 6.58557Z" fill="#C7A85C"/>
<path d="M7.6297 6.591C7.66396 6.59625 7.69735 6.57498 7.70625 6.5409C7.71575 6.50454 7.69377 6.4674 7.65722 6.45795L0.93966 4.7224C0.936621 4.72161 0.93352 4.72114 0.930409 4.72078L0.359871 4.57281C0.354242 4.57135 0.348434 4.57061 0.342616 4.57061H0.339884C0.302121 4.57061 0.271497 4.60104 0.271484 4.63859C0.271484 4.67351 0.297955 4.70231 0.332023 4.70619L0.902512 4.85406L0.911092 4.85573C0.911347 4.85577 0.911603 4.8558 0.911859 4.85583L7.62285 6.58962L7.6297 6.591Z" fill="#C7A85C"/>
<path d="M7.63382 6.5915C7.67143 6.59496 7.70474 6.56741 7.70821 6.53001C7.71168 6.49261 7.68399 6.45948 7.64638 6.45602L0.77017 5.82496C0.768086 5.82477 0.765983 5.82467 0.76389 5.82467H0.761638L0.173941 5.77056C0.171853 5.77037 0.169758 5.77028 0.167661 5.77028H0.162149C0.124384 5.77028 0.093758 5.8007 0.09375 5.83826C0.09375 5.87582 0.124379 5.90628 0.162149 5.90628H0.16445L0.752147 5.96039L0.758474 5.96072H0.761254L7.63382 6.5915Z" fill="#C7A85C"/>
<path d="M8.15261 6.57188C8.17931 6.59843 8.22263 6.59844 8.24933 6.57188C8.27603 6.54532 8.27603 6.50224 8.24933 6.47568L2.81458 1.07051L2.39053 0.648907L2.38238 0.640707C2.35567 0.614153 2.31236 0.614153 2.28565 0.640707C2.25895 0.667267 2.25895 0.710345 2.28565 0.736907L8.15261 6.57188Z" fill="#C7A85C"/>
<path d="M0.205532 6.52279C0.202816 6.29697 0.213628 6.07096 0.235346 5.84458L0.235442 5.84363L0.23549 5.84272C0.260921 5.46842 0.31251 5.09665 0.392612 4.72727L0.409053 4.65342L0.409148 4.65285L0.409292 4.65223C0.49313 4.25045 0.610373 3.8555 0.756657 3.46742L0.786279 3.38986L0.786519 3.38933C0.93655 2.99228 1.11995 2.60229 1.33453 2.22602L1.37786 2.15094L1.37819 2.15037C1.65156 1.67203 1.97577 1.21402 2.35582 0.78364L2.39278 0.742071L2.39349 0.741261L2.39421 0.740403C2.51554 0.595618 2.65081 0.453001 2.78941 0.315083L2.69264 0.21893C2.55233 0.358538 2.41402 0.504295 2.28915 0.653308C1.88717 1.10261 1.54569 1.58199 1.25927 2.08315C1.02242 2.48868 0.821302 2.91067 0.658684 3.34095C0.496219 3.7599 0.36666 4.18743 0.275609 4.62344C0.184632 5.02359 0.126806 5.42629 0.0991707 5.83166L0.0914057 5.91813C0.0745012 6.12002 0.0663483 6.32209 0.0687817 6.52441L0.205532 6.52279Z" fill="#C7A85C"/>
<path d="M0.273879 6.52215C0.271531 6.32692 0.279416 6.13134 0.295832 5.93527L0.303405 5.85118L0.303693 5.84746C0.328908 5.47634 0.380092 5.10785 0.459473 4.74178L0.475722 4.66861L0.476201 4.66622C0.56481 4.24157 0.691153 3.82434 0.850072 3.41453L0.850264 3.41396L0.850504 3.41343C0.999275 3.01971 1.18117 2.63291 1.39401 2.2597L1.437 2.18528L1.43729 2.18471L1.43763 2.18414C1.70878 1.70969 2.03031 1.25546 2.4072 0.828665L2.44382 0.787429L2.4453 0.785761L2.44674 0.784093C2.5663 0.641423 2.69997 0.500374 2.83773 0.363301L2.64432 0.171044C2.50386 0.310801 2.36472 0.457369 2.23857 0.60771C1.83336 1.06054 1.48921 1.54366 1.2005 2.04866C0.961709 2.45744 0.758887 2.8828 0.594881 3.31666C0.431332 3.73841 0.300785 4.16912 0.208931 4.60864C0.122757 4.98767 0.0660909 5.36888 0.0364228 5.75236L0.0308148 5.82911C0.00872064 6.06065 -0.0023724 6.29274 0.000425723 6.52539L0.273879 6.52215Z" fill="#C7A85C"/>
<path d="M0.667969 6.52337C0.667969 6.73452 0.676139 6.94881 0.69553 7.16068H0.695578C0.720536 7.5335 0.775563 7.90614 0.855432 8.27294C0.940962 8.6762 1.05683 9.07136 1.20586 9.45837C1.35474 9.85582 1.53401 10.2427 1.75205 10.6186C2.01953 11.093 2.33946 11.5483 2.71444 11.9733C2.84124 12.1214 2.97629 12.2666 3.11683 12.4063L3.122 12.411C3.14887 12.4328 3.18852 12.4313 3.21355 12.4063L9.07768 6.57142C9.10437 6.54485 9.10434 6.50177 9.07763 6.47522C9.05092 6.44869 9.00765 6.44872 8.98095 6.47527L3.16533 12.2618C3.04437 12.1393 2.92794 12.0129 2.81792 11.8844C2.81771 11.8841 2.81747 11.8839 2.81725 11.8836C2.44859 11.4657 2.13398 11.018 1.87092 10.5514C1.87079 10.5511 1.87068 10.5509 1.87054 10.5507C1.6565 10.1816 1.48034 9.80146 1.33384 9.41027L1.3336 9.4097C1.18723 9.02961 1.07336 8.64138 0.989258 8.24486L0.989211 8.24448C0.910477 7.88297 0.856329 7.51628 0.831897 7.15C0.83186 7.14945 0.831804 7.14889 0.831753 7.14833C0.812795 6.94119 0.804768 6.7311 0.804767 6.52337C0.804767 6.4858 0.774138 6.45534 0.736368 6.45534C0.698598 6.45534 0.667969 6.4858 0.667969 6.52337Z" fill="#C7A85C"/>
<path d="M1.26808 10.9811C1.29411 11.007 1.33582 11.0076 1.36265 10.983L1.84816 10.6432L1.85281 10.6396C1.85364 10.6389 1.85441 10.6382 1.85521 10.6374L7.67935 6.57921C7.71028 6.55766 7.71779 6.51525 7.69613 6.48449C7.67446 6.45372 7.63182 6.44625 7.60089 6.4678L1.77228 10.5291C1.76979 10.5309 1.76747 10.5328 1.76524 10.5349L1.27978 10.8747C1.27657 10.8769 1.27354 10.8795 1.27077 10.8822L1.26808 10.8849L1.26339 10.89C1.24147 10.9168 1.24304 10.9562 1.26808 10.9811Z" fill="#C7A85C"/>
<path d="M7.66733 6.58534C7.70165 6.56965 7.7167 6.52927 7.70093 6.49514C7.68517 6.46101 7.64457 6.44605 7.61025 6.46172L7.66733 6.58534ZM0.670427 9.73257C0.694495 9.75651 0.731986 9.75879 0.758718 9.73958L1.28573 9.49998C1.28963 9.49898 1.29346 9.49771 1.29714 9.49603L7.66733 6.58534L7.61025 6.46172L1.24873 9.36846C1.24486 9.36945 1.24107 9.37071 1.23742 9.37237L0.693099 9.61988C0.685688 9.62325 0.678921 9.62792 0.673159 9.63365L0.670427 9.63637L0.66573 9.64152C0.643813 9.66823 0.645386 9.70767 0.670427 9.73257Z" fill="#C7A85C"/>
<path d="M0.342616 8.47656L0.351339 8.47599C0.354211 8.47562 0.357064 8.4751 0.359871 8.47437L0.930552 8.3264C0.933617 8.32604 0.936666 8.3255 0.93966 8.32473L7.65722 6.58927C7.69377 6.57983 7.71575 6.54268 7.70625 6.50632C7.69735 6.47224 7.66396 6.45093 7.6297 6.45617L7.62285 6.4576L0.911667 8.19144C0.908572 8.19181 0.905487 8.19228 0.902464 8.19306L0.331687 8.34108C0.297786 8.34511 0.271484 8.37373 0.271484 8.40854C0.271484 8.4461 0.302114 8.47656 0.339884 8.47656H0.342616Z" fill="#C7A85C"/>
<path d="M0.167661 7.27734L0.173941 7.27706L0.76159 7.2229H0.763891C0.765984 7.2229 0.768085 7.22281 0.77017 7.22262L7.64638 6.59155L7.65333 6.59055C7.68735 6.58392 7.71147 6.55263 7.70822 6.51756C7.70474 6.48016 7.67143 6.45266 7.63383 6.45612L0.760727 7.0869H0.758426C0.756321 7.0869 0.754196 7.08699 0.752099 7.08718L0.16445 7.14129H0.162149C0.124379 7.14129 0.09375 7.17175 0.09375 7.20932C0.09375 7.24688 0.124379 7.27734 0.162149 7.27734H0.167661Z" fill="#C7A85C"/>
<path d="M2.28566 12.4068C2.3107 12.4317 2.35035 12.4333 2.37721 12.4115L2.38239 12.4068L8.24934 6.57186L8.25404 6.56671C8.27594 6.54 8.27438 6.50056 8.24934 6.47566C8.2243 6.45076 8.18465 6.4492 8.15779 6.47099L8.15261 6.47566L2.28566 12.3106L2.28096 12.3158C2.25905 12.3425 2.26062 12.3819 2.28566 12.4068Z" fill="#C7A85C"/>
<path d="M2.78941 12.7324C2.65081 12.5945 2.51554 12.4519 2.39421 12.3071L2.39349 12.3063L2.39278 12.3055C1.99674 11.8631 1.66038 11.3909 1.37819 10.8971L1.37791 10.8966C1.14461 10.4972 0.946549 10.0817 0.786519 9.65821L0.786279 9.65764C0.62613 9.24465 0.498738 8.82384 0.409244 8.39526L0.408957 8.39412C0.319516 8.0005 0.262616 7.60407 0.23549 7.20482L0.235442 7.20387L0.235346 7.20296C0.213628 6.97665 0.202817 6.75057 0.205532 6.52475L0.0687816 6.52313C0.0660015 6.75434 0.0770427 6.9853 0.0991706 7.21588C0.126806 7.62125 0.18465 8.02402 0.275561 8.4241C0.366677 8.86011 0.496217 9.28764 0.658684 9.7066C0.82138 10.1371 1.02261 10.5592 1.25961 10.9649C1.54596 11.4659 1.88726 11.9451 2.2891 12.3942C2.41397 12.5433 2.55233 12.689 2.69264 12.8286L2.78941 12.7324Z" fill="#C7A85C"/>
<path d="M2.83773 12.6842C2.69997 12.5471 2.56629 12.4061 2.44674 12.2634L2.4453 12.2617L2.44382 12.26C2.05109 11.8213 1.71752 11.3531 1.43763 10.8634L1.43729 10.8628L1.437 10.8622C1.20559 10.4661 1.00919 10.054 0.850504 9.63408L0.850264 9.63355L0.850073 9.63298C0.69115 9.22316 0.564831 8.80591 0.476153 8.38124L0.475914 8.38009L0.475626 8.3789C0.386992 7.98884 0.330589 7.59591 0.303693 7.20005L0.303549 7.19819L0.303405 7.19628C0.281893 6.97211 0.271196 6.74848 0.273879 6.52536L0.000425841 6.52207C-0.00237258 6.75473 0.00871916 6.98691 0.0308149 7.2184C0.0585761 7.62699 0.116805 8.03306 0.208356 8.43654C0.294555 8.84934 0.414885 9.25437 0.564588 9.65153L0.594881 9.73085C0.758888 10.1647 0.961709 10.5901 1.20051 10.9988C1.489 11.5035 1.83284 11.9863 2.23766 12.4388C2.36403 12.5895 2.50354 12.7364 2.64432 12.8765L2.83773 12.6842Z" fill="#C7A85C"/>
<path d="M131.001 6.40097C130.975 6.42752 130.931 6.42752 130.905 6.40097C130.878 6.37442 130.878 6.33134 130.905 6.30477L136.769 0.469849C136.782 0.457091 136.799 0.449879 136.817 0.449874C136.835 0.449872 136.853 0.457053 136.866 0.469801C137.006 0.60981 137.142 0.755332 137.269 0.903654V0.903702C137.644 1.3288 137.963 1.78399 138.231 2.25827V2.25832C138.449 2.63431 138.628 3.02105 138.777 3.41844V3.41849C138.926 3.80531 139.042 4.20025 139.127 4.6033V4.60335C139.207 4.97021 139.262 5.34279 139.287 5.71561C139.306 5.92747 139.314 6.14172 139.314 6.35287C139.314 6.39044 139.284 6.4209 139.246 6.4209C139.208 6.4209 139.178 6.39044 139.178 6.35287C139.178 6.14514 139.17 5.93505 139.151 5.72791C139.151 5.72736 139.151 5.72679 139.151 5.72624C139.128 5.38285 139.079 5.03915 139.008 4.6996L138.993 4.63171L138.993 4.63138C138.914 4.25965 138.809 3.89519 138.676 3.5379L138.649 3.46654L138.649 3.46592C138.511 3.09918 138.348 2.7422 138.152 2.39485L138.112 2.32549L138.111 2.32477C137.865 1.88736 137.573 1.46657 137.234 1.07131L137.165 0.992608L137.165 0.991845C137.054 0.863352 136.938 0.736915 136.817 0.614387L131.001 6.40097Z" fill="#C7A85C"/>
<path d="M132.382 6.4086C132.351 6.43013 132.308 6.42266 132.286 6.39191C132.265 6.36115 132.272 6.3187 132.303 6.29714L138.127 2.23896C138.129 2.2369 138.132 2.23494 138.134 2.23319L138.62 1.89344C138.646 1.86875 138.688 1.86928 138.714 1.89521C138.741 1.92177 138.741 1.96484 138.714 1.99141L138.712 1.99412L138.707 1.99808C138.706 1.99933 138.704 2.00053 138.703 2.00166L138.217 2.3415C138.215 2.34355 138.213 2.34549 138.21 2.34722L132.382 6.4086Z" fill="#C7A85C"/>
<path d="M132.372 6.41467C132.338 6.43035 132.297 6.41542 132.282 6.3813C132.266 6.34717 132.281 6.30679 132.315 6.2911L138.685 3.38041C138.689 3.37869 138.693 3.37742 138.697 3.37641L139.224 3.13672C139.251 3.11765 139.288 3.11999 139.312 3.14387C139.339 3.17043 139.339 3.21346 139.312 3.24002L139.309 3.24279L139.305 3.24689C139.3 3.25077 139.295 3.25399 139.289 3.25651L138.745 3.50407L138.738 3.50674C138.737 3.50721 138.735 3.50756 138.734 3.50793L132.372 6.41467Z" fill="#C7A85C"/>
<path d="M132.353 6.42011C132.318 6.42536 132.285 6.40408 132.276 6.37C132.267 6.33365 132.289 6.2965 132.325 6.28706L139.043 4.5515C139.046 4.55071 139.049 4.55024 139.052 4.54988L139.623 4.40191C139.628 4.40045 139.634 4.39971 139.64 4.39971H139.643C139.68 4.39971 139.711 4.43014 139.711 4.46769C139.711 4.50261 139.684 4.53141 139.65 4.53529L139.08 4.68317L139.071 4.68483C139.071 4.68487 139.071 4.6849 139.071 4.68493L132.36 6.41872L132.353 6.42011Z" fill="#C7A85C"/>
<path d="M132.349 6.42061C132.311 6.42406 132.278 6.39652 132.274 6.35911C132.271 6.32171 132.298 6.28858 132.336 6.28513L139.212 5.65406C139.214 5.65387 139.216 5.65377 139.219 5.65377H139.221L139.808 5.59967C139.811 5.59947 139.813 5.59938 139.815 5.59938H139.82C139.858 5.59938 139.889 5.6298 139.889 5.66736C139.889 5.70492 139.858 5.73538 139.82 5.73538H139.818L139.23 5.78949L139.224 5.78982H139.221L132.349 6.42061Z" fill="#C7A85C"/>
<path d="M131.83 6.40098C131.803 6.42754 131.76 6.42754 131.733 6.40098C131.706 6.37442 131.706 6.33134 131.733 6.30478L137.168 0.89961L137.592 0.478008L137.6 0.469809C137.627 0.443254 137.67 0.443254 137.697 0.469809C137.723 0.496369 137.723 0.539446 137.697 0.566009L131.83 6.40098Z" fill="#C7A85C"/>
<path d="M139.777 6.35189C139.78 6.12607 139.769 5.90006 139.747 5.67368L139.747 5.67273L139.747 5.67182C139.722 5.29753 139.67 4.92575 139.59 4.55637L139.573 4.48253L139.573 4.48195L139.573 4.48133C139.489 4.07955 139.372 3.68461 139.226 3.29652L139.196 3.21896L139.196 3.21844C139.046 2.82138 138.862 2.43139 138.648 2.05512L138.605 1.98004L138.604 1.97947C138.331 1.50113 138.007 1.04312 137.627 0.612742L137.59 0.571173L137.589 0.570362L137.588 0.569504C137.467 0.42472 137.332 0.282103 137.193 0.144184L137.29 0.0480319C137.43 0.187639 137.568 0.333397 137.693 0.48241C138.095 0.93171 138.437 1.41109 138.723 1.91225C138.96 2.31778 139.161 2.73977 139.324 3.17005C139.486 3.58901 139.616 4.01653 139.707 4.45254C139.798 4.8527 139.856 5.25539 139.883 5.66076L139.891 5.74724C139.908 5.94912 139.916 6.1512 139.914 6.35352L139.777 6.35189Z" fill="#C7A85C"/>
<path d="M139.709 6.35125C139.711 6.15602 139.703 5.96044 139.687 5.76437L139.679 5.68028L139.679 5.67656C139.654 5.30544 139.602 4.93695 139.523 4.57088L139.507 4.49771L139.506 4.49533C139.418 4.07067 139.291 3.65344 139.132 3.24363L139.132 3.24306L139.132 3.24253C138.983 2.84881 138.801 2.46202 138.588 2.0888L138.545 2.01439L138.545 2.01381L138.545 2.01324C138.274 1.53879 137.952 1.08457 137.575 0.657766L137.539 0.616531L137.537 0.614863L137.536 0.613194C137.416 0.470525 137.282 0.329476 137.145 0.192403L137.338 0.000145701C137.479 0.139902 137.618 0.286471 137.744 0.436812C138.149 0.88964 138.493 1.37276 138.782 1.87776C139.021 2.28654 139.224 2.7119 139.388 3.14576C139.551 3.56751 139.682 3.99822 139.773 4.43774C139.86 4.81677 139.916 5.19798 139.946 5.58146L139.952 5.65821C139.974 5.88975 139.985 6.12184 139.982 6.35449L139.709 6.35125Z" fill="#C7A85C"/>
<path d="M139.314 6.35247C139.314 6.56363 139.306 6.77791 139.287 6.98978H139.287C139.262 7.3626 139.207 7.73525 139.127 8.10204C139.041 8.5053 138.926 8.90046 138.777 9.28747C138.628 9.68492 138.448 10.0718 138.23 10.4477C137.963 10.9221 137.643 11.3774 137.268 11.8024C137.141 11.9505 137.006 12.0957 136.866 12.2354L136.86 12.2401C136.834 12.2619 136.794 12.2604 136.769 12.2354L130.905 6.40052C130.878 6.37395 130.878 6.33087 130.905 6.30432C130.932 6.27779 130.975 6.27782 131.001 6.30437L136.817 12.0909C136.938 11.9684 137.054 11.842 137.165 11.7135C137.165 11.7132 137.165 11.713 137.165 11.7127C137.534 11.2948 137.848 10.8471 138.111 10.3805C138.112 10.3802 138.112 10.38 138.112 10.3798C138.326 10.0107 138.502 9.63056 138.649 9.23937L138.649 9.2388C138.795 8.85871 138.909 8.47048 138.993 8.07396L138.993 8.07358C139.072 7.71207 139.126 7.34538 139.151 6.9791C139.151 6.97855 139.151 6.97799 139.151 6.97744C139.17 6.77029 139.178 6.5602 139.178 6.35247C139.178 6.31491 139.208 6.28444 139.246 6.28444C139.284 6.28444 139.314 6.31491 139.314 6.35247Z" fill="#C7A85C"/>
<path d="M138.714 10.8102C138.688 10.8361 138.647 10.8367 138.62 10.8121L138.134 10.4723L138.13 10.4687C138.129 10.468 138.128 10.4673 138.127 10.4665L132.303 6.40831C132.272 6.38676 132.265 6.34435 132.286 6.31359C132.308 6.28283 132.351 6.27535 132.382 6.2969L138.21 10.3582C138.213 10.36 138.215 10.3619 138.217 10.364L138.703 10.7038C138.706 10.706 138.709 10.7086 138.712 10.7113L138.714 10.714L138.719 10.7191C138.741 10.7459 138.739 10.7853 138.714 10.8102Z" fill="#C7A85C"/>
<path d="M132.315 6.41444C132.281 6.39876 132.266 6.35838 132.281 6.32424C132.297 6.29011 132.338 6.27515 132.372 6.29083L132.315 6.41444ZM139.312 9.56167C139.288 9.58561 139.25 9.58789 139.224 9.56868L138.697 9.32909C138.693 9.32808 138.689 9.32681 138.685 9.32513L132.315 6.41444L132.372 6.29083L138.734 9.19756C138.738 9.19856 138.741 9.19981 138.745 9.20147L139.289 9.44898C139.297 9.45235 139.304 9.45702 139.309 9.46276L139.312 9.46547L139.317 9.47062C139.339 9.49734 139.337 9.53677 139.312 9.56167Z" fill="#C7A85C"/>
<path d="M139.64 8.30566L139.631 8.30509C139.628 8.30473 139.625 8.3042 139.623 8.30347L139.052 8.1555C139.049 8.15514 139.046 8.15461 139.043 8.15383L132.325 6.41837C132.289 6.40893 132.267 6.37178 132.276 6.33542C132.285 6.30134 132.318 6.28003 132.353 6.28527L132.36 6.2867L139.071 8.02054C139.074 8.02091 139.077 8.02138 139.08 8.02216L139.651 8.17018C139.685 8.17421 139.711 8.20284 139.711 8.23764C139.711 8.2752 139.68 8.30566 139.643 8.30566H139.64Z" fill="#C7A85C"/>
<path d="M139.815 7.10645L139.808 7.10616L139.221 7.05201H139.219C139.216 7.05201 139.214 7.05191 139.212 7.05172L132.336 6.42065L132.329 6.41965C132.295 6.41303 132.271 6.38173 132.274 6.34667C132.278 6.30927 132.311 6.28177 132.349 6.28522L139.222 6.916H139.224C139.226 6.916 139.228 6.91609 139.23 6.91629L139.818 6.97039H139.82C139.858 6.97039 139.889 7.00085 139.889 7.03842C139.889 7.07598 139.858 7.10645 139.82 7.10645H139.815Z" fill="#C7A85C"/>
<path d="M137.697 12.2359C137.672 12.2608 137.632 12.2624 137.605 12.2406L137.6 12.2359L131.733 6.40096L131.728 6.39581C131.706 6.3691 131.708 6.32966 131.733 6.30476C131.758 6.27986 131.798 6.2783 131.825 6.30009L131.83 6.30476L137.697 12.1397L137.701 12.1449C137.723 12.1716 137.722 12.211 137.697 12.2359Z" fill="#C7A85C"/>
<path d="M137.193 12.5615C137.332 12.4236 137.467 12.281 137.588 12.1362L137.589 12.1354L137.59 12.1346C137.986 11.6922 138.322 11.22 138.604 10.7262L138.605 10.7257C138.838 10.3263 139.036 9.91083 139.196 9.48731L139.196 9.48674C139.356 9.07375 139.484 8.65294 139.573 8.22436L139.573 8.22322C139.663 7.82961 139.72 7.43317 139.747 7.03393L139.747 7.03297L139.747 7.03207C139.769 6.80575 139.78 6.57967 139.777 6.35385L139.914 6.35223C139.916 6.58344 139.905 6.8144 139.883 7.04499C139.856 7.45035 139.798 7.85312 139.707 8.25321C139.616 8.68921 139.486 9.11674 139.324 9.5357C139.161 9.96618 138.96 10.3883 138.723 10.794C138.436 11.295 138.095 11.7742 137.693 12.2233C137.568 12.3724 137.43 12.5181 137.29 12.6577L137.193 12.5615Z" fill="#C7A85C"/>
<path d="M137.145 12.5133C137.282 12.3762 137.416 12.2352 137.536 12.0925L137.537 12.0908L137.539 12.0891C137.931 11.6504 138.265 11.1822 138.545 10.6925L138.545 10.6919L138.545 10.6913C138.777 10.2952 138.973 9.88314 139.132 9.46318L139.132 9.46266L139.132 9.46208C139.291 9.05226 139.418 8.63501 139.506 8.21034L139.507 8.2092L139.507 8.208C139.595 7.81794 139.652 7.42502 139.679 7.02915L139.679 7.02729L139.679 7.02538C139.701 6.80121 139.711 6.57758 139.709 6.35446L139.982 6.35117C139.985 6.58383 139.974 6.81601 139.952 7.0475C139.924 7.45609 139.866 7.86216 139.774 8.26564C139.688 8.67844 139.568 9.08348 139.418 9.48063L139.388 9.55995C139.224 9.99381 139.021 10.4192 138.782 10.828C138.493 11.3326 138.15 11.8154 137.745 12.2679C137.618 12.4186 137.479 12.5655 137.338 12.7056L137.145 12.5133Z" fill="#C7A85C"/>
</g>
<defs>
<clipPath id="clip0_155_50747">
<rect width="140" height="13" fill="white"/>
</clipPath>
</defs>
</svg>
