<svg width="500" height="37" viewBox="0 0 500 37" fill="none" xmlns="http://www.w3.org/2000/svg">
<g clip-path="url(#clip0_170_50941)">
<path d="M30 20L470 20L470 19L30 19L30 20Z" fill="#C7A85C"/>
<path d="M30 17L470 17L470 16L30 16L30 17Z" fill="#C7A85C"/>
<path d="M25.667 18.465C25.7433 18.5409 25.867 18.5409 25.9433 18.465C26.0197 18.3891 26.0198 18.266 25.9435 18.1901L9.18358 1.51364C9.14694 1.47717 9.0972 1.45656 9.04536 1.45655C8.99353 1.45654 8.94379 1.47707 8.90713 1.5135C8.50479 1.91365 8.11814 2.32956 7.75517 2.75347V2.75361C6.68377 3.96855 5.76955 5.26951 5.00532 6.62502V6.62516C4.38241 7.69975 3.87017 8.80506 3.44484 9.94083V9.94096C3.01921 11.0465 2.6883 12.1753 2.44398 13.3272V13.3273C2.21572 14.3758 2.05843 15.4407 1.98711 16.5062C1.9317 17.1117 1.9082 17.7241 1.9082 18.3276C1.9082 18.4349 1.99574 18.522 2.10369 18.522C2.21164 18.522 2.29918 18.4349 2.29918 18.3276C2.29918 17.7338 2.32212 17.1334 2.37631 16.5414C2.37645 16.5398 2.37661 16.5382 2.37672 16.5366C2.44218 15.5552 2.58228 14.5729 2.78495 13.6024L2.82632 13.4084L2.82646 13.4075C3.05179 12.345 3.3519 11.3034 3.73321 10.2823L3.81061 10.0783L3.8113 10.0765C4.20382 9.02838 4.67087 8.00811 5.23177 7.01536L5.3452 6.81713L5.3463 6.81508C6.05113 5.56493 6.88546 4.36232 7.85517 3.23265L8.05093 3.0077L8.05285 3.00553C8.3673 2.63829 8.70005 2.27692 9.04577 1.92673L25.667 18.465Z" fill="#C7A85C"/>
<path d="M21.7231 18.4868C21.8115 18.5484 21.9333 18.527 21.9953 18.4391C22.0572 18.3512 22.0357 18.2299 21.9473 18.1683L5.30167 6.56983C5.29528 6.56395 5.28865 6.55834 5.28153 6.55335L3.89435 5.58233C3.81769 5.51174 3.69817 5.51326 3.62365 5.58737C3.54732 5.66328 3.54732 5.7864 3.62365 5.86231L3.63146 5.87008L3.64393 5.88139C3.64821 5.88497 3.65263 5.88839 3.65722 5.8916L5.04454 6.8629C5.05092 6.86874 5.05756 6.87429 5.06467 6.87925L21.7231 18.4868Z" fill="#C7A85C"/>
<path d="M21.7528 18.5042C21.8509 18.549 21.9669 18.5063 22.012 18.4088C22.0571 18.3112 22.014 18.1958 21.916 18.151L3.70971 9.83214C3.69896 9.82723 3.6877 9.82359 3.67629 9.8207L2.17033 9.13566C2.09397 9.08117 1.98717 9.08784 1.91854 9.15609C1.84225 9.232 1.84226 9.35499 1.91854 9.4309L1.92635 9.4388L1.93923 9.45052C1.95258 9.46162 1.96746 9.47082 1.98334 9.47804L3.53902 10.1856L3.55848 10.1932C3.56253 10.1945 3.56668 10.1955 3.5708 10.1966L21.7528 18.5042Z" fill="#C7A85C"/>
<path d="M21.8035 18.5197C21.9014 18.5347 21.9968 18.4739 22.0223 18.3765C22.0494 18.2726 21.9866 18.1664 21.8821 18.1394L2.68311 13.1792C2.67442 13.1769 2.66556 13.1756 2.65667 13.1745L1.02605 12.7516C1.00996 12.7474 0.993361 12.7454 0.976734 12.7454H0.968925C0.861 12.7454 0.773473 12.8323 0.773438 12.9396C0.773438 13.0394 0.849092 13.1218 0.946459 13.1328L2.57694 13.5555L2.60146 13.5602C2.60219 13.5603 2.60292 13.5604 2.60365 13.5605L21.7839 18.5158L21.8035 18.5197Z" fill="#C7A85C"/>
<path d="M21.8174 18.5211C21.9249 18.531 22.0201 18.4523 22.03 18.3454C22.0399 18.2385 21.9608 18.1438 21.8533 18.1339L2.20081 16.3303C2.19486 16.3298 2.18885 16.3295 2.18287 16.3295H2.17643L0.496766 16.1749C0.490798 16.1743 0.484813 16.174 0.47882 16.174H0.463066C0.355132 16.174 0.267601 16.261 0.267578 16.3683C0.267578 16.4757 0.355118 16.5627 0.463066 16.5627H0.469642L2.1493 16.7174L2.16739 16.7183H2.17533L21.8174 18.5211Z" fill="#C7A85C"/>
<path d="M23.2998 18.465C23.3762 18.5409 23.5 18.541 23.5763 18.465C23.6526 18.3891 23.6526 18.266 23.5763 18.1901L8.04356 2.74192L6.83159 1.53696L6.8083 1.51353C6.73197 1.43763 6.60818 1.43763 6.53185 1.51353C6.45552 1.58944 6.45553 1.71255 6.53185 1.78847L23.2998 18.465Z" fill="#C7A85C"/>
<path d="M0.587358 18.325C0.579595 17.6796 0.610496 17.0336 0.672567 16.3866L0.672841 16.3839L0.672978 16.3813C0.74566 15.3115 0.893106 14.249 1.12204 13.1933L1.16903 12.9822L1.1693 12.9806L1.16971 12.9788C1.40932 11.8305 1.74441 10.7017 2.16249 9.59258L2.24716 9.37091L2.24784 9.36941C2.67663 8.23461 3.2008 7.12001 3.81407 6.04461L3.93791 5.83002L3.93887 5.82839C4.72017 4.46129 5.64678 3.15227 6.73296 1.92223L6.83859 1.80343L6.84064 1.80111L6.8427 1.79866C7.18945 1.38486 7.57604 0.977254 7.9722 0.583077L7.69561 0.30827C7.29461 0.707273 6.89929 1.12385 6.54241 1.54974C5.39354 2.83386 4.41758 4.20393 3.59899 5.63628C2.92205 6.7953 2.34725 8.00137 1.88248 9.23112C1.41815 10.4285 1.04787 11.6504 0.787641 12.8965C0.527623 14.0402 0.362355 15.1911 0.283373 16.3497L0.26118 16.5968C0.212866 17.1738 0.189565 17.7514 0.19652 18.3296L0.587358 18.325Z" fill="#C7A85C"/>
<path d="M0.782757 18.3233C0.776046 17.7653 0.79858 17.2063 0.845499 16.6459L0.867144 16.4056L0.867966 16.395C0.940032 15.3343 1.08632 14.2811 1.31319 13.2349L1.35963 13.0258L1.361 13.0189C1.61425 11.8053 1.97534 10.6128 2.42954 9.44155L2.43009 9.43992L2.43077 9.43842C2.85597 8.31315 3.37583 7.20767 3.98413 6.14101L4.10701 5.92833L4.10783 5.92669L4.10879 5.92506C4.88375 4.56905 5.80271 3.27086 6.87987 2.05105L6.98453 1.9332L6.98878 1.92843L6.99289 1.92366C7.33457 1.51591 7.71661 1.11279 8.11033 0.721026L7.55757 0.171548C7.15614 0.570978 6.75845 0.989877 6.39793 1.41956C5.23982 2.71376 4.25622 4.09454 3.43109 5.53785C2.7486 6.70615 2.16893 7.92186 1.70019 9.16184C1.23276 10.3672 0.859656 11.5982 0.597133 12.8544C0.350845 13.9376 0.18889 15.0272 0.104098 16.1232L0.0880698 16.3425C0.0249239 17.0043 -0.00678041 17.6676 0.00121673 18.3325L0.782757 18.3233Z" fill="#C7A85C"/>
<path d="M1.9082 18.3275C1.9082 18.931 1.93155 19.5434 1.98697 20.149H1.98711C2.05844 21.2145 2.21571 22.2795 2.44398 23.3279C2.68843 24.4804 3.01957 25.6098 3.44553 26.7159C3.87101 27.8518 4.38339 28.9574 5.00656 30.032C5.77101 31.3877 6.6854 32.6888 7.75708 33.9038C8.1195 34.3269 8.50547 34.742 8.90713 35.1413L8.92193 35.1546C8.99871 35.2169 9.11203 35.2125 9.18358 35.1413L25.9435 18.4649C26.0198 18.3889 26.0197 18.2658 25.9433 18.1899C25.867 18.1141 25.7433 18.1142 25.667 18.19L9.04577 34.7282C8.70006 34.3781 8.3673 34.0168 8.05285 33.6495C8.05224 33.6488 8.05156 33.6481 8.05093 33.6474C6.99728 32.4529 6.09812 31.1734 5.3463 29.8397C5.34592 29.839 5.34559 29.8383 5.3452 29.8377C4.73347 28.7828 4.22998 27.6964 3.8113 26.5784L3.81061 26.5768C3.39228 25.4905 3.06682 24.3809 2.82646 23.2476L2.82632 23.2465C2.6013 22.2133 2.44654 21.1653 2.37672 20.1185C2.37661 20.1169 2.37645 20.1153 2.37631 20.1137C2.32212 19.5217 2.29918 18.9212 2.29918 18.3275C2.29918 18.2202 2.21164 18.1331 2.10369 18.1331C1.99574 18.1331 1.9082 18.2202 1.9082 18.3275Z" fill="#C7A85C"/>
<path d="M3.62367 31.0687C3.69805 31.1426 3.81727 31.1443 3.89396 31.0741L5.28155 30.103L5.29484 30.0927C5.29721 30.0908 5.29941 30.0886 5.30169 30.0865L21.9473 18.4879C22.0357 18.4263 22.0572 18.3051 21.9953 18.2172C21.9333 18.1293 21.8115 18.1079 21.7231 18.1695L5.06469 29.7769C5.05756 29.7819 5.05095 29.7876 5.04455 29.7934L3.6571 30.7646C3.64792 30.771 3.63928 30.7782 3.63134 30.7861L3.62367 30.7937L3.61025 30.8084C3.54761 30.8848 3.5521 30.9975 3.62367 31.0687Z" fill="#C7A85C"/>
<path d="M21.916 18.5054C22.0141 18.4606 22.0571 18.3452 22.0121 18.2476C21.967 18.1501 21.851 18.1073 21.7529 18.1521L21.916 18.5054ZM1.91859 27.5003C1.98738 27.5688 2.09453 27.5753 2.17093 27.5204L3.67716 26.8356C3.68829 26.8327 3.69926 26.8291 3.70977 26.8243L21.916 18.5054L21.7529 18.1521L3.5714 26.4597C3.56036 26.4625 3.54951 26.4661 3.53907 26.4709L1.98339 27.1783C1.96221 27.1879 1.94287 27.2013 1.9264 27.2176L1.91859 27.2254L1.90517 27.2401C1.84253 27.3165 1.84702 27.4292 1.91859 27.5003Z" fill="#C7A85C"/>
<path d="M0.976734 23.9097L1.00167 23.908C1.00987 23.907 1.01803 23.9055 1.02605 23.9034L2.65708 23.4805C2.66584 23.4795 2.67455 23.4779 2.68311 23.4757L21.8821 18.5157C21.9866 18.4887 22.0494 18.3826 22.0223 18.2786C21.9969 18.1812 21.9014 18.1203 21.8035 18.1353L21.7839 18.1394L2.6031 23.0948C2.59426 23.0958 2.58544 23.0972 2.5768 23.0994L0.9455 23.5225C0.848609 23.534 0.773438 23.6158 0.773438 23.7152C0.773438 23.8226 0.860978 23.9097 0.968925 23.9097H0.976734Z" fill="#C7A85C"/>
<path d="M0.47882 20.4814L0.496766 20.4806L2.17629 20.3259H2.18287C2.18885 20.3259 2.19485 20.3256 2.20081 20.325L21.8533 18.5214L21.8732 18.5186C21.9704 18.4996 22.0393 18.4102 22.03 18.31C22.0201 18.2031 21.9249 18.1245 21.8174 18.1343L2.17382 19.9371H2.16725C2.16123 19.9371 2.15516 19.9374 2.14917 19.938L0.469642 20.0926H0.463066C0.355118 20.0926 0.267578 20.1797 0.267578 20.287C0.267578 20.3944 0.355118 20.4814 0.463066 20.4814H0.47882Z" fill="#C7A85C"/>
<path d="M6.53187 35.1413C6.60344 35.2125 6.71676 35.2169 6.79353 35.1546L6.80832 35.1413L23.5763 18.4647L23.5897 18.45C23.6523 18.3736 23.6479 18.2609 23.5763 18.1898C23.5047 18.1186 23.3914 18.1142 23.3147 18.1764L23.2999 18.1898L6.53187 34.8663L6.51845 34.8811C6.45581 34.9574 6.46031 35.0701 6.53187 35.1413Z" fill="#C7A85C"/>
<path d="M7.9722 36.0727C7.57604 35.6785 7.18945 35.2711 6.84269 34.8573L6.84064 34.8548L6.83859 34.8525C5.7067 33.5881 4.74538 32.2386 3.93887 30.8274L3.93805 30.8258C3.27128 29.6844 2.70521 28.4969 2.24784 27.2865L2.24716 27.2849C1.78944 26.1046 1.42535 24.9019 1.16957 23.677L1.16875 23.6737C0.913127 22.5487 0.750505 21.4157 0.672978 20.2746L0.672841 20.2719L0.672567 20.2693C0.610496 19.6225 0.579597 18.9764 0.587358 18.331L0.196519 18.3263C0.188574 18.9871 0.22013 19.6472 0.283372 20.3063C0.362357 21.4648 0.527676 22.6159 0.787504 23.7594C1.04792 25.0055 1.41815 26.2274 1.88248 27.4248C2.34747 28.6551 2.9226 29.8616 3.59995 31.0211C4.41836 32.4529 5.39381 33.8225 6.54227 35.1062C6.89916 35.5321 7.2946 35.9486 7.69561 36.3477L7.9722 36.0727Z" fill="#C7A85C"/>
<path d="M8.11033 35.9338C7.71663 35.542 7.33456 35.139 6.99289 34.7313L6.98878 34.7264L6.98453 34.7216C5.8621 33.4677 4.90873 32.1296 4.10879 30.7299L4.10783 30.7283L4.10701 30.7266C3.44563 29.5945 2.88431 28.4168 2.43077 27.2165L2.43009 27.215L2.42954 27.2134C1.97533 26.0421 1.61431 24.8496 1.36086 23.6359L1.36018 23.6326L1.35936 23.6292C1.10604 22.5144 0.944837 21.3914 0.867967 20.26L0.867556 20.2547L0.867145 20.2492C0.805661 19.6085 0.775089 18.9694 0.782757 18.3317L0.00121707 18.3223C-0.00678092 18.9872 0.0249197 19.6508 0.0880701 20.3124C0.167413 21.4802 0.333834 22.6408 0.595489 23.7939C0.84185 24.9737 1.18576 26.1313 1.61361 27.2664L1.70019 27.4931C2.16893 28.7331 2.7486 29.9488 3.43109 31.1171C4.25561 32.5593 5.23834 33.9392 6.39533 35.2325C6.7565 35.6632 7.15522 36.0831 7.55757 36.4834L8.11033 35.9338Z" fill="#C7A85C"/>
<path d="M474.333 18.465C474.257 18.5409 474.133 18.5409 474.057 18.465C473.98 18.3891 473.98 18.266 474.057 18.1901L490.816 1.51364C490.853 1.47717 490.903 1.45656 490.955 1.45655C491.006 1.45654 491.056 1.47707 491.093 1.5135C491.495 1.91365 491.882 2.32956 492.245 2.75347V2.75361C493.316 3.96855 494.23 5.26951 494.995 6.62502V6.62516C495.618 7.69975 496.13 8.80506 496.555 9.94083V9.94096C496.981 11.0465 497.312 12.1753 497.556 13.3272V13.3273C497.784 14.3758 497.942 15.4407 498.013 16.5062C498.068 17.1117 498.092 17.7241 498.092 18.3276C498.092 18.4349 498.004 18.522 497.896 18.522C497.788 18.522 497.701 18.4349 497.701 18.3276C497.701 17.7338 497.678 17.1334 497.624 16.5414C497.624 16.5398 497.623 16.5382 497.623 16.5366C497.558 15.5552 497.418 14.5729 497.215 13.6024L497.174 13.4084L497.174 13.4075C496.948 12.345 496.648 11.3034 496.267 10.2823L496.189 10.0783L496.189 10.0765C495.796 9.02838 495.329 8.00811 494.768 7.01536L494.655 6.81713L494.654 6.81508C493.949 5.56493 493.115 4.36232 492.145 3.23265L491.949 3.0077L491.947 3.00553C491.633 2.63829 491.3 2.27692 490.954 1.92673L474.333 18.465Z" fill="#C7A85C"/>
<path d="M478.277 18.4868C478.189 18.5484 478.067 18.527 478.005 18.4391C477.943 18.3512 477.964 18.2299 478.053 18.1683L494.698 6.56983C494.705 6.56395 494.711 6.55834 494.718 6.55335L496.106 5.58233C496.182 5.51174 496.302 5.51326 496.376 5.58737C496.453 5.66328 496.453 5.7864 496.376 5.86231L496.369 5.87008L496.356 5.88139C496.352 5.88497 496.347 5.88839 496.343 5.8916L494.955 6.8629C494.949 6.86874 494.942 6.87429 494.935 6.87925L478.277 18.4868Z" fill="#C7A85C"/>
<path d="M478.247 18.5042C478.149 18.549 478.033 18.5063 477.988 18.4088C477.943 18.3112 477.986 18.1958 478.084 18.151L496.29 9.83214C496.301 9.82723 496.312 9.82359 496.324 9.8207L497.83 9.13566C497.906 9.08117 498.013 9.08784 498.081 9.15609C498.158 9.232 498.158 9.35499 498.081 9.4309L498.074 9.4388L498.061 9.45052C498.047 9.46162 498.033 9.47082 498.017 9.47804L496.461 10.1856L496.442 10.1932C496.437 10.1945 496.433 10.1955 496.429 10.1966L478.247 18.5042Z" fill="#C7A85C"/>
<path d="M478.196 18.5197C478.099 18.5347 478.003 18.4739 477.978 18.3765C477.951 18.2726 478.013 18.1664 478.118 18.1394L497.317 13.1792C497.326 13.1769 497.334 13.1756 497.343 13.1745L498.974 12.7516C498.99 12.7474 499.007 12.7454 499.023 12.7454H499.031C499.139 12.7454 499.227 12.8323 499.227 12.9396C499.227 13.0394 499.151 13.1218 499.054 13.1328L497.423 13.5555L497.399 13.5602C497.398 13.5603 497.397 13.5604 497.396 13.5605L478.216 18.5158L478.196 18.5197Z" fill="#C7A85C"/>
<path d="M478.183 18.5211C478.075 18.531 477.98 18.4523 477.97 18.3454C477.96 18.2385 478.039 18.1438 478.147 18.1339L497.799 16.3303C497.805 16.3298 497.811 16.3295 497.817 16.3295H497.824L499.503 16.1749C499.509 16.1743 499.515 16.174 499.521 16.174H499.537C499.645 16.174 499.732 16.261 499.732 16.3683C499.732 16.4757 499.645 16.5627 499.537 16.5627H499.53L497.851 16.7174L497.833 16.7183H497.825L478.183 18.5211Z" fill="#C7A85C"/>
<path d="M476.7 18.465C476.624 18.5409 476.5 18.541 476.424 18.465C476.347 18.3891 476.347 18.266 476.424 18.1901L491.956 2.74192L493.168 1.53696L493.192 1.51353C493.268 1.43763 493.392 1.43763 493.468 1.51353C493.544 1.58944 493.544 1.71255 493.468 1.78847L476.7 18.465Z" fill="#C7A85C"/>
<path d="M499.413 18.325C499.42 17.6796 499.39 17.0336 499.327 16.3866L499.327 16.3839L499.327 16.3813C499.254 15.3115 499.107 14.249 498.878 13.1933L498.831 12.9822L498.831 12.9806L498.83 12.9788C498.591 11.8305 498.256 10.7017 497.838 9.59258L497.753 9.37091L497.752 9.36941C497.323 8.23461 496.799 7.12001 496.186 6.04461L496.062 5.83002L496.061 5.82839C495.28 4.46129 494.353 3.15227 493.267 1.92223L493.161 1.80343L493.159 1.80111L493.157 1.79866C492.811 1.38486 492.424 0.977254 492.028 0.583077L492.304 0.30827C492.705 0.707273 493.101 1.12385 493.458 1.54974C494.606 2.83386 495.582 4.20393 496.401 5.63628C497.078 6.7953 497.653 8.00137 498.118 9.23112C498.582 10.4285 498.952 11.6504 499.212 12.8965C499.472 14.0402 499.638 15.1911 499.717 16.3497L499.739 16.5968C499.787 17.1738 499.81 17.7514 499.803 18.3296L499.413 18.325Z" fill="#C7A85C"/>
<path d="M499.217 18.3233C499.224 17.7653 499.201 17.2063 499.155 16.6459L499.133 16.4056L499.132 16.395C499.06 15.3343 498.914 14.2811 498.687 13.2349L498.64 13.0258L498.639 13.0189C498.386 11.8053 498.025 10.6128 497.57 9.44155L497.57 9.43992L497.569 9.43842C497.144 8.31315 496.624 7.20767 496.016 6.14101L495.893 5.92833L495.892 5.92669L495.891 5.92506C495.116 4.56905 494.197 3.27086 493.12 2.05105L493.015 1.9332L493.011 1.92843L493.007 1.92366C492.665 1.51591 492.283 1.11279 491.89 0.721026L492.442 0.171548C492.844 0.570978 493.242 0.989877 493.602 1.41956C494.76 2.71376 495.744 4.09454 496.569 5.53785C497.251 6.70615 497.831 7.92186 498.3 9.16184C498.767 10.3672 499.14 11.5982 499.403 12.8544C499.649 13.9376 499.811 15.0272 499.896 16.1232L499.912 16.3425C499.975 17.0043 500.007 17.6676 499.999 18.3325L499.217 18.3233Z" fill="#C7A85C"/>
<path d="M498.092 18.3275C498.092 18.931 498.068 19.5434 498.013 20.149H498.013C497.942 21.2145 497.784 22.2795 497.556 23.3279C497.312 24.4804 496.98 25.6098 496.554 26.7159C496.129 27.8518 495.617 28.9574 494.993 30.032C494.229 31.3877 493.315 32.6888 492.243 33.9038C491.88 34.3269 491.495 34.742 491.093 35.1413L491.078 35.1546C491.001 35.2169 490.888 35.2125 490.816 35.1413L474.057 18.4649C473.98 18.3889 473.98 18.2658 474.057 18.1899C474.133 18.1141 474.257 18.1142 474.333 18.19L490.954 34.7282C491.3 34.3781 491.633 34.0168 491.947 33.6495C491.948 33.6488 491.948 33.6481 491.949 33.6474C493.003 32.4529 493.902 31.1734 494.654 29.8397C494.654 29.839 494.654 29.8383 494.655 29.8377C495.267 28.7828 495.77 27.6964 496.189 26.5784L496.189 26.5768C496.608 25.4905 496.933 24.3809 497.174 23.2476L497.174 23.2465C497.399 22.2133 497.553 21.1653 497.623 20.1185C497.623 20.1169 497.624 20.1153 497.624 20.1137C497.678 19.5217 497.701 18.9212 497.701 18.3275C497.701 18.2202 497.788 18.1331 497.896 18.1331C498.004 18.1331 498.092 18.2202 498.092 18.3275Z" fill="#C7A85C"/>
<path d="M496.376 31.0687C496.302 31.1426 496.183 31.1443 496.106 31.0741L494.718 30.103L494.705 30.0927C494.703 30.0908 494.701 30.0886 494.698 30.0865L478.053 18.4879C477.964 18.4263 477.943 18.3051 478.005 18.2172C478.067 18.1293 478.189 18.1079 478.277 18.1695L494.935 29.7769C494.942 29.7819 494.949 29.7876 494.955 29.7934L496.343 30.7646C496.352 30.771 496.361 30.7782 496.369 30.7861L496.376 30.7937L496.39 30.8084C496.452 30.8848 496.448 30.9975 496.376 31.0687Z" fill="#C7A85C"/>
<path d="M478.084 18.5054C477.986 18.4606 477.943 18.3452 477.988 18.2476C478.033 18.1501 478.149 18.1073 478.247 18.1521L478.084 18.5054ZM498.081 27.5003C498.013 27.5688 497.905 27.5753 497.829 27.5204L496.323 26.8356C496.312 26.8327 496.301 26.8291 496.29 26.8243L478.084 18.5054L478.247 18.1521L496.429 26.4597C496.44 26.4625 496.45 26.4661 496.461 26.4709L498.017 27.1783C498.038 27.1879 498.057 27.2013 498.074 27.2176L498.081 27.2254L498.095 27.2401C498.157 27.3165 498.153 27.4292 498.081 27.5003Z" fill="#C7A85C"/>
<path d="M499.023 23.9097L498.998 23.908C498.99 23.907 498.982 23.9055 498.974 23.9034L497.343 23.4805C497.334 23.4795 497.325 23.4779 497.317 23.4757L478.118 18.5157C478.013 18.4887 477.951 18.3826 477.978 18.2786C478.003 18.1812 478.099 18.1203 478.196 18.1353L478.216 18.1394L497.397 23.0948C497.406 23.0958 497.415 23.0972 497.423 23.0994L499.055 23.5225C499.151 23.534 499.227 23.6158 499.227 23.7152C499.227 23.8226 499.139 23.9097 499.031 23.9097H499.023Z" fill="#C7A85C"/>
<path d="M499.521 20.4814L499.503 20.4806L497.824 20.3259H497.817C497.811 20.3259 497.805 20.3256 497.799 20.325L478.147 18.5214L478.127 18.5186C478.03 18.4996 477.961 18.4102 477.97 18.31C477.98 18.2031 478.075 18.1245 478.183 18.1343L497.826 19.9371H497.833C497.839 19.9371 497.845 19.9374 497.851 19.938L499.53 20.0926H499.537C499.645 20.0926 499.732 20.1797 499.732 20.287C499.732 20.3944 499.645 20.4814 499.537 20.4814H499.521Z" fill="#C7A85C"/>
<path d="M493.468 35.1413C493.397 35.2125 493.283 35.2169 493.206 35.1546L493.192 35.1413L476.424 18.4647L476.41 18.45C476.348 18.3736 476.352 18.2609 476.424 18.1898C476.495 18.1186 476.609 18.1142 476.685 18.1764L476.7 18.1898L493.468 34.8663L493.482 34.8811C493.544 34.9574 493.54 35.0701 493.468 35.1413Z" fill="#C7A85C"/>
<path d="M492.028 36.0727C492.424 35.6785 492.811 35.2711 493.157 34.8573L493.159 34.8548L493.161 34.8525C494.293 33.5881 495.255 32.2386 496.061 30.8274L496.062 30.8258C496.729 29.6844 497.295 28.4969 497.752 27.2865L497.753 27.2849C498.211 26.1046 498.575 24.9019 498.83 23.677L498.831 23.6737C499.087 22.5487 499.249 21.4157 499.327 20.2746L499.327 20.2719L499.327 20.2693C499.39 19.6225 499.42 18.9764 499.413 18.331L499.803 18.3263C499.811 18.9871 499.78 19.6472 499.717 20.3063C499.638 21.4648 499.472 22.6159 499.212 23.7594C498.952 25.0055 498.582 26.2274 498.118 27.4248C497.653 28.6551 497.077 29.8616 496.4 31.0211C495.582 32.4529 494.606 33.8225 493.458 35.1062C493.101 35.5321 492.705 35.9486 492.304 36.3477L492.028 36.0727Z" fill="#C7A85C"/>
<path d="M491.89 35.9338C492.283 35.542 492.665 35.139 493.007 34.7313L493.011 34.7264L493.015 34.7216C494.138 33.4677 495.091 32.1296 495.891 30.7299L495.892 30.7283L495.893 30.7266C496.554 29.5945 497.116 28.4168 497.569 27.2165L497.57 27.215L497.57 27.2134C498.025 26.0421 498.386 24.8496 498.639 23.6359L498.64 23.6326L498.641 23.6292C498.894 22.5144 499.055 21.3914 499.132 20.26L499.132 20.2547L499.133 20.2492C499.194 19.6085 499.225 18.9694 499.217 18.3317L499.999 18.3223C500.007 18.9872 499.975 19.6508 499.912 20.3124C499.833 21.4802 499.666 22.6408 499.405 23.7939C499.158 24.9737 498.814 26.1313 498.386 27.2664L498.3 27.4931C497.831 28.7331 497.251 29.9488 496.569 31.1171C495.744 32.5593 494.762 33.9392 493.605 35.2325C493.243 35.6632 492.845 36.0831 492.442 36.4834L491.89 35.9338Z" fill="#C7A85C"/>
</g>
<defs>
<clipPath id="clip0_170_50941">
<rect width="500" height="37" fill="white"/>
</clipPath>
</defs>
</svg>
