<svg width="814" height="76" viewBox="0 0 814 76" fill="none" xmlns="http://www.w3.org/2000/svg">
<g clip-path="url(#clip0_153_50616)">
<path d="M62.787 39C61.2479 39 60 38.5523 60 38C60 37.4477 61.2479 37 62.787 37L753 37L753 39L62.787 39Z" fill="#C7A85C"/>
<path d="M183 55L631 55L631 54L183 54L183 55Z" fill="#C7A85C"/>
<path d="M183 23L631 23L631 22L183 22L183 23Z" fill="#C7A85C"/>
<path d="M52.2169 38.4206C52.3721 38.5758 52.6237 38.5758 52.779 38.4206C52.9343 38.2654 52.9345 38.0135 52.7793 37.8582L18.6836 3.74636C18.609 3.67177 18.5078 3.62961 18.4024 3.62958C18.2969 3.62957 18.1957 3.67155 18.1212 3.74608C17.3027 4.56459 16.5161 5.41534 15.7777 6.28245V6.28273C13.5981 8.7679 11.7382 11.429 10.1835 14.2018V14.202C8.91625 16.4001 7.87416 18.6611 7.0089 20.9843V20.9846C6.143 23.246 5.46981 25.5548 4.97278 27.9112V27.9114C4.50841 30.0561 4.18843 32.2343 4.04334 34.4139C3.93061 35.6525 3.88281 36.905 3.88281 38.1394C3.88281 38.359 4.0609 38.5371 4.28051 38.5371C4.50011 38.5371 4.6782 38.359 4.6782 38.1394C4.6782 36.925 4.72488 35.6968 4.8351 34.4858C4.8354 34.4825 4.83572 34.4792 4.83594 34.476C4.96911 32.4685 5.25414 30.4592 5.66644 28.4741L5.7506 28.0773L5.75088 28.0753C6.20929 25.9021 6.81981 23.7714 7.59554 21.6827L7.753 21.2655L7.7544 21.2618C8.55292 19.1179 9.50308 17.0309 10.6442 15.0002L10.8749 14.5947L10.8771 14.5905C12.311 12.0333 14.0084 9.57337 15.9811 7.26261L16.3793 6.80249L16.3832 6.79803C17.0229 6.04684 17.6999 5.30766 18.4032 4.59135L52.2169 38.4206Z" fill="#C7A85C"/>
<path d="M44.1911 38.4652C44.3709 38.5911 44.6189 38.5474 44.7449 38.3676C44.8709 38.1878 44.8272 37.9396 44.6473 37.8136L10.7841 14.0889C10.7711 14.0768 10.7576 14.0654 10.7431 14.0551L7.92106 12.0689C7.7651 11.9245 7.52196 11.9276 7.37037 12.0792C7.21508 12.2345 7.21509 12.4863 7.37037 12.6416L7.38625 12.6575L7.41161 12.6806C7.42033 12.688 7.42932 12.695 7.43865 12.7015L10.261 14.6883C10.2739 14.7003 10.2875 14.7116 10.3019 14.7218L44.1911 38.4652Z" fill="#C7A85C"/>
<path d="M44.2536 38.5002C44.4531 38.5918 44.6892 38.5046 44.7809 38.3051C44.8726 38.1056 44.785 37.8695 44.5855 37.7778L7.5474 20.7615C7.52551 20.7514 7.5026 20.744 7.4794 20.7381L4.41574 19.3368C4.26038 19.2253 4.04312 19.239 3.9035 19.3786C3.7483 19.5339 3.74832 19.7854 3.9035 19.9407L3.91939 19.9569L3.94559 19.9809C3.97276 20.0036 4.00302 20.0224 4.03532 20.0371L7.20015 21.4844L7.23972 21.5C7.24796 21.5027 7.25641 21.5048 7.2648 21.507L44.2536 38.5002Z" fill="#C7A85C"/>
<path d="M44.3609 38.532C44.5601 38.5627 44.7542 38.4383 44.806 38.2391C44.8612 38.0265 44.7334 37.8094 44.5209 37.7542L5.46309 27.6078C5.44542 27.6032 5.42739 27.6005 5.4093 27.5984L2.09203 26.7333C2.0593 26.7248 2.02553 26.7205 1.9917 26.7205H1.97582C1.75626 26.7205 1.5782 26.8983 1.57813 27.1179C1.57813 27.322 1.73203 27.4904 1.93011 27.5131L5.2471 28.3776L5.29699 28.3873C5.29847 28.3875 5.29996 28.3877 5.30145 28.3879L44.3211 38.5239L44.3609 38.532Z" fill="#C7A85C"/>
<path d="M44.3831 38.5354C44.6018 38.5556 44.7955 38.3946 44.8156 38.1759C44.8358 37.9572 44.6748 37.7635 44.4561 37.7434L4.47587 34.054C4.46375 34.0529 4.45152 34.0524 4.43936 34.0524H4.42626L1.00922 33.7361C0.997079 33.7349 0.984904 33.7344 0.972711 33.7344H0.940662C0.721086 33.7344 0.543016 33.9122 0.542969 34.1318C0.542969 34.3514 0.721057 34.5295 0.940662 34.5295H0.954039L4.37108 34.8458L4.40786 34.8478H4.42403L44.3831 38.5354Z" fill="#C7A85C"/>
<path d="M47.3985 38.4202C47.5538 38.5754 47.8056 38.5754 47.9609 38.4202C48.1161 38.2649 48.1161 38.0131 47.9609 37.8578L16.3617 6.25832L13.8961 3.79357L13.8488 3.74563C13.6935 3.59039 13.4416 3.59039 13.2864 3.74563C13.1311 3.90091 13.1311 4.15275 13.2864 4.30803L47.3985 38.4202Z" fill="#C7A85C"/>
<path d="M1.19405 38.1346C1.17825 36.8144 1.24112 35.4931 1.36739 34.1696L1.36795 34.164L1.36823 34.1588C1.51609 31.9706 1.81605 29.7971 2.28178 27.6376L2.37737 27.206L2.37793 27.2026L2.37877 27.199C2.86622 24.8501 3.54791 22.5412 4.39844 20.2724L4.57068 19.819L4.57207 19.8159C5.44439 17.4946 6.51074 15.2147 7.75835 13.015L8.01029 12.576L8.01224 12.5727C9.60168 9.77628 11.4867 7.09866 13.6964 4.5826L13.9113 4.33958L13.9155 4.33484L13.9197 4.32982C14.6251 3.48339 15.4116 2.64963 16.2175 1.84334L15.6548 1.28122C14.839 2.09738 14.0348 2.9495 13.3088 3.82066C10.9716 6.44734 8.98611 9.24984 7.3208 12.1797C5.94366 14.5505 4.77431 17.0175 3.8288 19.533C2.88418 21.9823 2.13089 24.4817 1.60149 27.0307C1.07252 29.37 0.736309 31.7242 0.57563 34.0941L0.530482 34.5996C0.432195 35.7799 0.384792 36.9612 0.39894 38.144L1.19405 38.1346Z" fill="#C7A85C"/>
<path d="M1.59241 38.1295C1.57876 36.9881 1.6246 35.8448 1.72005 34.6985L1.76409 34.2069L1.76576 34.1852C1.91237 32.0155 2.20996 29.8613 2.67151 27.7212L2.76598 27.2934L2.76877 27.2795C3.28397 24.7969 4.01856 22.3577 4.94256 19.9619L4.94368 19.9585L4.94507 19.9554C5.81007 17.6537 6.86766 15.3924 8.10516 13.2105L8.35514 12.7755L8.35681 12.7722L8.35877 12.7688C9.93531 9.9951 11.8048 7.33964 13.9961 4.8445L14.2091 4.60344L14.2177 4.59368L14.2261 4.58393C14.9212 3.74986 15.6984 2.92527 16.4993 2.12392L15.3748 0.999952C14.5582 1.81699 13.7491 2.67385 13.0157 3.55277C10.6597 6.20007 8.65869 9.02448 6.98008 11.9768C5.59165 14.3666 4.41239 16.8533 3.45881 19.3897C2.50789 21.8553 1.74885 24.3733 1.21478 26.9428C0.713745 29.1587 0.384272 31.3873 0.211773 33.6292L0.179166 34.0779C0.0507043 35.4315 -0.0137938 36.7883 0.00247528 38.1484L1.59241 38.1295Z" fill="#C7A85C"/>
<path d="M3.88281 38.1387C3.88282 39.3731 3.93032 40.6259 4.04306 41.8645H4.04334C4.18845 44.044 4.50839 46.2226 4.97278 48.3669C5.47007 50.7245 6.14374 53.0346 7.01029 55.2972C7.87588 57.6207 8.91823 59.8822 10.186 62.0802C11.7412 64.8535 13.6014 67.5149 15.7816 70.0001C16.5188 70.8656 17.304 71.7147 18.1212 72.5315L18.1513 72.5588C18.3075 72.6862 18.538 72.6771 18.6836 72.5315L52.7793 38.4196C52.9345 38.2643 52.9343 38.0124 52.779 37.8572C52.6237 37.7021 52.3721 37.7022 52.2169 37.8575L18.4032 71.6865C17.6999 70.9704 17.023 70.2313 16.3832 69.4801C16.382 69.4786 16.3806 69.4771 16.3793 69.4756C14.2358 67.0322 12.4066 64.4151 10.8771 61.687C10.8764 61.6856 10.8757 61.6842 10.8749 61.6828C9.63043 59.5252 8.60616 57.3029 7.7544 55.016L7.753 55.0126C6.90196 52.7906 6.23986 50.5209 5.75088 48.2028L5.7506 48.2006C5.29282 46.0871 4.97799 43.9434 4.83594 41.8021C4.83572 41.7988 4.8354 41.7956 4.8351 41.7923C4.72488 40.5813 4.6782 39.3531 4.6782 38.1387C4.6782 37.9191 4.50011 37.741 4.28051 37.741C4.0609 37.741 3.88281 37.9191 3.88281 38.1387Z" fill="#C7A85C"/>
<path d="M7.3704 64.1992C7.52171 64.3505 7.76426 64.3539 7.92026 64.2104L10.7431 62.2238L10.7702 62.2029C10.775 62.1989 10.7795 62.1944 10.7841 62.1901L44.6474 38.4651C44.8272 38.3391 44.8709 38.0912 44.7449 37.9113C44.6189 37.7315 44.371 37.6878 44.1911 37.8138L10.302 61.5569C10.2875 61.5671 10.274 61.5787 10.261 61.5907L7.4384 63.5772C7.41974 63.5903 7.40215 63.6051 7.38601 63.6212L7.3704 63.6368L7.34309 63.6669C7.21566 63.8231 7.22481 64.0536 7.3704 64.1992Z" fill="#C7A85C"/>
<path d="M44.5856 38.5007C44.7852 38.409 44.8726 38.173 44.781 37.9734C44.6893 37.7739 44.4532 37.6865 44.2537 37.7781L44.5856 38.5007ZM3.90361 56.8999C4.04355 57.0399 4.26153 57.0532 4.41696 56.9409L7.48117 55.5402C7.50382 55.5343 7.52612 55.5269 7.5475 55.5171L44.5856 38.5007L44.2537 37.7781L7.26602 54.7713C7.24355 54.7771 7.22148 54.7845 7.20025 54.7942L4.03543 56.2411C3.99234 56.2608 3.953 56.2882 3.91949 56.3217L3.90361 56.3375L3.87629 56.3676C3.74886 56.5238 3.75801 56.7544 3.90361 56.8999Z" fill="#C7A85C"/>
<path d="M1.9917 49.5576L2.04243 49.5543C2.05912 49.5521 2.07571 49.549 2.09203 49.5448L5.41014 48.6797C5.42796 48.6776 5.44568 48.6745 5.46309 48.67L44.5209 38.5242C44.7334 38.469 44.8612 38.2518 44.806 38.0393C44.7542 37.84 44.5601 37.7154 44.3609 37.7461L44.3211 37.7545L5.30033 47.8908C5.28233 47.8929 5.2644 47.8957 5.24682 47.9002L1.92816 48.7656C1.73105 48.7891 1.57813 48.9565 1.57813 49.1599C1.57813 49.3795 1.75621 49.5576 1.97582 49.5576H1.9917Z" fill="#C7A85C"/>
<path d="M0.972711 42.5444L1.00922 42.5428L4.42598 42.2262H4.43936C4.45153 42.2262 4.46375 42.2256 4.47587 42.2245L44.4561 38.5352L44.4965 38.5293C44.6943 38.4906 44.8346 38.3076 44.8156 38.1026C44.7954 37.884 44.6018 37.7232 44.3831 37.7434L4.42096 41.4311H4.40759C4.39534 41.4311 4.38299 41.4316 4.3708 41.4327L0.954039 41.749H0.940662C0.721057 41.749 0.542969 41.9271 0.542969 42.1467C0.542969 42.3663 0.721057 42.5444 0.940662 42.5444H0.972711Z" fill="#C7A85C"/>
<path d="M13.2864 72.5329C13.432 72.6785 13.6625 72.6877 13.8187 72.5602L13.8488 72.5329L47.961 38.4208L47.9883 38.3907C48.1156 38.2345 48.1065 38.004 47.961 37.8584C47.8154 37.7128 47.5848 37.7037 47.4287 37.8311L47.3986 37.8584L13.2864 71.9705L13.2591 72.0006C13.1317 72.1568 13.1408 72.3873 13.2864 72.5329Z" fill="#C7A85C"/>
<path d="M16.2175 74.4352C15.4116 73.6289 14.6251 72.7954 13.9197 71.949L13.9155 71.9439L13.9113 71.9392C11.6086 69.3528 9.65296 66.5925 8.01224 63.7058L8.01057 63.7025C6.65411 61.3677 5.50253 58.9388 4.57207 56.4629L4.57067 56.4595C3.63952 54.0452 2.89883 51.5851 2.37849 49.0795L2.37681 49.0728C1.85678 46.7717 1.52595 44.4541 1.36823 42.12L1.36795 42.1144L1.36739 42.1092C1.24112 40.7861 1.17826 39.4644 1.19405 38.1442L0.398939 38.1347C0.382775 39.4864 0.446972 40.8366 0.57563 42.1847C0.736312 44.5545 1.07263 46.9092 1.60122 49.2481C2.13099 51.7971 2.88417 54.2965 3.8288 56.7458C4.77476 59.2624 5.94476 61.7303 7.32276 64.1021C8.9877 67.0309 10.9721 69.8324 13.3085 72.4581C14.0345 73.3293 14.839 74.1814 15.6548 74.9976L16.2175 74.4352Z" fill="#C7A85C"/>
<path d="M16.4993 74.1546C15.6984 73.3533 14.9211 72.5289 14.2261 71.6948L14.2177 71.6848L14.2091 71.675C11.9256 69.1102 9.98613 66.3731 8.35877 63.5099L8.35682 63.5066L8.35514 63.5033C7.00966 61.1874 5.86772 58.7785 4.94507 56.3233L4.94368 56.3203L4.94256 56.3169C4.01854 53.921 3.28409 51.4817 2.76849 48.999L2.7671 48.9923L2.76542 48.9854C2.25008 46.705 1.92214 44.4079 1.76576 42.0936L1.76492 42.0827L1.76409 42.0716C1.63901 40.761 1.57681 39.4537 1.59241 38.1493L0.00247596 38.13C-0.0137948 39.4902 0.0506957 40.8476 0.179166 42.2009C0.340578 44.5896 0.679139 46.9635 1.21144 49.3223C1.71263 51.7356 2.41226 54.1035 3.28268 56.4253L3.45881 56.8891C4.41239 59.4255 5.59165 61.9122 6.98008 64.302C8.65745 67.2521 10.6567 70.0745 13.0104 72.7201C13.7452 73.6012 14.5563 74.4599 15.3748 75.2788L16.4993 74.1546Z" fill="#C7A85C"/>
<path d="M761.68 37.4206C761.524 37.5758 761.273 37.5758 761.117 37.4206C760.962 37.2654 760.962 37.0135 761.117 36.8582L795.213 2.74636C795.287 2.67177 795.389 2.62961 795.494 2.62958C795.6 2.62957 795.701 2.67155 795.775 2.74608C796.594 3.56459 797.38 4.41534 798.119 5.28245V5.28273C800.298 7.7679 802.158 10.429 803.713 13.2018V13.202C804.98 15.4001 806.022 17.6611 806.888 19.9843V19.9846C807.753 22.246 808.427 24.5548 808.924 26.9112V26.9114C809.388 29.0561 809.708 31.2343 809.853 33.4139C809.966 34.6525 810.014 35.905 810.014 37.1394C810.014 37.359 809.836 37.5371 809.616 37.5371C809.396 37.5371 809.218 37.359 809.218 37.1394C809.218 35.925 809.172 34.6968 809.061 33.4858C809.061 33.4825 809.061 33.4792 809.061 33.476C808.927 31.4685 808.642 29.4592 808.23 27.4741L808.146 27.0773L808.146 27.0753C807.687 24.9021 807.077 22.7714 806.301 20.6827L806.143 20.2655L806.142 20.2618C805.344 18.1179 804.393 16.0309 803.252 14.0002L803.022 13.5947L803.019 13.5905C801.585 11.0333 799.888 8.57337 797.915 6.26261L797.517 5.80249L797.513 5.79803C796.874 5.04684 796.197 4.30766 795.493 3.59135L761.68 37.4206Z" fill="#C7A85C"/>
<path d="M769.705 37.4652C769.526 37.5911 769.278 37.5474 769.152 37.3676C769.026 37.1878 769.069 36.9396 769.249 36.8136L803.112 13.0889C803.125 13.0768 803.139 13.0654 803.153 13.0551L805.975 11.0689C806.131 10.9245 806.375 10.9276 806.526 11.0792C806.681 11.2345 806.681 11.4863 806.526 11.6416L806.51 11.6575L806.485 11.6806C806.476 11.688 806.467 11.695 806.458 11.7015L803.636 13.6883C803.623 13.7003 803.609 13.7116 803.595 13.7218L769.705 37.4652Z" fill="#C7A85C"/>
<path d="M769.643 37.5002C769.443 37.5918 769.207 37.5046 769.116 37.3051C769.024 37.1056 769.111 36.8695 769.311 36.7778L806.349 19.7615C806.371 19.7514 806.394 19.744 806.417 19.7381L809.481 18.3368C809.636 18.2253 809.853 18.239 809.993 18.3786C810.148 18.5339 810.148 18.7854 809.993 18.9407L809.977 18.9569L809.951 18.9809C809.924 19.0036 809.893 19.0224 809.861 19.0371L806.696 20.4844L806.657 20.5C806.649 20.5027 806.64 20.5048 806.632 20.507L769.643 37.5002Z" fill="#C7A85C"/>
<path d="M769.536 37.532C769.336 37.5627 769.142 37.4383 769.09 37.2391C769.035 37.0265 769.163 36.8094 769.376 36.7542L808.433 26.6078C808.451 26.6032 808.469 26.6005 808.487 26.5984L811.804 25.7333C811.837 25.7248 811.871 25.7205 811.905 25.7205H811.921C812.14 25.7205 812.318 25.8983 812.318 26.1179C812.318 26.322 812.164 26.4904 811.966 26.5131L808.649 27.3776L808.599 27.3873C808.598 27.3875 808.597 27.3877 808.595 27.3879L769.575 37.5239L769.536 37.532Z" fill="#C7A85C"/>
<path d="M769.513 37.5354C769.295 37.5556 769.101 37.3946 769.081 37.1759C769.061 36.9572 769.222 36.7635 769.44 36.7434L809.421 33.054C809.433 33.0529 809.445 33.0524 809.457 33.0524H809.47L812.887 32.7361C812.899 32.7349 812.912 32.7344 812.924 32.7344H812.956C813.175 32.7344 813.353 32.9122 813.354 33.1318C813.354 33.3514 813.175 33.5295 812.956 33.5295H812.942L809.525 33.8458L809.489 33.8478H809.472L769.513 37.5354Z" fill="#C7A85C"/>
<path d="M766.498 37.4202C766.343 37.5754 766.091 37.5754 765.936 37.4202C765.78 37.2649 765.78 37.0131 765.936 36.8578L797.535 5.25832L800 2.79357L800.048 2.74563C800.203 2.59039 800.455 2.59039 800.61 2.74563C800.765 2.90091 800.765 3.15275 800.61 3.30803L766.498 37.4202Z" fill="#C7A85C"/>
<path d="M812.702 37.1346C812.718 35.8144 812.655 34.4931 812.529 33.1696L812.529 33.164L812.528 33.1588C812.38 30.9706 812.08 28.7971 811.615 26.6376L811.519 26.206L811.519 26.2026L811.518 26.199C811.03 23.8501 810.349 21.5412 809.498 19.2724L809.326 18.819L809.324 18.8159C808.452 16.4946 807.386 14.2147 806.138 12.015L805.886 11.576L805.884 11.5727C804.295 8.77628 802.41 6.09866 800.2 3.5826L799.985 3.33958L799.981 3.33484L799.977 3.32982C799.271 2.48339 798.485 1.64963 797.679 0.843338L798.242 0.281217C799.057 1.09738 799.862 1.9495 800.588 2.82066C802.925 5.44734 804.91 8.24984 806.576 11.1797C807.953 13.5505 809.122 16.0175 810.068 18.533C811.012 20.9823 811.766 23.4817 812.295 26.0307C812.824 28.37 813.16 30.7242 813.321 33.0941L813.366 33.5996C813.464 34.7799 813.512 35.9612 813.498 37.144L812.702 37.1346Z" fill="#C7A85C"/>
<path d="M812.304 37.1295C812.318 35.9881 812.272 34.8448 812.176 33.6985L812.132 33.2069L812.131 33.1852C811.984 31.0155 811.687 28.8613 811.225 26.7212L811.131 26.2934L811.128 26.2795C810.613 23.7969 809.878 21.3577 808.954 18.9619L808.953 18.9585L808.951 18.9554C808.086 16.6537 807.029 14.3924 805.791 12.2105L805.541 11.7755L805.54 11.7722L805.538 11.7688C803.961 8.9951 802.092 6.33964 799.9 3.8445L799.687 3.60344L799.679 3.59368L799.67 3.58393C798.975 2.74986 798.198 1.92527 797.397 1.12392L798.522 -4.78621e-05C799.338 0.81699 800.147 1.67385 800.881 2.55277C803.237 5.20007 805.238 8.02448 806.916 10.9768C808.305 13.3666 809.484 15.8533 810.438 18.3897C811.389 20.8553 812.148 23.3733 812.682 25.9428C813.183 28.1587 813.512 30.3873 813.685 32.6292L813.717 33.0779C813.846 34.4315 813.91 35.7883 813.894 37.1484L812.304 37.1295Z" fill="#C7A85C"/>
<path d="M810.014 37.1387C810.014 38.3731 809.966 39.6259 809.853 40.8645H809.853C809.708 43.044 809.388 45.2226 808.924 47.3669C808.426 49.7245 807.753 52.0346 806.886 54.2972C806.021 56.6207 804.978 58.8822 803.711 61.0802C802.155 63.8535 800.295 66.5149 798.115 69.0001C797.378 69.8656 796.592 70.7147 795.775 71.5315L795.745 71.5588C795.589 71.6862 795.358 71.6771 795.213 71.5315L761.117 37.4196C760.962 37.2643 760.962 37.0124 761.117 36.8572C761.273 36.7021 761.524 36.7022 761.68 36.8575L795.493 70.6865C796.197 69.9704 796.874 69.2313 797.513 68.4801C797.514 68.4786 797.516 68.4771 797.517 68.4756C799.661 66.0322 801.49 63.4151 803.019 60.687C803.02 60.6856 803.021 60.6842 803.022 60.6828C804.266 58.5252 805.29 56.3029 806.142 54.016L806.143 54.0126C806.995 51.7906 807.657 49.5209 808.146 47.2028L808.146 47.2006C808.604 45.0871 808.918 42.9434 809.061 40.8021C809.061 40.7988 809.061 40.7956 809.061 40.7923C809.172 39.5813 809.218 38.3531 809.218 37.1387C809.218 36.9191 809.396 36.741 809.616 36.741C809.836 36.741 810.014 36.9191 810.014 37.1387Z" fill="#C7A85C"/>
<path d="M806.526 63.1992C806.375 63.3505 806.132 63.3539 805.976 63.2104L803.153 61.2238L803.126 61.2029C803.121 61.1989 803.117 61.1944 803.112 61.1901L769.249 37.4651C769.069 37.3391 769.026 37.0912 769.152 36.9113C769.278 36.7315 769.525 36.6878 769.705 36.8138L803.595 60.5569C803.609 60.5671 803.622 60.5787 803.635 60.5907L806.458 62.5772C806.477 62.5903 806.494 62.6051 806.51 62.6212L806.526 62.6368L806.553 62.6669C806.681 62.8231 806.672 63.0536 806.526 63.1992Z" fill="#C7A85C"/>
<path d="M769.311 37.5007C769.111 37.409 769.024 37.173 769.115 36.9734C769.207 36.7739 769.443 36.6865 769.643 36.7781L769.311 37.5007ZM809.993 55.8999C809.853 56.0399 809.635 56.0532 809.48 55.9409L806.415 54.5402C806.393 54.5343 806.37 54.5269 806.349 54.5171L769.311 37.5007L769.643 36.7781L806.63 53.7713C806.653 53.7771 806.675 53.7845 806.696 53.7942L809.861 55.2411C809.904 55.2608 809.943 55.2882 809.977 55.3217L809.993 55.3375L810.02 55.3676C810.148 55.5238 810.138 55.7544 809.993 55.8999Z" fill="#C7A85C"/>
<path d="M811.905 48.5576L811.854 48.5543C811.837 48.5521 811.821 48.549 811.804 48.5448L808.486 47.6797C808.469 47.6776 808.451 47.6745 808.433 47.67L769.376 37.5242C769.163 37.469 769.035 37.2518 769.09 37.0393C769.142 36.84 769.336 36.7154 769.536 36.7461L769.575 36.7545L808.596 46.8908C808.614 46.8929 808.632 46.8957 808.65 46.9002L811.968 47.7656C812.165 47.7891 812.318 47.9565 812.318 48.1599C812.318 48.3795 812.14 48.5576 811.921 48.5576H811.905Z" fill="#C7A85C"/>
<path d="M812.924 41.5444L812.887 41.5428L809.471 41.2262H809.457C809.445 41.2262 809.433 41.2256 809.421 41.2245L769.44 37.5352L769.4 37.5293C769.202 37.4906 769.062 37.3076 769.081 37.1026C769.101 36.884 769.295 36.7232 769.513 36.7434L809.476 40.4311H809.489C809.501 40.4311 809.513 40.4316 809.526 40.4327L812.942 40.749H812.956C813.175 40.749 813.354 40.9271 813.354 41.1467C813.354 41.3663 813.175 41.5444 812.956 41.5444H812.924Z" fill="#C7A85C"/>
<path d="M800.61 71.5329C800.464 71.6785 800.234 71.6877 800.078 71.5602L800.048 71.5329L765.936 37.4208L765.908 37.3907C765.781 37.2345 765.79 37.004 765.936 36.8584C766.081 36.7128 766.312 36.7037 766.468 36.8311L766.498 36.8584L800.61 70.9705L800.637 71.0006C800.765 71.1568 800.756 71.3873 800.61 71.5329Z" fill="#C7A85C"/>
<path d="M797.679 73.4352C798.485 72.6289 799.271 71.7954 799.977 70.949L799.981 70.9439L799.985 70.9392C802.288 68.3528 804.244 65.5925 805.884 62.7058L805.886 62.7025C807.242 60.3677 808.394 57.9388 809.324 55.4629L809.326 55.4595C810.257 53.0452 810.998 50.5851 811.518 48.0795L811.52 48.0728C812.04 45.7717 812.371 43.4541 812.528 41.12L812.529 41.1144L812.529 41.1092C812.655 39.7861 812.718 38.4644 812.702 37.1442L813.498 37.1347C813.514 38.4864 813.45 39.8366 813.321 41.1847C813.16 43.5545 812.824 45.9092 812.295 48.2481C811.765 50.7971 811.012 53.2965 810.068 55.7458C809.122 58.2624 807.952 60.7303 806.574 63.1021C804.909 66.0309 802.924 68.8324 800.588 71.4581C799.862 72.3293 799.057 73.1814 798.242 73.9976L797.679 73.4352Z" fill="#C7A85C"/>
<path d="M797.397 73.1546C798.198 72.3533 798.975 71.5289 799.67 70.6948L799.679 70.6848L799.687 70.675C801.971 68.1102 803.91 65.3731 805.538 62.5099L805.54 62.5066L805.541 62.5033C806.887 60.1874 808.029 57.7785 808.951 55.3233L808.953 55.3203L808.954 55.3169C809.878 52.921 810.612 50.4817 811.128 47.999L811.129 47.9923L811.131 47.9854C811.646 45.705 811.974 43.4079 812.131 41.0936L812.132 41.0827L812.132 41.0716C812.257 39.761 812.32 38.4537 812.304 37.1493L813.894 37.13C813.91 38.4902 813.846 39.8476 813.717 41.2009C813.556 43.5896 813.217 45.9635 812.685 48.3223C812.184 50.7356 811.484 53.1035 810.614 55.4253L810.438 55.8891C809.484 58.4255 808.305 60.9122 806.916 63.302C805.239 66.2521 803.24 69.0745 800.886 71.7201C800.151 72.6012 799.34 73.4599 798.522 74.2788L797.397 73.1546Z" fill="#C7A85C"/>
</g>
<defs>
<clipPath id="clip0_153_50616">
<rect width="814" height="76" fill="white"/>
</clipPath>
</defs>
</svg>
