<svg width="354" height="37" viewBox="0 0 354 37" fill="none" xmlns="http://www.w3.org/2000/svg">
<g clip-path="url(#clip0_170_50941)">
<path d="M30 20L324.8 20L324.8 19L30 19L30 20Z" fill="#C7A85C"/>
<path d="M30 17L324.8 17L324.8 16L30 16L30 17Z" fill="#C7A85C"/>
<path d="M25.667 18.465C25.7433 18.5409 25.867 18.5409 25.9433 18.465C26.0197 18.3891 26.0198 18.266 25.9435 18.1901L9.18358 1.51364C9.14694 1.47717 9.0972 1.45656 9.04536 1.45655C8.99353 1.45654 8.94379 1.47707 8.90713 1.5135C8.50479 1.91365 8.11814 2.32956 7.75517 2.75347V2.75361C6.68377 3.96855 5.76955 5.26951 5.00532 6.62502V6.62516C4.38241 7.69975 3.87017 8.80506 3.44484 9.94083V9.94096C3.01921 11.0465 2.6883 12.1753 2.44398 13.3272V13.3273C2.21572 14.3758 2.05843 15.4407 1.98711 16.5062C1.9317 17.1117 1.9082 17.7241 1.9082 18.3276C1.9082 18.4349 1.99574 18.522 2.10369 18.522C2.21164 18.522 2.29918 18.4349 2.29918 18.3276C2.29918 17.7338 2.32212 17.1334 2.37631 16.5414C2.37645 16.5398 2.37661 16.5382 2.37672 16.5366C2.44218 15.5552 2.58228 14.5729 2.78495 13.6024L2.82632 13.4084L2.82646 13.4075C3.05179 12.345 3.3519 11.3034 3.73321 10.2823L3.81061 10.0783L3.8113 10.0765C4.20382 9.02838 4.67087 8.00811 5.23177 7.01536L5.3452 6.81713L5.3463 6.81508C6.05113 5.56493 6.88546 4.36232 7.85517 3.23265L8.05093 3.0077L8.05285 3.00553C8.3673 2.63829 8.70005 2.27692 9.04577 1.92673L25.667 18.465Z" fill="#C7A85C"/>
<path d="M21.7231 18.4868C21.8115 18.5484 21.9333 18.527 21.9953 18.4391C22.0572 18.3512 22.0357 18.2299 21.9473 18.1683L5.30167 6.56983C5.29528 6.56395 5.28865 6.55834 5.28153 6.55335L3.89435 5.58233C3.81769 5.51174 3.69817 5.51326 3.62365 5.58737C3.54732 5.66328 3.54732 5.7864 3.62365 5.86231L3.63146 5.87008L3.64393 5.88139C3.64821 5.88497 3.65263 5.88839 3.65722 5.8916L5.04454 6.8629C5.05092 6.86874 5.05756 6.87429 5.06467 6.87925L21.7231 18.4868Z" fill="#C7A85C"/>
<path d="M21.7528 18.5042C21.8509 18.549 21.9669 18.5063 22.012 18.4088C22.0571 18.3112 22.014 18.1958 21.916 18.151L3.70971 9.83214C3.69896 9.82723 3.6877 9.82359 3.67629 9.8207L2.17033 9.13566C2.09397 9.08117 1.98717 9.08784 1.91854 9.15609C1.84225 9.232 1.84226 9.35499 1.91854 9.4309L1.92635 9.4388L1.93923 9.45052C1.95258 9.46162 1.96746 9.47082 1.98334 9.47804L3.53902 10.1856L3.55848 10.1932C3.56253 10.1945 3.56668 10.1955 3.5708 10.1966L21.7528 18.5042Z" fill="#C7A85C"/>
<path d="M21.8035 18.5197C21.9014 18.5347 21.9968 18.4739 22.0223 18.3765C22.0494 18.2726 21.9866 18.1664 21.8821 18.1394L2.68311 13.1792C2.67442 13.1769 2.66556 13.1756 2.65667 13.1745L1.02605 12.7516C1.00996 12.7474 0.993361 12.7454 0.976734 12.7454H0.968925C0.861 12.7454 0.773473 12.8323 0.773438 12.9396C0.773438 13.0394 0.849092 13.1218 0.946459 13.1328L2.57694 13.5555L2.60146 13.5602C2.60219 13.5603 2.60292 13.5604 2.60365 13.5605L21.7839 18.5158L21.8035 18.5197Z" fill="#C7A85C"/>
<path d="M21.8174 18.5211C21.9249 18.531 22.0201 18.4523 22.03 18.3454C22.0399 18.2385 21.9608 18.1438 21.8533 18.1339L2.20081 16.3303C2.19486 16.3298 2.18885 16.3295 2.18287 16.3295H2.17643L0.496766 16.1749C0.490798 16.1743 0.484813 16.174 0.47882 16.174H0.463066C0.355132 16.174 0.267601 16.261 0.267578 16.3683C0.267578 16.4757 0.355118 16.5627 0.463066 16.5627H0.469642L2.1493 16.7174L2.16739 16.7183H2.17533L21.8174 18.5211Z" fill="#C7A85C"/>
<path d="M23.2998 18.465C23.3762 18.5409 23.5 18.541 23.5763 18.465C23.6526 18.3891 23.6526 18.266 23.5763 18.1901L8.04356 2.74192L6.83159 1.53696L6.8083 1.51353C6.73197 1.43763 6.60818 1.43763 6.53185 1.51353C6.45552 1.58944 6.45553 1.71255 6.53185 1.78847L23.2998 18.465Z" fill="#C7A85C"/>
<path d="M0.587358 18.325C0.579595 17.6796 0.610496 17.0336 0.672567 16.3866L0.672841 16.3839L0.672978 16.3813C0.74566 15.3115 0.893106 14.249 1.12204 13.1933L1.16903 12.9822L1.1693 12.9806L1.16971 12.9788C1.40932 11.8305 1.74441 10.7017 2.16249 9.59258L2.24716 9.37091L2.24784 9.36941C2.67663 8.23461 3.2008 7.12001 3.81407 6.04461L3.93791 5.83002L3.93887 5.82839C4.72017 4.46129 5.64678 3.15227 6.73296 1.92223L6.83859 1.80343L6.84064 1.80111L6.8427 1.79866C7.18945 1.38486 7.57604 0.977254 7.9722 0.583077L7.69561 0.30827C7.29461 0.707273 6.89929 1.12385 6.54241 1.54974C5.39354 2.83386 4.41758 4.20393 3.59899 5.63628C2.92205 6.7953 2.34725 8.00137 1.88248 9.23112C1.41815 10.4285 1.04787 11.6504 0.787641 12.8965C0.527623 14.0402 0.362355 15.1911 0.283373 16.3497L0.26118 16.5968C0.212866 17.1738 0.189565 17.7514 0.19652 18.3296L0.587358 18.325Z" fill="#C7A85C"/>
<path d="M0.782757 18.3233C0.776046 17.7653 0.79858 17.2063 0.845499 16.6459L0.867144 16.4056L0.867966 16.395C0.940032 15.3343 1.08632 14.2811 1.31319 13.2349L1.35963 13.0258L1.361 13.0189C1.61425 11.8053 1.97534 10.6128 2.42954 9.44155L2.43009 9.43992L2.43077 9.43842C2.85597 8.31315 3.37583 7.20767 3.98413 6.14101L4.10701 5.92833L4.10783 5.92669L4.10879 5.92506C4.88375 4.56905 5.80271 3.27086 6.87987 2.05105L6.98453 1.9332L6.98878 1.92843L6.99289 1.92366C7.33457 1.51591 7.71661 1.11279 8.11033 0.721026L7.55757 0.171548C7.15614 0.570978 6.75845 0.989877 6.39793 1.41956C5.23982 2.71376 4.25622 4.09454 3.43109 5.53785C2.7486 6.70615 2.16893 7.92186 1.70019 9.16184C1.23276 10.3672 0.859656 11.5982 0.597133 12.8544C0.350845 13.9376 0.18889 15.0272 0.104098 16.1232L0.0880698 16.3425C0.0249239 17.0043 -0.00678041 17.6676 0.00121673 18.3325L0.782757 18.3233Z" fill="#C7A85C"/>
<path d="M1.9082 18.3275C1.9082 18.931 1.93155 19.5434 1.98697 20.149H1.98711C2.05844 21.2145 2.21571 22.2795 2.44398 23.3279C2.68843 24.4804 3.01957 25.6098 3.44553 26.7159C3.87101 27.8518 4.38339 28.9574 5.00656 30.032C5.77101 31.3877 6.6854 32.6888 7.75708 33.9038C8.1195 34.3269 8.50547 34.742 8.90713 35.1413L8.92193 35.1546C8.99871 35.2169 9.11203 35.2125 9.18358 35.1413L25.9435 18.4649C26.0198 18.3889 26.0197 18.2658 25.9433 18.1899C25.867 18.1141 25.7433 18.1142 25.667 18.19L9.04577 34.7282C8.70006 34.3781 8.3673 34.0168 8.05285 33.6495C8.05224 33.6488 8.05156 33.6481 8.05093 33.6474C6.99728 32.4529 6.09812 31.1734 5.3463 29.8397C5.34592 29.839 5.34559 29.8383 5.3452 29.8377C4.73347 28.7828 4.22998 27.6964 3.8113 26.5784L3.81061 26.5768C3.39228 25.4905 3.06682 24.3809 2.82646 23.2476L2.82632 23.2465C2.6013 22.2133 2.44654 21.1653 2.37672 20.1185C2.37661 20.1169 2.37645 20.1153 2.37631 20.1137C2.32212 19.5217 2.29918 18.9212 2.29918 18.3275C2.29918 18.2202 2.21164 18.1331 2.10369 18.1331C1.99574 18.1331 1.9082 18.2202 1.9082 18.3275Z" fill="#C7A85C"/>
<path d="M3.62367 31.0687C3.69805 31.1426 3.81727 31.1443 3.89396 31.0741L5.28155 30.103L5.29484 30.0927C5.29721 30.0908 5.29941 30.0886 5.30169 30.0865L21.9473 18.4879C22.0357 18.4263 22.0572 18.3051 21.9953 18.2172C21.9333 18.1293 21.8115 18.1079 21.7231 18.1695L5.06469 29.7769C5.05756 29.7819 5.05095 29.7876 5.04455 29.7934L3.6571 30.7646C3.64792 30.771 3.63928 30.7782 3.63134 30.7861L3.62367 30.7937L3.61025 30.8084C3.54761 30.8848 3.5521 30.9975 3.62367 31.0687Z" fill="#C7A85C"/>
<path d="M21.916 18.5054C22.0141 18.4606 22.0571 18.3452 22.0121 18.2476C21.967 18.1501 21.851 18.1073 21.7529 18.1521L21.916 18.5054ZM1.91859 27.5003C1.98738 27.5688 2.09453 27.5753 2.17093 27.5204L3.67716 26.8356C3.68829 26.8327 3.69926 26.8291 3.70977 26.8243L21.916 18.5054L21.7529 18.1521L3.5714 26.4597C3.56036 26.4625 3.54951 26.4661 3.53907 26.4709L1.98339 27.1783C1.96221 27.1879 1.94287 27.2013 1.9264 27.2176L1.91859 27.2254L1.90517 27.2401C1.84253 27.3165 1.84702 27.4292 1.91859 27.5003Z" fill="#C7A85C"/>
<path d="M0.976734 23.9097L1.00167 23.908C1.00987 23.907 1.01803 23.9055 1.02605 23.9034L2.65708 23.4805C2.66584 23.4795 2.67455 23.4779 2.68311 23.4757L21.8821 18.5157C21.9866 18.4887 22.0494 18.3826 22.0223 18.2786C21.9969 18.1812 21.9014 18.1203 21.8035 18.1353L21.7839 18.1394L2.6031 23.0948C2.59426 23.0958 2.58544 23.0972 2.5768 23.0994L0.9455 23.5225C0.848609 23.534 0.773438 23.6158 0.773438 23.7152C0.773438 23.8226 0.860978 23.9097 0.968925 23.9097H0.976734Z" fill="#C7A85C"/>
<path d="M0.47882 20.4814L0.496766 20.4806L2.17629 20.3259H2.18287C2.18885 20.3259 2.19485 20.3256 2.20081 20.325L21.8533 18.5214L21.8732 18.5186C21.9704 18.4996 22.0393 18.4102 22.03 18.31C22.0201 18.2031 21.9249 18.1245 21.8174 18.1343L2.17382 19.9371H2.16725C2.16123 19.9371 2.15516 19.9374 2.14917 19.938L0.469642 20.0926H0.463066C0.355118 20.0926 0.267578 20.1797 0.267578 20.287C0.267578 20.3944 0.355118 20.4814 0.463066 20.4814H0.47882Z" fill="#C7A85C"/>
<path d="M6.53187 35.1413C6.60344 35.2125 6.71676 35.2169 6.79353 35.1546L6.80832 35.1413L23.5763 18.4647L23.5897 18.45C23.6523 18.3736 23.6479 18.2609 23.5763 18.1898C23.5047 18.1186 23.3914 18.1142 23.3147 18.1764L23.2999 18.1898L6.53187 34.8663L6.51845 34.8811C6.45581 34.9574 6.46031 35.0701 6.53187 35.1413Z" fill="#C7A85C"/>
<path d="M7.9722 36.0727C7.57604 35.6785 7.18945 35.2711 6.84269 34.8573L6.84064 34.8548L6.83859 34.8525C5.7067 33.5881 4.74538 32.2386 3.93887 30.8274L3.93805 30.8258C3.27128 29.6844 2.70521 28.4969 2.24784 27.2865L2.24716 27.2849C1.78944 26.1046 1.42535 24.9019 1.16957 23.677L1.16875 23.6737C0.913127 22.5487 0.750505 21.4157 0.672978 20.2746L0.672841 20.2719L0.672567 20.2693C0.610496 19.6225 0.579597 18.9764 0.587358 18.331L0.196519 18.3263C0.188574 18.9871 0.22013 19.6472 0.283372 20.3063C0.362357 21.4648 0.527676 22.6159 0.787504 23.7594C1.04792 25.0055 1.41815 26.2274 1.88248 27.4248C2.34747 28.6551 2.9226 29.8616 3.59995 31.0211C4.41836 32.4529 5.39381 33.8225 6.54227 35.1062C6.89916 35.5321 7.2946 35.9486 7.69561 36.3477L7.9722 36.0727Z" fill="#C7A85C"/>
<path d="M8.11033 35.9338C7.71663 35.542 7.33456 35.139 6.99289 34.7313L6.98878 34.7264L6.98453 34.7216C5.8621 33.4677 4.90873 32.1296 4.10879 30.7299L4.10783 30.7283L4.10701 30.7266C3.44563 29.5945 2.88431 28.4168 2.43077 27.2165L2.43009 27.215L2.42954 27.2134C1.97533 26.0421 1.61431 24.8496 1.36086 23.6359L1.36018 23.6326L1.35936 23.6292C1.10604 22.5144 0.944837 21.3914 0.867967 20.26L0.867556 20.2547L0.867145 20.2492C0.805661 19.6085 0.775089 18.9694 0.782757 18.3317L0.00121707 18.3223C-0.00678092 18.9872 0.0249197 19.6508 0.0880701 20.3124C0.167413 21.4802 0.333834 22.6408 0.595489 23.7939C0.84185 24.9737 1.18576 26.1313 1.61361 27.2664L1.70019 27.4931C2.16893 28.7331 2.7486 29.9488 3.43109 31.1171C4.25561 32.5593 5.23834 33.9392 6.39533 35.2325C6.7565 35.6632 7.15522 36.0831 7.55757 36.4834L8.11033 35.9338Z" fill="#C7A85C"/>
<path d="M328.333 18.465C328.257 18.5409 328.133 18.5409 328.057 18.465C327.98 18.3891 327.98 18.266 328.057 18.1901L344.816 1.51364C344.853 1.47717 344.903 1.45656 344.955 1.45655C345.006 1.45654 345.056 1.47707 345.093 1.5135C345.495 1.91365 345.882 2.32956 346.245 2.75347V2.75361C347.316 3.96855 348.23 5.26951 348.995 6.62502V6.62516C349.618 7.69975 350.13 8.80506 350.555 9.94083V9.94096C350.981 11.0465 351.312 12.1753 351.556 13.3272V13.3273C351.784 14.3758 351.942 15.4407 352.013 16.5062C352.068 17.1117 352.092 17.7241 352.092 18.3276C352.092 18.4349 352.004 18.522 351.896 18.522C351.788 18.522 351.701 18.4349 351.701 18.3276C351.701 17.7338 351.678 17.1334 351.624 16.5414C351.624 16.5398 351.623 16.5382 351.623 16.5366C351.558 15.5552 351.418 14.5729 351.215 13.6024L351.174 13.4084L351.174 13.4075C350.948 12.345 350.648 11.3034 350.267 10.2823L350.189 10.0783L350.189 10.0765C349.796 9.02838 349.329 8.00811 348.768 7.01536L348.655 6.81713L348.654 6.81508C347.949 5.56493 347.115 4.36232 346.145 3.23265L345.949 3.0077L345.947 3.00553C345.633 2.63829 345.3 2.27692 344.954 1.92673L328.333 18.465Z" fill="#C7A85C"/>
<path d="M332.277 18.4868C332.189 18.5484 332.067 18.527 332.005 18.4391C331.943 18.3512 331.964 18.2299 332.053 18.1683L348.698 6.56983C348.705 6.56395 348.711 6.55834 348.718 6.55335L350.106 5.58233C350.182 5.51174 350.302 5.51326 350.376 5.58737C350.453 5.66328 350.453 5.7864 350.376 5.86231L350.369 5.87008L350.356 5.88139C350.352 5.88497 350.347 5.88839 350.343 5.8916L348.955 6.8629C348.949 6.86874 348.942 6.87429 348.935 6.87925L332.277 18.4868Z" fill="#C7A85C"/>
<path d="M332.247 18.5042C332.149 18.549 332.033 18.5063 331.988 18.4088C331.943 18.3112 331.986 18.1958 332.084 18.151L350.29 9.83214C350.301 9.82723 350.312 9.82359 350.324 9.8207L351.83 9.13566C351.906 9.08117 352.013 9.08784 352.081 9.15609C352.158 9.232 352.158 9.35499 352.081 9.4309L352.074 9.4388L352.061 9.45052C352.047 9.46162 352.033 9.47082 352.017 9.47804L350.461 10.1856L350.442 10.1932C350.437 10.1945 350.433 10.1955 350.429 10.1966L332.247 18.5042Z" fill="#C7A85C"/>
<path d="M332.196 18.5197C332.099 18.5347 332.003 18.4739 331.978 18.3765C331.951 18.2726 332.013 18.1664 332.118 18.1394L351.317 13.1792C351.326 13.1769 351.334 13.1756 351.343 13.1745L352.974 12.7516C352.99 12.7474 353.007 12.7454 353.023 12.7454H353.031C353.139 12.7454 353.227 12.8323 353.227 12.9396C353.227 13.0394 353.151 13.1218 353.054 13.1328L351.423 13.5555L351.399 13.5602C351.398 13.5603 351.397 13.5604 351.396 13.5605L332.216 18.5158L332.196 18.5197Z" fill="#C7A85C"/>
<path d="M332.183 18.5211C332.075 18.531 331.98 18.4523 331.97 18.3454C331.96 18.2385 332.039 18.1438 332.147 18.1339L351.799 16.3303C351.805 16.3298 351.811 16.3295 351.817 16.3295H351.824L353.503 16.1749C353.509 16.1743 353.515 16.174 353.521 16.174H353.537C353.645 16.174 353.732 16.261 353.732 16.3683C353.732 16.4757 353.645 16.5627 353.537 16.5627H353.53L351.851 16.7174L351.833 16.7183H351.825L332.183 18.5211Z" fill="#C7A85C"/>
<path d="M330.7 18.465C330.624 18.5409 330.5 18.541 330.424 18.465C330.347 18.3891 330.347 18.266 330.424 18.1901L345.956 2.74192L347.168 1.53696L347.192 1.51353C347.268 1.43763 347.392 1.43763 347.468 1.51353C347.544 1.58944 347.544 1.71255 347.468 1.78847L330.7 18.465Z" fill="#C7A85C"/>
<path d="M353.413 18.325C353.42 17.6796 353.39 17.0336 353.327 16.3866L353.327 16.3839L353.327 16.3813C353.254 15.3115 353.107 14.249 352.878 13.1933L352.831 12.9822L352.831 12.9806L352.83 12.9788C352.591 11.8305 352.256 10.7017 351.838 9.59258L351.753 9.37091L351.752 9.36941C351.323 8.23461 350.799 7.12001 350.186 6.04461L350.062 5.83002L350.061 5.82839C349.28 4.46129 348.353 3.15227 347.267 1.92223L347.161 1.80343L347.159 1.80111L347.157 1.79866C346.811 1.38486 346.424 0.977254 346.028 0.583077L346.304 0.30827C346.705 0.707273 347.101 1.12385 347.458 1.54974C348.606 2.83386 349.582 4.20393 350.401 5.63628C351.078 6.7953 351.653 8.00137 352.118 9.23112C352.582 10.4285 352.952 11.6504 353.212 12.8965C353.472 14.0402 353.638 15.1911 353.717 16.3497L353.739 16.5968C353.787 17.1738 353.81 17.7514 353.803 18.3296L353.413 18.325Z" fill="#C7A85C"/>
<path d="M353.217 18.3233C353.224 17.7653 353.201 17.2063 353.155 16.6459L353.133 16.4056L353.132 16.395C353.06 15.3343 352.914 14.2811 352.687 13.2349L352.64 13.0258L352.639 13.0189C352.386 11.8053 352.025 10.6128 351.57 9.44155L351.57 9.43992L351.569 9.43842C351.144 8.31315 350.624 7.20767 350.016 6.14101L349.893 5.92833L349.892 5.92669L349.891 5.92506C349.116 4.56905 348.197 3.27086 347.12 2.05105L347.015 1.9332L347.011 1.92843L347.007 1.92366C346.665 1.51591 346.283 1.11279 345.89 0.721026L346.442 0.171548C346.844 0.570978 347.242 0.989877 347.602 1.41956C348.76 2.71376 349.744 4.09454 350.569 5.53785C351.251 6.70615 351.831 7.92186 352.3 9.16184C352.767 10.3672 353.14 11.5982 353.403 12.8544C353.649 13.9376 353.811 15.0272 353.896 16.1232L353.912 16.3425C353.975 17.0043 354.007 17.6676 353.999 18.3325L353.217 18.3233Z" fill="#C7A85C"/>
<path d="M352.092 18.3275C352.092 18.931 352.068 19.5434 352.013 20.149H352.013C351.942 21.2145 351.784 22.2795 351.556 23.3279C351.312 24.4804 350.98 25.6098 350.554 26.7159C350.129 27.8518 349.617 28.9574 348.993 30.032C348.229 31.3877 347.315 32.6888 346.243 33.9038C345.88 34.3269 345.495 34.742 345.093 35.1413L345.078 35.1546C345.001 35.2169 344.888 35.2125 344.816 35.1413L328.057 18.4649C327.98 18.3889 327.98 18.2658 328.057 18.1899C328.133 18.1141 328.257 18.1142 328.333 18.19L344.954 34.7282C345.3 34.3781 345.633 34.0168 345.947 33.6495C345.948 33.6488 345.948 33.6481 345.949 33.6474C347.003 32.4529 347.902 31.1734 348.654 29.8397C348.654 29.839 348.654 29.8383 348.655 29.8377C349.267 28.7828 349.77 27.6964 350.189 26.5784L350.189 26.5768C350.608 25.4905 350.933 24.3809 351.174 23.2476L351.174 23.2465C351.399 22.2133 351.553 21.1653 351.623 20.1185C351.623 20.1169 351.624 20.1153 351.624 20.1137C351.678 19.5217 351.701 18.9212 351.701 18.3275C351.701 18.2202 351.788 18.1331 351.896 18.1331C352.004 18.1331 352.092 18.2202 352.092 18.3275Z" fill="#C7A85C"/>
<path d="M350.376 31.0687C350.302 31.1426 350.183 31.1443 350.106 31.0741L348.718 30.103L348.705 30.0927C348.703 30.0908 348.701 30.0886 348.698 30.0865L332.053 18.4879C331.964 18.4263 331.943 18.3051 332.005 18.2172C332.067 18.1293 332.189 18.1079 332.277 18.1695L348.935 29.7769C348.942 29.7819 348.949 29.7876 348.955 29.7934L350.343 30.7646C350.352 30.771 350.361 30.7782 350.369 30.7861L350.376 30.7937L350.39 30.8084C350.452 30.8848 350.448 30.9975 350.376 31.0687Z" fill="#C7A85C"/>
<path d="M332.084 18.5054C331.986 18.4606 331.943 18.3452 331.988 18.2476C332.033 18.1501 332.149 18.1073 332.247 18.1521L332.084 18.5054ZM352.081 27.5003C352.013 27.5688 351.905 27.5753 351.829 27.5204L350.323 26.8356C350.312 26.8327 350.301 26.8291 350.29 26.8243L332.084 18.5054L332.247 18.1521L350.429 26.4597C350.44 26.4625 350.45 26.4661 350.461 26.4709L352.017 27.1783C352.038 27.1879 352.057 27.2013 352.074 27.2176L352.081 27.2254L352.095 27.2401C352.157 27.3165 352.153 27.4292 352.081 27.5003Z" fill="#C7A85C"/>
<path d="M353.023 23.9097L352.998 23.908C352.99 23.907 352.982 23.9055 352.974 23.9034L351.343 23.4805C351.334 23.4795 351.325 23.4779 351.317 23.4757L332.118 18.5157C332.013 18.4887 331.951 18.3826 331.978 18.2786C332.003 18.1812 332.099 18.1203 332.196 18.1353L332.216 18.1394L351.397 23.0948C351.406 23.0958 351.415 23.0972 351.423 23.0994L353.055 23.5225C353.151 23.534 353.227 23.6158 353.227 23.7152C353.227 23.8226 353.139 23.9097 353.031 23.9097H353.023Z" fill="#C7A85C"/>
<path d="M353.521 20.4814L353.503 20.4806L351.824 20.3259H351.817C351.811 20.3259 351.805 20.3256 351.799 20.325L332.147 18.5214L332.127 18.5186C332.03 18.4996 331.961 18.4102 331.97 18.31C331.98 18.2031 332.075 18.1245 332.183 18.1343L351.826 19.9371H351.833C351.839 19.9371 351.845 19.9374 351.851 19.938L353.53 20.0926H353.537C353.645 20.0926 353.732 20.1797 353.732 20.287C353.732 20.3944 353.645 20.4814 353.537 20.4814H353.521Z" fill="#C7A85C"/>
<path d="M347.468 35.1413C347.397 35.2125 347.283 35.2169 347.206 35.1546L347.192 35.1413L330.424 18.4647L330.41 18.45C330.348 18.3736 330.352 18.2609 330.424 18.1898C330.495 18.1186 330.609 18.1142 330.685 18.1764L330.7 18.1898L347.468 34.8663L347.482 34.8811C347.544 34.9574 347.54 35.0701 347.468 35.1413Z" fill="#C7A85C"/>
<path d="M346.028 36.0727C346.424 35.6785 346.811 35.2711 347.157 34.8573L347.159 34.8548L347.161 34.8525C348.293 33.5881 349.255 32.2386 350.061 30.8274L350.062 30.8258C350.729 29.6844 351.295 28.4969 351.752 27.2865L351.753 27.2849C352.211 26.1046 352.575 24.9019 352.83 23.677L352.831 23.6737C353.087 22.5487 353.249 21.4157 353.327 20.2746L353.327 20.2719L353.327 20.2693C353.39 19.6225 353.42 18.9764 353.413 18.331L353.803 18.3263C353.811 18.9871 353.78 19.6472 353.717 20.3063C353.638 21.4648 353.472 22.6159 353.212 23.7594C352.952 25.0055 352.582 26.2274 352.118 27.4248C351.653 28.6551 351.077 29.8616 350.4 31.0211C349.582 32.4529 348.606 33.8225 347.458 35.1062C347.101 35.5321 346.705 35.9486 346.304 36.3477L346.028 36.0727Z" fill="#C7A85C"/>
<path d="M345.89 35.9338C346.283 35.542 346.665 35.139 347.007 34.7313L347.011 34.7264L347.015 34.7216C348.138 33.4677 349.091 32.1296 349.891 30.7299L349.892 30.7283L349.893 30.7266C350.554 29.5945 351.116 28.4168 351.569 27.2165L351.57 27.215L351.57 27.2134C352.025 26.0421 352.386 24.8496 352.639 23.6359L352.64 23.6326L352.641 23.6292C352.894 22.5144 353.055 21.3914 353.132 20.26L353.132 20.2547L353.133 20.2492C353.194 19.6085 353.225 18.9694 353.217 18.3317L353.999 18.3223C354.007 18.9872 353.975 19.6508 353.912 20.3124C353.833 21.4802 353.666 22.6408 353.405 23.7939C353.158 24.9737 352.814 26.1313 352.386 27.2664L352.3 27.4931C351.831 28.7331 351.251 29.9488 350.569 31.1171C349.744 32.5593 348.762 33.9392 347.605 35.2325C347.243 35.6632 346.845 36.0831 346.442 36.4834L345.89 35.9338Z" fill="#C7A85C"/>
</g>
<defs>
<clipPath id="clip0_170_50941">
<rect width="354" height="37" fill="white"/>
</clipPath>
</defs>
</svg>
