<svg width="140" height="37" viewBox="0 0 140 37" fill="none" xmlns="http://www.w3.org/2000/svg">
<g clip-path="url(#clip0_155_50785)">
<path d="M29 21L112 21L112 20L29 20L29 21Z" fill="#C7A85C"/>
<path d="M29 16L112 16L112 15L29 15L29 16Z" fill="#C7A85C"/>
<path d="M25.667 18.465C25.7433 18.5409 25.867 18.5409 25.9433 18.465C26.0197 18.3891 26.0198 18.266 25.9435 18.1901L9.18358 1.51364C9.14694 1.47717 9.0972 1.45656 9.04536 1.45655C8.99353 1.45654 8.94379 1.47707 8.90713 1.5135C8.50479 1.91365 8.11814 2.32956 7.75517 2.75347V2.75361C6.68377 3.96855 5.76955 5.26951 5.00532 6.62502V6.62516C4.38241 7.69975 3.87017 8.80506 3.44484 9.94083V9.94096C3.01921 11.0465 2.6883 12.1753 2.44398 13.3272V13.3273C2.21572 14.3758 2.05843 15.4407 1.98711 16.5062C1.9317 17.1117 1.9082 17.7241 1.9082 18.3276C1.9082 18.4349 1.99574 18.522 2.10369 18.522C2.21164 18.522 2.29918 18.4349 2.29918 18.3276C2.29918 17.7338 2.32212 17.1334 2.37631 16.5414C2.37645 16.5398 2.37661 16.5382 2.37672 16.5366C2.44218 15.5552 2.58228 14.5729 2.78495 13.6024L2.82632 13.4084L2.82646 13.4075C3.05179 12.345 3.3519 11.3034 3.73321 10.2823L3.81061 10.0783L3.8113 10.0765C4.20382 9.02838 4.67087 8.00811 5.23177 7.01536L5.3452 6.81713L5.3463 6.81508C6.05113 5.56493 6.88546 4.36232 7.85517 3.23265L8.05093 3.0077L8.05285 3.00553C8.3673 2.63829 8.70005 2.27692 9.04577 1.92673L25.667 18.465Z" fill="#C7A85C"/>
<path d="M21.7231 18.4868C21.8115 18.5484 21.9333 18.527 21.9953 18.4391C22.0572 18.3512 22.0357 18.2299 21.9473 18.1683L5.30167 6.56983C5.29528 6.56395 5.28865 6.55834 5.28153 6.55335L3.89435 5.58233C3.81769 5.51174 3.69817 5.51326 3.62365 5.58737C3.54732 5.66328 3.54732 5.7864 3.62365 5.86231L3.63146 5.87008L3.64393 5.88139C3.64821 5.88497 3.65263 5.88839 3.65722 5.8916L5.04454 6.8629C5.05092 6.86874 5.05756 6.87429 5.06467 6.87925L21.7231 18.4868Z" fill="#C7A85C"/>
<path d="M21.7528 18.5042C21.8509 18.549 21.9669 18.5063 22.012 18.4088C22.0571 18.3112 22.014 18.1958 21.916 18.151L3.70971 9.83214C3.69896 9.82723 3.6877 9.82359 3.67629 9.8207L2.17033 9.13566C2.09397 9.08117 1.98717 9.08784 1.91854 9.15609C1.84225 9.232 1.84226 9.35499 1.91854 9.4309L1.92635 9.4388L1.93923 9.45052C1.95258 9.46162 1.96746 9.47082 1.98334 9.47804L3.53902 10.1856L3.55848 10.1932C3.56253 10.1945 3.56668 10.1955 3.5708 10.1966L21.7528 18.5042Z" fill="#C7A85C"/>
<path d="M21.8035 18.5197C21.9014 18.5347 21.9968 18.4739 22.0223 18.3765C22.0494 18.2726 21.9866 18.1664 21.8821 18.1394L2.68311 13.1792C2.67442 13.1769 2.66556 13.1756 2.65667 13.1745L1.02605 12.7516C1.00996 12.7474 0.993361 12.7454 0.976734 12.7454H0.968925C0.861 12.7454 0.773473 12.8323 0.773438 12.9396C0.773438 13.0394 0.849092 13.1218 0.946459 13.1328L2.57694 13.5555L2.60146 13.5602C2.60219 13.5603 2.60292 13.5604 2.60365 13.5605L21.7839 18.5158L21.8035 18.5197Z" fill="#C7A85C"/>
<path d="M21.8174 18.5211C21.9249 18.531 22.0201 18.4523 22.03 18.3454C22.0399 18.2385 21.9608 18.1438 21.8533 18.1339L2.20081 16.3303C2.19486 16.3298 2.18885 16.3295 2.18287 16.3295H2.17643L0.496766 16.1749C0.490798 16.1743 0.484813 16.174 0.47882 16.174H0.463066C0.355132 16.174 0.267601 16.261 0.267578 16.3683C0.267578 16.4757 0.355118 16.5627 0.463066 16.5627H0.469642L2.1493 16.7174L2.16739 16.7183H2.17533L21.8174 18.5211Z" fill="#C7A85C"/>
<path d="M23.2998 18.465C23.3762 18.5409 23.5 18.541 23.5763 18.465C23.6526 18.3891 23.6526 18.266 23.5763 18.1901L8.04356 2.74192L6.83159 1.53696L6.8083 1.51353C6.73197 1.43763 6.60818 1.43763 6.53185 1.51353C6.45552 1.58944 6.45553 1.71255 6.53185 1.78847L23.2998 18.465Z" fill="#C7A85C"/>
<path d="M0.587358 18.325C0.579595 17.6796 0.610496 17.0336 0.672567 16.3866L0.672841 16.3839L0.672978 16.3813C0.74566 15.3115 0.893106 14.249 1.12204 13.1933L1.16903 12.9822L1.1693 12.9806L1.16971 12.9788C1.40932 11.8305 1.74441 10.7017 2.16249 9.59258L2.24716 9.37091L2.24784 9.36941C2.67663 8.23461 3.2008 7.12001 3.81407 6.04461L3.93791 5.83002L3.93887 5.82839C4.72017 4.46129 5.64678 3.15227 6.73296 1.92223L6.83859 1.80343L6.84064 1.80111L6.8427 1.79866C7.18945 1.38486 7.57604 0.977254 7.9722 0.583077L7.69561 0.30827C7.29461 0.707273 6.89929 1.12385 6.54241 1.54974C5.39354 2.83386 4.41758 4.20393 3.59899 5.63628C2.92205 6.7953 2.34725 8.00137 1.88248 9.23112C1.41815 10.4285 1.04787 11.6504 0.787641 12.8965C0.527623 14.0402 0.362355 15.1911 0.283373 16.3497L0.26118 16.5968C0.212866 17.1738 0.189565 17.7514 0.19652 18.3296L0.587358 18.325Z" fill="#C7A85C"/>
<path d="M0.782757 18.3233C0.776046 17.7653 0.79858 17.2063 0.845499 16.6459L0.867144 16.4056L0.867966 16.395C0.940032 15.3343 1.08632 14.2811 1.31319 13.2349L1.35963 13.0258L1.361 13.0189C1.61425 11.8053 1.97534 10.6128 2.42954 9.44155L2.43009 9.43992L2.43077 9.43842C2.85597 8.31315 3.37583 7.20767 3.98413 6.14101L4.10701 5.92833L4.10783 5.92669L4.10879 5.92506C4.88375 4.56905 5.80271 3.27086 6.87987 2.05105L6.98453 1.9332L6.98878 1.92843L6.99289 1.92366C7.33457 1.51591 7.71661 1.11279 8.11033 0.721026L7.55757 0.171548C7.15614 0.570978 6.75845 0.989877 6.39793 1.41956C5.23982 2.71376 4.25622 4.09454 3.43109 5.53785C2.7486 6.70615 2.16893 7.92186 1.70019 9.16184C1.23276 10.3672 0.859656 11.5982 0.597133 12.8544C0.350845 13.9376 0.18889 15.0272 0.104098 16.1232L0.0880698 16.3425C0.0249239 17.0043 -0.00678041 17.6676 0.00121673 18.3325L0.782757 18.3233Z" fill="#C7A85C"/>
<path d="M1.9082 18.3275C1.9082 18.931 1.93155 19.5434 1.98697 20.149H1.98711C2.05844 21.2145 2.21571 22.2795 2.44398 23.3279C2.68843 24.4804 3.01957 25.6098 3.44553 26.7159C3.87101 27.8518 4.38339 28.9574 5.00656 30.032C5.77101 31.3877 6.6854 32.6888 7.75708 33.9038C8.1195 34.3269 8.50547 34.742 8.90713 35.1413L8.92193 35.1546C8.99871 35.2169 9.11203 35.2125 9.18358 35.1413L25.9435 18.4649C26.0198 18.3889 26.0197 18.2658 25.9433 18.1899C25.867 18.1141 25.7433 18.1142 25.667 18.19L9.04577 34.7282C8.70006 34.3781 8.3673 34.0168 8.05285 33.6495C8.05224 33.6488 8.05156 33.6481 8.05093 33.6474C6.99728 32.4529 6.09812 31.1734 5.3463 29.8397C5.34592 29.839 5.34559 29.8383 5.3452 29.8377C4.73347 28.7828 4.22998 27.6964 3.8113 26.5784L3.81061 26.5768C3.39228 25.4905 3.06682 24.3809 2.82646 23.2476L2.82632 23.2465C2.6013 22.2133 2.44654 21.1653 2.37672 20.1185C2.37661 20.1169 2.37645 20.1153 2.37631 20.1137C2.32212 19.5217 2.29918 18.9212 2.29918 18.3275C2.29918 18.2202 2.21164 18.1331 2.10369 18.1331C1.99574 18.1331 1.9082 18.2202 1.9082 18.3275Z" fill="#C7A85C"/>
<path d="M3.62367 31.0687C3.69805 31.1426 3.81727 31.1443 3.89396 31.0741L5.28155 30.103L5.29484 30.0927C5.29721 30.0908 5.29941 30.0886 5.30169 30.0865L21.9473 18.4879C22.0357 18.4263 22.0572 18.3051 21.9953 18.2172C21.9333 18.1293 21.8115 18.1079 21.7231 18.1695L5.06469 29.7769C5.05756 29.7819 5.05095 29.7876 5.04455 29.7934L3.6571 30.7646C3.64792 30.771 3.63928 30.7782 3.63134 30.7861L3.62367 30.7937L3.61025 30.8084C3.54761 30.8848 3.5521 30.9975 3.62367 31.0687Z" fill="#C7A85C"/>
<path d="M21.916 18.5054C22.0141 18.4606 22.0571 18.3452 22.0121 18.2476C21.967 18.1501 21.851 18.1073 21.7529 18.1521L21.916 18.5054ZM1.91859 27.5003C1.98738 27.5688 2.09453 27.5753 2.17093 27.5204L3.67716 26.8356C3.68829 26.8327 3.69926 26.8291 3.70977 26.8243L21.916 18.5054L21.7529 18.1521L3.5714 26.4597C3.56036 26.4625 3.54951 26.4661 3.53907 26.4709L1.98339 27.1783C1.96221 27.1879 1.94287 27.2013 1.9264 27.2176L1.91859 27.2254L1.90517 27.2401C1.84253 27.3165 1.84702 27.4292 1.91859 27.5003Z" fill="#C7A85C"/>
<path d="M0.976734 23.9097L1.00167 23.908C1.00987 23.907 1.01803 23.9055 1.02605 23.9034L2.65708 23.4805C2.66584 23.4795 2.67455 23.4779 2.68311 23.4757L21.8821 18.5157C21.9866 18.4887 22.0494 18.3826 22.0223 18.2786C21.9969 18.1812 21.9014 18.1203 21.8035 18.1353L21.7839 18.1394L2.6031 23.0948C2.59426 23.0958 2.58544 23.0972 2.5768 23.0994L0.9455 23.5225C0.848609 23.534 0.773438 23.6158 0.773438 23.7152C0.773438 23.8226 0.860978 23.9097 0.968925 23.9097H0.976734Z" fill="#C7A85C"/>
<path d="M0.47882 20.4814L0.496766 20.4806L2.17629 20.3259H2.18287C2.18885 20.3259 2.19485 20.3256 2.20081 20.325L21.8533 18.5214L21.8732 18.5186C21.9704 18.4996 22.0393 18.4102 22.03 18.31C22.0201 18.2031 21.9249 18.1245 21.8174 18.1343L2.17382 19.9371H2.16725C2.16123 19.9371 2.15516 19.9374 2.14917 19.938L0.469642 20.0926H0.463066C0.355118 20.0926 0.267578 20.1797 0.267578 20.287C0.267578 20.3944 0.355118 20.4814 0.463066 20.4814H0.47882Z" fill="#C7A85C"/>
<path d="M6.53187 35.1413C6.60344 35.2125 6.71676 35.2169 6.79353 35.1546L6.80832 35.1413L23.5763 18.4647L23.5897 18.45C23.6523 18.3736 23.6479 18.2609 23.5763 18.1898C23.5047 18.1186 23.3914 18.1142 23.3147 18.1764L23.2999 18.1898L6.53187 34.8663L6.51845 34.8811C6.45581 34.9574 6.46031 35.0701 6.53187 35.1413Z" fill="#C7A85C"/>
<path d="M7.9722 36.0727C7.57604 35.6785 7.18945 35.2711 6.84269 34.8573L6.84064 34.8548L6.83859 34.8525C5.7067 33.5881 4.74538 32.2386 3.93887 30.8274L3.93805 30.8258C3.27128 29.6844 2.70521 28.4969 2.24784 27.2865L2.24716 27.2849C1.78944 26.1046 1.42535 24.9019 1.16957 23.677L1.16875 23.6737C0.913127 22.5487 0.750505 21.4157 0.672978 20.2746L0.672841 20.2719L0.672567 20.2693C0.610496 19.6225 0.579597 18.9764 0.587358 18.331L0.196519 18.3263C0.188574 18.9871 0.22013 19.6472 0.283372 20.3063C0.362357 21.4648 0.527676 22.6159 0.787504 23.7594C1.04792 25.0055 1.41815 26.2274 1.88248 27.4248C2.34747 28.6551 2.9226 29.8616 3.59995 31.0211C4.41836 32.4529 5.39381 33.8225 6.54227 35.1062C6.89916 35.5321 7.2946 35.9486 7.69561 36.3477L7.9722 36.0727Z" fill="#C7A85C"/>
<path d="M8.11033 35.9338C7.71663 35.542 7.33456 35.139 6.99289 34.7313L6.98878 34.7264L6.98453 34.7216C5.8621 33.4677 4.90873 32.1296 4.10879 30.7299L4.10783 30.7283L4.10701 30.7266C3.44563 29.5945 2.88431 28.4168 2.43077 27.2165L2.43009 27.215L2.42954 27.2134C1.97533 26.0421 1.61431 24.8496 1.36086 23.6359L1.36018 23.6326L1.35936 23.6292C1.10604 22.5144 0.944837 21.3914 0.867967 20.26L0.867556 20.2547L0.867145 20.2492C0.805661 19.6085 0.775089 18.9694 0.782757 18.3317L0.00121707 18.3223C-0.00678092 18.9872 0.0249197 19.6508 0.0880701 20.3124C0.167413 21.4802 0.333834 22.6408 0.595489 23.7939C0.84185 24.9737 1.18576 26.1313 1.61361 27.2664L1.70019 27.4931C2.16893 28.7331 2.7486 29.9488 3.43109 31.1171C4.25561 32.5593 5.23834 33.9392 6.39533 35.2325C6.7565 35.6632 7.15522 36.0831 7.55757 36.4834L8.11033 35.9338Z" fill="#C7A85C"/>
<path d="M114.333 18.465C114.257 18.5409 114.133 18.5409 114.057 18.465C113.98 18.3891 113.98 18.266 114.057 18.1901L130.816 1.51364C130.853 1.47717 130.903 1.45656 130.955 1.45655C131.006 1.45654 131.056 1.47707 131.093 1.5135C131.495 1.91365 131.882 2.32956 132.245 2.75347V2.75361C133.316 3.96855 134.23 5.26951 134.995 6.62502V6.62516C135.618 7.69975 136.13 8.80506 136.555 9.94083V9.94096C136.981 11.0465 137.312 12.1753 137.556 13.3272V13.3273C137.784 14.3758 137.942 15.4407 138.013 16.5062C138.068 17.1117 138.092 17.7241 138.092 18.3276C138.092 18.4349 138.004 18.522 137.896 18.522C137.788 18.522 137.701 18.4349 137.701 18.3276C137.701 17.7338 137.678 17.1334 137.624 16.5414C137.624 16.5398 137.623 16.5382 137.623 16.5366C137.558 15.5552 137.418 14.5729 137.215 13.6024L137.174 13.4084L137.174 13.4075C136.948 12.345 136.648 11.3034 136.267 10.2823L136.189 10.0783L136.189 10.0765C135.796 9.02838 135.329 8.00811 134.768 7.01536L134.655 6.81713L134.654 6.81508C133.949 5.56493 133.115 4.36232 132.145 3.23265L131.949 3.0077L131.947 3.00553C131.633 2.63829 131.3 2.27692 130.954 1.92673L114.333 18.465Z" fill="#C7A85C"/>
<path d="M118.277 18.4868C118.189 18.5484 118.067 18.527 118.005 18.4391C117.943 18.3512 117.964 18.2299 118.053 18.1683L134.698 6.56983C134.705 6.56395 134.711 6.55834 134.718 6.55335L136.106 5.58233C136.182 5.51174 136.302 5.51326 136.376 5.58737C136.453 5.66328 136.453 5.7864 136.376 5.86231L136.369 5.87008L136.356 5.88139C136.352 5.88497 136.347 5.88839 136.343 5.8916L134.955 6.8629C134.949 6.86874 134.942 6.87429 134.935 6.87925L118.277 18.4868Z" fill="#C7A85C"/>
<path d="M118.247 18.5042C118.149 18.549 118.033 18.5063 117.988 18.4088C117.943 18.3112 117.986 18.1958 118.084 18.151L136.29 9.83214C136.301 9.82723 136.312 9.82359 136.324 9.8207L137.83 9.13566C137.906 9.08117 138.013 9.08784 138.081 9.15609C138.158 9.232 138.158 9.35499 138.081 9.4309L138.074 9.4388L138.061 9.45052C138.047 9.46162 138.033 9.47082 138.017 9.47804L136.461 10.1856L136.442 10.1932C136.437 10.1945 136.433 10.1955 136.429 10.1966L118.247 18.5042Z" fill="#C7A85C"/>
<path d="M118.196 18.5197C118.099 18.5347 118.003 18.4739 117.978 18.3765C117.951 18.2726 118.013 18.1664 118.118 18.1394L137.317 13.1792C137.326 13.1769 137.334 13.1756 137.343 13.1745L138.974 12.7516C138.99 12.7474 139.007 12.7454 139.023 12.7454H139.031C139.139 12.7454 139.227 12.8323 139.227 12.9396C139.227 13.0394 139.151 13.1218 139.054 13.1328L137.423 13.5555L137.399 13.5602C137.398 13.5603 137.397 13.5604 137.396 13.5605L118.216 18.5158L118.196 18.5197Z" fill="#C7A85C"/>
<path d="M118.183 18.5211C118.075 18.531 117.98 18.4523 117.97 18.3454C117.96 18.2385 118.039 18.1438 118.147 18.1339L137.799 16.3303C137.805 16.3298 137.811 16.3295 137.817 16.3295H137.824L139.503 16.1749C139.509 16.1743 139.515 16.174 139.521 16.174H139.537C139.645 16.174 139.732 16.261 139.732 16.3683C139.732 16.4757 139.645 16.5627 139.537 16.5627H139.53L137.851 16.7174L137.833 16.7183H137.825L118.183 18.5211Z" fill="#C7A85C"/>
<path d="M116.7 18.465C116.624 18.5409 116.5 18.541 116.424 18.465C116.347 18.3891 116.347 18.266 116.424 18.1901L131.956 2.74192L133.168 1.53696L133.192 1.51353C133.268 1.43763 133.392 1.43763 133.468 1.51353C133.544 1.58944 133.544 1.71255 133.468 1.78847L116.7 18.465Z" fill="#C7A85C"/>
<path d="M139.413 18.325C139.42 17.6796 139.39 17.0336 139.327 16.3866L139.327 16.3839L139.327 16.3813C139.254 15.3115 139.107 14.249 138.878 13.1933L138.831 12.9822L138.831 12.9806L138.83 12.9788C138.591 11.8305 138.256 10.7017 137.838 9.59258L137.753 9.37091L137.752 9.36941C137.323 8.23461 136.799 7.12001 136.186 6.04461L136.062 5.83002L136.061 5.82839C135.28 4.46129 134.353 3.15227 133.267 1.92223L133.161 1.80343L133.159 1.80111L133.157 1.79866C132.811 1.38486 132.424 0.977254 132.028 0.583077L132.304 0.30827C132.705 0.707273 133.101 1.12385 133.458 1.54974C134.606 2.83386 135.582 4.20393 136.401 5.63628C137.078 6.7953 137.653 8.00137 138.118 9.23112C138.582 10.4285 138.952 11.6504 139.212 12.8965C139.472 14.0402 139.638 15.1911 139.717 16.3497L139.739 16.5968C139.787 17.1738 139.81 17.7514 139.803 18.3296L139.413 18.325Z" fill="#C7A85C"/>
<path d="M139.217 18.3233C139.224 17.7653 139.201 17.2063 139.155 16.6459L139.133 16.4056L139.132 16.395C139.06 15.3343 138.914 14.2811 138.687 13.2349L138.64 13.0258L138.639 13.0189C138.386 11.8053 138.025 10.6128 137.57 9.44155L137.57 9.43992L137.569 9.43842C137.144 8.31315 136.624 7.20767 136.016 6.14101L135.893 5.92833L135.892 5.92669L135.891 5.92506C135.116 4.56905 134.197 3.27086 133.12 2.05105L133.015 1.9332L133.011 1.92843L133.007 1.92366C132.665 1.51591 132.283 1.11279 131.89 0.721026L132.442 0.171548C132.844 0.570978 133.242 0.989877 133.602 1.41956C134.76 2.71376 135.744 4.09454 136.569 5.53785C137.251 6.70615 137.831 7.92186 138.3 9.16184C138.767 10.3672 139.14 11.5982 139.403 12.8544C139.649 13.9376 139.811 15.0272 139.896 16.1232L139.912 16.3425C139.975 17.0043 140.007 17.6676 139.999 18.3325L139.217 18.3233Z" fill="#C7A85C"/>
<path d="M138.092 18.3275C138.092 18.931 138.068 19.5434 138.013 20.149H138.013C137.942 21.2145 137.784 22.2795 137.556 23.3279C137.312 24.4804 136.98 25.6098 136.554 26.7159C136.129 27.8518 135.617 28.9574 134.993 30.032C134.229 31.3877 133.315 32.6888 132.243 33.9038C131.88 34.3269 131.495 34.742 131.093 35.1413L131.078 35.1546C131.001 35.2169 130.888 35.2125 130.816 35.1413L114.057 18.4649C113.98 18.3889 113.98 18.2658 114.057 18.1899C114.133 18.1141 114.257 18.1142 114.333 18.19L130.954 34.7282C131.3 34.3781 131.633 34.0168 131.947 33.6495C131.948 33.6488 131.948 33.6481 131.949 33.6474C133.003 32.4529 133.902 31.1734 134.654 29.8397C134.654 29.839 134.654 29.8383 134.655 29.8377C135.267 28.7828 135.77 27.6964 136.189 26.5784L136.189 26.5768C136.608 25.4905 136.933 24.3809 137.174 23.2476L137.174 23.2465C137.399 22.2133 137.553 21.1653 137.623 20.1185C137.623 20.1169 137.624 20.1153 137.624 20.1137C137.678 19.5217 137.701 18.9212 137.701 18.3275C137.701 18.2202 137.788 18.1331 137.896 18.1331C138.004 18.1331 138.092 18.2202 138.092 18.3275Z" fill="#C7A85C"/>
<path d="M136.376 31.0687C136.302 31.1426 136.183 31.1443 136.106 31.0741L134.718 30.103L134.705 30.0927C134.703 30.0908 134.701 30.0886 134.698 30.0865L118.053 18.4879C117.964 18.4263 117.943 18.3051 118.005 18.2172C118.067 18.1293 118.189 18.1079 118.277 18.1695L134.935 29.7769C134.942 29.7819 134.949 29.7876 134.955 29.7934L136.343 30.7646C136.352 30.771 136.361 30.7782 136.369 30.7861L136.376 30.7937L136.39 30.8084C136.452 30.8848 136.448 30.9975 136.376 31.0687Z" fill="#C7A85C"/>
<path d="M118.084 18.5054C117.986 18.4606 117.943 18.3452 117.988 18.2476C118.033 18.1501 118.149 18.1073 118.247 18.1521L118.084 18.5054ZM138.081 27.5003C138.013 27.5688 137.905 27.5753 137.829 27.5204L136.323 26.8356C136.312 26.8327 136.301 26.8291 136.29 26.8243L118.084 18.5054L118.247 18.1521L136.429 26.4597C136.44 26.4625 136.45 26.4661 136.461 26.4709L138.017 27.1783C138.038 27.1879 138.057 27.2013 138.074 27.2176L138.081 27.2254L138.095 27.2401C138.157 27.3165 138.153 27.4292 138.081 27.5003Z" fill="#C7A85C"/>
<path d="M139.023 23.9097L138.998 23.908C138.99 23.907 138.982 23.9055 138.974 23.9034L137.343 23.4805C137.334 23.4795 137.325 23.4779 137.317 23.4757L118.118 18.5157C118.013 18.4887 117.951 18.3826 117.978 18.2786C118.003 18.1812 118.099 18.1203 118.196 18.1353L118.216 18.1394L137.397 23.0948C137.406 23.0958 137.415 23.0972 137.423 23.0994L139.055 23.5225C139.151 23.534 139.227 23.6158 139.227 23.7152C139.227 23.8226 139.139 23.9097 139.031 23.9097H139.023Z" fill="#C7A85C"/>
<path d="M139.521 20.4814L139.503 20.4806L137.824 20.3259H137.817C137.811 20.3259 137.805 20.3256 137.799 20.325L118.147 18.5214L118.127 18.5186C118.03 18.4996 117.961 18.4102 117.97 18.31C117.98 18.2031 118.075 18.1245 118.183 18.1343L137.826 19.9371H137.833C137.839 19.9371 137.845 19.9374 137.851 19.938L139.53 20.0926H139.537C139.645 20.0926 139.732 20.1797 139.732 20.287C139.732 20.3944 139.645 20.4814 139.537 20.4814H139.521Z" fill="#C7A85C"/>
<path d="M133.468 35.1413C133.397 35.2125 133.283 35.2169 133.206 35.1546L133.192 35.1413L116.424 18.4647L116.41 18.45C116.348 18.3736 116.352 18.2609 116.424 18.1898C116.495 18.1186 116.609 18.1142 116.685 18.1764L116.7 18.1898L133.468 34.8663L133.482 34.8811C133.544 34.9574 133.54 35.0701 133.468 35.1413Z" fill="#C7A85C"/>
<path d="M132.028 36.0727C132.424 35.6785 132.811 35.2711 133.157 34.8573L133.159 34.8548L133.161 34.8525C134.293 33.5881 135.255 32.2386 136.061 30.8274L136.062 30.8258C136.729 29.6844 137.295 28.4969 137.752 27.2865L137.753 27.2849C138.211 26.1046 138.575 24.9019 138.83 23.677L138.831 23.6737C139.087 22.5487 139.249 21.4157 139.327 20.2746L139.327 20.2719L139.327 20.2693C139.39 19.6225 139.42 18.9764 139.413 18.331L139.803 18.3263C139.811 18.9871 139.78 19.6472 139.717 20.3063C139.638 21.4648 139.472 22.6159 139.212 23.7594C138.952 25.0055 138.582 26.2274 138.118 27.4248C137.653 28.6551 137.077 29.8616 136.4 31.0211C135.582 32.4529 134.606 33.8225 133.458 35.1062C133.101 35.5321 132.705 35.9486 132.304 36.3477L132.028 36.0727Z" fill="#C7A85C"/>
<path d="M131.89 35.9338C132.283 35.542 132.665 35.139 133.007 34.7313L133.011 34.7264L133.015 34.7216C134.138 33.4677 135.091 32.1296 135.891 30.7299L135.892 30.7283L135.893 30.7266C136.554 29.5945 137.116 28.4168 137.569 27.2165L137.57 27.215L137.57 27.2134C138.025 26.0421 138.386 24.8496 138.639 23.6359L138.64 23.6326L138.641 23.6292C138.894 22.5144 139.055 21.3914 139.132 20.26L139.132 20.2547L139.133 20.2492C139.194 19.6085 139.225 18.9694 139.217 18.3317L139.999 18.3223C140.007 18.9872 139.975 19.6508 139.912 20.3124C139.833 21.4802 139.666 22.6408 139.405 23.7939C139.158 24.9737 138.814 26.1313 138.386 27.2664L138.3 27.4931C137.831 28.7331 137.251 29.9488 136.569 31.1171C135.744 32.5593 134.762 33.9392 133.605 35.2325C133.243 35.6632 132.845 36.0831 132.442 36.4834L131.89 35.9338Z" fill="#C7A85C"/>
</g>
<defs>
<clipPath id="clip0_155_50785">
<rect width="140" height="37" fill="white"/>
</clipPath>
</defs>
</svg>
