<svg width="468" height="88" viewBox="0 0 468 88" fill="none" xmlns="http://www.w3.org/2000/svg">
<g clip-path="url(#clip0_91_122)">
<path d="M11.125 45.0547C11.125 46.2049 10.3167 47.1671 9.23047 47.4199L9.23047 52.9013L1.75879 60.289L1.75879 87.9804L0.626949 87.9804L0.626951 59.8135L8.10058 52.4258L8.10058 47.4199C7.01477 47.1674 6.20605 46.2052 6.20605 45.0547C6.20626 43.7122 7.30697 42.623 8.66504 42.623C10.0244 42.6231 11.1248 43.7122 11.125 45.0547ZM9.27929 63.2578L9.27929 87.9804L8.14843 87.9804L8.14843 62.7812L15.5996 55.4121L15.5996 42.498L9.95801 36.9179C9.58315 37.1464 9.14287 37.2812 8.66992 37.2812C7.31188 37.2811 6.21094 36.1912 6.21094 34.8486C6.21114 33.5062 7.312 32.4171 8.66992 32.417C10.0293 32.417 11.1307 33.5061 11.1309 34.8486C11.1309 35.3154 10.9953 35.7507 10.7646 36.1211L16.7305 42.0205L16.7305 55.8896L9.27929 63.2578ZM26.2129 44.3642C26.2128 45.5091 25.4111 46.4674 24.333 46.7256L24.333 56.2744L16.7998 63.7256L16.7998 87.9795L15.668 87.9795L15.668 63.248L23.2031 55.7969L23.2031 46.7334C22.1099 46.4862 21.294 45.5199 21.2939 44.3642C21.2939 43.0202 22.3947 41.9326 23.7529 41.9326C25.1111 41.9327 26.2129 43.0203 26.2129 44.3642ZM26.2129 65.4053C26.2129 66.555 25.4044 67.5172 24.3193 67.7705L24.3193 87.9804L23.1885 87.9804L23.1885 67.7705C22.1027 67.518 21.2939 66.5557 21.2939 65.4053C21.2941 64.0614 22.3949 62.9736 23.7529 62.9736C25.1109 62.9737 26.2127 64.0615 26.2129 65.4053ZM25.082 44.3642C25.082 43.6496 24.4857 43.0665 23.7529 43.0664C23.0201 43.0664 22.4238 43.6496 22.4238 44.3642C22.4239 45.0789 23.0201 45.6611 23.7529 45.6611C24.4857 45.661 25.082 45.0788 25.082 44.3642ZM25.082 65.4053C25.0818 64.6908 24.4856 64.1085 23.7529 64.1084C23.0202 64.1084 22.424 64.6908 22.4238 65.4053C22.4238 66.1199 23.0201 66.7031 23.7529 66.7031C24.4857 66.703 25.082 66.1199 25.082 65.4053ZM38.2285 87.9804L38.2285 69.6855L30.5879 62.1308L30.5879 53.3525C29.5023 53.0999 28.6934 52.1376 28.6934 50.9873C28.6934 49.6434 29.7943 48.5558 31.1523 48.5556C32.5119 48.5556 33.6133 49.6433 33.6133 50.9873C33.6132 52.1373 32.8048 53.0996 31.7187 53.3525L31.7187 61.6553L39.3584 69.2099L39.3584 87.9805L38.2285 87.9804ZM33.7334 72.8183C33.7334 73.9681 32.9254 74.9303 31.8398 75.1836L31.8398 87.9804L30.708 87.9804L30.708 75.1836C29.6224 74.9309 28.8135 73.9687 28.8135 72.8183C28.8137 71.476 29.9145 70.3869 31.2725 70.3867C32.6319 70.3867 33.7332 71.4758 33.7334 72.8183ZM32.4814 50.9873C32.4814 50.2726 31.8852 49.6894 31.1523 49.6894C30.4196 49.6896 29.8232 50.2727 29.8232 50.9873C29.8233 51.7018 30.4197 52.283 31.1523 52.2832C31.8852 52.2832 32.4814 51.7019 32.4814 50.9873ZM48.7734 57.5019C48.7734 58.6531 47.9644 59.6145 46.8789 59.8672L46.8789 87.9805L45.748 87.9805L45.748 59.8672C44.6627 59.6146 43.8545 58.6532 43.8545 57.5019C43.8547 56.1594 44.9554 55.0703 46.3135 55.0703C47.6715 55.0704 48.7732 56.1595 48.7734 57.5019ZM47.6426 57.5019C47.6424 56.7875 47.0461 56.2061 46.3135 56.206C45.5807 56.206 44.9846 56.7874 44.9844 57.5019C44.9844 58.2166 45.5806 58.7998 46.3135 58.7998C47.0463 58.7997 47.6426 58.2165 47.6426 57.5019ZM63.8242 31.5127C63.8242 32.6631 63.0152 33.6253 61.9287 33.8779L61.9287 43.0566L54.3994 50.5019L54.3994 87.9805L53.2686 87.9805L53.2686 50.0244L60.7988 42.5791L60.7988 33.8779C59.7132 33.6252 58.9043 32.663 58.9043 31.5127C58.9045 30.1703 60.0054 29.0812 61.3633 29.081C62.7227 29.081 63.824 30.1702 63.8242 31.5127ZM63.8242 51.3486C63.8242 52.5025 63.0104 53.4677 61.9189 53.7168L61.9189 87.9805L60.7881 87.9805L60.7881 53.7109C59.708 53.4543 58.9043 52.4951 58.9043 51.3486C58.9045 50.0062 60.0054 48.9172 61.3633 48.917C62.7227 48.917 63.824 50.0061 63.8242 51.3486ZM75.8281 87.9805L75.8281 68.6377L68.2539 61.1465L68.2539 46.0351C67.1681 45.7826 66.3594 44.8204 66.3594 43.6699C66.3596 42.3274 67.4603 41.2383 68.8184 41.2383C70.1777 41.2383 71.2781 42.3275 71.2783 43.6699C71.2783 44.8198 70.4706 45.782 69.3848 46.0351L69.3848 60.6709L76.959 68.1611L76.959 87.9805L75.8281 87.9805ZM71.333 72.8183C71.333 73.9686 70.5247 74.9308 69.4385 75.1836L69.4385 87.9805L68.3076 87.9805L68.3076 75.1836C67.2223 74.9307 66.4141 73.9685 66.4141 72.8183C66.4143 71.4758 67.515 70.3867 68.873 70.3867C70.2324 70.3868 71.3328 71.4759 71.333 72.8183ZM86.373 56.998C86.373 58.1479 85.5653 59.1101 84.4795 59.3633L84.4795 87.9805L83.3486 87.9805L83.3486 59.3633C82.2628 59.1107 81.4541 58.1485 81.4541 56.998C81.4543 55.6555 82.555 54.5664 83.9131 54.5664C85.2724 54.5665 86.3728 55.6556 86.373 56.998ZM98.3887 87.9795L98.3887 63.8594L90.7275 56.2851L90.7275 46.789C89.6424 46.5363 88.834 45.5749 88.834 44.4238C88.8342 43.0814 89.935 41.9923 91.293 41.9922C92.6524 41.9922 93.7537 43.0813 93.7539 44.4238C93.7539 45.575 92.9454 46.5363 91.8594 46.789L91.8594 55.8086L99.5186 63.3818L99.5186 87.9795L98.3887 87.9795ZM93.8936 72.8183C93.8936 73.9682 93.0858 74.9304 92 75.1836L92 87.9805L90.8682 87.9805L90.8682 75.1836C89.7828 74.9307 88.9746 73.9685 88.9746 72.8183C88.9748 71.4758 90.0755 70.3867 91.4336 70.3867C92.7929 70.3868 93.8933 71.4759 93.8936 72.8183ZM92.6221 44.4238C92.6219 43.7093 92.0257 43.1279 91.293 43.1279C90.5604 43.1281 89.9641 43.7094 89.9639 44.4238C89.9639 45.1384 90.5602 45.7215 91.293 45.7217C92.0258 45.7217 92.6221 45.1385 92.6221 44.4238ZM108.934 63.7881C108.934 64.9381 108.125 65.9003 107.039 66.1533L107.039 87.9805L105.908 87.9805L105.908 66.1533C104.823 65.9006 104.014 64.9384 104.014 63.7881C104.014 62.4457 105.115 61.3566 106.473 61.3564C107.832 61.3564 108.933 62.4456 108.934 63.7881ZM123.974 56.998C123.974 58.1733 123.129 59.1545 122.008 59.3808L122.008 68.2295L114.56 75.5947L114.56 87.9795L113.428 87.9795L113.428 75.1181L120.876 67.7529L120.876 59.3447C119.827 59.0666 119.055 58.1224 119.055 56.998C119.055 55.6542 120.156 54.5664 121.514 54.5664C122.872 54.5665 123.973 55.6543 123.974 56.998ZM128.469 87.9805L128.469 56.7344L120.937 49.2861L120.937 36.8945C119.857 36.6377 119.055 35.6793 119.055 34.5322C119.055 33.1897 120.156 32.1006 121.514 32.1006C122.872 32.1007 123.973 33.1898 123.974 34.5322C123.974 35.6876 123.159 36.6519 122.067 36.9004L122.067 48.8096L129.599 56.2578L129.599 87.9805L128.469 87.9805ZM123.974 78.123C123.974 79.4656 122.872 80.5546 121.514 80.5547C120.156 80.5547 119.055 79.4656 119.055 78.123C119.055 76.779 120.155 75.6914 121.514 75.6914C122.872 75.6915 123.974 76.7791 123.974 78.123ZM122.843 34.5322C122.843 33.8178 122.246 33.2364 121.514 33.2363C120.781 33.2363 120.185 33.8177 120.185 34.5322C120.185 35.2469 120.781 35.8301 121.514 35.8301C122.246 35.83 122.843 35.2468 122.843 34.5322ZM122.843 56.998C122.843 56.2836 122.246 55.7012 121.514 55.7012C120.781 55.7012 120.185 56.2835 120.185 56.998C120.185 57.7127 120.781 58.2939 121.514 58.2939C122.246 58.2938 122.843 57.7126 122.843 56.998ZM122.843 78.123C122.843 77.4084 122.246 76.8253 121.514 76.8252C120.781 76.8252 120.185 77.4084 120.185 78.123C120.185 78.8376 120.781 79.4189 121.514 79.4189C122.246 79.4188 122.843 78.8376 122.843 78.123ZM135.988 87.9795L135.988 32.5078L128.456 25.0596L128.456 18.791C127.37 18.5383 126.562 17.5761 126.562 16.4258C126.562 15.0834 127.663 13.9943 129.021 13.9941C130.38 13.9941 131.481 15.0833 131.481 16.4258C131.481 17.5755 130.673 18.5377 129.588 18.791L129.588 24.584L137.118 32.0312L137.118 87.9795L135.988 87.9795ZM152.159 38.7949L152.159 87.9795L151.029 87.9795L151.029 38.3183L158.42 31.0098L158.42 17.3349L145.441 4.50096C145.067 4.72943 144.626 4.86424 144.153 4.86424C142.795 4.86407 141.694 3.77418 141.694 2.43163C141.695 1.08924 142.795 0.000161728 144.153 -1.41558e-05C145.513 -1.40964e-05 146.614 1.08913 146.614 2.43163C146.614 2.89841 146.479 3.33367 146.248 3.70409L159.551 16.8594L159.551 31.4863L152.159 38.7949ZM144.639 35.7773L144.639 87.9805L143.508 87.9805L143.508 35.2998L151.057 27.8369L151.057 20.8564L145.419 15.2803C145.049 15.5003 144.617 15.6289 144.153 15.6289C142.795 15.6287 141.694 14.5398 141.694 13.1973C141.694 11.8547 142.795 10.7658 144.153 10.7656C145.513 10.7656 146.614 11.8546 146.614 13.1973C146.614 13.6732 146.474 14.1161 146.234 14.4912L152.187 20.3799L152.187 28.3135L144.639 35.7773ZM176.596 13.1973C176.596 14.3475 175.787 15.3097 174.701 15.5625L174.701 34.251L159.68 49.1055L159.68 87.9795L158.549 87.9795L158.549 48.6279L173.57 33.7744L173.57 15.5625C172.485 15.3097 171.677 14.3474 171.677 13.1973C171.677 11.8546 172.778 10.7656 174.136 10.7656C175.495 10.7657 176.596 11.8546 176.596 13.1973ZM176.613 46.9394C176.613 48.0733 175.828 49.024 174.765 49.293L174.765 55.875L167.2 63.3564L167.2 87.9805L166.068 87.9805L166.068 62.8799L173.634 55.3974L173.634 49.3164C172.525 49.0805 171.694 48.1059 171.694 46.9394C171.694 45.5954 172.795 44.5078 174.153 44.5078C175.513 44.5079 176.613 45.5955 176.613 46.9394ZM176.549 72.5898C176.549 73.7168 175.773 74.6628 174.72 74.9385L174.72 87.9805L173.588 87.9805L173.588 74.9717C172.47 74.7428 171.63 73.7628 171.63 72.5898C171.63 71.2473 172.731 70.1582 174.089 70.1582C175.448 70.1583 176.549 71.2474 176.549 72.5898ZM175.482 46.9394C175.482 46.2248 174.886 45.6417 174.153 45.6416C173.42 45.6416 172.824 46.2248 172.824 46.9394C172.824 47.6541 173.42 48.2353 174.153 48.2353C174.886 48.2353 175.482 47.654 175.482 46.9394ZM184.125 27.1474C184.125 28.2944 183.321 29.2546 182.239 29.5107L182.239 87.9805L181.108 87.9805L181.108 29.5146C180.018 29.2651 179.205 28.3009 179.205 27.1474C179.205 25.8051 180.306 24.716 181.664 24.7158C183.023 24.7158 184.125 25.805 184.125 27.1474ZM199.109 21.7519C199.109 22.9114 198.288 23.8807 197.188 24.124L197.188 33.4375L189.76 40.7832L189.76 87.9805L188.629 87.9805L188.629 40.3057L196.059 32.9599L196.059 24.1103C194.986 23.8485 194.189 22.8932 194.189 21.7519C194.19 20.4082 195.291 19.3205 196.648 19.3203C198.008 19.3203 199.109 20.4081 199.109 21.7519ZM199.109 41.4746C199.109 42.6017 198.333 43.5477 197.279 43.8232L197.279 87.9805L196.147 87.9805L196.147 43.8555C195.03 43.6264 194.189 42.6474 194.189 41.4746C194.19 40.1322 195.291 39.0431 196.648 39.043C198.008 39.043 199.109 40.1321 199.109 41.4746ZM197.978 21.7519C197.977 21.0374 197.381 20.4551 196.648 20.4551C195.916 20.4552 195.32 21.0376 195.319 21.7519C195.319 22.4665 195.916 23.0477 196.648 23.0478C197.381 23.0478 197.978 22.4666 197.978 21.7519ZM206.693 66.3135C206.693 67.4642 205.886 68.4255 204.801 68.6787L204.801 87.9805L203.669 87.9805L203.669 68.6787C202.583 68.4264 201.774 67.4651 201.774 66.3135C201.775 64.971 202.875 63.8818 204.233 63.8818C205.593 63.8819 206.693 64.971 206.693 66.3135ZM211.189 87.9805L211.189 62.3652L203.757 55.0176L203.757 45.3281C202.671 45.0757 201.862 44.1143 201.862 42.9629C201.863 41.6205 202.963 40.5314 204.321 40.5312C205.681 40.5312 206.782 41.6204 206.782 42.9629C206.782 44.1141 205.974 45.0754 204.888 45.3281L204.888 54.542L212.319 61.8887L212.319 87.9805L211.189 87.9805ZM205.562 66.3135C205.562 65.599 204.966 65.0177 204.233 65.0176C203.501 65.0176 202.905 65.599 202.904 66.3135C202.904 67.0281 203.501 67.6113 204.233 67.6113C204.966 67.6112 205.562 67.0281 205.562 66.3135ZM205.65 42.9629C205.65 42.2484 205.054 41.667 204.321 41.667C203.589 41.6672 202.992 42.2485 202.992 42.9629C202.992 43.6774 203.589 44.2606 204.321 44.2607C205.054 44.2607 205.65 43.6775 205.65 42.9629ZM221.669 38.0322C221.669 39.1592 220.893 40.1052 219.84 40.3808L219.84 87.9805L218.709 87.9805L218.709 40.4141C217.591 40.1856 216.75 39.2056 216.75 38.0322C216.75 36.6897 217.851 35.6006 219.209 35.6006C220.568 35.6007 221.669 36.6898 221.669 38.0322ZM233.749 87.9805L233.749 78.6475L226.036 71.0215L226.036 62.9111C224.951 62.6583 224.143 61.697 224.143 60.5459C224.143 59.2035 225.244 58.1144 226.602 58.1142C227.961 58.1142 229.062 59.2034 229.062 60.5459C229.062 61.6971 228.254 62.6584 227.168 62.9111L227.168 70.5459L234.879 78.1699L234.879 87.9805L233.749 87.9805ZM241.268 87.9795L241.268 62.7373L226.126 47.7646L226.126 32.8789C225.008 32.65 224.168 31.6701 224.168 30.4971C224.168 29.1546 225.269 28.0654 226.627 28.0654C227.986 28.0655 229.087 29.1546 229.087 30.4971C229.087 31.6243 228.31 32.5703 227.257 32.8457L227.257 47.2891L242.399 62.2607L242.399 87.9795L241.268 87.9795ZM227.931 60.5459C227.93 59.8314 227.334 59.25 226.602 59.25C225.869 59.2502 225.273 59.8315 225.272 60.5459C225.272 61.2604 225.869 61.8436 226.602 61.8437C227.334 61.8437 227.931 61.2606 227.931 60.5459ZM248.788 87.9795L248.788 58.46L241.124 50.8799L241.124 45.7002C240.039 45.4473 239.23 44.4851 239.23 43.335C239.231 41.9911 240.331 40.9033 241.689 40.9033C243.047 40.9034 244.149 41.9912 244.149 43.335C244.149 44.4847 243.341 45.4469 242.256 45.7002L242.256 50.4043L249.919 57.9824L249.919 87.9795L248.788 87.9795ZM243.019 43.335C243.018 42.6205 242.422 42.0382 241.689 42.0381C240.957 42.0381 240.361 42.6205 240.36 43.335C240.36 44.0496 240.957 44.6308 241.689 44.6308C242.422 44.6308 243.019 44.0496 243.019 43.335ZM256.308 87.9805L256.308 55.1055L248.534 47.416L248.534 32.8623C247.448 32.6101 246.64 31.6487 246.64 30.4971C246.64 29.1544 247.74 28.0654 249.099 28.0654C250.458 28.0655 251.559 29.1544 251.559 30.4971C251.559 31.648 250.751 32.6084 249.665 32.8613L249.665 46.9404L257.438 54.6279L257.438 87.9805L256.308 87.9805ZM250.428 30.4971C250.428 29.7824 249.831 29.2012 249.099 29.2012C248.366 29.2012 247.77 29.7824 247.77 30.4971C247.77 31.2117 248.366 31.7939 249.099 31.7939C249.831 31.7939 250.428 31.2116 250.428 30.4971ZM263.828 87.9805L263.828 52.04L256.164 44.46L256.164 40.4141C255.046 40.1854 254.205 39.2054 254.205 38.0322C254.205 36.6898 255.306 35.6008 256.664 35.6006C258.023 35.6006 259.125 36.6897 259.125 38.0322C259.125 39.159 258.349 40.105 257.296 40.3809L257.296 43.9844L264.959 51.5625L264.959 87.9805L263.828 87.9805ZM278.868 87.9795L278.868 38.2705L271.299 30.7851L271.299 19.9473C270.18 19.7188 269.34 18.7388 269.34 17.5654C269.34 16.2229 270.441 15.1338 271.799 15.1338C273.158 15.1339 274.259 16.223 274.259 17.5654C274.259 18.6924 273.483 19.6384 272.43 19.9141L272.43 30.3086L279.999 37.7939L279.999 87.9795L278.868 87.9795ZM274.374 51.2432C274.374 52.3941 273.565 53.3545 272.479 53.6074L272.479 87.9805L271.348 87.9805L271.348 53.6074C270.263 53.3546 269.454 52.3942 269.454 51.2432C269.454 49.9006 270.555 48.8117 271.913 48.8115C273.271 48.8115 274.374 49.9005 274.374 51.2432ZM273.242 51.2432C273.242 50.5285 272.646 49.9453 271.913 49.9453C271.18 49.9455 270.584 50.5286 270.584 51.2432C270.584 51.9577 271.18 52.5399 271.913 52.54C272.646 52.54 273.242 51.9578 273.242 51.2432ZM289.295 25.4736C289.295 26.5815 288.544 27.5154 287.519 27.8086L287.519 87.9805L286.388 87.9805L286.388 27.8633C285.243 27.6553 284.375 26.6653 284.375 25.4736C284.375 24.1311 285.476 23.0422 286.834 23.042C288.194 23.042 289.295 24.131 289.295 25.4736ZM301.43 87.9805L301.43 38.6435L293.671 30.9717L293.671 19.9307C292.585 19.6784 291.776 18.717 291.776 17.5654C291.777 16.2229 292.877 15.1338 294.235 15.1338C295.593 15.1339 296.695 16.223 296.695 17.5654C296.695 18.7163 295.887 19.6776 294.802 19.9307L294.802 30.4951L302.56 38.166L302.56 87.9805L301.43 87.9805ZM296.934 56.2666C296.934 57.4165 296.126 58.3787 295.04 58.6318L295.04 87.9805L293.908 87.9805L293.908 58.6318C292.823 58.379 292.015 57.4168 292.015 56.2666C292.015 54.9241 293.116 53.835 294.474 53.835C295.833 53.835 296.933 54.9241 296.934 56.2666ZM295.564 17.5654C295.564 16.851 294.968 16.2696 294.235 16.2695C293.503 16.2695 292.906 16.8509 292.906 17.5654C292.906 18.2801 293.502 18.8633 294.235 18.8633C294.968 18.8632 295.564 18.28 295.564 17.5654ZM311.974 75.5244C311.974 76.6742 311.166 77.6355 310.08 77.8887L310.08 87.9805L308.948 87.9805L308.948 77.8896C307.863 77.6368 307.055 76.6746 307.055 75.5244C307.055 74.1817 308.155 73.0928 309.514 73.0928C310.873 73.0929 311.974 74.1818 311.974 75.5244ZM326.831 15.71C326.831 17.0526 325.73 18.1416 324.37 18.1416C323.898 18.1415 323.459 18.0073 323.085 17.7793L309.983 30.7353L309.983 58.4512L317.6 65.9834L317.6 87.9805L316.469 87.9805L316.469 66.459L308.852 58.9268L308.852 30.2588L322.278 16.9824C322.047 16.6119 321.911 16.177 321.911 15.71C321.911 14.3674 323.012 13.2785 324.37 13.2783C325.73 13.2783 326.831 14.3673 326.831 15.71ZM326.784 26.3574C326.784 27.7 325.684 28.7899 324.324 28.79C323.852 28.79 323.413 28.6547 323.039 28.4268L317.506 33.8984L317.506 55.2402L325.12 62.7676L325.12 87.9795L323.988 87.9795L323.988 63.2441L316.374 55.7158L316.374 33.4209L322.232 27.6299C322.002 27.2593 321.865 26.8245 321.865 26.3574C321.865 25.0149 322.966 23.9258 324.324 23.9258C325.684 23.9259 326.784 25.015 326.784 26.3574ZM331.509 87.9795L331.509 60.3193L324.054 52.9473L324.054 47.667C322.968 47.4147 322.159 46.4534 322.159 45.3018C322.159 43.9593 323.26 42.8701 324.618 42.8701C325.976 42.8702 327.078 43.9593 327.078 45.3018C327.078 46.4526 326.27 47.414 325.185 47.667L325.185 52.4717L332.64 59.8437L332.64 87.9795L331.509 87.9795ZM325.947 45.3018C325.947 44.5873 325.351 44.0059 324.618 44.0059C323.885 44.0059 323.289 44.5873 323.289 45.3018C323.289 46.0164 323.885 46.5996 324.618 46.5996C325.351 46.5995 325.947 46.0164 325.947 45.3018ZM349.574 38.125C349.574 39.3007 348.731 40.2809 347.61 40.5078L347.61 44.7158L340.16 52.083L340.16 87.9805L339.028 87.9805L339.028 51.6064L346.479 44.2393L346.479 40.4727C345.429 40.196 344.654 39.2517 344.654 38.125C344.654 36.7826 345.755 35.6935 347.113 35.6934C348.473 35.6934 349.574 36.7825 349.574 38.125ZM348.442 38.125C348.442 37.4105 347.846 36.8291 347.113 36.8291C346.381 36.8293 345.784 37.4106 345.784 38.125C345.784 38.8396 346.381 39.4227 347.113 39.4228C347.846 39.4228 348.442 38.8397 348.442 38.125ZM357.145 30.4043C357.144 31.5543 356.336 32.5166 355.25 32.7695L355.25 47.623L347.68 55.1094L347.68 87.9805L346.549 87.9805L346.549 54.6318L354.119 47.1465L354.119 32.7695C353.034 32.5169 352.225 31.5546 352.225 30.4043C352.225 29.0617 353.326 27.9728 354.684 27.9727C356.043 27.9727 357.145 29.0616 357.145 30.4043ZM364.523 43.4277C364.523 44.5792 363.714 45.5406 362.628 45.793L362.628 50.834L355.2 58.1787L355.2 87.9805L354.068 87.9805L354.068 57.7031L361.498 50.3564L361.498 45.793C360.412 45.5405 359.604 44.5792 359.604 43.4277C359.604 42.0853 360.705 40.9963 362.062 40.9961C363.422 40.9961 364.523 42.0852 364.523 43.4277ZM363.392 43.4277C363.391 42.7132 362.795 42.1318 362.062 42.1318C361.33 42.132 360.734 42.7133 360.733 43.4277C360.733 44.1423 361.33 44.7254 362.062 44.7256C362.795 44.7256 363.392 44.1424 363.392 43.4277ZM379.708 30.4043C379.708 31.5547 378.899 32.5169 377.812 32.7695L377.812 47.7207L362.72 62.6455L362.72 87.9805L361.589 87.9805L361.589 62.1699L376.682 47.2432L376.682 32.7686C375.597 32.5155 374.788 31.5542 374.788 30.4043C374.788 29.0617 375.889 27.9728 377.247 27.9727C378.607 27.9727 379.708 29.0616 379.708 30.4043ZM379.517 60.3603C379.517 61.5102 378.707 62.4715 377.622 62.7246L377.622 70.9746L370.24 78.2754L370.24 87.9805L369.108 87.9805L369.108 77.7978L376.492 70.499L376.492 62.7256C375.406 62.4733 374.597 61.511 374.597 60.3603C374.597 59.0165 375.698 57.9289 377.056 57.9287C378.414 57.9287 379.517 59.0163 379.517 60.3603ZM378.385 60.3603C378.385 59.6457 377.789 59.0625 377.056 59.0625C376.323 59.0627 375.727 59.6458 375.727 60.3603C375.727 61.0748 376.323 61.6561 377.056 61.6562C377.788 61.6562 378.385 61.075 378.385 60.3603ZM387.174 38.126C387.174 39.2762 386.366 40.2385 385.279 40.4912L385.279 87.9805L384.148 87.9805L384.148 40.4912C383.063 40.2384 382.255 39.2761 382.255 38.126C382.255 36.7833 383.356 35.6943 384.714 35.6943C386.073 35.6944 387.174 36.7834 387.174 38.126ZM402.076 42.8701C402.076 44.0203 401.268 44.9825 400.182 45.2353L400.182 54.9736L392.8 62.2734L392.8 87.9805L391.668 87.9805L391.668 61.7959L399.052 54.4971L399.052 45.2353C397.966 44.9828 397.157 44.0206 397.157 42.8701C397.157 41.5263 398.258 40.4385 399.616 40.4385C400.976 40.4386 402.076 41.5263 402.076 42.8701ZM400.945 42.8701C400.945 42.1557 400.349 41.5733 399.616 41.5732C398.883 41.5732 398.287 42.1556 398.287 42.8701C398.287 43.5848 398.883 44.166 399.616 44.166C400.349 44.1659 400.945 43.5847 400.945 42.8701ZM414.229 87.9805L414.229 41.0625L406.706 33.6221L406.706 24.1172C405.62 23.8647 404.812 22.9024 404.812 21.752C404.812 20.4094 405.912 19.3203 407.271 19.3203C408.63 19.3204 409.73 20.4095 409.73 21.752C409.73 22.9018 408.923 23.864 407.837 24.1172L407.837 33.1465L415.359 40.5859L415.359 87.9805L414.229 87.9805ZM409.734 41.6611C409.734 42.8112 408.926 43.7734 407.84 44.0264L407.84 87.9805L406.708 87.9805L406.708 44.0254C405.623 43.7723 404.815 42.811 404.814 41.6611C404.814 40.3186 405.915 39.2297 407.273 39.2295C408.633 39.2295 409.734 40.3185 409.734 41.6611ZM424.774 59.1914C424.774 60.3429 423.965 61.3043 422.879 61.5566L422.879 87.9805L421.748 87.9805L421.748 61.5566C420.663 61.3039 419.855 60.3425 419.855 59.1914C419.856 57.849 420.956 56.7599 422.313 56.7598C423.673 56.7598 424.774 57.8489 424.774 59.1914ZM423.643 59.1914C423.642 58.4769 423.046 57.8955 422.313 57.8955C421.581 57.8957 420.985 58.477 420.984 59.1914C420.984 59.906 421.581 60.4891 422.313 60.4893C423.046 60.4893 423.643 59.9061 423.643 59.1914ZM439.742 50.8711C439.742 52.0109 438.947 52.9653 437.876 53.2285L437.876 62.0439L430.399 69.4355L430.399 87.9805L429.269 87.9805L429.269 68.959L436.746 61.5664L436.746 53.2432C435.646 53.0012 434.823 52.0317 434.823 50.8711C434.823 49.5272 435.923 48.4396 437.281 48.4395C438.639 48.4395 439.742 49.5271 439.742 50.8711ZM439.814 72.5469C439.814 73.6969 439.006 74.6591 437.92 74.9121L437.92 87.9805L436.789 87.9805L436.789 74.9121C435.703 74.6594 434.896 73.6972 434.896 72.5469C434.896 71.2045 435.996 70.1154 437.354 70.1152C438.713 70.1152 439.814 71.2044 439.814 72.5469ZM438.61 50.8711C438.61 50.1564 438.014 49.5732 437.281 49.5732C436.549 49.5734 435.952 50.1565 435.952 50.8711C435.952 51.5856 436.549 52.1678 437.281 52.168C438.014 52.168 438.61 51.5857 438.61 50.8711ZM451.829 87.9795L451.829 63.7607L444.306 56.3223L444.306 46.5381C443.22 46.2854 442.412 45.3232 442.412 44.1729C442.412 42.829 443.512 41.7414 444.87 41.7412C446.228 41.7412 447.331 42.8289 447.331 44.1729C447.331 45.3227 446.522 46.284 445.437 46.5371L445.437 55.8467L452.961 63.2852L452.961 87.9795L451.829 87.9795ZM446.199 44.1729C446.199 43.4582 445.603 42.875 444.87 42.875C444.137 42.8752 443.541 43.4583 443.541 44.1729C443.541 44.8874 444.137 45.4686 444.87 45.4687C445.603 45.4687 446.199 44.8875 446.199 44.1729ZM462.281 26.126C462.281 27.4686 461.181 28.5585 459.821 28.5586C459.349 28.5586 458.91 28.4236 458.535 28.1953L452.581 34.084L452.581 55.0039L460.48 62.8154L460.48 87.9805L459.35 87.9805L459.35 63.291L451.45 55.4805L451.45 33.6084L457.729 27.3984C457.499 27.0279 457.362 26.593 457.362 26.126C457.362 24.7835 458.463 23.6943 459.821 23.6943C461.181 23.6944 462.281 24.7835 462.281 26.126ZM466.869 87.9795L466.869 60.2266L459.204 52.6475L459.204 47.4551C458.145 47.184 457.362 46.2343 457.362 45.1025C457.362 43.76 458.463 42.6709 459.821 42.6709C461.181 42.671 462.281 43.7601 462.281 45.1025C462.281 46.2711 461.447 47.2468 460.335 47.4805L460.335 52.1719L468 59.749L468 87.9795L466.869 87.9795Z" fill="url(#paint0_linear_91_122)"/>
</g>
<defs>
<linearGradient id="paint0_linear_91_122" x1="468" y1="88" x2="-1.62825" y2="17.5103" gradientUnits="userSpaceOnUse">
<stop stop-color="#C9A95B"/>
<stop offset="0.503101" stop-color="#C9A95B"/>
<stop offset="0.627057" stop-color="#E2CE9C"/>
<stop offset="0.759957" stop-color="#C9A95B"/>
<stop offset="1" stop-color="#C9A95B"/>
</linearGradient>
<clipPath id="clip0_91_122">
<rect width="88" height="468" fill="white" transform="translate(468) rotate(90)"/>
</clipPath>
</defs>
</svg>
