<svg width="468" height="88" viewBox="0 0 468 88" fill="none" xmlns="http://www.w3.org/2000/svg">
<g clip-path="url(#clip0_49_792)">
<path d="M0.62744 87.98L0.627441 59.8134L8.10084 52.4254L8.10084 45.0547L9.23067 45.0547L9.23067 52.9014L1.75861 60.2894L1.75861 87.98L0.62744 87.98Z" fill="#C9A95B"/>
<path d="M8.14844 87.9803L8.14844 62.7817L15.5993 55.4123L15.5993 42.4977L8.27457 35.2537L9.06718 34.4443L16.7304 42.0203L16.7304 55.8897L9.2796 63.2577L9.2796 87.9803L8.14844 87.9803Z" fill="#C9A95B"/>
<path d="M15.6685 87.9799L15.6685 63.2479L23.2029 55.7972L23.2029 46.1025L24.3328 46.1025L24.3328 56.2745L16.7996 63.7252L16.7996 87.9799L15.6685 87.9799Z" fill="#C9A95B"/>
<path d="M23.1885 87.9807L23.1885 67.042L24.3196 67.042L24.3196 87.9807L23.1885 87.9807Z" fill="#C9A95B"/>
<path d="M30.7085 87.9807L30.7085 72.8193L31.8397 72.8193L31.8397 87.9807L30.7085 87.9807Z" fill="#C9A95B"/>
<path d="M30.5879 62.1311L30.5879 52.8765L31.7191 52.8765L31.7191 61.6551L39.3584 69.2098L39.3584 87.9805L38.2286 87.9805L38.2286 69.6858L30.5879 62.1311Z" fill="#C9A95B"/>
<path d="M45.748 87.9806L45.748 59.4033L46.8792 59.4033L46.8792 87.9806L45.748 87.9806Z" fill="#C9A95B"/>
<path d="M53.2686 87.9802L53.2686 50.0242L60.799 42.5789L60.799 31.5122L61.9289 31.5122L61.9289 43.0562L54.3997 50.5015L54.3997 87.9802L53.2686 87.9802Z" fill="#C9A95B"/>
<path d="M60.7881 87.9806L60.7881 51.3486L61.9193 51.3486L61.9193 87.9806L60.7881 87.9806Z" fill="#C9A95B"/>
<path d="M68.3076 87.9807L68.3076 72.8193L69.4388 72.8193L69.4388 87.9807L68.3076 87.9807Z" fill="#C9A95B"/>
<path d="M68.2539 61.1469L68.2539 43.6709L69.3851 43.6709L69.3851 60.6709L76.9594 68.1616L76.9594 87.9802L75.8282 87.9802L75.8282 68.6376L68.2539 61.1469Z" fill="#C9A95B"/>
<path d="M83.3486 87.9803L83.3486 56.999L84.4798 56.999L84.4798 87.9803L83.3486 87.9803Z" fill="#C9A95B"/>
<path d="M90.8687 87.9803L90.8687 72.7417L91.9998 72.7417L91.9998 87.9803L90.8687 87.9803Z" fill="#C9A95B"/>
<path d="M90.728 56.285L90.728 46.3623L91.8592 46.3623L91.8592 55.809L99.5185 63.3823L99.5185 87.9796L98.3886 87.9796L98.3886 63.8596L90.728 56.285Z" fill="#C9A95B"/>
<path d="M105.908 87.9806L105.908 63.7886L107.039 63.7886L107.039 87.9806L105.908 87.9806Z" fill="#C9A95B"/>
<path d="M113.428 87.9798L113.428 75.1185L120.876 67.7531L120.876 58.7998L122.008 58.7998L122.008 68.2291L114.559 75.5945L114.559 87.9798L113.428 87.9798Z" fill="#C9A95B"/>
<path d="M120.937 49.286L120.937 36.438L122.068 36.438L122.068 48.81L129.598 56.258L129.598 87.9807L128.468 87.9807L128.468 56.734L120.937 49.286Z" fill="#C9A95B"/>
<path d="M128.457 25.0596L128.457 16.4263L129.588 16.4263L129.588 24.5836L137.118 32.0316L137.118 87.9796L135.988 87.9796L135.988 32.5076L128.457 25.0596Z" fill="#C9A95B"/>
<path d="M143.508 87.98L143.508 35.3L151.057 27.8373L151.057 20.856L143.722 13.6027L144.516 12.792L152.187 20.38L152.187 28.3133L144.639 35.7773L144.639 87.98L143.508 87.98Z" fill="#C9A95B"/>
<path d="M143.757 2.83668L144.551 2.02734L159.551 16.8593L159.551 31.486L152.16 38.7953L152.16 87.9793L151.03 87.9793L151.03 38.318L158.42 31.01L158.42 17.3353L143.757 2.83668Z" fill="#C9A95B"/>
<path d="M158.549 87.9799L158.549 48.6279L173.57 33.7746L173.57 13.1973L174.701 13.1973L174.701 34.2506L159.68 49.1053L159.68 87.9799L158.549 87.9799Z" fill="#C9A95B"/>
<path d="M166.069 87.9802L166.069 62.8802L173.634 55.3975L173.634 48.7842L174.765 48.7842L174.765 55.8748L167.2 63.3562L167.2 87.9802L166.069 87.9802Z" fill="#C9A95B"/>
<path d="M173.588 87.9806L173.588 72.5913L174.72 72.5913L174.72 87.9806L173.588 87.9806Z" fill="#C9A95B"/>
<path d="M181.108 87.9804L181.108 27.1484L182.24 27.1484L182.24 87.9804L181.108 87.9804Z" fill="#C9A95B"/>
<path d="M188.629 87.9804L188.629 40.3057L196.058 32.9604L196.058 23.6084L197.188 23.6084L197.188 33.4377L189.76 40.7831L189.76 87.9804L188.629 87.9804Z" fill="#C9A95B"/>
<path d="M196.148 87.9804L196.148 41.4751L197.279 41.4751L197.279 87.9804L196.148 87.9804Z" fill="#C9A95B"/>
<path d="M203.669 87.9804L203.669 68.2324L204.801 68.2324L204.801 87.9804L203.669 87.9804Z" fill="#C9A95B"/>
<path d="M203.757 55.0177L203.757 44.875L204.888 44.875L204.888 54.5417L212.319 61.8883L212.319 87.9803L211.189 87.9803L211.189 62.3657L203.757 55.0177Z" fill="#C9A95B"/>
<path d="M218.709 87.9802L218.709 38.0322L219.84 38.0322L219.84 87.9802L218.709 87.9802Z" fill="#C9A95B"/>
<path d="M226.037 71.0218L226.037 62.5005L227.168 62.5005L227.168 70.5458L234.879 78.1698L234.879 87.9805L233.749 87.9805L233.749 78.6472L226.037 71.0218Z" fill="#C9A95B"/>
<path d="M226.126 47.7651L226.126 30.4971L227.257 30.4971L227.257 47.2891L242.399 62.2611L242.399 87.9797L241.268 87.9797L241.268 62.7371L226.126 47.7651Z" fill="#C9A95B"/>
<path d="M241.125 50.8798L241.125 45.2012L242.256 45.2012L242.256 50.4038L249.919 57.9825L249.919 87.9798L248.788 87.9798L248.788 58.4598L241.125 50.8798Z" fill="#C9A95B"/>
<path d="M248.534 47.4161L248.534 32.3628L249.665 32.3628L249.665 46.9401L257.439 54.6281L257.439 87.9801L256.308 87.9801L256.308 55.1055L248.534 47.4161Z" fill="#C9A95B"/>
<path d="M256.165 44.4602L256.165 38.0322L257.296 38.0322L257.296 43.9842L264.959 51.5629L264.959 87.9802L263.828 87.9802L263.828 52.0402L256.165 44.4602Z" fill="#C9A95B"/>
<path d="M271.348 87.9805L271.348 53.1885L272.479 53.1885L272.479 87.9805L271.348 87.9805Z" fill="#C9A95B"/>
<path d="M271.299 30.7851L271.299 17.5664L272.43 17.5664L272.43 30.3091L279.999 37.7944L279.999 87.9797L278.868 87.9797L278.868 38.2704L271.299 30.7851Z" fill="#C9A95B"/>
<path d="M286.388 87.9803L286.388 25.4736L287.519 25.4736L287.519 87.9803L286.388 87.9803Z" fill="#C9A95B"/>
<path d="M293.909 87.9804L293.909 56.2671L295.04 56.2671L295.04 87.9804L293.909 87.9804Z" fill="#C9A95B"/>
<path d="M293.671 30.9712L293.671 19.5312L294.802 19.5313L294.802 30.4952L302.56 38.1659L302.56 87.9806L301.43 87.9806L301.43 38.6432L293.671 30.9712Z" fill="#C9A95B"/>
<path d="M308.949 87.9804L308.949 75.5244L310.08 75.5244L310.08 87.9804L308.949 87.9804Z" fill="#C9A95B"/>
<path d="M308.852 58.927L308.852 30.259L323.974 15.3057L324.767 16.1163L309.983 30.735L309.983 58.451L317.6 65.983L317.6 87.9803L316.469 87.9803L316.469 66.459L308.852 58.927Z" fill="#C9A95B"/>
<path d="M316.375 55.7158L316.375 33.4211L323.928 25.9531L324.722 26.7625L317.506 33.8985L317.506 55.2398L325.12 62.7678L325.12 87.9798L323.989 87.9798L323.989 63.2438L316.375 55.7158Z" fill="#C9A95B"/>
<path d="M324.054 52.9477L324.054 47.2344L325.185 47.2344L325.185 52.4717L332.64 59.8437L332.64 87.9797L331.509 87.9797L331.509 60.3197L324.054 52.9477Z" fill="#C9A95B"/>
<path d="M339.029 87.9802L339.029 51.6069L346.48 44.2389L346.48 40.0322L347.611 40.0322L347.611 44.7162L340.16 52.0829L340.16 87.9802L339.029 87.9802Z" fill="#C9A95B"/>
<path d="M346.549 87.9803L346.549 54.6323L354.119 47.147L354.119 30.4043L355.25 30.4043L355.25 47.623L347.68 55.1096L347.68 87.9803L346.549 87.9803Z" fill="#C9A95B"/>
<path d="M354.069 87.9803L354.069 57.7029L361.498 50.3563L361.498 45.3843L362.628 45.3843L362.628 50.8336L355.2 58.1789L355.2 87.9803L354.069 87.9803Z" fill="#C9A95B"/>
<path d="M361.589 87.9803L361.589 62.1696L376.682 47.243L376.682 30.4043L377.813 30.4043L377.813 47.7203L362.72 62.6456L362.72 87.9803L361.589 87.9803Z" fill="#C9A95B"/>
<path d="M369.109 87.9803L369.109 77.7976L376.492 70.499L376.492 62.251L377.622 62.251L377.622 70.975L370.24 78.275L370.24 87.9803L369.109 87.9803Z" fill="#C9A95B"/>
<path d="M384.148 87.9806L384.148 38.126L385.28 38.126L385.28 87.9806L384.148 87.9806Z" fill="#C9A95B"/>
<path d="M391.668 87.9802L391.668 61.7962L399.052 54.4975L399.052 44.8389L400.181 44.8389L400.181 54.9735L392.8 62.2735L392.8 87.9802L391.668 87.9802Z" fill="#C9A95B"/>
<path d="M406.708 87.9808L406.708 41.6621L407.84 41.6621L407.84 87.9808L406.708 87.9808Z" fill="#C9A95B"/>
<path d="M406.706 33.6223L406.706 21.7529L407.837 21.7529L407.837 33.1463L415.36 40.5863L415.36 87.9809L414.229 87.9809L414.229 41.0623L406.706 33.6223Z" fill="#C9A95B"/>
<path d="M421.748 87.9805L421.748 61.1646L422.879 61.1646L422.879 87.9805L421.748 87.9805Z" fill="#C9A95B"/>
<path d="M429.269 87.98L429.269 68.9587L436.746 61.5667L436.746 52.792L437.876 52.792L437.876 62.044L430.4 69.436L430.4 87.98L429.269 87.98Z" fill="#C9A95B"/>
<path d="M436.789 87.9803L436.789 72.5483L437.92 72.5483L437.92 87.9803L436.789 87.9803Z" fill="#C9A95B"/>
<path d="M444.306 56.3222L444.306 46.1289L445.437 46.1289L445.437 55.8462L452.961 63.2849L452.961 87.9796L451.83 87.9796L451.83 63.7609L444.306 56.3222Z" fill="#C9A95B"/>
<path d="M451.45 55.4803L451.45 33.6083L459.425 25.7217L460.218 26.531L452.581 34.0843L452.581 55.0043L460.48 62.815L460.48 87.9803L459.349 87.9803L459.349 63.291L451.45 55.4803Z" fill="#C9A95B"/>
<path d="M459.204 52.6479L459.204 45.1025L460.335 45.1025L460.335 52.1719L468 59.7492L468 87.9799L466.869 87.9799L466.869 60.2265L459.204 52.6479Z" fill="#C9A95B"/>
<path d="M11.125 45.055C11.125 46.3977 10.0244 47.487 8.66488 47.487C7.30668 47.487 6.20605 46.3977 6.20605 45.055C6.20605 43.7124 7.30668 42.623 8.66488 42.623C10.0244 42.623 11.125 43.7124 11.125 45.055Z" fill="#C9A95B"/>
<path d="M11.1304 34.849C11.1304 36.1917 10.0298 37.281 8.67025 37.281C7.31206 37.281 6.21143 36.1917 6.21143 34.849C6.21143 33.5063 7.31206 32.417 8.67025 32.417C10.0298 32.417 11.1304 33.5063 11.1304 34.849Z" fill="#C9A95B"/>
<path d="M33.7329 72.8187C33.7329 74.1614 32.6323 75.2507 31.2728 75.2507C29.9146 75.2507 28.814 74.1614 28.814 72.8187C28.814 71.4761 29.9146 70.3867 31.2728 70.3867C32.6323 70.3867 33.7329 71.4761 33.7329 72.8187Z" fill="#C9A95B"/>
<path d="M63.8238 51.349C63.8238 52.6917 62.7231 53.781 61.3636 53.781C60.0054 53.781 58.9048 52.6917 58.9048 51.349C58.9048 50.0063 60.0054 48.917 61.3636 48.917C62.7231 48.917 63.8238 50.0063 63.8238 51.349Z" fill="#C9A95B"/>
<path d="M71.333 72.8187C71.333 74.1614 70.2324 75.2507 68.8729 75.2507C67.5147 75.2507 66.4141 74.1614 66.4141 72.8187C66.4141 71.4761 67.5147 70.3867 68.8729 70.3867C70.2324 70.3867 71.333 71.4761 71.333 72.8187Z" fill="#C9A95B"/>
<path d="M63.8238 31.5131C63.8238 32.8557 62.7231 33.9451 61.3636 33.9451C60.0054 33.9451 58.9048 32.8557 58.9048 31.5131C58.9048 30.1704 60.0054 29.0811 61.3636 29.0811C62.7231 29.0811 63.8238 30.1704 63.8238 31.5131Z" fill="#C9A95B"/>
<path d="M71.2784 43.6703C71.2784 45.0129 70.1777 46.1023 68.8182 46.1023C67.46 46.1023 66.3594 45.0129 66.3594 43.6703C66.3594 42.3276 67.46 41.2383 68.8182 41.2383C70.1777 41.2383 71.2784 42.3276 71.2784 43.6703Z" fill="#C9A95B"/>
<path d="M86.3731 56.9984C86.3731 58.3411 85.2724 59.4304 83.9129 59.4304C82.5547 59.4304 81.4541 58.3411 81.4541 56.9984C81.4541 55.6557 82.5547 54.5664 83.9129 54.5664C85.2725 54.5664 86.3731 55.6557 86.3731 56.9984Z" fill="#C9A95B"/>
<path d="M93.8936 72.8187C93.8936 74.1614 92.793 75.2507 91.4334 75.2507C90.0752 75.2507 88.9746 74.1614 88.9746 72.8187C88.9746 71.4761 90.0752 70.3867 91.4334 70.3867C92.793 70.3867 93.8936 71.4761 93.8936 72.8187Z" fill="#C9A95B"/>
<path d="M131.481 16.4261C131.481 17.7688 130.38 18.8581 129.021 18.8581C127.663 18.8581 126.562 17.7688 126.562 16.4261C126.562 15.0835 127.663 13.9941 129.021 13.9941C130.38 13.9941 131.481 15.0835 131.481 16.4261Z" fill="#C9A95B"/>
<path d="M146.614 13.1971C146.614 14.5398 145.513 15.6291 144.154 15.6291C142.795 15.6291 141.695 14.5398 141.695 13.1971C141.695 11.8545 142.795 10.7651 144.154 10.7651C145.513 10.7651 146.614 11.8545 146.614 13.1971Z" fill="#C9A95B"/>
<path d="M146.614 2.432C146.614 3.77467 145.513 4.864 144.154 4.864C142.795 4.864 141.695 3.77467 141.695 2.432C141.695 1.08933 142.795 4.811e-08 144.154 1.07479e-07C145.513 1.66905e-07 146.614 1.08933 146.614 2.432Z" fill="#C9A95B"/>
<path d="M176.596 13.1971C176.596 14.5398 175.495 15.6291 174.136 15.6291C172.777 15.6291 171.677 14.5398 171.677 13.1971C171.677 11.8545 172.777 10.7651 174.136 10.7651C175.495 10.7651 176.596 11.8545 176.596 13.1971Z" fill="#C9A95B"/>
<path d="M184.125 27.1478C184.125 28.4905 183.024 29.5798 181.664 29.5798C180.306 29.5798 179.206 28.4905 179.206 27.1478C179.206 25.8052 180.306 24.7158 181.664 24.7158C183.024 24.7158 184.125 25.8052 184.125 27.1478Z" fill="#C9A95B"/>
<path d="M176.549 72.5902C176.549 73.9329 175.448 75.0222 174.089 75.0222C172.731 75.0222 171.63 73.9329 171.63 72.5902C171.63 71.2475 172.731 70.1582 174.089 70.1582C175.448 70.1582 176.549 71.2475 176.549 72.5902Z" fill="#C9A95B"/>
<path d="M199.109 41.475C199.109 42.8176 198.008 43.907 196.649 43.907C195.291 43.907 194.19 42.8176 194.19 41.475C194.19 40.1323 195.291 39.043 196.649 39.043C198.008 39.043 199.109 40.1323 199.109 41.475Z" fill="#C9A95B"/>
<path d="M221.669 38.0326C221.669 39.3753 220.568 40.4646 219.209 40.4646C217.851 40.4646 216.75 39.3753 216.75 38.0326C216.75 36.6899 217.851 35.6006 219.209 35.6006C220.568 35.6006 221.669 36.6899 221.669 38.0326Z" fill="#C9A95B"/>
<path d="M229.087 30.4974C229.087 31.8401 227.986 32.9294 226.627 32.9294C225.269 32.9294 224.168 31.8401 224.168 30.4974C224.168 29.1548 225.269 28.0654 226.627 28.0654C227.986 28.0654 229.087 29.1548 229.087 30.4974Z" fill="#C9A95B"/>
<path d="M259.125 38.0326C259.125 39.3753 258.024 40.4646 256.664 40.4646C255.306 40.4646 254.206 39.3753 254.206 38.0326C254.206 36.6899 255.306 35.6006 256.664 35.6006C258.024 35.6006 259.125 36.6899 259.125 38.0326Z" fill="#C9A95B"/>
<path d="M274.259 17.5658C274.259 18.9085 273.158 19.9978 271.799 19.9978C270.44 19.9978 269.34 18.9085 269.34 17.5658C269.34 16.2231 270.44 15.1338 271.799 15.1338C273.158 15.1338 274.259 16.2231 274.259 17.5658Z" fill="#C9A95B"/>
<path d="M289.294 25.4735C289.294 26.8162 288.194 27.9055 286.834 27.9055C285.476 27.9055 284.375 26.8162 284.375 25.4735C284.375 24.1308 285.476 23.0415 286.834 23.0415C288.194 23.0415 289.294 24.1308 289.294 25.4735Z" fill="#C9A95B"/>
<path d="M296.934 56.267C296.934 57.6096 295.833 58.699 294.473 58.699C293.115 58.699 292.015 57.6096 292.015 56.267C292.015 54.9243 293.115 53.835 294.473 53.835C295.833 53.835 296.934 54.9243 296.934 56.267Z" fill="#C9A95B"/>
<path d="M326.831 15.7098C326.831 17.0525 325.73 18.1418 324.37 18.1418C323.012 18.1418 321.912 17.0525 321.912 15.7098C321.912 14.3672 323.012 13.2778 324.37 13.2778C325.73 13.2778 326.831 14.3672 326.831 15.7098Z" fill="#C9A95B"/>
<path d="M326.784 26.3578C326.784 27.7004 325.684 28.7898 324.324 28.7898C322.966 28.7898 321.865 27.7004 321.865 26.3578C321.865 25.0151 322.966 23.9258 324.324 23.9258C325.684 23.9258 326.784 25.0151 326.784 26.3578Z" fill="#C9A95B"/>
<path d="M357.144 30.4042C357.144 31.7468 356.043 32.8362 354.684 32.8362C353.326 32.8362 352.225 31.7468 352.225 30.4042C352.225 29.0615 353.326 27.9722 354.684 27.9722C356.043 27.9722 357.144 29.0615 357.144 30.4042Z" fill="#C9A95B"/>
<path d="M379.708 30.4042C379.708 31.7468 378.607 32.8362 377.247 32.8362C375.889 32.8362 374.789 31.7468 374.789 30.4042C374.789 29.0615 375.889 27.9722 377.247 27.9722C378.607 27.9722 379.708 29.0615 379.708 30.4042Z" fill="#C9A95B"/>
<path d="M409.734 41.661C409.734 43.0037 408.633 44.093 407.274 44.093C405.916 44.093 404.815 43.0037 404.815 41.661C404.815 40.3183 405.916 39.229 407.274 39.229C408.633 39.229 409.734 40.3183 409.734 41.661Z" fill="#C9A95B"/>
<path d="M387.174 38.1258C387.174 39.4685 386.073 40.5578 384.714 40.5578C383.356 40.5578 382.255 39.4685 382.255 38.1258C382.255 36.7832 383.356 35.6938 384.714 35.6938C386.073 35.6938 387.174 36.7832 387.174 38.1258Z" fill="#C9A95B"/>
<path d="M409.731 21.7523C409.731 23.095 408.63 24.1843 407.27 24.1843C405.912 24.1843 404.812 23.095 404.812 21.7523C404.812 20.4096 405.912 19.3203 407.27 19.3203C408.63 19.3203 409.731 20.4096 409.731 21.7523Z" fill="#C9A95B"/>
<path d="M462.281 26.1263C462.281 27.469 461.181 28.5583 459.821 28.5583C458.463 28.5583 457.362 27.469 457.362 26.1263C457.362 24.7837 458.463 23.6943 459.821 23.6943C461.181 23.6943 462.281 24.7837 462.281 26.1263Z" fill="#C9A95B"/>
<path d="M462.281 45.1029C462.281 46.4456 461.181 47.5349 459.821 47.5349C458.463 47.5349 457.362 46.4456 457.362 45.1029C457.362 43.7602 458.463 42.6709 459.821 42.6709C461.181 42.6709 462.281 43.7602 462.281 45.1029Z" fill="#C9A95B"/>
<path d="M447.331 44.1727C447.331 42.8287 446.229 41.7407 444.87 41.7407C443.512 41.7407 442.412 42.8287 442.412 44.1727C442.412 45.5154 443.512 46.6047 444.87 46.6047C446.229 46.6047 447.331 45.5154 447.331 44.1727ZM446.199 44.1727C446.199 44.8874 445.603 45.4687 444.87 45.4687C444.138 45.4687 443.541 44.8874 443.541 44.1727C443.541 43.4581 444.138 42.8754 444.87 42.8754C445.603 42.8754 446.199 43.4581 446.199 44.1727Z" fill="#C9A95B"/>
<path d="M439.742 50.871C439.742 49.527 438.64 48.439 437.282 48.439C435.923 48.439 434.823 49.527 434.823 50.871C434.823 52.2136 435.923 53.303 437.282 53.303C438.64 53.303 439.742 52.2136 439.742 50.871ZM438.611 50.871C438.611 51.5856 438.014 52.1683 437.282 52.1683C436.549 52.1683 435.953 51.5856 435.953 50.871C435.953 50.1563 436.549 49.5736 437.282 49.5736C438.014 49.5736 438.611 50.1563 438.611 50.871Z" fill="#C9A95B"/>
<path d="M424.774 59.1918C424.774 57.8491 423.673 56.7598 422.314 56.7598C420.956 56.7598 419.855 57.8491 419.855 59.1918C419.855 60.5358 420.956 61.6238 422.314 61.6238C423.673 61.6238 424.774 60.5358 424.774 59.1918ZM423.643 59.1918C423.643 59.9064 423.047 60.4891 422.314 60.4891C421.581 60.4891 420.985 59.9064 420.985 59.1918C420.985 58.4771 421.581 57.8958 422.314 57.8958C423.047 57.8958 423.643 58.4771 423.643 59.1918Z" fill="#C9A95B"/>
<path d="M402.076 42.8705C402.076 41.5265 400.976 40.4385 399.616 40.4385C398.258 40.4385 397.157 41.5265 397.157 42.8705C397.157 44.2131 398.258 45.3025 399.616 45.3025C400.976 45.3025 402.076 44.2131 402.076 42.8705ZM400.945 42.8705C400.945 43.5851 400.349 44.1665 399.616 44.1665C398.883 44.1665 398.287 43.5851 398.287 42.8705C398.287 42.1558 398.883 41.5731 399.616 41.5731C400.349 41.5731 400.945 42.1558 400.945 42.8705Z" fill="#C9A95B"/>
<path d="M364.523 43.4281C364.523 42.0854 363.422 40.9961 362.063 40.9961C360.705 40.9961 359.604 42.0854 359.604 43.4281C359.604 44.7721 360.705 45.8601 362.063 45.8601C363.422 45.8601 364.523 44.7721 364.523 43.4281ZM363.392 43.4281C363.392 44.1428 362.796 44.7254 362.063 44.7254C361.33 44.7254 360.734 44.1428 360.734 43.4281C360.734 42.7134 361.33 42.1321 362.063 42.1321C362.796 42.1321 363.392 42.7134 363.392 43.4281Z" fill="#C9A95B"/>
<path d="M349.574 38.1254C349.574 36.7827 348.473 35.6934 347.114 35.6934C345.755 35.6934 344.655 36.7827 344.655 38.1254C344.655 39.4694 345.755 40.5574 347.114 40.5574C348.473 40.5574 349.574 39.4694 349.574 38.1254ZM348.443 38.1254C348.443 38.84 347.846 39.4227 347.114 39.4227C346.381 39.4227 345.785 38.84 345.785 38.1254C345.785 37.4107 346.381 36.8294 347.114 36.8294C347.846 36.8294 348.443 37.4107 348.443 38.1254Z" fill="#C9A95B"/>
<path d="M327.078 45.3021C327.078 43.9595 325.976 42.8701 324.618 42.8701C323.26 42.8701 322.159 43.9595 322.159 45.3021C322.159 46.6461 323.26 47.7341 324.618 47.7341C325.976 47.7341 327.078 46.6461 327.078 45.3021ZM325.947 45.3021C325.947 46.0168 325.351 46.5995 324.618 46.5995C323.885 46.5995 323.289 46.0168 323.289 45.3021C323.289 44.5875 323.885 44.0061 324.618 44.0061C325.351 44.0061 325.947 44.5875 325.947 45.3021Z" fill="#C9A95B"/>
<path d="M296.695 17.5658C296.695 16.2231 295.593 15.1338 294.235 15.1338C292.877 15.1338 291.776 16.2231 291.776 17.5658C291.776 18.9098 292.877 19.9978 294.235 19.9978C295.593 19.9978 296.695 18.9098 296.695 17.5658ZM295.564 17.5658C295.564 18.2805 294.968 18.8631 294.235 18.8631C293.502 18.8631 292.906 18.2805 292.906 17.5658C292.906 16.8511 293.502 16.2698 294.235 16.2698C294.968 16.2698 295.564 16.8511 295.564 17.5658Z" fill="#C9A95B"/>
<path d="M274.374 51.243C274.374 49.9004 273.272 48.811 271.913 48.811C270.555 48.811 269.455 49.9004 269.455 51.243C269.455 52.587 270.555 53.675 271.913 53.675C273.272 53.675 274.374 52.587 274.374 51.243ZM273.242 51.243C273.242 51.9577 272.646 52.5404 271.913 52.5404C271.181 52.5404 270.584 51.9577 270.584 51.243C270.584 50.5284 271.181 49.9457 271.913 49.9457C272.646 49.9457 273.242 50.5284 273.242 51.243Z" fill="#C9A95B"/>
<path d="M251.559 30.4969C251.559 29.1543 250.458 28.0649 249.098 28.0649C247.74 28.0649 246.64 29.1543 246.64 30.4969C246.64 31.8409 247.74 32.9289 249.098 32.9289C250.458 32.9289 251.559 31.8409 251.559 30.4969ZM250.427 30.4969C250.427 31.2116 249.831 31.7943 249.098 31.7943C248.366 31.7943 247.769 31.2116 247.769 30.4969C247.769 29.7823 248.366 29.2009 249.098 29.2009C249.831 29.2009 250.427 29.7823 250.427 30.4969Z" fill="#C9A95B"/>
<path d="M244.149 43.3353C244.149 41.9913 243.047 40.9033 241.689 40.9033C240.331 40.9033 239.23 41.9913 239.23 43.3353C239.23 44.678 240.331 45.7673 241.689 45.7673C243.047 45.7673 244.149 44.678 244.149 43.3353ZM243.018 43.3353C243.018 44.05 242.422 44.6313 241.689 44.6313C240.956 44.6313 240.36 44.05 240.36 43.3353C240.36 42.6207 240.956 42.038 241.689 42.038C242.422 42.038 243.018 42.6207 243.018 43.3353Z" fill="#C9A95B"/>
<path d="M229.062 60.5463C229.062 59.2036 227.961 58.1143 226.602 58.1143C225.244 58.1143 224.143 59.2036 224.143 60.5463C224.143 61.8903 225.244 62.9783 226.602 62.9783C227.961 62.9783 229.062 61.8903 229.062 60.5463ZM227.931 60.5463C227.931 61.2609 227.335 61.8436 226.602 61.8436C225.869 61.8436 225.273 61.2609 225.273 60.5463C225.273 59.8316 225.869 59.2503 226.602 59.2503C227.335 59.2503 227.931 59.8316 227.931 60.5463Z" fill="#C9A95B"/>
<path d="M206.782 42.9633C206.782 41.6206 205.681 40.5313 204.322 40.5313C202.963 40.5313 201.863 41.6206 201.863 42.9632C201.863 44.3072 202.963 45.3952 204.322 45.3952C205.681 45.3953 206.782 44.3072 206.782 42.9633ZM205.651 42.9633C205.651 43.6779 205.054 44.2606 204.322 44.2606C203.589 44.2606 202.993 43.6779 202.993 42.9632C202.993 42.2486 203.589 41.6672 204.322 41.6673C205.054 41.6673 205.651 42.2486 205.651 42.9633Z" fill="#C9A95B"/>
<path d="M199.109 21.7523C199.109 20.4083 198.008 19.3203 196.649 19.3203C195.291 19.3203 194.19 20.4083 194.19 21.7523C194.19 23.095 195.291 24.1843 196.649 24.1843C198.008 24.1843 199.109 23.095 199.109 21.7523ZM197.978 21.7523C197.978 22.467 197.382 23.0483 196.649 23.0483C195.916 23.0483 195.32 22.467 195.32 21.7523C195.32 21.0376 195.916 20.455 196.649 20.455C197.382 20.455 197.978 21.0376 197.978 21.7523Z" fill="#C9A95B"/>
<path d="M176.613 46.9393C176.613 45.5953 175.513 44.5073 174.153 44.5073C172.795 44.5073 171.694 45.5953 171.694 46.9393C171.694 48.282 172.795 49.3713 174.153 49.3713C175.513 49.3713 176.613 48.282 176.613 46.9393ZM175.482 46.9393C175.482 47.654 174.886 48.2353 174.153 48.2353C173.42 48.2353 172.824 47.654 172.824 46.9393C172.824 46.2247 173.42 45.642 174.153 45.642C174.886 45.642 175.482 46.2247 175.482 46.9393Z" fill="#C9A95B"/>
<path d="M123.974 78.1229C123.974 76.7789 122.872 75.6909 121.514 75.6909C120.155 75.6909 119.055 76.7789 119.055 78.1229C119.055 79.4656 120.155 80.5549 121.514 80.5549C122.872 80.5549 123.974 79.4656 123.974 78.1229ZM122.842 78.1229C122.842 78.8376 122.246 79.4189 121.514 79.4189C120.781 79.4189 120.185 78.8376 120.185 78.1229C120.185 77.4083 120.781 76.8256 121.514 76.8256C122.246 76.8256 122.842 77.4083 122.842 78.1229Z" fill="#C9A95B"/>
<path d="M123.974 56.9984C123.974 55.6544 122.872 54.5664 121.514 54.5664C120.155 54.5664 119.055 55.6544 119.055 56.9984C119.055 58.3411 120.155 59.4304 121.514 59.4304C122.872 59.4304 123.974 58.3411 123.974 56.9984ZM122.842 56.9984C122.842 57.7131 122.246 58.2944 121.514 58.2944C120.781 58.2944 120.185 57.7131 120.185 56.9984C120.185 56.2837 120.781 55.7011 121.514 55.7011C122.246 55.7011 122.842 56.2837 122.842 56.9984Z" fill="#C9A95B"/>
<path d="M123.974 34.5326C123.974 33.1899 122.872 32.1006 121.514 32.1006C120.155 32.1006 119.055 33.1899 119.055 34.5326C119.055 35.8766 120.155 36.9646 121.514 36.9646C122.872 36.9646 123.974 35.8766 123.974 34.5326ZM122.842 34.5326C122.842 35.2473 122.246 35.8299 121.514 35.8299C120.781 35.8299 120.185 35.2473 120.185 34.5326C120.185 33.8179 120.781 33.2366 121.514 33.2366C122.246 33.2366 122.842 33.8179 122.842 34.5326Z" fill="#C9A95B"/>
<path d="M93.7535 44.4242C93.7535 43.0815 92.6528 41.9922 91.2933 41.9922C89.9351 41.9922 88.8345 43.0815 88.8345 44.4242C88.8345 45.7682 89.9351 46.8562 91.2933 46.8562C92.6528 46.8562 93.7535 45.7682 93.7535 44.4242ZM92.6223 44.4242C92.6223 45.1389 92.0262 45.7215 91.2933 45.7215C90.5604 45.7215 89.9643 45.1389 89.9643 44.4242C89.9643 43.7095 90.5604 43.1282 91.2933 43.1282C92.0262 43.1282 92.6223 43.7095 92.6223 44.4242Z" fill="#C9A95B"/>
<path d="M48.7735 57.5023C48.7735 56.1596 47.6715 55.0703 46.3133 55.0703C44.9551 55.0703 43.8545 56.1596 43.8545 57.5023C43.8545 58.8463 44.9551 59.9343 46.3133 59.9343C47.6715 59.9343 48.7735 58.8463 48.7735 57.5023ZM47.6423 57.5023C47.6423 58.217 47.0462 58.7996 46.3133 58.7996C45.5804 58.7996 44.9843 58.217 44.9843 57.5023C44.9843 56.7876 45.5804 56.2063 46.3133 56.2063C47.0462 56.2063 47.6423 56.7876 47.6423 57.5023Z" fill="#C9A95B"/>
<path d="M33.6128 50.9872C33.6128 49.6432 32.5122 48.5552 31.1527 48.5552C29.7945 48.5552 28.6938 49.6432 28.6938 50.9872C28.6938 52.3298 29.7945 53.4192 31.1527 53.4192C32.5122 53.4192 33.6128 52.3298 33.6128 50.9872ZM32.4817 50.9872C32.4817 51.7018 31.8855 52.2832 31.1527 52.2832C30.4198 52.2832 29.8237 51.7018 29.8237 50.9872C29.8237 50.2725 30.4198 49.6898 31.1527 49.6898C31.8855 49.6898 32.4817 50.2725 32.4817 50.9872Z" fill="#C9A95B"/>
<path d="M26.2129 65.4056C26.2129 64.0616 25.111 62.9736 23.7528 62.9736C22.3946 62.9736 21.2939 64.0616 21.2939 65.4056C21.2939 66.7483 22.3946 67.8376 23.7528 67.8376C25.111 67.8376 26.2129 66.7483 26.2129 65.4056ZM25.0818 65.4056C25.0818 66.1203 24.4856 66.703 23.7528 66.703C23.0199 66.703 22.4238 66.1203 22.4238 65.4056C22.4238 64.691 23.0199 64.1083 23.7528 64.1083C24.4856 64.1083 25.0818 64.691 25.0818 65.4056Z" fill="#C9A95B"/>
<path d="M26.2129 44.3641C26.2129 43.0201 25.111 41.9321 23.7528 41.9321C22.3946 41.9321 21.2939 43.0201 21.2939 44.3641C21.2939 45.7068 22.3946 46.7961 23.7528 46.7961C25.111 46.7961 26.2129 45.7068 26.2129 44.3641ZM25.0818 44.3641C25.0818 45.0788 24.4856 45.6615 23.7528 45.6615C23.0199 45.6615 22.4238 45.0788 22.4238 44.3641C22.4238 43.6495 23.0199 43.0668 23.7528 43.0668C24.4856 43.0668 25.0818 43.6495 25.0818 44.3641Z" fill="#C9A95B"/>
<path d="M206.693 66.3138C206.693 64.9712 205.593 63.8818 204.233 63.8818C202.875 63.8818 201.774 64.9712 201.774 66.3138C201.774 67.6578 202.875 68.7458 204.233 68.7458C205.593 68.7458 206.693 67.6578 206.693 66.3138ZM205.562 66.3138C205.562 67.0285 204.966 67.6112 204.233 67.6112C203.5 67.6112 202.904 67.0285 202.904 66.3138C202.904 65.5992 203.5 65.0178 204.233 65.0178C204.966 65.0178 205.562 65.5992 205.562 66.3138Z" fill="#C9A95B"/>
<path d="M379.516 60.3602C379.516 59.0162 378.414 57.9282 377.056 57.9282C375.698 57.9282 374.597 59.0162 374.597 60.3602C374.597 61.7029 375.698 62.7922 377.056 62.7922C378.414 62.7922 379.516 61.7029 379.516 60.3602ZM378.385 60.3602C378.385 61.0749 377.789 61.6562 377.056 61.6562C376.323 61.6562 375.727 61.0749 375.727 60.3602C375.727 59.6456 376.323 59.0629 377.056 59.0629C377.789 59.0629 378.385 59.6456 378.385 60.3602Z" fill="#C9A95B"/>
<path d="M439.814 72.5472C439.814 73.8899 438.713 74.9792 437.354 74.9792C435.996 74.9792 434.895 73.8899 434.895 72.5472C434.895 71.2046 435.996 70.1152 437.354 70.1152C438.713 70.1152 439.814 71.2046 439.814 72.5472Z" fill="#C9A95B"/>
<path d="M311.974 75.5243C311.974 76.867 310.873 77.9563 309.514 77.9563C308.155 77.9563 307.055 76.867 307.055 75.5243C307.055 74.1816 308.155 73.0923 309.514 73.0923C310.873 73.0923 311.974 74.1816 311.974 75.5243Z" fill="#C9A95B"/>
<path d="M108.933 63.7884C108.933 65.1311 107.833 66.2204 106.473 66.2204C105.115 66.2204 104.014 65.1311 104.014 63.7884C104.014 62.4458 105.115 61.3564 106.473 61.3564C107.833 61.3564 108.933 62.4458 108.933 63.7884Z" fill="#C9A95B"/>
</g>
<defs>
<clipPath id="clip0_49_792">
<rect width="88" height="468" fill="white" transform="translate(468) rotate(90)"/>
</clipPath>
</defs>
</svg>
