<svg width="88" height="470" viewBox="0 0 88 470" fill="none" xmlns="http://www.w3.org/2000/svg">
<g clip-path="url(#clip0_46_802)">
<path d="M23.0548 461.729L15.6668 469.235H0.322754V470.369H16.1428L23.5308 462.864H30.9014V461.729H23.0548Z" fill="#C9A95B"/>
<path d="M20.0681 454.198L12.6988 461.681H0.322754V462.817H13.1748L20.5441 455.333H33.4588L40.7028 462.689L41.5121 461.893L33.9347 454.198H20.0681Z" fill="#C9A95B"/>
<path d="M19.6828 446.562L12.2321 454.129H0.322754V455.264H12.7081L20.1588 447.697H29.8534V446.562H19.6828Z" fill="#C9A95B"/>
<path d="M0.323242 447.712H8.91524V446.577H0.323242V447.712Z" fill="#C9A95B"/>
<path d="M0.323242 440.16H3.13791V439.024H0.323242V440.16Z" fill="#C9A95B"/>
<path d="M0.323242 431.473V432.607H6.26991L13.8259 440.281H23.0792V439.146H14.3019L6.74591 431.473H0.323242Z" fill="#C9A95B"/>
<path d="M0.323242 425.056H16.5539V423.921H0.323242V425.056Z" fill="#C9A95B"/>
<path d="M32.9011 408.806L25.4544 416.368H0.32373V417.503H25.9317L33.3771 409.94H44.4424V408.806H32.9011Z" fill="#C9A95B"/>
<path d="M0.323242 409.952H24.6059V408.817H0.323242V409.952Z" fill="#C9A95B"/>
<path d="M0.323242 402.4H3.13791V401.264H0.323242V402.4Z" fill="#C9A95B"/>
<path d="M0.323242 393.712V394.847H7.31924L14.8086 402.455H32.2859V401.319H15.2846L7.79524 393.712H0.323242Z" fill="#C9A95B"/>
<path d="M0.323242 387.296H18.9579V386.161H0.323242V387.296Z" fill="#C9A95B"/>
<path d="M0.323242 379.743H3.21524V378.608H0.323242V379.743Z" fill="#C9A95B"/>
<path d="M0.323242 371.056V372.191H12.0979L19.6712 379.883H29.5939V378.748H20.1472L12.5739 371.056H0.323242Z" fill="#C9A95B"/>
<path d="M0.323242 364.64H12.1686V363.504H0.323242V364.64Z" fill="#C9A95B"/>
<path d="M7.72506 348.471L0.362398 355.952H0.32373V357.087H0.838397L8.20106 349.606H17.1544V348.471H7.72506Z" fill="#C9A95B"/>
<path d="M0.323242 340.847V341.982H19.2232L26.6699 349.546H39.5179V348.411H27.1472L19.6992 340.847H0.323242Z" fill="#C9A95B"/>
<path d="M0.323242 333.296V334.43H43.4472L50.8966 341.994H59.5299V340.86H51.3739L43.9246 333.296H0.323242Z" fill="#C9A95B"/>
<path d="M47.6428 318.162L40.1801 325.742H0.322754V326.878H40.6561L48.1188 319.297H55.1014L62.3534 326.664L63.1641 325.866L55.5774 318.162H47.6428Z" fill="#C9A95B"/>
<path d="M44.4699 310.768L37.1619 318.189H0.323242V319.325H37.6379L44.9459 311.903H58.6219L73.1206 326.628L73.9299 325.832L59.0979 310.768H44.4699Z" fill="#C9A95B"/>
<path d="M41.7051 295.552L26.8504 310.637H0.32373V311.773H27.3264L42.1824 296.687H62.7584V295.552H41.7051Z" fill="#C9A95B"/>
<path d="M20.0824 295.488L12.6011 303.086H0.32373V304.22H13.0771L20.5584 296.623H27.1731V295.488H20.0824Z" fill="#C9A95B"/>
<path d="M0.323242 296.669H3.36591V295.535H0.323242V296.669Z" fill="#C9A95B"/>
<path d="M0.323242 289.116H48.8086V287.981H0.323242V289.116Z" fill="#C9A95B"/>
<path d="M42.5201 272.968L35.1734 280.429H0.322754V281.565H35.6508L42.9961 274.104H52.3481V272.968H42.5201Z" fill="#C9A95B"/>
<path d="M0.323242 274.013H34.4806V272.877H0.323242V274.013Z" fill="#C9A95B"/>
<path d="M0.323242 266.46H7.72191V265.325H0.323242V266.46Z" fill="#C9A95B"/>
<path d="M0.323242 257.774V258.908H13.5899L20.9392 266.372H31.0819V265.236H21.4152L14.0672 257.774H0.323242Z" fill="#C9A95B"/>
<path d="M0.323242 251.356H37.9232V250.221H0.323242V251.356Z" fill="#C9A95B"/>
<path d="M0.323242 239.313L4.93524 243.997H13.4566V242.861H5.41124L0.323242 237.693V239.313Z" fill="#C9A95B"/>
<path d="M0.323242 227.565V228.7H13.2179L28.1912 243.908H45.4606V242.773H28.6686L13.6939 227.565H0.323242Z" fill="#C9A95B"/>
<path d="M0.323242 220.013V221.148H17.4979L25.0766 228.845H30.7552V227.709H25.5539L17.9739 220.013H0.323242Z" fill="#C9A95B"/>
<path d="M0.323242 212.46V213.595H20.8512L28.5406 221.403H43.5926V220.267H29.0166L21.3286 212.46H0.323242Z" fill="#C9A95B"/>
<path d="M0.323242 204.909V206.044H23.9166L31.4952 213.741H37.9232V212.606H31.9739L24.3926 204.909H0.323242Z" fill="#C9A95B"/>
<path d="M0.323242 198.492H22.7686V197.356H0.323242V198.492Z" fill="#C9A95B"/>
<path d="M0.323242 189.804V190.939H37.6846L45.1712 198.542H58.3899V197.407H45.6472L38.1619 189.804H0.323242Z" fill="#C9A95B"/>
<path d="M0.323242 183.388H50.4832V182.253H0.323242V183.388Z" fill="#C9A95B"/>
<path d="M0.323242 175.833H19.6886V174.699H0.323242V175.833Z" fill="#C9A95B"/>
<path d="M0.323242 167.147V168.282H37.3139L44.9846 176.074H56.4259V174.939H45.4619L37.7912 167.147H0.323242Z" fill="#C9A95B"/>
<path d="M0.323242 160.729H0.432576V159.595H0.323242V160.729Z" fill="#C9A95B"/>
<path d="M45.2214 159.693H17.5054L9.97342 152.042H0.322754V153.178H9.49742L17.0281 160.828H45.6974L60.6507 145.642L59.8414 144.845L45.2214 159.693Z" fill="#C9A95B"/>
<path d="M0.323242 144.49V145.626H12.7112L20.2406 153.273H42.5339L50.0046 145.687L49.1939 144.891L42.0566 152.138H20.7179L13.1872 144.49H0.323242Z" fill="#C9A95B"/>
<path d="M0.323242 136.938V138.073H15.6366L23.0086 145.561H28.7219V144.425H23.4859L16.1126 136.938H0.323242Z" fill="#C9A95B"/>
<path d="M31.2414 121.904L23.8721 129.386H0.322754V130.522H24.3481L31.7174 123.038H35.9254V121.904H31.2414Z" fill="#C9A95B"/>
<path d="M28.3326 114.232L20.8472 121.833H0.323242V122.969H21.3232L28.8086 115.367H45.5526V114.232H28.3326Z" fill="#C9A95B"/>
<path d="M25.1224 106.821L17.7757 114.282H0.32373V115.418H18.2531L25.5984 107.957H30.5717V106.821H25.1224Z" fill="#C9A95B"/>
<path d="M28.2352 91.5725L13.3112 106.73H0.323242V107.866H13.7872L28.7126 92.7072H45.5526V91.5725H28.2352Z" fill="#C9A95B"/>
<path d="M4.98142 91.7644L0.322754 96.4951V98.1151L5.45742 92.8991H13.7054V91.7644H4.98142Z" fill="#C9A95B"/>
<path d="M0.323242 85.2094H37.8299V84.0747H0.323242V85.2094Z" fill="#C9A95B"/>
<path d="M20.9837 69.1073L13.6837 76.5219H0.32373V77.6566H14.1611L21.4597 70.2433H31.1184V69.1073H20.9837Z" fill="#C9A95B"/>
<path d="M0.323242 62.5533H34.2952V61.4187H0.323242V62.5533Z" fill="#C9A95B"/>
<path d="M0.323242 53.866V55.0007H34.8939L42.3326 62.5554H54.2046V61.4194H42.8099L35.3712 53.866H0.323242Z" fill="#C9A95B"/>
<path d="M0.323242 47.448H14.7912V46.3134H0.323242V47.448Z" fill="#C9A95B"/>
<path d="M13.9134 31.252L6.52009 38.7613H0.322754V39.8973H6.99609L14.3894 32.3867H23.1641V31.252H13.9134Z" fill="#C9A95B"/>
<path d="M0.323242 32.344H3.40858V31.208H0.323242V32.344Z" fill="#C9A95B"/>
<path d="M0.323242 16.1044V17.2391H12.1952L19.6339 24.7951H29.8259V23.6591H20.1112L12.6726 16.1044H0.323242Z" fill="#C9A95B"/>
<path d="M0.323242 8.55164V9.68631H12.6659L20.4766 17.621H42.3472L50.2352 9.61164L49.4246 8.81431L41.8712 16.485H20.9539L13.1419 8.55164H0.323242Z" fill="#C9A95B"/>
<path d="M0.323242 1.00004V2.13471H15.7299L23.3086 9.83337H30.8526V8.69737H23.7859L16.2059 1.00004H0.323242Z" fill="#C9A95B"/>
<path d="M30.9012 459.827C29.5586 459.827 28.4692 460.932 28.4692 462.298C28.4692 463.662 29.5586 464.767 30.9012 464.767C32.2439 464.767 33.3332 463.662 33.3332 462.298C33.3332 460.932 32.2439 459.827 30.9012 459.827Z" fill="#C9A95B"/>
<path d="M41.1073 459.822C39.7646 459.822 38.6753 460.927 38.6753 462.292C38.6753 463.656 39.7646 464.762 41.1073 464.762C42.45 464.762 43.5393 463.656 43.5393 462.292C43.5393 460.927 42.45 459.822 41.1073 459.822Z" fill="#C9A95B"/>
<path d="M3.13757 437.123C1.7949 437.123 0.705566 438.228 0.705566 439.593C0.705566 440.957 1.7949 442.062 3.13757 442.062C4.48023 442.062 5.56957 440.957 5.56957 439.593C5.56957 438.228 4.48023 437.123 3.13757 437.123Z" fill="#C9A95B"/>
<path d="M24.6073 406.903C23.2646 406.903 22.1753 408.009 22.1753 409.374C22.1753 410.738 23.2646 411.843 24.6073 411.843C25.95 411.843 27.0393 410.738 27.0393 409.374C27.0393 408.009 25.95 406.903 24.6073 406.903Z" fill="#C9A95B"/>
<path d="M3.13757 399.362C1.7949 399.362 0.705566 400.467 0.705566 401.832C0.705566 403.196 1.7949 404.302 3.13757 404.302C4.48023 404.302 5.56957 403.196 5.56957 401.832C5.56957 400.467 4.48023 399.362 3.13757 399.362Z" fill="#C9A95B"/>
<path d="M44.4432 406.903C43.1006 406.903 42.0112 408.009 42.0112 409.374C42.0112 410.738 43.1006 411.843 44.4432 411.843C45.7859 411.843 46.8752 410.738 46.8752 409.374C46.8752 408.009 45.7859 406.903 44.4432 406.903Z" fill="#C9A95B"/>
<path d="M32.286 399.417C30.9433 399.417 29.854 400.522 29.854 401.887C29.854 403.251 30.9433 404.357 32.286 404.357C33.6287 404.357 34.718 403.251 34.718 401.887C34.718 400.522 33.6287 399.417 32.286 399.417Z" fill="#C9A95B"/>
<path d="M18.9579 384.257C17.6152 384.257 16.5259 385.363 16.5259 386.728C16.5259 388.092 17.6152 389.197 18.9579 389.197C20.3005 389.197 21.3899 388.092 21.3899 386.728C21.3899 385.363 20.3005 384.257 18.9579 384.257Z" fill="#C9A95B"/>
<path d="M3.13757 376.705C1.7949 376.705 0.705566 377.81 0.705566 379.176C0.705566 380.54 1.7949 381.645 3.13757 381.645C4.48023 381.645 5.56957 380.54 5.56957 379.176C5.56957 377.81 4.48023 376.705 3.13757 376.705Z" fill="#C9A95B"/>
<path d="M59.5297 338.957C58.187 338.957 57.0977 340.062 57.0977 341.428C57.0977 342.792 58.187 343.897 59.5297 343.897C60.8723 343.897 61.9617 342.792 61.9617 341.428C61.9617 340.062 60.8723 338.957 59.5297 338.957Z" fill="#C9A95B"/>
<path d="M62.7591 323.76C61.4165 323.76 60.3271 324.865 60.3271 326.23C60.3271 327.594 61.4165 328.7 62.7591 328.7C64.1018 328.7 65.1911 327.594 65.1911 326.23C65.1911 324.865 64.1018 323.76 62.7591 323.76Z" fill="#C9A95B"/>
<path d="M73.5248 323.76C72.1821 323.76 71.0928 324.865 71.0928 326.23C71.0928 327.594 72.1821 328.7 73.5248 328.7C74.8674 328.7 75.9568 327.594 75.9568 326.23C75.9568 324.865 74.8674 323.76 73.5248 323.76Z" fill="#C9A95B"/>
<path d="M62.7591 293.649C61.4165 293.649 60.3271 294.754 60.3271 296.12C60.3271 297.484 61.4165 298.589 62.7591 298.589C64.1018 298.589 65.1911 297.484 65.1911 296.12C65.1911 294.754 64.1018 293.649 62.7591 293.649Z" fill="#C9A95B"/>
<path d="M48.8085 286.088C47.4658 286.088 46.3765 287.194 46.3765 288.559C46.3765 289.923 47.4658 291.028 48.8085 291.028C50.1511 291.028 51.2405 289.923 51.2405 288.559C51.2405 287.194 50.1511 286.088 48.8085 286.088Z" fill="#C9A95B"/>
<path d="M3.36608 293.696C2.02342 293.696 0.934082 294.802 0.934082 296.167C0.934082 297.531 2.02342 298.636 3.36608 298.636C4.70875 298.636 5.79808 297.531 5.79808 296.167C5.79808 294.802 4.70875 293.696 3.36608 293.696Z" fill="#C9A95B"/>
<path d="M34.4813 271.04C33.1386 271.04 32.0493 272.145 32.0493 273.51C32.0493 274.874 33.1386 275.98 34.4813 275.98C35.824 275.98 36.9133 274.874 36.9133 273.51C36.9133 272.145 35.824 271.04 34.4813 271.04Z" fill="#C9A95B"/>
<path d="M37.9237 248.383C36.581 248.383 35.4917 249.489 35.4917 250.854C35.4917 252.218 36.581 253.323 37.9237 253.323C39.2664 253.323 40.3557 252.218 40.3557 250.854C40.3557 249.489 39.2664 248.383 37.9237 248.383Z" fill="#C9A95B"/>
<path d="M45.4593 240.934C44.1167 240.934 43.0273 242.039 43.0273 243.405C43.0273 244.769 44.1167 245.874 45.4593 245.874C46.802 245.874 47.8913 244.769 47.8913 243.405C47.8913 242.039 46.802 240.934 45.4593 240.934Z" fill="#C9A95B"/>
<path d="M37.9237 210.768C36.581 210.768 35.4917 211.873 35.4917 213.238C35.4917 214.602 36.581 215.708 37.9237 215.708C39.2664 215.708 40.3557 214.602 40.3557 213.238C40.3557 211.873 39.2664 210.768 37.9237 210.768Z" fill="#C9A95B"/>
<path d="M58.3905 195.569C57.0478 195.569 55.9585 196.674 55.9585 198.039C55.9585 199.403 57.0478 200.509 58.3905 200.509C59.7332 200.509 60.8225 199.403 60.8225 198.039C60.8225 196.674 59.7332 195.569 58.3905 195.569Z" fill="#C9A95B"/>
<path d="M50.4828 180.469C49.1401 180.469 48.0508 181.574 48.0508 182.94C48.0508 184.304 49.1401 185.409 50.4828 185.409C51.8254 185.409 52.9148 184.304 52.9148 182.94C52.9148 181.574 51.8254 180.469 50.4828 180.469Z" fill="#C9A95B"/>
<path d="M19.6893 172.797C18.3467 172.797 17.2573 173.902 17.2573 175.268C17.2573 176.632 18.3467 177.737 19.6893 177.737C21.032 177.737 22.1213 176.632 22.1213 175.268C22.1213 173.902 21.032 172.797 19.6893 172.797Z" fill="#C9A95B"/>
<path d="M60.246 142.772C58.9033 142.772 57.814 143.878 57.814 145.243C57.814 146.607 58.9033 147.712 60.246 147.712C61.5886 147.712 62.678 146.607 62.678 145.243C62.678 143.878 61.5886 142.772 60.246 142.772Z" fill="#C9A95B"/>
<path d="M49.5985 142.819C48.2558 142.819 47.1665 143.924 47.1665 145.29C47.1665 146.654 48.2558 147.759 49.5985 147.759C50.9412 147.759 52.0305 146.654 52.0305 145.29C52.0305 143.924 50.9412 142.819 49.5985 142.819Z" fill="#C9A95B"/>
<path d="M45.5521 112.329C44.2095 112.329 43.1201 113.435 43.1201 114.8C43.1201 116.164 44.2095 117.269 45.5521 117.269C46.8948 117.269 47.9841 116.164 47.9841 114.8C47.9841 113.435 46.8948 112.329 45.5521 112.329Z" fill="#C9A95B"/>
<path d="M45.5521 89.6695C44.2095 89.6695 43.1201 90.7748 43.1201 92.1402C43.1201 93.5042 44.2095 94.6095 45.5521 94.6095C46.8948 94.6095 47.9841 93.5042 47.9841 92.1402C47.9841 90.7748 46.8948 89.6695 45.5521 89.6695Z" fill="#C9A95B"/>
<path d="M34.2953 59.5147C32.9526 59.5147 31.8633 60.62 31.8633 61.9854C31.8633 63.3494 32.9526 64.4547 34.2953 64.4547C35.6379 64.4547 36.7273 63.3494 36.7273 61.9854C36.7273 60.62 35.6379 59.5147 34.2953 59.5147Z" fill="#C9A95B"/>
<path d="M37.8304 82.1713C36.4878 82.1713 35.3984 83.2766 35.3984 84.6419C35.3984 86.0059 36.4878 87.1113 37.8304 87.1113C39.1731 87.1113 40.2624 86.0059 40.2624 84.6419C40.2624 83.2766 39.1731 82.1713 37.8304 82.1713Z" fill="#C9A95B"/>
<path d="M54.204 59.518C52.8613 59.518 51.772 60.6233 51.772 61.9887C51.772 63.3527 52.8613 64.458 54.204 64.458C55.5466 64.458 56.636 63.3527 56.636 61.9887C56.636 60.6233 55.5466 59.518 54.204 59.518Z" fill="#C9A95B"/>
<path d="M49.8299 6.74256C48.4873 6.74256 47.3979 7.84789 47.3979 9.21322C47.3979 10.5772 48.4873 11.6826 49.8299 11.6826C51.1726 11.6826 52.2619 10.5772 52.2619 9.21322C52.2619 7.84789 51.1726 6.74256 49.8299 6.74256Z" fill="#C9A95B"/>
<path d="M30.8534 6.74256C29.5107 6.74256 28.4214 7.84789 28.4214 9.21322C28.4214 10.5772 29.5107 11.6826 30.8534 11.6826C32.1961 11.6826 33.2854 10.5772 33.2854 9.21322C33.2854 7.84789 32.1961 6.74256 30.8534 6.74256Z" fill="#C9A95B"/>
<path d="M31.7836 21.7572C30.4396 21.7572 29.3516 22.8639 29.3516 24.2279C29.3516 25.5919 30.4396 26.6972 31.7836 26.6972C33.1262 26.6972 34.2156 25.5919 34.2156 24.2279C34.2156 22.8639 33.1262 21.7572 31.7836 21.7572ZM31.7836 22.8932C32.4982 22.8932 33.0809 23.4919 33.0809 24.2279C33.0809 24.9639 32.4982 25.5625 31.7836 25.5625C31.0689 25.5625 30.4862 24.9639 30.4862 24.2279C30.4862 23.4919 31.0689 22.8932 31.7836 22.8932Z" fill="#C9A95B"/>
<path d="M25.0853 29.3785C23.7413 29.3785 22.6533 30.4852 22.6533 31.8492C22.6533 33.2132 23.7413 34.3185 25.0853 34.3185C26.428 34.3185 27.5173 33.2132 27.5173 31.8492C27.5173 30.4852 26.428 29.3785 25.0853 29.3785ZM25.0853 30.5145C25.8 30.5145 26.3827 31.1132 26.3827 31.8492C26.3827 32.5852 25.8 33.1839 25.0853 33.1839C24.3707 33.1839 23.788 32.5852 23.788 31.8492C23.788 31.1132 24.3707 30.5145 25.0853 30.5145Z" fill="#C9A95B"/>
<path d="M16.764 44.4106C15.4214 44.4106 14.332 45.5159 14.332 46.8813C14.332 48.2453 15.4214 49.3506 16.764 49.3506C18.108 49.3506 19.196 48.2453 19.196 46.8813C19.196 45.5159 18.108 44.4106 16.764 44.4106ZM16.764 45.5466C17.4787 45.5466 18.0614 46.1453 18.0614 46.8813C18.0614 47.6173 17.4787 48.2159 16.764 48.2159C16.0494 48.2159 15.468 47.6173 15.468 46.8813C15.468 46.1453 16.0494 45.5466 16.764 45.5466Z" fill="#C9A95B"/>
<path d="M33.0858 67.2054C31.7431 67.2054 30.6538 68.3107 30.6538 69.6761C30.6538 71.0401 31.7431 72.1454 33.0858 72.1454C34.4298 72.1454 35.5178 71.0401 35.5178 69.6761C35.5178 68.3107 34.4298 67.2054 33.0858 67.2054ZM33.0858 68.3414C33.8005 68.3414 34.3831 68.9401 34.3831 69.6761C34.3831 70.4121 33.8005 71.0107 33.0858 71.0107C32.3711 71.0107 31.7885 70.4121 31.7885 69.6761C31.7885 68.9401 32.3711 68.3414 33.0858 68.3414Z" fill="#C9A95B"/>
<path d="M32.5277 104.919C31.185 104.919 30.0957 106.024 30.0957 107.39C30.0957 108.754 31.185 109.859 32.5277 109.859C33.8717 109.859 34.9597 108.754 34.9597 107.39C34.9597 106.024 33.8717 104.919 32.5277 104.919ZM32.5277 106.055C33.2424 106.055 33.825 106.654 33.825 107.39C33.825 108.126 33.2424 108.724 32.5277 108.724C31.813 108.724 31.2317 108.126 31.2317 107.39C31.2317 106.654 31.813 106.055 32.5277 106.055Z" fill="#C9A95B"/>
<path d="M37.8304 119.932C36.4878 119.932 35.3984 121.037 35.3984 122.403C35.3984 123.767 36.4878 124.872 37.8304 124.872C39.1744 124.872 40.2624 123.767 40.2624 122.403C40.2624 121.037 39.1744 119.932 37.8304 119.932ZM37.8304 121.068C38.5451 121.068 39.1278 121.667 39.1278 122.403C39.1278 123.139 38.5451 123.737 37.8304 123.737C37.1158 123.737 36.5344 123.139 36.5344 122.403C36.5344 121.667 37.1158 121.068 37.8304 121.068Z" fill="#C9A95B"/>
<path d="M30.6537 142.524C29.311 142.524 28.2217 143.63 28.2217 144.994C28.2217 146.358 29.311 147.464 30.6537 147.464C31.9977 147.464 33.0857 146.358 33.0857 144.994C33.0857 143.63 31.9977 142.524 30.6537 142.524ZM30.6537 143.66C31.3683 143.66 31.951 144.258 31.951 144.994C31.951 145.73 31.3683 146.329 30.6537 146.329C29.939 146.329 29.3577 145.73 29.3577 144.994C29.3577 144.258 29.939 143.66 30.6537 143.66Z" fill="#C9A95B"/>
<path d="M58.3905 173.037C57.0465 173.037 55.9585 174.143 55.9585 175.507C55.9585 176.871 57.0465 177.977 58.3905 177.977C59.7332 177.977 60.8225 176.871 60.8225 175.507C60.8225 174.143 59.7332 173.037 58.3905 173.037ZM58.3905 174.173C59.1052 174.173 59.6865 174.771 59.6865 175.507C59.6865 176.243 59.1052 176.842 58.3905 176.842C57.6758 176.842 57.0932 176.243 57.0932 175.507C57.0932 174.771 57.6758 174.173 58.3905 174.173Z" fill="#C9A95B"/>
<path d="M24.7132 195.453C23.3692 195.453 22.2812 196.56 22.2812 197.924C22.2812 199.288 23.3692 200.393 24.7132 200.393C26.0559 200.393 27.1452 199.288 27.1452 197.924C27.1452 196.56 26.0559 195.453 24.7132 195.453ZM24.7132 196.589C25.4279 196.589 26.0092 197.188 26.0092 197.924C26.0092 198.66 25.4279 199.259 24.7132 199.259C23.9986 199.259 23.4159 198.66 23.4159 197.924C23.4159 197.188 23.9986 196.589 24.7132 196.589Z" fill="#C9A95B"/>
<path d="M45.4589 218.366C44.1162 218.366 43.0269 219.471 43.0269 220.837C43.0269 222.201 44.1162 223.306 45.4589 223.306C46.8029 223.306 47.8909 222.201 47.8909 220.837C47.8909 219.471 46.8029 218.366 45.4589 218.366ZM45.4589 219.502C46.1735 219.502 46.7562 220.101 46.7562 220.837C46.7562 221.573 46.1735 222.171 45.4589 222.171C44.7442 222.171 44.1629 221.573 44.1629 220.837C44.1629 220.101 44.7442 219.502 45.4589 219.502Z" fill="#C9A95B"/>
<path d="M32.6205 225.807C31.2778 225.807 30.1885 226.914 30.1885 228.278C30.1885 229.642 31.2778 230.747 32.6205 230.747C33.9645 230.747 35.0525 229.642 35.0525 228.278C35.0525 226.914 33.9645 225.807 32.6205 225.807ZM32.6205 226.943C33.3351 226.943 33.9178 227.542 33.9178 228.278C33.9178 229.014 33.3351 229.612 32.6205 229.612C31.9058 229.612 31.3231 229.014 31.3231 228.278C31.3231 227.542 31.9058 226.943 32.6205 226.943Z" fill="#C9A95B"/>
<path d="M15.4095 240.959C14.0669 240.959 12.9775 242.064 12.9775 243.429C12.9775 244.793 14.0669 245.899 15.4095 245.899C16.7535 245.899 17.8415 244.793 17.8415 243.429C17.8415 242.064 16.7535 240.959 15.4095 240.959ZM15.4095 242.095C16.1242 242.095 16.7069 242.693 16.7069 243.429C16.7069 244.165 16.1242 244.764 15.4095 244.764C14.6949 244.764 14.1135 244.165 14.1135 243.429C14.1135 242.693 14.6949 242.095 15.4095 242.095Z" fill="#C9A95B"/>
<path d="M32.993 263.334C31.6504 263.334 30.561 264.44 30.561 265.805C30.561 267.169 31.6504 268.274 32.993 268.274C34.337 268.274 35.425 267.169 35.425 265.805C35.425 264.44 34.337 263.334 32.993 263.334ZM32.993 264.47C33.7077 264.47 34.2904 265.069 34.2904 265.805C34.2904 266.541 33.7077 267.14 32.993 267.14C32.2784 267.14 31.697 266.541 31.697 265.805C31.697 265.069 32.2784 264.47 32.993 264.47Z" fill="#C9A95B"/>
<path d="M54.204 271.04C52.86 271.04 51.772 272.145 51.772 273.51C51.772 274.874 52.86 275.98 54.204 275.98C55.5466 275.98 56.636 274.874 56.636 273.51C56.636 272.145 55.5466 271.04 54.204 271.04ZM54.204 272.176C54.9186 272.176 55.5013 272.774 55.5013 273.51C55.5013 274.246 54.9186 274.845 54.204 274.845C53.4893 274.845 52.9066 274.246 52.9066 273.51C52.9066 272.774 53.4893 272.176 54.204 272.176Z" fill="#C9A95B"/>
<path d="M29.017 293.632C27.673 293.632 26.585 294.737 26.585 296.102C26.585 297.466 27.673 298.572 29.017 298.572C30.3596 298.572 31.449 297.466 31.449 296.102C31.449 294.737 30.3596 293.632 29.017 293.632ZM29.017 294.768C29.7316 294.768 30.3143 295.366 30.3143 296.102C30.3143 296.838 29.7316 297.437 29.017 297.437C28.3023 297.437 27.7196 296.838 27.7196 296.102C27.7196 295.366 28.3023 294.768 29.017 294.768Z" fill="#C9A95B"/>
<path d="M18.9579 346.496C17.6152 346.496 16.5259 347.603 16.5259 348.967C16.5259 350.331 17.6152 351.436 18.9579 351.436C20.3019 351.436 21.3899 350.331 21.3899 348.967C21.3899 347.603 20.3019 346.496 18.9579 346.496ZM18.9579 347.632C19.6725 347.632 20.2552 348.231 20.2552 348.967C20.2552 349.703 19.6725 350.302 18.9579 350.302C18.2432 350.302 17.6605 349.703 17.6605 348.967C17.6605 348.231 18.2432 347.632 18.9579 347.632Z" fill="#C9A95B"/>
<path d="M41.4232 346.496C40.0805 346.496 38.9912 347.603 38.9912 348.967C38.9912 350.331 40.0805 351.436 41.4232 351.436C42.7672 351.436 43.8552 350.331 43.8552 348.967C43.8552 347.603 42.7672 346.496 41.4232 346.496ZM41.4232 347.632C42.1379 347.632 42.7205 348.231 42.7205 348.967C42.7205 349.703 42.1379 350.302 41.4232 350.302C40.7085 350.302 40.1272 349.703 40.1272 348.967C40.1272 348.231 40.7085 347.632 41.4232 347.632Z" fill="#C9A95B"/>
<path d="M31.5316 376.845C30.1889 376.845 29.0996 377.951 29.0996 379.316C29.0996 380.68 30.1889 381.785 31.5316 381.785C32.8756 381.785 33.9636 380.68 33.9636 379.316C33.9636 377.951 32.8756 376.845 31.5316 376.845ZM31.5316 377.981C32.2463 377.981 32.8289 378.58 32.8289 379.316C32.8289 380.052 32.2463 380.651 31.5316 380.651C30.8169 380.651 30.2356 380.052 30.2356 379.316C30.2356 378.58 30.8169 377.981 31.5316 377.981Z" fill="#C9A95B"/>
<path d="M18.4535 422.018C17.1108 422.018 16.0215 423.125 16.0215 424.489C16.0215 425.853 17.1108 426.958 18.4535 426.958C19.7975 426.958 20.8855 425.853 20.8855 424.489C20.8855 423.125 19.7975 422.018 18.4535 422.018ZM18.4535 423.154C19.1682 423.154 19.7508 423.753 19.7508 424.489C19.7508 425.225 19.1682 425.823 18.4535 425.823C17.7388 425.823 17.1575 425.225 17.1575 424.489C17.1575 423.753 17.7388 423.154 18.4535 423.154Z" fill="#C9A95B"/>
<path d="M24.9691 437.243C23.6264 437.243 22.5371 438.349 22.5371 439.714C22.5371 441.078 23.6264 442.183 24.9691 442.183C26.3131 442.183 27.4011 441.078 27.4011 439.714C27.4011 438.349 26.3131 437.243 24.9691 437.243ZM24.9691 438.379C25.6838 438.379 26.2664 438.978 26.2664 439.714C26.2664 440.45 25.6838 441.049 24.9691 441.049C24.2544 441.049 23.6718 440.45 23.6718 439.714C23.6718 438.978 24.2544 438.379 24.9691 438.379Z" fill="#C9A95B"/>
<path d="M10.5507 444.675C9.20665 444.675 8.11865 445.781 8.11865 447.145C8.11865 448.509 9.20665 449.615 10.5507 449.615C11.8933 449.615 12.9827 448.509 12.9827 447.145C12.9827 445.781 11.8933 444.675 10.5507 444.675ZM10.5507 445.811C11.2653 445.811 11.848 446.409 11.848 447.145C11.848 447.881 11.2653 448.48 10.5507 448.48C9.83599 448.48 9.25332 447.881 9.25332 447.145C9.25332 446.409 9.83599 445.811 10.5507 445.811Z" fill="#C9A95B"/>
<path d="M31.5922 444.675C30.2482 444.675 29.1602 445.781 29.1602 447.145C29.1602 448.509 30.2482 449.615 31.5922 449.615C32.9348 449.615 34.0242 448.509 34.0242 447.145C34.0242 445.781 32.9348 444.675 31.5922 444.675ZM31.5922 445.811C32.3068 445.811 32.8882 446.409 32.8882 447.145C32.8882 447.881 32.3068 448.48 31.5922 448.48C30.8775 448.48 30.2948 447.881 30.2948 447.145C30.2948 446.409 30.8775 445.811 31.5922 445.811Z" fill="#C9A95B"/>
<path d="M9.64196 263.423C8.29929 263.423 7.20996 264.528 7.20996 265.894C7.20996 267.258 8.29929 268.363 9.64196 268.363C10.986 268.363 12.074 267.258 12.074 265.894C12.074 264.528 10.986 263.423 9.64196 263.423ZM9.64196 264.559C10.3566 264.559 10.9393 265.158 10.9393 265.894C10.9393 266.63 10.3566 267.228 9.64196 267.228C8.92729 267.228 8.34596 266.63 8.34596 265.894C8.34596 265.158 8.92729 264.559 9.64196 264.559Z" fill="#C9A95B"/>
<path d="M15.5961 89.8616C14.2534 89.8616 13.1641 90.9683 13.1641 92.3323C13.1641 93.6963 14.2534 94.8016 15.5961 94.8016C16.9401 94.8016 18.0281 93.6963 18.0281 92.3323C18.0281 90.9683 16.9401 89.8616 15.5961 89.8616ZM15.5961 90.9976C16.3107 90.9976 16.8934 91.5963 16.8934 92.3323C16.8934 93.0683 16.3107 93.667 15.5961 93.667C14.8814 93.667 14.2987 93.0683 14.2987 92.3323C14.2987 91.5963 14.8814 90.9976 15.5961 90.9976Z" fill="#C9A95B"/>
<path d="M3.40905 29.3062C2.06638 29.3062 0.977051 30.4115 0.977051 31.7768C0.977051 33.1408 2.06638 34.2462 3.40905 34.2462C4.75172 34.2462 5.84105 33.1408 5.84105 31.7768C5.84105 30.4115 4.75172 29.3062 3.40905 29.3062Z" fill="#C9A95B"/>
<path d="M2.432 157.693C1.08933 157.693 0 158.798 0 160.163C0 161.527 1.08933 162.633 2.432 162.633C3.77467 162.633 4.864 161.527 4.864 160.163C4.864 158.798 3.77467 157.693 2.432 157.693Z" fill="#C9A95B"/>
<path d="M12.1678 361.601C10.8252 361.601 9.73584 362.706 9.73584 364.071C9.73584 365.435 10.8252 366.541 12.1678 366.541C13.5105 366.541 14.5998 365.435 14.5998 364.071C14.5998 362.706 13.5105 361.601 12.1678 361.601Z" fill="#C9A95B"/>
</g>
<defs>
<clipPath id="clip0_46_802">
<rect width="88" height="470" fill="white"/>
</clipPath>
</defs>
</svg>
