<svg width="88" height="470" viewBox="0 0 88 470" fill="none" xmlns="http://www.w3.org/2000/svg">
<g clip-path="url(#clip0_45_800)">
<path d="M87.98 469.37H59.8134L52.4254 461.865H45.0547V460.73H52.9014L60.2894 468.234H87.98V469.37Z" fill="#C9A95B"/>
<path d="M87.9803 461.816H62.7817L55.4123 454.334H42.4977L35.2537 461.69L34.4443 460.894L42.0203 453.198H55.8897L63.2577 460.68H87.9803V461.816Z" fill="#C9A95B"/>
<path d="M87.9799 454.264H63.2479L55.7972 446.698H46.1025V445.563H56.2745L63.7252 453.128H87.9799V454.264Z" fill="#C9A95B"/>
<path d="M87.9807 446.712H67.042V445.576H87.9807V446.712Z" fill="#C9A95B"/>
<path d="M87.9807 439.16H72.8193V438.024H87.9807V439.16Z" fill="#C9A95B"/>
<path d="M62.1311 439.281H52.8765V438.145H61.6551L69.2098 430.473H87.9805V431.608H69.6858L62.1311 439.281Z" fill="#C9A95B"/>
<path d="M87.9806 424.056H59.4033V422.92H87.9806V424.056Z" fill="#C9A95B"/>
<path d="M87.9802 416.504H50.0242L42.5789 408.941H31.5122V407.807H43.0562L50.5015 415.368H87.9802V416.504Z" fill="#C9A95B"/>
<path d="M87.9806 408.952H51.3486V407.816H87.9806V408.952Z" fill="#C9A95B"/>
<path d="M87.9807 401.4H72.8193V400.264H87.9807V401.4Z" fill="#C9A95B"/>
<path d="M61.1469 401.454H43.6709V400.318H60.6709L68.1616 392.712H87.9802V393.848H68.6376L61.1469 401.454Z" fill="#C9A95B"/>
<path d="M87.9803 386.295H56.999V385.159H87.9803V386.295Z" fill="#C9A95B"/>
<path d="M87.9803 378.743H72.7417V377.607H87.9803V378.743Z" fill="#C9A95B"/>
<path d="M56.285 378.884H46.3623V377.748H55.809L63.3823 370.056H87.9796V371.191H63.8596L56.285 378.884Z" fill="#C9A95B"/>
<path d="M87.9806 363.639H63.7886V362.503H87.9806V363.639Z" fill="#C9A95B"/>
<path d="M87.9798 356.087H75.1185L67.7531 348.607H58.7998V347.471H68.2291L75.5945 354.951H87.9798V356.087Z" fill="#C9A95B"/>
<path d="M49.286 348.547H36.438V347.411H48.81L56.258 339.848H87.9807V340.983H56.734L49.286 348.547Z" fill="#C9A95B"/>
<path d="M25.0596 340.995H16.4263V339.859H24.5836L32.0316 332.296H87.9796V333.431H32.5076L25.0596 340.995Z" fill="#C9A95B"/>
<path d="M87.98 325.879H35.3L27.8373 318.298H20.856L13.6027 325.664L12.792 324.867L20.38 317.163H28.3133L35.7773 324.743H87.98V325.879Z" fill="#C9A95B"/>
<path d="M2.83668 325.629L2.02734 324.832L16.8593 309.768H31.486L38.7953 317.19H87.9793V318.325H38.318L31.01 310.904H17.3353L2.83668 325.629Z" fill="#C9A95B"/>
<path d="M87.9799 310.773H48.6279L33.7746 295.688H13.1973V294.552H34.2506L49.1053 309.637H87.9799V310.773Z" fill="#C9A95B"/>
<path d="M87.9802 303.221H62.8802L55.3975 295.624H48.7842V294.488H55.8748L63.3562 302.085H87.9802V303.221Z" fill="#C9A95B"/>
<path d="M87.9806 295.67H72.5913V294.534H87.9806V295.67Z" fill="#C9A95B"/>
<path d="M87.9804 288.118H27.1484V286.982H87.9804V288.118Z" fill="#C9A95B"/>
<path d="M87.9804 280.565H40.3057L32.9604 273.104H23.6084V271.969H33.4377L40.7831 279.429H87.9804V280.565Z" fill="#C9A95B"/>
<path d="M87.9804 273.014H41.4751V271.878H87.9804V273.014Z" fill="#C9A95B"/>
<path d="M87.9804 265.46H68.2324V264.324H87.9804V265.46Z" fill="#C9A95B"/>
<path d="M55.0177 265.373H44.875V264.237H54.5417L61.8883 256.774H87.9803V257.909H62.3657L55.0177 265.373Z" fill="#C9A95B"/>
<path d="M87.9802 250.356H38.0322V249.22H87.9802V250.356Z" fill="#C9A95B"/>
<path d="M71.0218 242.997H62.5005V241.861H70.5458L78.1698 234.117H87.9805V235.252H78.6472L71.0218 242.997Z" fill="#C9A95B"/>
<path d="M47.7651 242.908H30.4971V241.772H47.2891L62.2611 226.565H87.9797V227.701H62.7371L47.7651 242.908Z" fill="#C9A95B"/>
<path d="M50.8798 227.845H45.2012V226.709H50.4038L57.9825 219.013H87.9798V220.149H58.4598L50.8798 227.845Z" fill="#C9A95B"/>
<path d="M47.4161 220.404H32.3628V219.268H46.9401L54.6281 211.461H87.9801V212.597H55.1055L47.4161 220.404Z" fill="#C9A95B"/>
<path d="M44.4602 212.741H38.0322V211.605H43.9842L51.5629 203.909H87.9802V205.045H52.0402L44.4602 212.741Z" fill="#C9A95B"/>
<path d="M87.9805 197.492H53.1885V196.356H87.9805V197.492Z" fill="#C9A95B"/>
<path d="M30.7851 197.542H17.5664V196.406H30.3091L37.7944 188.804H87.9797V189.94H38.2704L30.7851 197.542Z" fill="#C9A95B"/>
<path d="M87.9803 182.388H25.4736V181.252H87.9803V182.388Z" fill="#C9A95B"/>
<path d="M87.9804 174.835H56.2671V173.699H87.9804V174.835Z" fill="#C9A95B"/>
<path d="M30.9712 175.074H19.5312V173.938H30.4952L38.1659 166.147H87.9806V167.282H38.6432L30.9712 175.074Z" fill="#C9A95B"/>
<path d="M87.9804 159.731H75.5244V158.595H87.9804V159.731Z" fill="#C9A95B"/>
<path d="M58.927 159.828H30.259L15.3057 144.642L16.1163 143.846L30.735 158.692H58.451L65.983 151.043H87.9803V152.179H66.459L58.927 159.828Z" fill="#C9A95B"/>
<path d="M55.7158 152.273H33.4211L25.9531 144.688L26.7625 143.891L33.8985 151.137H55.2398L62.7678 143.491H87.9798V144.627H63.2438L55.7158 152.273Z" fill="#C9A95B"/>
<path d="M52.9477 144.561H47.2344V143.425H52.4717L59.8437 135.939H87.9797V137.075H60.3197L52.9477 144.561Z" fill="#C9A95B"/>
<path d="M87.9802 129.522H51.6069L44.2389 122.04H40.0322V120.904H44.7162L52.0829 128.386H87.9802V129.522Z" fill="#C9A95B"/>
<path d="M87.9803 121.97H54.6323L47.147 114.367H30.4043V113.231H47.623L55.1096 120.834H87.9803V121.97Z" fill="#C9A95B"/>
<path d="M87.9803 114.418H57.7029L50.3563 106.957H45.3843V105.822H50.8336L58.1789 113.282H87.9803V114.418Z" fill="#C9A95B"/>
<path d="M87.9803 106.866H62.1696L47.243 91.7086H30.4043V90.5726H47.7203L62.6456 105.73H87.9803V106.866Z" fill="#C9A95B"/>
<path d="M87.9803 99.3138H77.7976L70.499 91.8991H62.251V90.7644H70.975L78.275 98.1778H87.9803V99.3138Z" fill="#C9A95B"/>
<path d="M87.9806 84.2097H38.126V83.0736H87.9806V84.2097Z" fill="#C9A95B"/>
<path d="M87.9802 76.6575H61.7962L54.4975 69.2429H44.8389V68.1082H54.9735L62.2735 75.5215H87.9802V76.6575Z" fill="#C9A95B"/>
<path d="M87.9808 61.5536H41.6621V60.4177H87.9808V61.5536Z" fill="#C9A95B"/>
<path d="M33.6223 61.556H21.7529V60.42H33.1463L40.5863 52.8653H87.9809V54.0013H41.0623L33.6223 61.556Z" fill="#C9A95B"/>
<path d="M87.9805 46.4496H61.1646V45.3137H87.9805V46.4496Z" fill="#C9A95B"/>
<path d="M87.98 38.8972H68.9587L61.5667 31.3878H52.792V30.2532H62.044L69.436 37.7612H87.98V38.8972Z" fill="#C9A95B"/>
<path d="M87.9803 31.3443H72.5483V30.2083H87.9803V31.3443Z" fill="#C9A95B"/>
<path d="M56.3222 23.7955H46.1289V22.6595H55.8462L63.2849 15.1035H87.9796V16.2395H63.7609L56.3222 23.7955Z" fill="#C9A95B"/>
<path d="M55.4803 16.6212H33.6083L25.7217 8.61182L26.531 7.81582L34.0843 15.4852H55.0043L62.815 7.55182H87.9803V8.68782H63.291L55.4803 16.6212Z" fill="#C9A95B"/>
<path d="M52.6479 8.83331H45.1025V7.69731H52.1719L59.7492 -2.00272e-05H87.9799V1.13598H60.2265L52.6479 8.83331Z" fill="#C9A95B"/>
<path d="M45.055 458.827C46.3977 458.827 47.487 459.933 47.487 461.298C47.487 462.662 46.3977 463.767 45.055 463.767C43.7124 463.767 42.623 462.662 42.623 461.298C42.623 459.933 43.7124 458.827 45.055 458.827Z" fill="#C9A95B"/>
<path d="M34.849 458.822C36.1917 458.822 37.281 459.927 37.281 461.292C37.281 462.656 36.1917 463.762 34.849 463.762C33.5063 463.762 32.417 462.656 32.417 461.292C32.417 459.927 33.5063 458.822 34.849 458.822Z" fill="#C9A95B"/>
<path d="M72.8187 436.123C74.1614 436.123 75.2507 437.228 75.2507 438.593C75.2507 439.957 74.1614 441.063 72.8187 441.063C71.4761 441.063 70.3867 439.957 70.3867 438.593C70.3867 437.228 71.4761 436.123 72.8187 436.123Z" fill="#C9A95B"/>
<path d="M51.349 405.904C52.6917 405.904 53.781 407.009 53.781 408.374C53.781 409.738 52.6917 410.844 51.349 410.844C50.0063 410.844 48.917 409.738 48.917 408.374C48.917 407.009 50.0063 405.904 51.349 405.904Z" fill="#C9A95B"/>
<path d="M72.8187 398.362C74.1614 398.362 75.2507 399.467 75.2507 400.833C75.2507 402.197 74.1614 403.302 72.8187 403.302C71.4761 403.302 70.3867 402.197 70.3867 400.833C70.3867 399.467 71.4761 398.362 72.8187 398.362Z" fill="#C9A95B"/>
<path d="M31.5131 405.904C32.8557 405.904 33.9451 407.009 33.9451 408.374C33.9451 409.738 32.8557 410.844 31.5131 410.844C30.1704 410.844 29.0811 409.738 29.0811 408.374C29.0811 407.009 30.1704 405.904 31.5131 405.904Z" fill="#C9A95B"/>
<path d="M43.6703 398.417C45.0129 398.417 46.1023 399.522 46.1023 400.888C46.1023 402.252 45.0129 403.357 43.6703 403.357C42.3276 403.357 41.2383 402.252 41.2383 400.888C41.2383 399.522 42.3276 398.417 43.6703 398.417Z" fill="#C9A95B"/>
<path d="M56.9984 383.258C58.3411 383.258 59.4304 384.363 59.4304 385.728C59.4304 387.092 58.3411 388.198 56.9984 388.198C55.6557 388.198 54.5664 387.092 54.5664 385.728C54.5664 384.363 55.6557 383.258 56.9984 383.258Z" fill="#C9A95B"/>
<path d="M72.8187 375.705C74.1614 375.705 75.2507 376.811 75.2507 378.176C75.2507 379.54 74.1614 380.645 72.8187 380.645C71.4761 380.645 70.3867 379.54 70.3867 378.176C70.3867 376.811 71.4761 375.705 72.8187 375.705Z" fill="#C9A95B"/>
<path d="M16.4261 337.957C17.7688 337.957 18.8581 339.063 18.8581 340.428C18.8581 341.792 17.7688 342.897 16.4261 342.897C15.0835 342.897 13.9941 341.792 13.9941 340.428C13.9941 339.063 15.0835 337.957 16.4261 337.957Z" fill="#C9A95B"/>
<path d="M13.1971 322.76C14.5398 322.76 15.6291 323.865 15.6291 325.23C15.6291 326.594 14.5398 327.7 13.1971 327.7C11.8545 327.7 10.7651 326.594 10.7651 325.23C10.7651 323.865 11.8545 322.76 13.1971 322.76Z" fill="#C9A95B"/>
<path d="M2.432 322.76C3.77467 322.76 4.864 323.865 4.864 325.23C4.864 326.594 3.77467 327.7 2.432 327.7C1.08933 327.7 0 326.594 0 325.23C0 323.865 1.08933 322.76 2.432 322.76Z" fill="#C9A95B"/>
<path d="M13.1971 292.649C14.5398 292.649 15.6291 293.755 15.6291 295.12C15.6291 296.484 14.5398 297.589 13.1971 297.589C11.8545 297.589 10.7651 296.484 10.7651 295.12C10.7651 293.755 11.8545 292.649 13.1971 292.649Z" fill="#C9A95B"/>
<path d="M27.1478 285.088C28.4905 285.088 29.5798 286.194 29.5798 287.559C29.5798 288.923 28.4905 290.028 27.1478 290.028C25.8052 290.028 24.7158 288.923 24.7158 287.559C24.7158 286.194 25.8052 285.088 27.1478 285.088Z" fill="#C9A95B"/>
<path d="M72.5902 292.696C73.9329 292.696 75.0222 293.802 75.0222 295.167C75.0222 296.531 73.9329 297.636 72.5902 297.636C71.2475 297.636 70.1582 296.531 70.1582 295.167C70.1582 293.802 71.2475 292.696 72.5902 292.696Z" fill="#C9A95B"/>
<path d="M41.475 270.04C42.8176 270.04 43.907 271.145 43.907 272.511C43.907 273.875 42.8176 274.98 41.475 274.98C40.1323 274.98 39.043 273.875 39.043 272.511C39.043 271.145 40.1323 270.04 41.475 270.04Z" fill="#C9A95B"/>
<path d="M38.0326 247.384C39.3753 247.384 40.4646 248.489 40.4646 249.854C40.4646 251.218 39.3753 252.324 38.0326 252.324C36.6899 252.324 35.6006 251.218 35.6006 249.854C35.6006 248.489 36.6899 247.384 38.0326 247.384Z" fill="#C9A95B"/>
<path d="M30.4974 239.934C31.8401 239.934 32.9294 241.04 32.9294 242.405C32.9294 243.769 31.8401 244.874 30.4974 244.874C29.1548 244.874 28.0654 243.769 28.0654 242.405C28.0654 241.04 29.1548 239.934 30.4974 239.934Z" fill="#C9A95B"/>
<path d="M38.0326 209.768C39.3753 209.768 40.4646 210.873 40.4646 212.238C40.4646 213.602 39.3753 214.708 38.0326 214.708C36.6899 214.708 35.6006 213.602 35.6006 212.238C35.6006 210.873 36.6899 209.768 38.0326 209.768Z" fill="#C9A95B"/>
<path d="M17.5658 194.569C18.9085 194.569 19.9978 195.674 19.9978 197.04C19.9978 198.404 18.9085 199.509 17.5658 199.509C16.2231 199.509 15.1338 198.404 15.1338 197.04C15.1338 195.674 16.2231 194.569 17.5658 194.569Z" fill="#C9A95B"/>
<path d="M25.4735 179.469C26.8162 179.469 27.9055 180.575 27.9055 181.94C27.9055 183.304 26.8162 184.409 25.4735 184.409C24.1308 184.409 23.0415 183.304 23.0415 181.94C23.0415 180.575 24.1308 179.469 25.4735 179.469Z" fill="#C9A95B"/>
<path d="M56.267 171.797C57.6096 171.797 58.699 172.903 58.699 174.268C58.699 175.632 57.6096 176.737 56.267 176.737C54.9243 176.737 53.835 175.632 53.835 174.268C53.835 172.903 54.9243 171.797 56.267 171.797Z" fill="#C9A95B"/>
<path d="M15.7098 141.773C17.0525 141.773 18.1418 142.878 18.1418 144.243C18.1418 145.607 17.0525 146.713 15.7098 146.713C14.3672 146.713 13.2778 145.607 13.2778 144.243C13.2778 142.878 14.3672 141.773 15.7098 141.773Z" fill="#C9A95B"/>
<path d="M26.3578 141.819C27.7004 141.819 28.7898 142.925 28.7898 144.29C28.7898 145.654 27.7004 146.759 26.3578 146.759C25.0151 146.759 23.9258 145.654 23.9258 144.29C23.9258 142.925 25.0151 141.819 26.3578 141.819Z" fill="#C9A95B"/>
<path d="M30.4042 111.33C31.7468 111.33 32.8362 112.435 32.8362 113.8C32.8362 115.164 31.7468 116.27 30.4042 116.27C29.0615 116.27 27.9722 115.164 27.9722 113.8C27.9722 112.435 29.0615 111.33 30.4042 111.33Z" fill="#C9A95B"/>
<path d="M30.4042 88.6698C31.7468 88.6698 32.8362 89.7751 32.8362 91.1405C32.8362 92.5045 31.7468 93.6098 30.4042 93.6098C29.0615 93.6098 27.9722 92.5045 27.9722 91.1405C27.9722 89.7751 29.0615 88.6698 30.4042 88.6698Z" fill="#C9A95B"/>
<path d="M41.661 58.515C43.0037 58.515 44.093 59.6204 44.093 60.9857C44.093 62.3497 43.0037 63.455 41.661 63.455C40.3183 63.455 39.229 62.3497 39.229 60.9857C39.229 59.6204 40.3183 58.515 41.661 58.515Z" fill="#C9A95B"/>
<path d="M38.1258 81.1715C39.4685 81.1715 40.5578 82.2768 40.5578 83.6422C40.5578 85.0062 39.4685 86.1115 38.1258 86.1115C36.7832 86.1115 35.6938 85.0062 35.6938 83.6422C35.6938 82.2768 36.7832 81.1715 38.1258 81.1715Z" fill="#C9A95B"/>
<path d="M21.7523 58.5183C23.095 58.5183 24.1843 59.6236 24.1843 60.989C24.1843 62.353 23.095 63.4583 21.7523 63.4583C20.4096 63.4583 19.3203 62.353 19.3203 60.989C19.3203 59.6236 20.4096 58.5183 21.7523 58.5183Z" fill="#C9A95B"/>
<path d="M26.1263 5.74292C27.469 5.74292 28.5583 6.84826 28.5583 8.21359C28.5583 9.57759 27.469 10.6829 26.1263 10.6829C24.7837 10.6829 23.6943 9.57759 23.6943 8.21359C23.6943 6.84826 24.7837 5.74292 26.1263 5.74292Z" fill="#C9A95B"/>
<path d="M45.1029 5.74292C46.4456 5.74292 47.5349 6.84826 47.5349 8.21359C47.5349 9.57759 46.4456 10.6829 45.1029 10.6829C43.7602 10.6829 42.6709 9.57759 42.6709 8.21359C42.6709 6.84826 43.7602 5.74292 45.1029 5.74292Z" fill="#C9A95B"/>
<path d="M44.1727 20.7576C42.8287 20.7576 41.7407 21.8642 41.7407 23.2282C41.7407 24.5922 42.8287 25.6976 44.1727 25.6976C45.5154 25.6976 46.6047 24.5922 46.6047 23.2282C46.6047 21.8642 45.5154 20.7576 44.1727 20.7576ZM44.1727 21.8936C44.8874 21.8936 45.4687 22.4922 45.4687 23.2282C45.4687 23.9642 44.8874 24.5629 44.1727 24.5629C43.4581 24.5629 42.8754 23.9642 42.8754 23.2282C42.8754 22.4922 43.4581 21.8936 44.1727 21.8936Z" fill="#C9A95B"/>
<path d="M50.871 28.3789C49.527 28.3789 48.439 29.4856 48.439 30.8496C48.439 32.2136 49.527 33.3189 50.871 33.3189C52.2136 33.3189 53.303 32.2136 53.303 30.8496C53.303 29.4856 52.2136 28.3789 50.871 28.3789ZM50.871 29.5149C51.5856 29.5149 52.1683 30.1136 52.1683 30.8496C52.1683 31.5856 51.5856 32.1842 50.871 32.1842C50.1563 32.1842 49.5736 31.5856 49.5736 30.8496C49.5736 30.1136 50.1563 29.5149 50.871 29.5149Z" fill="#C9A95B"/>
<path d="M59.1918 43.4109C57.8491 43.4109 56.7598 44.5162 56.7598 45.8816C56.7598 47.2456 57.8491 48.3509 59.1918 48.3509C60.5358 48.3509 61.6238 47.2456 61.6238 45.8816C61.6238 44.5162 60.5358 43.4109 59.1918 43.4109ZM59.1918 44.5469C59.9064 44.5469 60.4891 45.1456 60.4891 45.8816C60.4891 46.6176 59.9064 47.2162 59.1918 47.2162C58.4771 47.2162 57.8958 46.6176 57.8958 45.8816C57.8958 45.1456 58.4771 44.5469 59.1918 44.5469Z" fill="#C9A95B"/>
<path d="M42.8705 66.2057C41.5265 66.2057 40.4385 67.311 40.4385 68.6764C40.4385 70.0404 41.5265 71.1457 42.8705 71.1457C44.2131 71.1457 45.3025 70.0404 45.3025 68.6764C45.3025 67.311 44.2131 66.2057 42.8705 66.2057ZM42.8705 67.3417C43.5851 67.3417 44.1665 67.9404 44.1665 68.6764C44.1665 69.4124 43.5851 70.011 42.8705 70.011C42.1558 70.011 41.5731 69.4124 41.5731 68.6764C41.5731 67.9404 42.1558 67.3417 42.8705 67.3417Z" fill="#C9A95B"/>
<path d="M43.4281 103.919C42.0854 103.919 40.9961 105.025 40.9961 106.39C40.9961 107.754 42.0854 108.859 43.4281 108.859C44.7721 108.859 45.8601 107.754 45.8601 106.39C45.8601 105.025 44.7721 103.919 43.4281 103.919ZM43.4281 105.055C44.1428 105.055 44.7254 105.654 44.7254 106.39C44.7254 107.126 44.1428 107.725 43.4281 107.725C42.7134 107.725 42.1321 107.126 42.1321 106.39C42.1321 105.654 42.7134 105.055 43.4281 105.055Z" fill="#C9A95B"/>
<path d="M38.1254 118.932C36.7827 118.932 35.6934 120.038 35.6934 121.403C35.6934 122.767 36.7827 123.872 38.1254 123.872C39.4694 123.872 40.5574 122.767 40.5574 121.403C40.5574 120.038 39.4694 118.932 38.1254 118.932ZM38.1254 120.068C38.84 120.068 39.4227 120.667 39.4227 121.403C39.4227 122.139 38.84 122.738 38.1254 122.738C37.4107 122.738 36.8294 122.139 36.8294 121.403C36.8294 120.667 37.4107 120.068 38.1254 120.068Z" fill="#C9A95B"/>
<path d="M45.3021 141.524C43.9595 141.524 42.8701 142.63 42.8701 143.994C42.8701 145.358 43.9595 146.464 45.3021 146.464C46.6461 146.464 47.7341 145.358 47.7341 143.994C47.7341 142.63 46.6461 141.524 45.3021 141.524ZM45.3021 142.66C46.0168 142.66 46.5995 143.258 46.5995 143.994C46.5995 144.73 46.0168 145.329 45.3021 145.329C44.5875 145.329 44.0061 144.73 44.0061 143.994C44.0061 143.258 44.5875 142.66 45.3021 142.66Z" fill="#C9A95B"/>
<path d="M17.5658 172.037C16.2231 172.037 15.1338 173.144 15.1338 174.508C15.1338 175.872 16.2231 176.977 17.5658 176.977C18.9098 176.977 19.9978 175.872 19.9978 174.508C19.9978 173.144 18.9098 172.037 17.5658 172.037ZM17.5658 173.173C18.2805 173.173 18.8631 173.772 18.8631 174.508C18.8631 175.244 18.2805 175.842 17.5658 175.842C16.8511 175.842 16.2698 175.244 16.2698 174.508C16.2698 173.772 16.8511 173.173 17.5658 173.173Z" fill="#C9A95B"/>
<path d="M51.243 194.454C49.9004 194.454 48.811 195.561 48.811 196.925C48.811 198.289 49.9004 199.394 51.243 199.394C52.587 199.394 53.675 198.289 53.675 196.925C53.675 195.561 52.587 194.454 51.243 194.454ZM51.243 195.59C51.9577 195.59 52.5404 196.189 52.5404 196.925C52.5404 197.661 51.9577 198.259 51.243 198.259C50.5284 198.259 49.9457 197.661 49.9457 196.925C49.9457 196.189 50.5284 195.59 51.243 195.59Z" fill="#C9A95B"/>
<path d="M30.4969 217.366C29.1543 217.366 28.0649 218.472 28.0649 219.837C28.0649 221.201 29.1543 222.306 30.4969 222.306C31.8409 222.306 32.9289 221.201 32.9289 219.837C32.9289 218.472 31.8409 217.366 30.4969 217.366ZM30.4969 218.502C31.2116 218.502 31.7943 219.101 31.7943 219.837C31.7943 220.573 31.2116 221.172 30.4969 221.172C29.7823 221.172 29.2009 220.573 29.2009 219.837C29.2009 219.101 29.7823 218.502 30.4969 218.502Z" fill="#C9A95B"/>
<path d="M43.3353 224.807C41.9913 224.807 40.9033 225.914 40.9033 227.278C40.9033 228.642 41.9913 229.747 43.3353 229.747C44.678 229.747 45.7673 228.642 45.7673 227.278C45.7673 225.914 44.678 224.807 43.3353 224.807ZM43.3353 225.943C44.05 225.943 44.6313 226.542 44.6313 227.278C44.6313 228.014 44.05 228.613 43.3353 228.613C42.6207 228.613 42.038 228.014 42.038 227.278C42.038 226.542 42.6207 225.943 43.3353 225.943Z" fill="#C9A95B"/>
<path d="M60.5463 239.959C59.2036 239.959 58.1143 241.064 58.1143 242.43C58.1143 243.794 59.2036 244.899 60.5463 244.899C61.8903 244.899 62.9783 243.794 62.9783 242.43C62.9783 241.064 61.8903 239.959 60.5463 239.959ZM60.5463 241.095C61.2609 241.095 61.8436 241.694 61.8436 242.43C61.8436 243.166 61.2609 243.764 60.5463 243.764C59.8316 243.764 59.2503 243.166 59.2503 242.43C59.2503 241.694 59.8316 241.095 60.5463 241.095Z" fill="#C9A95B"/>
<path d="M42.9632 262.335C41.6206 262.335 40.5312 263.44 40.5312 264.805C40.5312 266.169 41.6206 267.275 42.9632 267.275C44.3072 267.275 45.3952 266.169 45.3952 264.805C45.3952 263.44 44.3072 262.335 42.9632 262.335ZM42.9632 263.471C43.6779 263.471 44.2606 264.069 44.2606 264.805C44.2606 265.541 43.6779 266.14 42.9632 266.14C42.2486 266.14 41.6672 265.541 41.6672 264.805C41.6672 264.069 42.2486 263.471 42.9632 263.471Z" fill="#C9A95B"/>
<path d="M21.7523 270.04C20.4083 270.04 19.3203 271.145 19.3203 272.511C19.3203 273.875 20.4083 274.98 21.7523 274.98C23.095 274.98 24.1843 273.875 24.1843 272.511C24.1843 271.145 23.095 270.04 21.7523 270.04ZM21.7523 271.176C22.467 271.176 23.0483 271.775 23.0483 272.511C23.0483 273.247 22.467 273.845 21.7523 273.845C21.0376 273.845 20.455 273.247 20.455 272.511C20.455 271.775 21.0376 271.176 21.7523 271.176Z" fill="#C9A95B"/>
<path d="M46.9393 292.632C45.5953 292.632 44.5073 293.737 44.5073 295.103C44.5073 296.467 45.5953 297.572 46.9393 297.572C48.282 297.572 49.3713 296.467 49.3713 295.103C49.3713 293.737 48.282 292.632 46.9393 292.632ZM46.9393 293.768C47.654 293.768 48.2353 294.367 48.2353 295.103C48.2353 295.839 47.654 296.437 46.9393 296.437C46.2247 296.437 45.642 295.839 45.642 295.103C45.642 294.367 46.2247 293.768 46.9393 293.768Z" fill="#C9A95B"/>
<path d="M78.1229 345.497C76.7789 345.497 75.6909 346.603 75.6909 347.967C75.6909 349.331 76.7789 350.437 78.1229 350.437C79.4656 350.437 80.5549 349.331 80.5549 347.967C80.5549 346.603 79.4656 345.497 78.1229 345.497ZM78.1229 346.633C78.8376 346.633 79.4189 347.231 79.4189 347.967C79.4189 348.703 78.8376 349.302 78.1229 349.302C77.4083 349.302 76.8256 348.703 76.8256 347.967C76.8256 347.231 77.4083 346.633 78.1229 346.633Z" fill="#C9A95B"/>
<path d="M56.9984 345.497C55.6544 345.497 54.5664 346.603 54.5664 347.967C54.5664 349.331 55.6544 350.437 56.9984 350.437C58.3411 350.437 59.4304 349.331 59.4304 347.967C59.4304 346.603 58.3411 345.497 56.9984 345.497ZM56.9984 346.633C57.7131 346.633 58.2944 347.231 58.2944 347.967C58.2944 348.703 57.7131 349.302 56.9984 349.302C56.2837 349.302 55.7011 348.703 55.7011 347.967C55.7011 347.231 56.2837 346.633 56.9984 346.633Z" fill="#C9A95B"/>
<path d="M34.5326 345.497C33.1899 345.497 32.1006 346.603 32.1006 347.967C32.1006 349.331 33.1899 350.437 34.5326 350.437C35.8766 350.437 36.9646 349.331 36.9646 347.967C36.9646 346.603 35.8766 345.497 34.5326 345.497ZM34.5326 346.633C35.2473 346.633 35.8299 347.231 35.8299 347.967C35.8299 348.703 35.2473 349.302 34.5326 349.302C33.8179 349.302 33.2366 348.703 33.2366 347.967C33.2366 347.231 33.8179 346.633 34.5326 346.633Z" fill="#C9A95B"/>
<path d="M44.4242 375.846C43.0815 375.846 41.9922 376.951 41.9922 378.316C41.9922 379.68 43.0815 380.786 44.4242 380.786C45.7682 380.786 46.8562 379.68 46.8562 378.316C46.8562 376.951 45.7682 375.846 44.4242 375.846ZM44.4242 376.982C45.1389 376.982 45.7215 377.58 45.7215 378.316C45.7215 379.052 45.1389 379.651 44.4242 379.651C43.7095 379.651 43.1282 379.052 43.1282 378.316C43.1282 377.58 43.7095 376.982 44.4242 376.982Z" fill="#C9A95B"/>
<path d="M57.5023 421.018C56.1596 421.018 55.0703 422.125 55.0703 423.489C55.0703 424.853 56.1596 425.958 57.5023 425.958C58.8463 425.958 59.9343 424.853 59.9343 423.489C59.9343 422.125 58.8463 421.018 57.5023 421.018ZM57.5023 422.154C58.217 422.154 58.7996 422.753 58.7996 423.489C58.7996 424.225 58.217 424.824 57.5023 424.824C56.7876 424.824 56.2063 424.225 56.2063 423.489C56.2063 422.753 56.7876 422.154 57.5023 422.154Z" fill="#C9A95B"/>
<path d="M50.9872 436.243C49.6432 436.243 48.5552 437.349 48.5552 438.714C48.5552 440.078 49.6432 441.183 50.9872 441.183C52.3298 441.183 53.4192 440.078 53.4192 438.714C53.4192 437.349 52.3298 436.243 50.9872 436.243ZM50.9872 437.379C51.7018 437.379 52.2832 437.978 52.2832 438.714C52.2832 439.45 51.7018 440.049 50.9872 440.049C50.2725 440.049 49.6898 439.45 49.6898 438.714C49.6898 437.978 50.2725 437.379 50.9872 437.379Z" fill="#C9A95B"/>
<path d="M65.4056 443.675C64.0616 443.675 62.9736 444.782 62.9736 446.146C62.9736 447.51 64.0616 448.615 65.4056 448.615C66.7483 448.615 67.8376 447.51 67.8376 446.146C67.8376 444.782 66.7483 443.675 65.4056 443.675ZM65.4056 444.811C66.1203 444.811 66.703 445.41 66.703 446.146C66.703 446.882 66.1203 447.48 65.4056 447.48C64.691 447.48 64.1083 446.882 64.1083 446.146C64.1083 445.41 64.691 444.811 65.4056 444.811Z" fill="#C9A95B"/>
<path d="M44.3641 443.675C43.0201 443.675 41.9321 444.782 41.9321 446.146C41.9321 447.51 43.0201 448.615 44.3641 448.615C45.7068 448.615 46.7961 447.51 46.7961 446.146C46.7961 444.782 45.7068 443.675 44.3641 443.675ZM44.3641 444.811C45.0788 444.811 45.6615 445.41 45.6615 446.146C45.6615 446.882 45.0788 447.48 44.3641 447.48C43.6495 447.48 43.0668 446.882 43.0668 446.146C43.0668 445.41 43.6495 444.811 44.3641 444.811Z" fill="#C9A95B"/>
<path d="M66.3138 262.423C64.9712 262.423 63.8818 263.528 63.8818 264.894C63.8818 266.258 64.9712 267.363 66.3138 267.363C67.6578 267.363 68.7458 266.258 68.7458 264.894C68.7458 263.528 67.6578 262.423 66.3138 262.423ZM66.3138 263.559C67.0285 263.559 67.6112 264.158 67.6112 264.894C67.6112 265.63 67.0285 266.228 66.3138 266.228C65.5992 266.228 65.0178 265.63 65.0178 264.894C65.0178 264.158 65.5992 263.559 66.3138 263.559Z" fill="#C9A95B"/>
<path d="M60.3602 88.8619C59.0162 88.8619 57.9282 89.9686 57.9282 91.3326C57.9282 92.6966 59.0162 93.8019 60.3602 93.8019C61.7029 93.8019 62.7922 92.6966 62.7922 91.3326C62.7922 89.9686 61.7029 88.8619 60.3602 88.8619ZM60.3602 89.9979C61.0749 89.9979 61.6562 90.5966 61.6562 91.3326C61.6562 92.0686 61.0749 92.6673 60.3602 92.6673C59.6456 92.6673 59.0629 92.0686 59.0629 91.3326C59.0629 90.5966 59.6456 89.9979 60.3602 89.9979Z" fill="#C9A95B"/>
<path d="M72.5472 28.3064C73.8899 28.3064 74.9792 29.4117 74.9792 30.7771C74.9792 32.1411 73.8899 33.2464 72.5472 33.2464C71.2046 33.2464 70.1152 32.1411 70.1152 30.7771C70.1152 29.4117 71.2046 28.3064 72.5472 28.3064Z" fill="#C9A95B"/>
<path d="M75.5243 156.693C76.867 156.693 77.9563 157.798 77.9563 159.164C77.9563 160.528 76.867 161.633 75.5243 161.633C74.1816 161.633 73.0923 160.528 73.0923 159.164C73.0923 157.798 74.1816 156.693 75.5243 156.693Z" fill="#C9A95B"/>
<path d="M63.7884 360.601C65.1311 360.601 66.2204 361.706 66.2204 363.072C66.2204 364.436 65.1311 365.541 63.7884 365.541C62.4458 365.541 61.3564 364.436 61.3564 363.072C61.3564 361.706 62.4458 360.601 63.7884 360.601Z" fill="#C9A95B"/>
</g>
<defs>
<clipPath id="clip0_45_800">
<rect width="88" height="470" fill="white"/>
</clipPath>
</defs>
</svg>
