<svg width="1538" height="187" viewBox="0 0 1538 187" fill="none" xmlns="http://www.w3.org/2000/svg">
<g clip-path="url(#clip0_136_416)">
<rect width="1538" height="187" fill="white"/>
<path d="M1535.87 133.166L1484.87 184.166" stroke="#C7A85C" stroke-width="2.78667" stroke-miterlimit="10"/>
<path d="M768.936 15.2139C773.226 15.2139 777.573 15.3792 781.865 15.7699C789.442 16.2725 797.021 17.3859 804.489 19.0032C812.681 20.7312 820.705 23.0712 828.562 26.0805C836.642 29.0899 844.5 32.7112 852.134 37.1139C861.774 42.5192 871.025 48.9845 879.662 56.5619C882.672 59.1245 885.625 61.8552 888.468 64.6979L768.936 184.173" stroke="#C7A85C" stroke-width="2.78667" stroke-miterlimit="10" stroke-linecap="round" stroke-linejoin="round"/>
<path d="M859.268 27.0273L859.212 27.0833L852.19 37.058L852.134 37.114L768.936 155.865" stroke="#C7A85C" stroke-width="2.78667" stroke-miterlimit="10" stroke-linecap="round" stroke-linejoin="round"/>
<path d="M768.936 155.865L828.562 26.0793L828.562 26.0233L833.633 14.9339L833.689 14.8779" stroke="#C7A85C" stroke-width="2.78667" stroke-miterlimit="10" stroke-linecap="round" stroke-linejoin="round"/>
<path d="M768.936 155.865L804.489 19.0021L804.489 18.9475L807.554 7.18881L807.554 7.13281" stroke="#C7A85C" stroke-width="2.78667" stroke-miterlimit="10" stroke-linecap="round" stroke-linejoin="round"/>
<path d="M768.936 155.864L781.864 15.7698L781.864 15.6591L782.978 3.62176L782.978 3.50977" stroke="#C7A85C" stroke-width="2.78667" stroke-miterlimit="10" stroke-linecap="round" stroke-linejoin="round"/>
<path d="M888.468 47.7568L888.301 47.9235L879.664 56.5622L768.936 167.289" stroke="#C7A85C" stroke-width="2.78667" stroke-miterlimit="10" stroke-linecap="round" stroke-linejoin="round"/>
<path d="M768.934 3.0085C773.615 2.9525 778.295 3.17516 782.976 3.62183C791.224 4.17916 799.415 5.3485 807.552 7.1885C816.412 9.02716 825.106 11.6458 833.631 14.9338C842.38 18.2218 850.962 22.2898 859.21 27.0818C869.407 32.8778 879.159 39.7872 888.298 47.9232C891.307 50.4312 894.26 53.2178 897.103 56.0592" stroke="#C7A85C" stroke-width="2.78667" stroke-miterlimit="10"/>
<path d="M768.934 3.0085C773.615 2.9525 778.295 3.17516 782.976 3.62183C791.224 4.17916 799.415 5.3485 807.552 7.1885C816.412 9.02716 825.106 11.6458 833.631 14.9338C842.38 18.2218 850.962 22.2898 859.21 27.0818C869.407 32.8778 879.159 39.7872 888.298 47.9232C891.307 50.4312 894.26 53.2178 897.103 56.0592" stroke="#C7A85C" stroke-width="5.572" stroke-miterlimit="10"/>
<path d="M932.941 184.166C932.941 184.166 973.411 143.706 984.979 132.141" stroke="#C7A85C" stroke-width="2.78667" stroke-miterlimit="10"/>
<path d="M904.475 184.166C904.475 184.166 944.945 143.706 956.512 132.141" stroke="#C7A85C" stroke-width="2.78667" stroke-miterlimit="10"/>
<path d="M876.006 184.166C876.006 184.166 916.475 143.706 928.043 132.141" stroke="#C7A85C" stroke-width="2.78667" stroke-miterlimit="10"/>
<path d="M847.539 184.166C847.539 184.166 888.008 143.706 899.576 132.141" stroke="#C7A85C" stroke-width="2.78667" stroke-miterlimit="10"/>
<path d="M984.979 132.14C984.979 132.14 1025.47 172.618 1037.02 184.173" stroke="#C7A85C" stroke-width="2.78667" stroke-miterlimit="10"/>
<path d="M792.848 184.141L1484.87 184.141" stroke="#C7A85C" stroke-width="5.572" stroke-miterlimit="10" stroke-linecap="round" stroke-linejoin="round"/>
<path d="M1535.19 134.926C1536.73 134.926 1537.97 133.678 1537.97 132.14C1537.97 130.601 1536.73 129.354 1535.19 129.354L1535.19 134.926ZM1535.19 132.14L1535.19 129.354L845.187 129.354L845.188 132.14L845.188 134.926L1535.19 134.926L1535.19 132.14Z" fill="#C7A85C"/>
<path d="M1000.22 147.374L1448.16 147.374" stroke="#C7A85C" stroke-width="2.78667" stroke-miterlimit="10"/>
<path d="M1019.09 166.252L1467.03 166.252" stroke="#C7A85C" stroke-width="2.78667" stroke-miterlimit="10"/>
<path d="M1432.92 132.14C1432.92 132.14 1473.19 172.401 1484.87 184.08" stroke="#C7A85C" stroke-width="2.78667" stroke-miterlimit="10"/>
<path d="M792.848 184.166C792.848 184.166 833.317 143.706 844.885 132.141" stroke="#C7A85C" stroke-width="5.572" stroke-miterlimit="10" stroke-linecap="round" stroke-linejoin="round"/>
<path d="M975.582 110.144L862.791 110.144" stroke="#C7A85C" stroke-width="2.78667" stroke-miterlimit="10"/>
<path d="M2 133.166L53 184.166" stroke="#C7A85C" stroke-width="2.78667" stroke-miterlimit="10"/>
<path d="M768.935 15.2139C764.644 15.2139 760.298 15.3792 756.006 15.7699C748.428 16.2725 740.848 17.3859 733.382 19.0032C725.19 20.7312 717.166 23.0712 709.308 26.0805C701.228 29.0899 693.371 32.7112 685.738 37.1139C676.096 42.5192 666.846 48.9845 658.208 56.5619C655.199 59.1245 652.246 61.8552 649.404 64.6979L768.935 184.173" stroke="#C7A85C" stroke-width="2.78667" stroke-miterlimit="10" stroke-linecap="round" stroke-linejoin="round"/>
<path d="M768.934 155.865L685.736 37.114L685.68 37.058L678.658 27.082L678.604 27.0273" stroke="#C7A85C" stroke-width="2.78667" stroke-miterlimit="10" stroke-linecap="round" stroke-linejoin="round"/>
<path d="M704.182 14.8779L704.238 14.9339L709.308 26.0233L709.308 26.0793L768.935 155.865" stroke="#C7A85C" stroke-width="2.78667" stroke-miterlimit="10" stroke-linecap="round" stroke-linejoin="round"/>
<path d="M730.318 7.13281L730.318 7.18881L733.384 18.9461L733.384 19.0021L768.936 155.865" stroke="#C7A85C" stroke-width="2.78667" stroke-miterlimit="10" stroke-linecap="round" stroke-linejoin="round"/>
<path d="M754.893 3.50977L754.893 3.62177L756.007 15.6578L756.007 15.7698L768.935 155.864" stroke="#C7A85C" stroke-width="2.78667" stroke-miterlimit="10" stroke-linecap="round" stroke-linejoin="round"/>
<path d="M768.934 167.289L658.208 56.5622L649.57 47.9248L649.402 47.7568" stroke="#C7A85C" stroke-width="2.78667" stroke-miterlimit="10" stroke-linecap="round" stroke-linejoin="round"/>
<path d="M640.766 56.0592C643.608 53.2178 646.562 50.4312 649.571 47.9232C658.71 39.7872 668.462 32.8778 678.659 27.0818C686.907 22.2898 695.488 18.2218 704.238 14.9338C712.763 11.6458 721.456 9.02716 730.316 7.18716C738.452 5.34849 746.644 4.17916 754.892 3.62183C759.572 3.17516 764.254 2.9525 768.935 3.00849" stroke="#C7A85C" stroke-width="2.78667" stroke-miterlimit="10"/>
<path d="M640.766 56.0592C643.608 53.2178 646.562 50.4312 649.571 47.9232C658.71 39.7872 668.462 32.8778 678.659 27.0818C686.907 22.2898 695.488 18.2218 704.238 14.9338C712.763 11.6458 721.456 9.02716 730.316 7.18716C738.452 5.34849 746.644 4.17916 754.892 3.62183C759.572 3.17516 764.254 2.9525 768.935 3.00849" stroke="#C7A85C" stroke-width="5.572" stroke-miterlimit="10"/>
<path d="M604.93 184.166C604.93 184.166 564.461 143.706 552.893 132.141" stroke="#C7A85C" stroke-width="2.78667" stroke-miterlimit="10"/>
<path d="M633.397 184.166C633.397 184.166 592.926 143.706 581.359 132.141" stroke="#C7A85C" stroke-width="2.78667" stroke-miterlimit="10"/>
<path d="M661.864 184.166C661.864 184.166 621.394 143.706 609.826 132.141" stroke="#C7A85C" stroke-width="2.78667" stroke-miterlimit="10"/>
<path d="M690.332 184.166C690.332 184.166 649.863 143.706 638.295 132.141" stroke="#C7A85C" stroke-width="2.78667" stroke-miterlimit="10"/>
<path d="M552.891 132.14C552.891 132.14 512.403 172.618 500.846 184.173" stroke="#C7A85C" stroke-width="2.78667" stroke-miterlimit="10"/>
<path d="M745.023 184.141L53 184.141" stroke="#C7A85C" stroke-width="5.572" stroke-miterlimit="10" stroke-linecap="round" stroke-linejoin="round"/>
<path d="M2.98438 129.354C1.44571 129.354 0.198375 130.601 0.198375 132.14C0.198375 133.678 1.44571 134.926 2.98437 134.926L2.98438 129.354ZM2.98438 132.14L2.98437 134.926L692.984 134.926L692.984 132.14L692.984 129.354L2.98438 129.354L2.98438 132.14Z" fill="#C7A85C"/>
<path d="M537.654 147.374L89.7158 147.374" stroke="#C7A85C" stroke-width="2.78667" stroke-miterlimit="10"/>
<path d="M518.777 166.252L70.8379 166.252" stroke="#C7A85C" stroke-width="2.78667" stroke-miterlimit="10"/>
<path d="M104.952 132.14C104.952 132.14 64.6813 172.401 53 184.08" stroke="#C7A85C" stroke-width="2.78667" stroke-miterlimit="10"/>
<path d="M745.024 184.166C745.024 184.166 704.554 143.706 692.986 132.141" stroke="#C7A85C" stroke-width="5.572" stroke-miterlimit="10" stroke-linecap="round" stroke-linejoin="round"/>
<path d="M562.289 110.144L675.078 110.144" stroke="#C7A85C" stroke-width="2.78667" stroke-miterlimit="10"/>
</g>
<defs>
<clipPath id="clip0_136_416">
<rect width="1538" height="187" fill="white"/>
</clipPath>
</defs>
</svg>
