<svg width="144" height="6" viewBox="0 0 144 6" fill="none" xmlns="http://www.w3.org/2000/svg">
<g clip-path="url(#clip0_47_791)">
<path d="M139.906 3.95605H4.0918V2.95605H139.906V3.95605Z" fill="#C9A95B"/>
<path d="M141.241 2.29445C140.601 2.29445 140.079 2.81578 140.079 3.45578C140.079 4.09712 140.601 4.61845 141.241 4.61845C141.881 4.61845 142.403 4.09712 142.403 3.45578C142.403 2.81578 141.881 2.29445 141.241 2.29445ZM141.241 5.95178C139.866 5.95178 138.746 4.83178 138.746 3.45578C138.746 2.08112 139.866 0.961116 141.241 0.961116C142.617 0.961116 143.737 2.08112 143.737 3.45578C143.737 4.83178 142.617 5.95178 141.241 5.95178Z" fill="#C9A95B"/>
<path d="M2.56875 2.29445C1.92875 2.29445 1.40609 2.81578 1.40609 3.45578C1.40609 4.09712 1.92875 4.61845 2.56875 4.61845C3.20875 4.61845 3.73009 4.09712 3.73009 3.45578C3.73009 2.81578 3.20875 2.29445 2.56875 2.29445ZM2.56875 5.95178C1.19275 5.95178 0.0727539 4.83178 0.0727539 3.45578C0.0727539 2.08112 1.19275 0.961116 2.56875 0.961116C3.94342 0.961116 5.06342 2.08112 5.06342 3.45578C5.06342 4.83178 3.94342 5.95178 2.56875 5.95178Z" fill="#C9A95B"/>
</g>
<defs>
<clipPath id="clip0_47_791">
<rect width="144" height="6" fill="white"/>
</clipPath>
</defs>
</svg>
