<svg width="1539" height="187" viewBox="0 0 1539 187" fill="none" xmlns="http://www.w3.org/2000/svg">
<g clip-path="url(#clip0_136_417)">
<rect width="1539" height="187" fill="white"/>
<path d="M3 54.0068L54 3.00684" stroke="#C7A85C" stroke-width="2.78667" stroke-miterlimit="10"/>
<path d="M769.934 171.959C765.643 171.959 761.296 171.794 757.004 171.403C749.427 170.9 741.848 169.787 734.38 168.17C726.188 166.442 718.164 164.102 710.307 161.092C702.227 158.083 694.37 154.462 686.735 150.059C677.095 144.654 667.844 138.188 659.207 130.611C656.198 128.048 653.244 125.318 650.402 122.475L769.934 3.00033" stroke="#C7A85C" stroke-width="2.78667" stroke-miterlimit="10" stroke-linecap="round" stroke-linejoin="round"/>
<path d="M679.602 160.146L679.658 160.09L686.679 150.115L686.735 150.059L769.934 31.3082" stroke="#C7A85C" stroke-width="2.78667" stroke-miterlimit="10" stroke-linecap="round" stroke-linejoin="round"/>
<path d="M769.934 31.3083L710.307 161.094L710.307 161.15L705.236 172.239L705.18 172.295" stroke="#C7A85C" stroke-width="2.78667" stroke-miterlimit="10" stroke-linecap="round" stroke-linejoin="round"/>
<path d="M769.934 31.308L734.38 168.171L734.38 168.225L731.315 179.984L731.315 180.04" stroke="#C7A85C" stroke-width="2.78667" stroke-miterlimit="10" stroke-linecap="round" stroke-linejoin="round"/>
<path d="M769.934 31.3084L757.006 171.403L757.006 171.514L755.891 183.551L755.891 183.663" stroke="#C7A85C" stroke-width="2.78667" stroke-miterlimit="10" stroke-linecap="round" stroke-linejoin="round"/>
<path d="M650.402 139.416L650.568 139.249L659.206 130.611L769.934 19.884" stroke="#C7A85C" stroke-width="2.78667" stroke-miterlimit="10" stroke-linecap="round" stroke-linejoin="round"/>
<path d="M769.934 184.164C765.252 184.22 760.572 183.998 755.891 183.551C747.643 182.994 739.452 181.824 731.315 179.984C722.455 178.146 713.762 175.527 705.236 172.239C696.487 168.951 687.906 164.883 679.658 160.091C669.46 154.295 659.708 147.386 650.57 139.25C647.56 136.742 644.607 133.955 641.764 131.114" stroke="#C7A85C" stroke-width="2.78667" stroke-miterlimit="10"/>
<path d="M769.934 184.164C765.252 184.22 760.572 183.998 755.891 183.551C747.643 182.994 739.452 181.824 731.315 179.984C722.455 178.146 713.762 175.527 705.236 172.239C696.487 168.951 687.906 164.883 679.658 160.091C669.46 154.295 659.708 147.386 650.57 139.25C647.56 136.742 644.607 133.955 641.764 131.114" stroke="#C7A85C" stroke-width="5.572" stroke-miterlimit="10"/>
<path d="M605.928 3.00689C605.928 3.00689 565.458 43.4669 553.89 55.0322" stroke="#C7A85C" stroke-width="2.78667" stroke-miterlimit="10"/>
<path d="M634.395 3.00689C634.395 3.00689 593.924 43.4669 582.357 55.0322" stroke="#C7A85C" stroke-width="2.78667" stroke-miterlimit="10"/>
<path d="M662.863 3.00689C662.863 3.00689 622.394 43.4669 610.826 55.0322" stroke="#C7A85C" stroke-width="2.78667" stroke-miterlimit="10"/>
<path d="M691.33 3.00689C691.33 3.00689 650.861 43.4669 639.293 55.0322" stroke="#C7A85C" stroke-width="2.78667" stroke-miterlimit="10"/>
<path d="M553.891 55.0332C553.891 55.0332 513.403 14.5545 501.845 2.99987" stroke="#C7A85C" stroke-width="2.78667" stroke-miterlimit="10"/>
<path d="M746.021 3.03223L53.9988 3.03226" stroke="#C7A85C" stroke-width="5.572" stroke-miterlimit="10" stroke-linecap="round" stroke-linejoin="round"/>
<path d="M3.68164 52.2473C2.14297 52.2473 0.89564 53.4946 0.89564 55.0333C0.89564 56.5719 2.14297 57.8193 3.68164 57.8193L3.68164 52.2473ZM3.68164 55.0333L3.68164 57.8193L693.682 57.8192L693.682 55.0332L693.682 52.2472L3.68164 52.2473L3.68164 55.0333Z" fill="#C7A85C"/>
<path d="M538.652 39.7988L90.7137 39.7988" stroke="#C7A85C" stroke-width="2.78667" stroke-miterlimit="10"/>
<path d="M519.775 20.9209L71.8367 20.9209" stroke="#C7A85C" stroke-width="2.78667" stroke-miterlimit="10"/>
<path d="M105.951 55.0332C105.951 55.0332 65.6805 14.7719 53.9992 3.0932" stroke="#C7A85C" stroke-width="2.78667" stroke-miterlimit="10"/>
<path d="M746.021 3.00689C746.021 3.00689 705.552 43.4669 693.984 55.0322" stroke="#C7A85C" stroke-width="5.572" stroke-miterlimit="10" stroke-linecap="round" stroke-linejoin="round"/>
<path d="M563.287 77.0293L676.078 77.0293" stroke="#C7A85C" stroke-width="2.78667" stroke-miterlimit="10"/>
<path d="M1536.87 54.0068L1485.87 3.00684" stroke="#C7A85C" stroke-width="2.78667" stroke-miterlimit="10"/>
<path d="M769.934 171.959C774.225 171.959 778.572 171.794 782.864 171.403C790.441 170.9 798.021 169.787 805.488 168.17C813.68 166.442 821.704 164.102 829.561 161.092C837.641 158.083 845.498 154.462 853.132 150.059C862.773 144.654 872.024 138.188 880.661 130.611C883.67 128.048 886.624 125.318 889.465 122.475L769.934 3.00033" stroke="#C7A85C" stroke-width="2.78667" stroke-miterlimit="10" stroke-linecap="round" stroke-linejoin="round"/>
<path d="M769.935 31.3082L853.134 150.059L853.19 150.115L860.211 160.091L860.266 160.146" stroke="#C7A85C" stroke-width="2.78667" stroke-miterlimit="10" stroke-linecap="round" stroke-linejoin="round"/>
<path d="M834.688 172.295L834.632 172.239L829.561 161.15L829.561 161.094L769.934 31.3083" stroke="#C7A85C" stroke-width="2.78667" stroke-miterlimit="10" stroke-linecap="round" stroke-linejoin="round"/>
<path d="M808.551 180.04L808.551 179.984L805.485 168.227L805.485 168.171L769.933 31.308" stroke="#C7A85C" stroke-width="2.78667" stroke-miterlimit="10" stroke-linecap="round" stroke-linejoin="round"/>
<path d="M783.977 183.663L783.977 183.551L782.862 171.515L782.862 171.403L769.934 31.3084" stroke="#C7A85C" stroke-width="2.78667" stroke-miterlimit="10" stroke-linecap="round" stroke-linejoin="round"/>
<path d="M769.935 19.884L880.661 130.611L889.299 139.248L889.467 139.416" stroke="#C7A85C" stroke-width="2.78667" stroke-miterlimit="10" stroke-linecap="round" stroke-linejoin="round"/>
<path d="M898.104 131.114C895.261 133.955 892.308 136.742 889.298 139.25C880.16 147.386 870.408 154.295 860.21 160.091C851.962 164.883 843.381 168.951 834.632 172.239C826.106 175.527 817.413 178.146 808.553 179.986C800.417 181.824 792.225 182.994 783.977 183.551C779.297 183.998 774.616 184.22 769.934 184.164" stroke="#C7A85C" stroke-width="2.78667" stroke-miterlimit="10"/>
<path d="M898.104 131.114C895.261 133.955 892.308 136.742 889.298 139.25C880.16 147.386 870.408 154.295 860.21 160.091C851.962 164.883 843.381 168.951 834.632 172.239C826.106 175.527 817.413 178.146 808.553 179.986C800.417 181.824 792.225 182.994 783.977 183.551C779.297 183.998 774.616 184.22 769.934 184.164" stroke="#C7A85C" stroke-width="5.572" stroke-miterlimit="10"/>
<path d="M933.939 3.0069C933.939 3.0069 974.409 43.4669 985.977 55.0322" stroke="#C7A85C" stroke-width="2.78667" stroke-miterlimit="10"/>
<path d="M905.472 3.0069C905.472 3.0069 945.943 43.4669 957.51 55.0322" stroke="#C7A85C" stroke-width="2.78667" stroke-miterlimit="10"/>
<path d="M877.006 3.0069C877.006 3.0069 917.475 43.4669 929.043 55.0322" stroke="#C7A85C" stroke-width="2.78667" stroke-miterlimit="10"/>
<path d="M848.537 3.0069C848.537 3.0069 889.006 43.4669 900.574 55.0322" stroke="#C7A85C" stroke-width="2.78667" stroke-miterlimit="10"/>
<path d="M985.978 55.0332C985.978 55.0332 1026.47 14.5545 1038.02 2.99987" stroke="#C7A85C" stroke-width="2.78667" stroke-miterlimit="10"/>
<path d="M793.846 3.03226L1485.87 3.03223" stroke="#C7A85C" stroke-width="5.572" stroke-miterlimit="10" stroke-linecap="round" stroke-linejoin="round"/>
<path d="M1535.88 57.8192C1537.42 57.8192 1538.67 56.5719 1538.67 55.0332C1538.67 53.4945 1537.42 52.2472 1535.88 52.2472V57.8192ZM1535.88 55.0332V52.2472L845.885 52.2472V55.0332V57.8192L1535.88 57.8192V55.0332Z" fill="#C7A85C"/>
<path d="M1001.22 39.7988L1449.15 39.7988" stroke="#C7A85C" stroke-width="2.78667" stroke-miterlimit="10"/>
<path d="M1020.09 20.9209L1468.03 20.9209" stroke="#C7A85C" stroke-width="2.78667" stroke-miterlimit="10"/>
<path d="M1433.92 55.0332C1433.92 55.0332 1474.19 14.7719 1485.87 3.0932" stroke="#C7A85C" stroke-width="2.78667" stroke-miterlimit="10"/>
<path d="M793.845 3.0069C793.845 3.0069 834.315 43.4669 845.883 55.0322" stroke="#C7A85C" stroke-width="5.572" stroke-miterlimit="10" stroke-linecap="round" stroke-linejoin="round"/>
<path d="M976.58 77.0293L863.791 77.0293" stroke="#C7A85C" stroke-width="2.78667" stroke-miterlimit="10"/>
</g>
<defs>
<clipPath id="clip0_136_417">
<rect width="1539" height="187" fill="white"/>
</clipPath>
</defs>
</svg>
