<svg width="399" height="195" viewBox="0 0 399 195" fill="none" xmlns="http://www.w3.org/2000/svg">
<path d="M377.724 107.812C377.724 108.288 377.656 108.594 377.52 108.73C377.452 108.866 377.214 108.934 376.806 108.934H362.73C362.526 108.934 362.424 108.73 362.424 108.322C362.424 107.914 362.526 107.71 362.73 107.71C365.382 107.71 367.32 107.506 368.544 107.098C369.836 106.69 370.686 105.976 371.094 104.956C371.57 104.004 371.808 102.508 371.808 100.468V31.5161C371.808 29.476 371.57 27.98 371.094 27.028C370.686 26.008 369.836 25.294 368.544 24.886C367.32 24.478 365.382 24.274 362.73 24.274C362.526 24.274 362.424 24.07 362.424 23.662C362.424 23.254 362.526 23.05 362.73 23.05H376.806C377.214 23.05 377.452 23.118 377.52 23.254C377.656 23.322 377.724 23.594 377.724 24.07V107.812Z" fill="white"/>
<path d="M343.565 98.224C340.709 98.224 338.363 97.578 336.527 96.286C334.691 94.994 333.773 92.852 333.773 89.86V65.89C333.773 64.122 333.637 62.864 333.365 62.116C333.161 61.368 332.719 60.892 332.039 60.688C331.359 60.416 330.203 60.28 328.571 60.28C328.299 60.28 328.163 60.076 328.163 59.668C328.163 59.192 328.299 58.954 328.571 58.954C331.291 58.886 333.501 58.172 335.201 56.812C336.901 55.384 337.887 53.514 338.159 51.202C338.159 50.998 338.431 50.896 338.975 50.896C339.451 50.896 339.689 50.998 339.689 51.202V86.392C339.689 91.9 342.375 94.654 347.747 94.654C350.875 94.654 353.595 93.702 355.907 91.798L356.111 91.696C356.383 91.696 356.587 91.866 356.723 92.206C356.859 92.478 356.825 92.682 356.621 92.818C354.105 94.79 351.827 96.184 349.787 97C347.815 97.816 345.741 98.224 343.565 98.224ZM353.459 62.626C349.107 61.538 343.939 60.994 337.955 60.994V58.75C342.239 58.75 347.543 58.41 353.867 57.73C354.003 57.73 354.139 58.002 354.275 58.546C354.479 59.022 354.581 59.566 354.581 60.178C354.581 60.722 354.445 61.3 354.173 61.912C353.969 62.456 353.731 62.694 353.459 62.626Z" fill="white"/>
<path d="M302.172 97.0001C301.968 97.0001 301.866 96.7961 301.866 96.3881C301.866 95.9801 301.968 95.7761 302.172 95.7761C304.008 95.7761 305.368 95.6061 306.252 95.2661C307.136 94.8581 307.748 94.1781 308.088 93.2261C308.428 92.2061 308.598 90.7101 308.598 88.7381V36.004C308.598 33.556 308.36 31.7881 307.884 30.7C307.408 29.6121 306.558 29.0681 305.334 29.0681C304.314 29.0681 302.75 29.544 300.642 30.496H300.438C300.234 30.496 300.064 30.3261 299.928 29.9861C299.86 29.646 299.928 29.442 300.132 29.374L313.188 23.152C313.324 23.084 313.494 23.05 313.698 23.05C313.902 23.05 314.106 23.152 314.31 23.356C314.514 23.492 314.616 23.662 314.616 23.8661V88.7381C314.616 90.7101 314.752 92.1721 315.024 93.1241C315.364 94.0761 315.976 94.7561 316.86 95.1641C317.744 95.5721 319.104 95.7761 320.94 95.7761C321.144 95.7761 321.246 95.9801 321.246 96.3881C321.246 96.7961 321.144 97.0001 320.94 97.0001C319.444 97.0001 318.22 96.9661 317.268 96.8981L311.556 96.7961L306.048 96.8981C305.096 96.9661 303.804 97.0001 302.172 97.0001Z" fill="white"/>
<path d="M287.388 97.612C287.116 97.748 286.844 97.816 286.572 97.816C285.552 97.816 284.668 97.034 283.92 95.47C283.172 93.906 282.798 91.832 282.798 89.248V69.97C282.798 62.354 280.656 58.546 276.372 58.546C274.06 58.546 272.292 59.328 271.068 60.892C269.912 62.388 269.13 64.122 268.722 66.094C268.45 67.386 268.042 68.406 267.498 69.154C267.022 69.902 266.138 70.276 264.846 70.276C263.758 70.276 262.908 69.97 262.296 69.358C261.752 68.746 261.48 68.032 261.48 67.216C261.48 65.584 262.534 63.952 264.642 62.32C266.75 60.688 269.266 59.328 272.19 58.24C275.114 57.152 277.732 56.608 280.044 56.608C282.832 56.608 284.94 57.492 286.368 59.26C287.796 61.028 288.51 63.578 288.51 66.91V85.984C288.51 88.364 288.816 90.098 289.428 91.186C290.04 92.274 291.026 92.818 292.386 92.818C293.746 92.818 295.446 92.376 297.486 91.492H297.69C297.962 91.492 298.132 91.662 298.2 92.002C298.268 92.274 298.166 92.478 297.894 92.614L287.388 97.612ZM269.028 97.714C266.512 97.714 264.54 97.068 263.112 95.776C261.752 94.416 261.072 92.716 261.072 90.676C261.072 88.636 261.888 86.868 263.52 85.372C265.152 83.876 267.838 82.448 271.578 81.088L283.818 76.498L284.124 77.824L273.312 82.006C271.408 82.754 270.014 83.638 269.13 84.658C268.314 85.61 267.906 86.766 267.906 88.126C267.906 89.758 268.416 91.152 269.436 92.308C270.524 93.396 271.918 93.94 273.618 93.94C274.978 93.94 276.61 93.396 278.514 92.308L284.94 88.432L285.144 89.758L277.596 94.654C275.896 95.742 274.4 96.524 273.108 97C271.816 97.476 270.456 97.714 269.028 97.714Z" fill="white"/>
<path d="M218.187 79.66C218.051 79.66 217.915 79.456 217.779 79.048C217.711 78.572 217.677 78.062 217.677 77.518C217.677 77.042 217.711 76.634 217.779 76.294C217.915 75.886 218.017 75.682 218.085 75.682H251.847C251.983 75.682 252.085 75.886 252.153 76.294C252.289 76.702 252.357 77.144 252.357 77.62C252.357 78.096 252.289 78.572 252.153 79.048C252.085 79.456 251.983 79.66 251.847 79.66H218.187ZM237.057 94.45C237.057 94.586 236.785 94.722 236.241 94.858C235.765 94.926 235.255 94.96 234.711 94.96C233.555 94.96 232.977 94.858 232.977 94.654V60.892C232.977 60.756 233.181 60.654 233.589 60.586C234.065 60.45 234.541 60.382 235.017 60.382C235.493 60.382 235.935 60.45 236.343 60.586C236.819 60.654 237.057 60.756 237.057 60.892V94.45Z" fill="white"/>
<path d="M154.432 97C154.228 97 154.126 96.796 154.126 96.388C154.126 95.98 154.228 95.776 154.432 95.776C156.472 95.776 157.968 95.606 158.92 95.266C159.872 94.858 160.518 94.178 160.858 93.226C161.266 92.274 161.47 90.778 161.47 88.738V65.788C161.47 64.02 161.3 62.796 160.96 62.116C160.62 61.368 159.974 60.892 159.022 60.688C158.07 60.416 156.404 60.28 154.024 60.28C153.82 60.28 153.718 60.076 153.718 59.668C153.718 59.192 153.82 58.954 154.024 58.954C156.812 58.954 158.682 58.648 159.634 58.036C160.654 57.356 161.198 56.132 161.266 54.364C161.606 43.348 163.612 35.358 167.284 30.394C171.024 25.43 176.498 22.948 183.706 22.948C187.174 22.948 189.996 23.492 192.172 24.58C194.416 25.6 195.538 26.858 195.538 28.354C195.538 29.374 195.164 30.19 194.416 30.802C193.736 31.346 192.92 31.618 191.968 31.618C191.22 31.618 190.506 31.38 189.826 30.904C189.214 30.428 188.568 29.714 187.888 28.762C186.8 27.334 185.644 26.314 184.42 25.702C183.264 25.022 181.836 24.682 180.136 24.682C176.192 24.682 173.064 26.96 170.752 31.516C168.44 36.072 167.284 42.974 167.284 52.222V88.738C167.284 90.846 167.522 92.376 167.998 93.328C168.474 94.28 169.392 94.926 170.752 95.266C172.112 95.606 174.288 95.776 177.28 95.776C177.484 95.776 177.586 95.98 177.586 96.388C177.586 96.796 177.484 97 177.28 97L170.752 96.898C169.324 96.83 167.148 96.796 164.224 96.796L158.512 96.898C157.56 96.966 156.2 97 154.432 97ZM199.312 98.224C196.456 98.224 194.11 97.578 192.274 96.286C190.506 94.994 189.622 92.852 189.622 89.86V65.788C189.622 63.816 189.282 62.558 188.602 62.014C187.922 61.402 186.222 61.028 183.502 60.892C180.782 60.756 174.9 60.688 165.856 60.688V58.75C172.724 58.75 178.028 58.648 181.768 58.444C184.828 58.376 187.174 58.138 188.806 57.73C190.438 57.254 191.628 56.506 192.376 55.486C193.124 54.466 193.634 53.038 193.906 51.202C193.906 50.998 194.178 50.896 194.722 50.896C195.198 50.896 195.436 50.998 195.436 51.202V86.392C195.436 89.112 196.116 91.186 197.476 92.614C198.904 93.974 200.876 94.654 203.392 94.654C206.52 94.654 209.274 93.736 211.654 91.9C211.722 91.832 211.824 91.798 211.96 91.798C212.164 91.798 212.334 91.934 212.47 92.206C212.606 92.478 212.572 92.682 212.368 92.818C209.852 94.79 207.574 96.184 205.534 97C203.562 97.816 201.488 98.224 199.312 98.224ZM209.308 62.626C204.888 61.538 199.72 60.994 193.804 60.994V58.75C198.02 58.75 203.29 58.41 209.614 57.73C209.818 57.73 209.988 57.968 210.124 58.444C210.26 58.92 210.328 59.498 210.328 60.178C210.328 60.722 210.192 61.3 209.92 61.912C209.716 62.456 209.512 62.694 209.308 62.626Z" fill="white"/>
<path d="M128.683 97C128.547 97 128.479 96.796 128.479 96.388C128.479 95.98 128.547 95.776 128.683 95.776C130.519 95.776 131.879 95.606 132.763 95.266C133.715 94.858 134.361 94.178 134.701 93.226C135.041 92.274 135.211 90.778 135.211 88.738V69.664C135.211 67.216 134.939 65.448 134.395 64.36C133.919 63.272 133.069 62.728 131.845 62.728C130.621 62.728 129.091 63.204 127.255 64.156H127.153C126.881 64.156 126.677 63.986 126.541 63.646C126.405 63.306 126.439 63.068 126.643 62.932L139.903 56.812L140.311 56.71C140.447 56.71 140.617 56.812 140.821 57.016C141.025 57.152 141.127 57.322 141.127 57.526C141.127 58.002 141.093 59.362 141.025 61.606C140.957 63.85 140.923 66.502 140.923 69.562V88.738C140.923 90.778 141.093 92.274 141.433 93.226C141.773 94.178 142.385 94.858 143.269 95.266C144.153 95.606 145.513 95.776 147.349 95.776C147.553 95.776 147.655 95.98 147.655 96.388C147.655 96.796 147.553 97 147.349 97C145.785 97 144.527 96.966 143.575 96.898L138.067 96.796L132.559 96.898C131.607 96.966 130.315 97 128.683 97ZM137.251 44.776C135.891 44.776 134.803 44.402 133.987 43.654C133.171 42.906 132.763 41.852 132.763 40.492C132.763 39.132 133.171 38.078 133.987 37.33C134.803 36.582 135.891 36.208 137.251 36.208C138.611 36.208 139.665 36.582 140.413 37.33C141.161 38.078 141.535 39.132 141.535 40.492C141.535 41.852 141.161 42.906 140.413 43.654C139.665 44.402 138.611 44.776 137.251 44.776Z" fill="white"/>
<path d="M75.029 97.0001C74.825 97.0001 74.723 96.7961 74.723 96.3881C74.723 95.9801 74.825 95.7761 75.029 95.7761C76.865 95.7761 78.225 95.6061 79.109 95.2661C79.993 94.8581 80.605 94.1781 80.945 93.2261C81.285 92.2061 81.455 90.7101 81.455 88.7381V36.004C81.455 33.556 81.217 31.7881 80.741 30.7C80.265 29.6121 79.415 29.0681 78.191 29.0681C77.171 29.0681 75.607 29.544 73.499 30.496L73.295 30.598C73.091 30.598 72.921 30.428 72.785 30.088C72.649 29.748 72.717 29.51 72.989 29.374L85.943 23.05H86.249C86.521 23.05 86.725 23.152 86.861 23.356C87.065 23.492 87.167 23.662 87.167 23.8661V88.7381C87.167 90.7781 87.337 92.2741 87.677 93.2261C88.017 94.1781 88.629 94.8581 89.513 95.2661C90.397 95.6061 91.757 95.7761 93.593 95.7761C93.797 95.7761 93.899 95.9801 93.899 96.3881C93.899 96.7961 93.797 97.0001 93.593 97.0001C92.029 97.0001 90.771 96.9661 89.819 96.8981L84.311 96.7961L78.803 96.8981C77.851 96.9661 76.593 97.0001 75.029 97.0001ZM102.467 97.0001C102.263 97.0001 102.161 96.7961 102.161 96.3881C102.161 95.9801 102.263 95.7761 102.467 95.7761C104.303 95.7761 105.663 95.6061 106.547 95.2661C107.431 94.8581 108.043 94.1781 108.383 93.2261C108.723 92.2061 108.893 90.7101 108.893 88.7381V72.5201C108.893 68.508 108.111 65.5161 106.547 63.5441C105.051 61.5721 102.705 60.5861 99.509 60.5861C96.993 60.5861 94.443 61.402 91.859 63.034C89.275 64.5981 87.065 66.7401 85.229 69.4601L84.821 68.2361C87.881 64.2241 90.839 61.3001 93.695 59.4641C96.619 57.5601 99.679 56.608 102.875 56.608C106.615 56.608 109.505 57.662 111.545 59.7701C113.585 61.878 114.605 64.938 114.605 68.9501V88.7381C114.605 90.7781 114.775 92.2741 115.115 93.2261C115.455 94.1781 116.067 94.8581 116.951 95.2661C117.835 95.6061 119.195 95.7761 121.031 95.7761C121.235 95.7761 121.337 95.9801 121.337 96.3881C121.337 96.7961 121.235 97.0001 121.031 97.0001C119.467 97.0001 118.209 96.9661 117.257 96.8981L111.749 96.7961L106.241 96.8981C105.289 96.9661 104.031 97.0001 102.467 97.0001Z" fill="white"/>
<path d="M48.1122 63.8501C48.1122 66.2301 48.8942 68.1341 50.4582 69.5621C52.0222 70.9221 54.3342 72.3841 57.3942 73.9481C59.7742 75.1721 61.6102 76.2261 62.9022 77.1101C64.2622 77.9941 65.4182 79.1501 66.3702 80.5781C67.3222 82.0061 67.7982 83.7401 67.7982 85.7801C67.7982 89.2481 66.5062 92.1721 63.9222 94.5521C61.3382 96.9321 57.8362 98.1221 53.4162 98.1221C49.8122 98.1221 46.5482 97.1021 43.6242 95.0621C43.2162 94.7901 43.0122 94.3821 43.0122 93.8381L42.8082 85.8821C42.8082 85.6781 42.9782 85.5761 43.3182 85.5761C43.7262 85.5081 43.9642 85.5761 44.0322 85.7801C45.3242 89.2481 46.9902 91.8661 49.0302 93.6341C51.1382 95.3341 53.5522 96.1841 56.2722 96.1841C58.3802 96.1841 60.0122 95.7081 61.1682 94.7561C62.3922 93.7361 63.0042 92.2401 63.0042 90.2681C63.0042 88.3641 62.5622 86.7661 61.6782 85.4741C60.8622 84.1141 59.8422 83.0601 58.6182 82.3121C57.3942 81.4961 55.7282 80.5441 53.6202 79.4561C51.3762 78.3681 49.5742 77.3821 48.2142 76.4981C46.9222 75.6141 45.8002 74.4581 44.8482 73.0301C43.9642 71.6021 43.5222 69.8341 43.5222 67.7261C43.5222 64.0541 44.8822 61.2661 47.6022 59.3621C50.3902 57.3901 53.6542 56.4041 57.3942 56.4041C60.1142 56.4041 62.5962 56.9141 64.8402 57.9341C65.2482 58.0701 65.4862 58.2401 65.5542 58.4441C65.6902 58.5801 65.7582 58.7841 65.7582 59.0561C65.7582 60.4161 65.7242 61.4701 65.6562 62.2181L65.5542 66.5021C65.5542 66.6381 65.3502 66.7061 64.9422 66.7061C64.5342 66.7061 64.3302 66.6381 64.3302 66.5021C64.3302 64.3261 63.1742 62.4221 60.8622 60.7901C58.6182 59.1581 56.2382 58.3421 53.7222 58.3421C51.9542 58.3421 50.5602 58.8181 49.5402 59.7701C48.5882 60.6541 48.1122 62.0141 48.1122 63.8501Z" fill="white"/>
<path d="M19 24.07C19 23.594 19.034 23.322 19.102 23.254C19.238 23.118 19.51 23.05 19.918 23.05H33.994C34.198 23.05 34.3 23.254 34.3 23.662C34.3 24.07 34.198 24.274 33.994 24.274C31.342 24.274 29.37 24.478 28.078 24.886C26.854 25.294 26.004 26.008 25.528 27.028C25.12 27.98 24.916 29.476 24.916 31.5161V100.468C24.916 102.508 25.12 104.004 25.528 104.956C26.004 105.976 26.854 106.69 28.078 107.098C29.37 107.506 31.342 107.71 33.994 107.71C34.198 107.71 34.3 107.914 34.3 108.322C34.3 108.73 34.198 108.934 33.994 108.934H19.918C19.51 108.934 19.238 108.866 19.102 108.73C19.034 108.594 19 108.288 19 107.812V24.07Z" fill="white"/>
<path d="M371.503 154.05C371.503 155.123 371.855 155.982 372.561 156.626C373.266 157.239 374.309 157.899 375.689 158.604C376.762 159.156 377.59 159.631 378.173 160.03C378.786 160.429 379.307 160.95 379.737 161.594C380.166 162.238 380.381 163.02 380.381 163.94C380.381 165.504 379.798 166.823 378.633 167.896C377.467 168.969 375.888 169.506 373.895 169.506C372.269 169.506 370.797 169.046 369.479 168.126C369.295 168.003 369.203 167.819 369.203 167.574L369.111 163.986C369.111 163.894 369.187 163.848 369.341 163.848C369.525 163.817 369.632 163.848 369.663 163.94C370.245 165.504 370.997 166.685 371.917 167.482C372.867 168.249 373.956 168.632 375.183 168.632C376.133 168.632 376.869 168.417 377.391 167.988C377.943 167.528 378.219 166.853 378.219 165.964C378.219 165.105 378.019 164.385 377.621 163.802C377.253 163.189 376.793 162.713 376.241 162.376C375.689 162.008 374.937 161.579 373.987 161.088C372.975 160.597 372.162 160.153 371.549 159.754C370.966 159.355 370.46 158.834 370.031 158.19C369.632 157.546 369.433 156.749 369.433 155.798C369.433 154.142 370.046 152.885 371.273 152.026C372.53 151.137 374.002 150.692 375.689 150.692C376.915 150.692 378.035 150.922 379.047 151.382C379.231 151.443 379.338 151.52 379.369 151.612C379.43 151.673 379.461 151.765 379.461 151.888C379.461 152.501 379.445 152.977 379.415 153.314L379.369 155.246C379.369 155.307 379.277 155.338 379.093 155.338C378.909 155.338 378.817 155.307 378.817 155.246C378.817 154.265 378.295 153.406 377.253 152.67C376.241 151.934 375.167 151.566 374.033 151.566C373.235 151.566 372.607 151.781 372.147 152.21C371.717 152.609 371.503 153.222 371.503 154.05Z" fill="white"/>
<path d="M360.008 169.552C358.72 169.552 357.662 169.261 356.834 168.678C356.006 168.095 355.592 167.129 355.592 165.78V154.97C355.592 154.173 355.53 153.605 355.408 153.268C355.316 152.931 355.116 152.716 354.81 152.624C354.503 152.501 353.982 152.44 353.246 152.44C353.123 152.44 353.062 152.348 353.062 152.164C353.062 151.949 353.123 151.842 353.246 151.842C354.472 151.811 355.469 151.489 356.236 150.876C357.002 150.232 357.447 149.389 357.57 148.346C357.57 148.254 357.692 148.208 357.938 148.208C358.152 148.208 358.26 148.254 358.26 148.346V164.216C358.26 166.7 359.471 167.942 361.894 167.942C363.304 167.942 364.531 167.513 365.574 166.654L365.666 166.608C365.788 166.608 365.88 166.685 365.942 166.838C366.003 166.961 365.988 167.053 365.896 167.114C364.761 168.003 363.734 168.632 362.814 169C361.924 169.368 360.989 169.552 360.008 169.552ZM364.47 153.498C362.507 153.007 360.176 152.762 357.478 152.762V151.75C359.41 151.75 361.802 151.597 364.654 151.29C364.715 151.29 364.776 151.413 364.838 151.658C364.93 151.873 364.976 152.118 364.976 152.394C364.976 152.639 364.914 152.9 364.792 153.176C364.7 153.421 364.592 153.529 364.47 153.498Z" fill="white"/>
<path d="M342.04 169C341.948 169 341.902 168.908 341.902 168.724C341.902 168.54 341.948 168.448 342.04 168.448C342.868 168.448 343.481 168.371 343.88 168.218C344.279 168.034 344.539 167.727 344.662 167.298C344.815 166.869 344.892 166.194 344.892 165.274V157.822C344.892 155.982 344.539 154.648 343.834 153.82C343.159 152.961 342.101 152.532 340.66 152.532C339.525 152.532 338.375 152.885 337.21 153.59C336.075 154.295 335.094 155.261 334.266 156.488L334.082 155.936C335.431 154.127 336.765 152.793 338.084 151.934C339.403 151.075 340.767 150.646 342.178 150.646C343.865 150.646 345.168 151.137 346.088 152.118C347.039 153.069 347.514 154.449 347.514 156.258V165.274C347.514 166.194 347.575 166.869 347.698 167.298C347.851 167.727 348.127 168.034 348.526 168.218C348.925 168.371 349.538 168.448 350.366 168.448C350.458 168.448 350.504 168.54 350.504 168.724C350.504 168.908 350.458 169 350.366 169C349.661 169 349.109 168.985 348.71 168.954L346.226 168.908L343.696 168.954C343.297 168.985 342.745 169 342.04 169ZM329.666 169C329.574 169 329.528 168.908 329.528 168.724C329.528 168.54 329.574 168.448 329.666 168.448C330.494 168.448 331.107 168.371 331.506 168.218C331.905 168.034 332.165 167.727 332.288 167.298C332.441 166.869 332.518 166.194 332.518 165.274V156.166C332.518 155.123 332.395 154.372 332.15 153.912C331.905 153.452 331.491 153.222 330.908 153.222C330.417 153.222 329.589 153.452 328.424 153.912H328.332C328.209 153.912 328.117 153.851 328.056 153.728C328.025 153.575 328.071 153.467 328.194 153.406L333.53 150.876C333.591 150.845 333.683 150.83 333.806 150.83C334.082 150.83 334.373 151.183 334.68 151.888C334.987 152.593 335.14 153.498 335.14 154.602V165.274C335.14 166.194 335.201 166.869 335.324 167.298C335.477 167.727 335.753 168.034 336.152 168.218C336.551 168.371 337.164 168.448 337.992 168.448C338.084 168.448 338.13 168.54 338.13 168.724C338.13 168.908 338.084 169 337.992 169C337.287 169 336.735 168.985 336.336 168.954L333.852 168.908L331.322 168.954C330.923 168.985 330.371 169 329.666 169Z" fill="white"/>
<path d="M318.893 169.552C317.114 169.552 315.596 169.138 314.339 168.31C313.081 167.482 312.115 166.393 311.441 165.044C310.797 163.695 310.475 162.253 310.475 160.72C310.475 158.911 310.904 157.255 311.763 155.752C312.621 154.219 313.787 153.023 315.259 152.164C316.761 151.275 318.402 150.83 320.181 150.83C321.898 150.83 323.217 151.29 324.137 152.21C325.057 153.13 325.517 154.418 325.517 156.074C325.517 156.503 325.471 156.81 325.379 156.994C325.317 157.178 325.179 157.27 324.965 157.27H322.389L322.435 156.442C322.435 154.909 322.097 153.743 321.423 152.946C320.748 152.149 319.828 151.75 318.663 151.75C317.037 151.75 315.765 152.394 314.845 153.682C313.955 154.97 313.511 156.733 313.511 158.972C313.511 161.64 314.139 163.802 315.397 165.458C316.654 167.114 318.417 167.942 320.687 167.942C321.607 167.942 322.389 167.819 323.033 167.574C323.707 167.329 324.459 166.945 325.287 166.424H325.333C325.425 166.424 325.501 166.485 325.563 166.608C325.655 166.7 325.67 166.792 325.609 166.884C323.523 168.663 321.285 169.552 318.893 169.552ZM312.637 156.718L323.079 156.534V157.27L312.683 157.316L312.637 156.718Z" fill="white"/>
<path d="M308.699 151.244C308.761 151.244 308.791 151.336 308.791 151.52C308.791 151.704 308.761 151.796 308.699 151.796C307.902 151.796 307.227 152.041 306.675 152.532C306.154 153.023 305.648 153.897 305.157 155.154L299.407 168.954C299.346 169.107 299.177 169.184 298.901 169.184C298.625 169.184 298.457 169.107 298.395 168.954L291.955 155.062C291.342 153.743 290.821 152.869 290.391 152.44C289.993 152.011 289.487 151.796 288.873 151.796C288.781 151.796 288.735 151.704 288.735 151.52C288.735 151.336 288.781 151.244 288.873 151.244C289.487 151.244 289.962 151.259 290.299 151.29L292.047 151.336L295.037 151.29C295.497 151.259 296.111 151.244 296.877 151.244C296.969 151.244 297.015 151.336 297.015 151.52C297.015 151.704 296.969 151.796 296.877 151.796C295.037 151.796 294.117 152.164 294.117 152.9C294.117 153.115 294.179 153.345 294.301 153.59L300.189 166.102L298.855 167.988L304.237 154.924C304.452 154.341 304.559 153.897 304.559 153.59C304.559 152.977 304.268 152.532 303.685 152.256C303.103 151.949 302.183 151.796 300.925 151.796C300.864 151.796 300.833 151.704 300.833 151.52C300.833 151.336 300.864 151.244 300.925 151.244C301.753 151.244 302.382 151.259 302.811 151.29L305.571 151.336L307.181 151.29C307.488 151.259 307.994 151.244 308.699 151.244Z" fill="white"/>
<path d="M280.17 169.552C278.391 169.552 276.873 169.138 275.616 168.31C274.359 167.482 273.393 166.393 272.718 165.044C272.074 163.695 271.752 162.253 271.752 160.72C271.752 158.911 272.181 157.255 273.04 155.752C273.899 154.219 275.064 153.023 276.536 152.164C278.039 151.275 279.679 150.83 281.458 150.83C283.175 150.83 284.494 151.29 285.414 152.21C286.334 153.13 286.794 154.418 286.794 156.074C286.794 156.503 286.748 156.81 286.656 156.994C286.595 157.178 286.457 157.27 286.242 157.27H283.666L283.712 156.442C283.712 154.909 283.375 153.743 282.7 152.946C282.025 152.149 281.105 151.75 279.94 151.75C278.315 151.75 277.042 152.394 276.122 153.682C275.233 154.97 274.788 156.733 274.788 158.972C274.788 161.64 275.417 163.802 276.674 165.458C277.931 167.114 279.695 167.942 281.964 167.942C282.884 167.942 283.666 167.819 284.31 167.574C284.985 167.329 285.736 166.945 286.564 166.424H286.61C286.702 166.424 286.779 166.485 286.84 166.608C286.932 166.7 286.947 166.792 286.886 166.884C284.801 168.663 282.562 169.552 280.17 169.552ZM273.914 156.718L284.356 156.534V157.27L273.96 157.316L273.914 156.718Z" fill="white"/>
<path d="M259.15 151.244C259.242 151.244 259.288 151.336 259.288 151.52C259.288 151.704 259.242 151.796 259.15 151.796C258.384 151.796 257.709 152.072 257.126 152.624C256.574 153.145 256.068 154.05 255.608 155.338L249.996 170.288C248.862 173.263 247.788 175.578 246.776 177.234C245.795 178.921 244.768 180.117 243.694 180.822C242.652 181.558 241.44 181.926 240.06 181.926C239.386 181.926 238.834 181.773 238.404 181.466C237.944 181.159 237.714 180.715 237.714 180.132C237.714 179.703 237.852 179.365 238.128 179.12C238.404 178.875 238.742 178.752 239.14 178.752C239.539 178.752 239.876 178.798 240.152 178.89C240.428 178.982 240.72 179.135 241.026 179.35C241.088 179.381 241.256 179.473 241.532 179.626C241.839 179.779 242.207 179.856 242.636 179.856C243.403 179.856 244.124 179.503 244.798 178.798C245.473 178.123 246.194 176.973 246.96 175.348C247.758 173.723 248.708 171.453 249.812 168.54L249.766 169.828L242.498 155.062C241.793 153.713 241.256 152.839 240.888 152.44C240.52 152.011 240.045 151.796 239.462 151.796C239.401 151.796 239.37 151.704 239.37 151.52C239.37 151.336 239.401 151.244 239.462 151.244L241.026 151.29C241.394 151.321 241.9 151.336 242.544 151.336L245.488 151.29C245.918 151.259 246.516 151.244 247.282 151.244C247.344 151.244 247.374 151.336 247.374 151.52C247.374 151.704 247.344 151.796 247.282 151.796C245.504 151.796 244.614 152.149 244.614 152.854C244.614 153.038 244.691 153.283 244.844 153.59L251.146 166.562L250.088 168.448L254.596 155.476C254.842 154.74 254.964 154.157 254.964 153.728C254.964 153.023 254.688 152.532 254.136 152.256C253.584 151.949 252.68 151.796 251.422 151.796C251.361 151.796 251.33 151.704 251.33 151.52C251.33 151.336 251.361 151.244 251.422 151.244C252.25 151.244 252.879 151.259 253.308 151.29L256.068 151.336L257.724 151.29C258.031 151.259 258.506 151.244 259.15 151.244Z" fill="white"/>
<path d="M228.963 156.028C230.588 154.004 231.845 152.639 232.735 151.934C233.624 151.198 234.452 150.83 235.219 150.83C235.893 150.83 236.537 151.014 237.151 151.382C237.764 151.75 238.071 152.195 238.071 152.716C238.071 153.115 237.933 153.452 237.657 153.728C237.381 154.004 237.013 154.142 236.553 154.142C236.277 154.142 236.031 154.096 235.817 154.004C235.633 153.881 235.403 153.713 235.127 153.498C234.851 153.253 234.59 153.069 234.345 152.946C234.099 152.823 233.808 152.762 233.471 152.762C233.011 152.762 232.505 152.992 231.953 153.452C231.401 153.912 230.465 154.939 229.147 156.534L228.963 156.028ZM224.639 169C224.547 169 224.501 168.908 224.501 168.724C224.501 168.54 224.547 168.448 224.639 168.448C225.467 168.448 226.08 168.371 226.479 168.218C226.877 168.034 227.138 167.727 227.261 167.298C227.414 166.869 227.491 166.194 227.491 165.274V156.166C227.491 155.123 227.368 154.372 227.123 153.912C226.877 153.452 226.463 153.222 225.881 153.222C225.39 153.222 224.562 153.452 223.397 153.912H223.305C223.182 153.912 223.09 153.851 223.029 153.728C222.998 153.575 223.044 153.467 223.167 153.406L228.503 150.876C228.564 150.845 228.656 150.83 228.779 150.83C229.055 150.83 229.346 151.183 229.653 151.888C229.959 152.593 230.113 153.498 230.113 154.602V165.274C230.113 166.194 230.22 166.869 230.435 167.298C230.68 167.727 231.109 168.034 231.723 168.218C232.336 168.371 233.287 168.448 234.575 168.448C234.697 168.448 234.759 168.54 234.759 168.724C234.759 168.908 234.697 169 234.575 169C233.593 169 232.811 168.985 232.229 168.954L228.825 168.908L226.295 168.954C225.896 168.985 225.344 169 224.639 169Z" fill="white"/>
<path d="M217.741 169.276C217.618 169.337 217.496 169.368 217.373 169.368C216.913 169.368 216.515 169.015 216.177 168.31C215.84 167.605 215.671 166.669 215.671 165.504V156.81C215.671 153.375 214.705 151.658 212.773 151.658C211.73 151.658 210.933 152.011 210.381 152.716C209.86 153.391 209.507 154.173 209.323 155.062C209.2 155.645 209.016 156.105 208.771 156.442C208.556 156.779 208.158 156.948 207.575 156.948C207.084 156.948 206.701 156.81 206.425 156.534C206.18 156.258 206.057 155.936 206.057 155.568C206.057 154.832 206.533 154.096 207.483 153.36C208.434 152.624 209.568 152.011 210.887 151.52C212.206 151.029 213.387 150.784 214.429 150.784C215.687 150.784 216.637 151.183 217.281 151.98C217.925 152.777 218.247 153.927 218.247 155.43V164.032C218.247 165.105 218.385 165.887 218.661 166.378C218.937 166.869 219.382 167.114 219.995 167.114C220.608 167.114 221.375 166.915 222.295 166.516H222.387C222.51 166.516 222.587 166.593 222.617 166.746C222.648 166.869 222.602 166.961 222.479 167.022L217.741 169.276ZM209.461 169.322C208.326 169.322 207.437 169.031 206.793 168.448C206.18 167.835 205.873 167.068 205.873 166.148C205.873 165.228 206.241 164.431 206.977 163.756C207.713 163.081 208.924 162.437 210.611 161.824L216.131 159.754L216.269 160.352L211.393 162.238C210.534 162.575 209.906 162.974 209.507 163.434C209.139 163.863 208.955 164.385 208.955 164.998C208.955 165.734 209.185 166.363 209.645 166.884C210.136 167.375 210.764 167.62 211.531 167.62C212.144 167.62 212.88 167.375 213.739 166.884L216.637 165.136L216.729 165.734L213.325 167.942C212.558 168.433 211.884 168.785 211.301 169C210.718 169.215 210.105 169.322 209.461 169.322Z" fill="white"/>
<path d="M193.977 169C193.885 169 193.839 168.908 193.839 168.724C193.839 168.54 193.885 168.448 193.977 168.448C194.805 168.448 195.419 168.371 195.817 168.218C196.216 168.034 196.477 167.727 196.599 167.298C196.753 166.869 196.829 166.194 196.829 165.274V157.822C196.829 155.982 196.477 154.648 195.771 153.82C195.097 152.961 194.039 152.532 192.597 152.532C191.463 152.532 190.313 152.885 189.147 153.59C188.013 154.295 187.031 155.261 186.203 156.488L186.019 155.936C187.369 154.127 188.703 152.793 190.021 151.934C191.34 151.075 192.705 150.646 194.115 150.646C195.802 150.646 197.105 151.137 198.025 152.118C198.976 153.069 199.451 154.449 199.451 156.258V165.274C199.451 166.194 199.513 166.869 199.635 167.298C199.789 167.727 200.065 168.034 200.463 168.218C200.862 168.371 201.475 168.448 202.303 168.448C202.395 168.448 202.441 168.54 202.441 168.724C202.441 168.908 202.395 169 202.303 169C201.598 169 201.046 168.985 200.647 168.954L198.163 168.908L195.633 168.954C195.235 168.985 194.683 169 193.977 169ZM181.603 169C181.511 169 181.465 168.908 181.465 168.724C181.465 168.54 181.511 168.448 181.603 168.448C182.431 168.448 183.045 168.371 183.443 168.218C183.842 168.034 184.103 167.727 184.225 167.298C184.379 166.869 184.455 166.194 184.455 165.274V156.166C184.455 155.123 184.333 154.372 184.087 153.912C183.842 153.452 183.428 153.222 182.845 153.222C182.355 153.222 181.527 153.452 180.361 153.912H180.269C180.147 153.912 180.055 153.851 179.993 153.728C179.963 153.575 180.009 153.467 180.131 153.406L185.467 150.876C185.529 150.845 185.621 150.83 185.743 150.83C186.019 150.83 186.311 151.183 186.617 151.888C186.924 152.593 187.077 153.498 187.077 154.602V165.274C187.077 166.194 187.139 166.869 187.261 167.298C187.415 167.727 187.691 168.034 188.089 168.218C188.488 168.371 189.101 168.448 189.929 168.448C190.021 168.448 190.067 168.54 190.067 168.724C190.067 168.908 190.021 169 189.929 169C189.224 169 188.672 168.985 188.273 168.954L185.789 168.908L183.259 168.954C182.861 168.985 182.309 169 181.603 169Z" fill="white"/>
<path d="M169.393 169C169.332 169 169.301 168.908 169.301 168.724C169.301 168.54 169.332 168.448 169.393 168.448C170.221 168.448 170.835 168.371 171.233 168.218C171.663 168.034 171.954 167.727 172.107 167.298C172.261 166.869 172.337 166.194 172.337 165.274V156.672C172.337 155.568 172.215 154.771 171.969 154.28C171.755 153.789 171.371 153.544 170.819 153.544C170.267 153.544 169.577 153.759 168.749 154.188H168.703C168.581 154.188 168.489 154.111 168.427 153.958C168.366 153.805 168.381 153.697 168.473 153.636L174.453 150.876L174.637 150.83C174.699 150.83 174.775 150.876 174.867 150.968C174.959 151.029 175.005 151.106 175.005 151.198C175.005 151.413 174.99 152.026 174.959 153.038C174.929 154.05 174.913 155.246 174.913 156.626V165.274C174.913 166.194 174.99 166.869 175.143 167.298C175.297 167.727 175.573 168.034 175.971 168.218C176.37 168.371 176.983 168.448 177.811 168.448C177.903 168.448 177.949 168.54 177.949 168.724C177.949 168.908 177.903 169 177.811 169C177.106 169 176.539 168.985 176.109 168.954L173.625 168.908L171.141 168.954C170.712 168.985 170.129 169 169.393 169ZM173.257 145.448C172.644 145.448 172.153 145.279 171.785 144.942C171.417 144.605 171.233 144.129 171.233 143.516C171.233 142.903 171.417 142.427 171.785 142.09C172.153 141.753 172.644 141.584 173.257 141.584C173.871 141.584 174.346 141.753 174.683 142.09C175.021 142.427 175.189 142.903 175.189 143.516C175.189 144.129 175.021 144.605 174.683 144.942C174.346 145.279 173.871 145.448 173.257 145.448Z" fill="white"/>
<path d="M152.248 169.598C150.96 169.598 149.764 169.23 148.66 168.494C147.587 167.758 146.713 166.731 146.038 165.412C145.394 164.063 145.072 162.529 145.072 160.812C145.072 158.635 145.609 156.779 146.682 155.246C147.756 153.713 149.105 152.563 150.73 151.796C152.356 151.029 153.966 150.646 155.56 150.646C157.676 150.646 159.547 151.336 161.172 152.716L160.666 155.798C159.838 154.449 158.934 153.406 157.952 152.67C156.971 151.934 155.76 151.566 154.318 151.566C152.386 151.566 150.853 152.256 149.718 153.636C148.614 154.985 148.062 156.917 148.062 159.432C148.062 161.119 148.323 162.606 148.844 163.894C149.366 165.182 150.071 166.179 150.96 166.884C151.88 167.589 152.908 167.942 154.042 167.942C155.3 167.942 156.45 167.605 157.492 166.93C158.535 166.255 159.624 165.289 160.758 164.032L161.126 164.354C159.716 165.949 158.336 167.221 156.986 168.172C155.637 169.123 154.058 169.598 152.248 169.598ZM162.552 163.94C162.552 165.044 162.675 165.841 162.92 166.332C163.196 166.823 163.626 167.068 164.208 167.068C165.098 167.068 165.895 166.853 166.6 166.424L166.692 166.378C166.815 166.378 166.892 166.455 166.922 166.608C166.984 166.761 166.968 166.869 166.876 166.93L161.816 169.322C161.694 169.383 161.571 169.414 161.448 169.414C161.05 169.414 160.697 169.046 160.39 168.31C160.114 167.574 159.976 166.562 159.976 165.274V141.538C159.976 140.434 159.854 139.637 159.608 139.146C159.394 138.655 159.01 138.41 158.458 138.41C158.06 138.41 157.354 138.625 156.342 139.054H156.25C156.128 139.054 156.036 138.993 155.974 138.87C155.944 138.717 155.974 138.609 156.066 138.548L161.908 135.696C161.97 135.665 162.046 135.65 162.138 135.65C162.23 135.65 162.322 135.696 162.414 135.788C162.506 135.849 162.552 135.926 162.552 136.018V163.94Z" fill="white"/>
<path d="M133.593 156.028C135.219 154.004 136.476 152.639 137.365 151.934C138.255 151.198 139.083 150.83 139.849 150.83C140.524 150.83 141.168 151.014 141.781 151.382C142.395 151.75 142.701 152.195 142.701 152.716C142.701 153.115 142.563 153.452 142.287 153.728C142.011 154.004 141.643 154.142 141.183 154.142C140.907 154.142 140.662 154.096 140.447 154.004C140.263 153.881 140.033 153.713 139.757 153.498C139.481 153.253 139.221 153.069 138.975 152.946C138.73 152.823 138.439 152.762 138.101 152.762C137.641 152.762 137.135 152.992 136.583 153.452C136.031 153.912 135.096 154.939 133.777 156.534L133.593 156.028ZM129.269 169C129.177 169 129.131 168.908 129.131 168.724C129.131 168.54 129.177 168.448 129.269 168.448C130.097 168.448 130.711 168.371 131.109 168.218C131.508 168.034 131.769 167.727 131.891 167.298C132.045 166.869 132.121 166.194 132.121 165.274V156.166C132.121 155.123 131.999 154.372 131.753 153.912C131.508 153.452 131.094 153.222 130.511 153.222C130.021 153.222 129.193 153.452 128.027 153.912H127.935C127.813 153.912 127.721 153.851 127.659 153.728C127.629 153.575 127.675 153.467 127.797 153.406L133.133 150.876C133.195 150.845 133.287 150.83 133.409 150.83C133.685 150.83 133.977 151.183 134.283 151.888C134.59 152.593 134.743 153.498 134.743 154.602V165.274C134.743 166.194 134.851 166.869 135.065 167.298C135.311 167.727 135.74 168.034 136.353 168.218C136.967 168.371 137.917 168.448 139.205 168.448C139.328 168.448 139.389 168.54 139.389 168.724C139.389 168.908 139.328 169 139.205 169C138.224 169 137.442 168.985 136.859 168.954L133.455 168.908L130.925 168.954C130.527 168.985 129.975 169 129.269 169Z" fill="white"/>
<path d="M115.814 169.598C114.035 169.598 112.456 169.169 111.076 168.31C109.726 167.421 108.684 166.24 107.948 164.768C107.212 163.265 106.844 161.64 106.844 159.892C106.844 157.899 107.319 156.212 108.27 154.832C109.251 153.421 110.493 152.379 111.996 151.704C113.529 150.999 115.078 150.646 116.642 150.646C118.451 150.646 120.03 151.091 121.38 151.98C122.729 152.869 123.756 154.05 124.462 155.522C125.198 156.963 125.566 158.497 125.566 160.122C125.566 162.023 125.121 163.695 124.232 165.136C123.342 166.547 122.146 167.651 120.644 168.448C119.172 169.215 117.562 169.598 115.814 169.598ZM117.148 168.724C118.834 168.724 120.138 168.126 121.058 166.93C121.978 165.734 122.438 163.894 122.438 161.41C122.438 159.509 122.116 157.807 121.472 156.304C120.858 154.801 120 153.636 118.896 152.808C117.792 151.949 116.534 151.52 115.124 151.52C113.468 151.52 112.18 152.118 111.26 153.314C110.37 154.51 109.926 156.227 109.926 158.466C109.926 160.337 110.232 162.054 110.846 163.618C111.459 165.182 112.318 166.424 113.422 167.344C114.526 168.264 115.768 168.724 117.148 168.724Z" fill="white"/>
<path d="M100.36 169.276C100.238 169.337 100.115 169.368 99.9923 169.368C99.5323 169.368 99.1336 169.015 98.7963 168.31C98.459 167.605 98.2903 166.669 98.2903 165.504V156.81C98.2903 153.375 97.3243 151.658 95.3923 151.658C94.3496 151.658 93.5523 152.011 93.0003 152.716C92.479 153.391 92.1263 154.173 91.9423 155.062C91.8196 155.645 91.6356 156.105 91.3903 156.442C91.1756 156.779 90.777 156.948 90.1943 156.948C89.7036 156.948 89.3203 156.81 89.0443 156.534C88.799 156.258 88.6763 155.936 88.6763 155.568C88.6763 154.832 89.1516 154.096 90.1023 153.36C91.053 152.624 92.1877 152.011 93.5063 151.52C94.825 151.029 96.0057 150.784 97.0483 150.784C98.3057 150.784 99.2563 151.183 99.9003 151.98C100.544 152.777 100.866 153.927 100.866 155.43V164.032C100.866 165.105 101.004 165.887 101.28 166.378C101.556 166.869 102.001 167.114 102.614 167.114C103.228 167.114 103.994 166.915 104.914 166.516H105.006C105.129 166.516 105.206 166.593 105.236 166.746C105.267 166.869 105.221 166.961 105.098 167.022L100.36 169.276ZM92.0803 169.322C90.9456 169.322 90.0563 169.031 89.4123 168.448C88.799 167.835 88.4923 167.068 88.4923 166.148C88.4923 165.228 88.8603 164.431 89.5963 163.756C90.3323 163.081 91.5436 162.437 93.2303 161.824L98.7503 159.754L98.8883 160.352L94.0123 162.238C93.1536 162.575 92.525 162.974 92.1263 163.434C91.7583 163.863 91.5743 164.385 91.5743 164.998C91.5743 165.734 91.8043 166.363 92.2643 166.884C92.755 167.375 93.3836 167.62 94.1503 167.62C94.7636 167.62 95.4996 167.375 96.3583 166.884L99.2563 165.136L99.3483 165.734L95.9443 167.942C95.1776 168.433 94.503 168.785 93.9203 169C93.3376 169.215 92.7243 169.322 92.0803 169.322Z" fill="white"/>
<path d="M76.2732 156.028C77.8985 154.004 79.1558 152.639 80.0452 151.934C80.9345 151.198 81.7625 150.83 82.5292 150.83C83.2038 150.83 83.8478 151.014 84.4612 151.382C85.0745 151.75 85.3812 152.195 85.3812 152.716C85.3812 153.115 85.2432 153.452 84.9672 153.728C84.6912 154.004 84.3232 154.142 83.8632 154.142C83.5872 154.142 83.3418 154.096 83.1272 154.004C82.9432 153.881 82.7132 153.713 82.4372 153.498C82.1612 153.253 81.9005 153.069 81.6552 152.946C81.4098 152.823 81.1185 152.762 80.7812 152.762C80.3212 152.762 79.8152 152.992 79.2632 153.452C78.7112 153.912 77.7758 154.939 76.4572 156.534L76.2732 156.028ZM71.9492 169C71.8572 169 71.8112 168.908 71.8112 168.724C71.8112 168.54 71.8572 168.448 71.9492 168.448C72.7772 168.448 73.3905 168.371 73.7892 168.218C74.1878 168.034 74.4485 167.727 74.5712 167.298C74.7245 166.869 74.8012 166.194 74.8012 165.274V156.166C74.8012 155.123 74.6785 154.372 74.4332 153.912C74.1878 153.452 73.7738 153.222 73.1912 153.222C72.7005 153.222 71.8725 153.452 70.7072 153.912H70.6152C70.4925 153.912 70.4005 153.851 70.3392 153.728C70.3085 153.575 70.3545 153.467 70.4772 153.406L75.8132 150.876C75.8745 150.845 75.9665 150.83 76.0892 150.83C76.3652 150.83 76.6565 151.183 76.9632 151.888C77.2698 152.593 77.4232 153.498 77.4232 154.602V165.274C77.4232 166.194 77.5305 166.869 77.7452 167.298C77.9905 167.727 78.4198 168.034 79.0332 168.218C79.6465 168.371 80.5972 168.448 81.8852 168.448C82.0078 168.448 82.0692 168.54 82.0692 168.724C82.0692 168.908 82.0078 169 81.8852 169C80.9038 169 80.1218 168.985 79.5392 168.954L76.1352 168.908L73.6052 168.954C73.2065 168.985 72.6545 169 71.9492 169Z" fill="white"/>
<path d="M62.9842 169.552C61.6962 169.552 60.6382 169.261 59.8102 168.678C58.9822 168.095 58.5682 167.129 58.5682 165.78V154.97C58.5682 154.173 58.5069 153.605 58.3842 153.268C58.2922 152.931 58.0929 152.716 57.7862 152.624C57.4795 152.501 56.9582 152.44 56.2222 152.44C56.0995 152.44 56.0382 152.348 56.0382 152.164C56.0382 151.949 56.0995 151.842 56.2222 151.842C57.4489 151.811 58.4455 151.489 59.2122 150.876C59.9789 150.232 60.4235 149.389 60.5462 148.346C60.5462 148.254 60.6689 148.208 60.9142 148.208C61.1289 148.208 61.2362 148.254 61.2362 148.346V164.216C61.2362 166.7 62.4475 167.942 64.8702 167.942C66.2809 167.942 67.5075 167.513 68.5502 166.654L68.6422 166.608C68.7649 166.608 68.8569 166.685 68.9182 166.838C68.9795 166.961 68.9642 167.053 68.8722 167.114C67.7375 168.003 66.7102 168.632 65.7902 169C64.9009 169.368 63.9655 169.552 62.9842 169.552ZM67.4462 153.498C65.4835 153.007 63.1529 152.762 60.4542 152.762V151.75C62.3862 151.75 64.7782 151.597 67.6302 151.29C67.6915 151.29 67.7529 151.413 67.8142 151.658C67.9062 151.873 67.9522 152.118 67.9522 152.394C67.9522 152.639 67.8909 152.9 67.7682 153.176C67.6762 153.421 67.5689 153.529 67.4462 153.498Z" fill="white"/>
<path d="M46.0353 169C45.9433 169 45.8973 168.908 45.8973 168.724C45.8973 168.54 45.9433 168.448 46.0353 168.448C46.5873 168.448 46.9707 168.417 47.1853 168.356C47.4307 168.264 47.5533 168.111 47.5533 167.896C47.5533 167.62 47.3693 167.206 47.0013 166.654L39.3193 155.062C38.5833 153.927 37.8167 153.099 37.0193 152.578C36.222 152.057 35.5013 151.796 34.8573 151.796C34.796 151.796 34.7653 151.704 34.7653 151.52C34.7653 151.336 34.796 151.244 34.8573 151.244C35.5013 151.244 35.9767 151.259 36.2833 151.29L37.7093 151.336L40.6533 151.29C41.0827 151.259 41.6807 151.244 42.4473 151.244C42.5087 151.244 42.5393 151.336 42.5393 151.52C42.5393 151.704 42.5087 151.796 42.4473 151.796C41.926 151.796 41.5427 151.842 41.2973 151.934C41.052 151.995 40.9293 152.133 40.9293 152.348C40.9293 152.563 41.1287 152.977 41.5273 153.59L49.2093 165.182C49.976 166.347 50.758 167.191 51.5553 167.712C52.3833 168.203 53.1193 168.448 53.7633 168.448C53.8247 168.448 53.8553 168.54 53.8553 168.724C53.8553 168.908 53.8247 169 53.7633 169L52.2913 168.954C51.954 168.923 51.4633 168.908 50.8193 168.908L47.8753 168.954C47.4153 168.985 46.802 169 46.0353 169ZM34.7193 169C34.658 169 34.6273 168.908 34.6273 168.724C34.6273 168.54 34.658 168.448 34.7193 168.448C35.5167 168.448 36.3753 168.157 37.2953 167.574C38.246 166.991 39.12 166.148 39.9173 165.044L43.5973 159.938L44.1493 160.398L40.7453 165.32C40.132 166.24 39.8253 166.915 39.8253 167.344C39.8253 167.712 40.0247 167.988 40.4233 168.172C40.8527 168.356 41.5273 168.448 42.4473 168.448C42.5393 168.448 42.5853 168.54 42.5853 168.724C42.5853 168.908 42.5393 169 42.4473 169C41.6193 169 41.006 168.985 40.6073 168.954L37.8473 168.908L36.1913 168.954C35.8847 168.985 35.394 169 34.7193 169ZM43.8273 159.662L47.0473 154.924C47.6913 153.973 48.0133 153.283 48.0133 152.854C48.0133 152.486 47.7987 152.225 47.3693 152.072C46.9707 151.888 46.296 151.796 45.3453 151.796C45.284 151.796 45.2533 151.704 45.2533 151.52C45.2533 151.336 45.284 151.244 45.3453 151.244C46.1733 151.244 46.802 151.259 47.2313 151.29L49.9913 151.336L51.6473 151.29C51.954 151.259 52.4447 151.244 53.1193 151.244C53.1807 151.244 53.2113 151.336 53.2113 151.52C53.2113 151.704 53.1807 151.796 53.1193 151.796C52.2913 151.796 51.4173 152.087 50.4973 152.67C49.608 153.222 48.7493 154.065 47.9213 155.2L44.2873 160.122L43.8273 159.662Z" fill="white"/>
<path d="M25.418 169.552C23.6393 169.552 22.1213 169.138 20.864 168.31C19.6067 167.482 18.6407 166.393 17.966 165.044C17.322 163.695 17 162.253 17 160.72C17 158.911 17.4293 157.255 18.288 155.752C19.1467 154.219 20.312 153.023 21.784 152.164C23.2867 151.275 24.9273 150.83 26.706 150.83C28.4233 150.83 29.742 151.29 30.662 152.21C31.582 153.13 32.042 154.418 32.042 156.074C32.042 156.503 31.996 156.81 31.904 156.994C31.8427 157.178 31.7047 157.27 31.49 157.27H28.914L28.96 156.442C28.96 154.909 28.6227 153.743 27.948 152.946C27.2733 152.149 26.3533 151.75 25.188 151.75C23.5627 151.75 22.29 152.394 21.37 153.682C20.4807 154.97 20.036 156.733 20.036 158.972C20.036 161.64 20.6647 163.802 21.922 165.458C23.1793 167.114 24.9427 167.942 27.212 167.942C28.132 167.942 28.914 167.819 29.558 167.574C30.2327 167.329 30.984 166.945 31.812 166.424H31.858C31.95 166.424 32.0267 166.485 32.088 166.608C32.18 166.7 32.1953 166.792 32.134 166.884C30.0487 168.663 27.81 169.552 25.418 169.552ZM19.162 156.718L29.604 156.534V157.27L19.208 157.316L19.162 156.718Z" fill="white"/>
</svg>
