<svg width="468" height="88" viewBox="0 0 468 88" fill="none" xmlns="http://www.w3.org/2000/svg">
<g clip-path="url(#clip0_91_241)">
<path d="M8.17285 30.9013C8.17279 32.244 7.06744 33.333 5.70215 33.333C4.33823 33.3329 3.23248 32.2439 3.23242 30.9013C3.23242 29.7508 4.04516 28.7886 5.13574 28.5361L5.13574 23.5312L-2.36914 16.1426L-2.36914 0.323222L-1.23438 0.323222L-1.23438 15.667L6.27051 23.0547L6.27051 28.5361C7.36132 28.789 8.17285 29.7512 8.17285 30.9013ZM7.81055 39.834C8.04263 40.2046 8.17871 40.6402 8.17871 41.1074C8.17865 42.4499 7.07312 43.5388 5.70801 43.539C4.34404 43.539 3.23834 42.45 3.23828 41.1074C3.23828 39.7647 4.34401 38.6758 5.70801 38.6758C6.18311 38.6758 6.62546 38.8094 7.00195 39.0381L12.667 33.459L12.667 20.5439L5.18262 13.1748L5.18262 0.323222L6.31934 0.323222L6.31934 12.6992L13.8018 20.0683L13.8018 33.9346L7.81055 39.834ZM23.3252 31.5918C23.3252 32.9344 22.2185 34.0244 20.8545 34.0244C19.4905 34.0243 18.3848 32.9344 18.3848 31.5918C18.3849 30.4351 19.2049 29.4705 20.3027 29.2236L20.3027 20.1592L12.7363 12.708L12.7363 0.323222L13.8711 0.323222L13.8711 12.2324L21.4375 19.6826L21.4375 29.2314C22.5199 29.4894 23.325 30.446 23.3252 31.5918ZM23.3252 10.5508C23.3251 11.8934 22.2185 12.9824 20.8545 12.9824C19.4906 12.9824 18.3848 11.8933 18.3848 10.5508C18.3848 9.39905 19.1975 8.43771 20.2881 8.18553L20.2881 0.323223L21.4229 0.323223L21.4229 8.18553C22.5129 8.43829 23.3252 9.39961 23.3252 10.5508ZM22.1895 10.5508C22.1895 9.8361 21.5905 9.25291 20.8545 9.25291C20.1185 9.25296 19.5195 9.83613 19.5195 10.5508C19.5196 11.2653 20.1186 11.8476 20.8545 11.8476C21.5905 11.8476 22.1894 11.2654 22.1895 10.5508ZM22.1895 31.5918C22.1892 30.8773 21.5904 30.2949 20.8545 30.2949C20.1187 30.295 19.5197 30.8773 19.5195 31.5918C19.5195 32.3064 20.1185 32.8876 20.8545 32.8877C21.5905 32.8877 22.1895 32.3064 22.1895 31.5918ZM28.8545 14.3017L28.8545 22.6045C29.9451 22.8574 30.7567 23.8188 30.7568 24.9687C30.7568 26.3127 29.6515 27.4013 28.2861 27.4013C26.9222 27.4013 25.8164 26.3127 25.8164 24.9687C25.8166 23.8184 26.6293 22.8569 27.7197 22.6045L27.7197 13.8262L35.3926 6.26951L35.3926 0.323223L36.5273 0.323223L36.5273 6.74607L28.8545 14.3017ZM30.8779 3.13768C30.8779 4.48016 29.7723 5.56911 28.4072 5.56932C27.0433 5.56932 25.9376 4.48029 25.9375 3.13768C25.9375 1.98726 26.7495 1.02505 27.8398 0.772442L27.8398 0.323223L28.9756 0.323223L28.9756 0.772442C30.0662 1.02548 30.8779 1.98769 30.8779 3.13768ZM29.6211 24.9687C29.6209 24.2542 29.022 23.6719 28.2861 23.6719C27.5503 23.6719 26.9514 24.2543 26.9512 24.9687C26.9512 25.6834 27.5502 26.2665 28.2861 26.2666C29.0221 26.2666 29.6211 25.6834 29.6211 24.9687ZM45.9824 18.4531C45.9824 19.797 44.8755 20.8855 43.5117 20.8857C42.1477 20.8857 41.042 19.7971 41.042 18.4531C41.0422 17.3032 41.8537 16.3418 42.9434 16.0888L42.9434 0.323224L44.0781 0.323224L44.0781 16.0888C45.1687 16.3414 45.9822 17.3028 45.9824 18.4531ZM44.8457 18.4531C44.8455 17.7387 44.2474 17.1574 43.5117 17.1572C42.7758 17.1572 42.177 17.7386 42.1768 18.4531C42.1768 19.1678 42.7757 19.751 43.5117 19.751C44.2475 19.7508 44.8457 19.1676 44.8457 18.4531ZM61.0967 44.4433C61.0966 45.786 59.9913 46.875 58.626 46.875C57.2621 46.8749 56.1563 45.7859 56.1562 44.4433C56.1562 43.2928 56.969 42.3305 58.0596 42.0781L58.0596 33.3769L50.4971 25.9316L50.4971 0.324201L51.6318 0.324201L51.6318 25.4541L59.1943 32.9013L59.1943 42.0781C60.2851 42.331 61.0967 43.2932 61.0967 44.4433ZM61.0967 24.6074C61.0966 25.95 59.9913 27.039 58.626 27.039C57.2621 27.039 56.1563 25.95 56.1562 24.6074C56.1562 23.461 56.9632 22.5017 58.0479 22.2451L58.0479 0.323224L59.1826 0.323224L59.1826 22.2392C60.2794 22.4879 61.0967 23.4531 61.0967 24.6074ZM66.6816 15.2842L66.6816 29.9219C67.7719 30.1751 68.583 31.1364 68.583 32.2861C68.5829 33.6287 67.4776 34.7178 66.1123 34.7178C64.7484 34.7177 63.6426 33.6287 63.6426 32.2861C63.6426 31.1359 64.4548 30.1737 65.5449 29.9209L65.5449 14.8086L73.1533 7.31932L73.1533 0.323225L74.2881 0.323225L74.2881 7.7949L66.6816 15.2842ZM68.6387 3.13768C68.6386 4.48016 67.5331 5.56911 66.168 5.56932C64.804 5.56932 63.6983 4.48029 63.6982 3.13768C63.6982 1.98759 64.5097 1.02538 65.5996 0.772443L65.5996 0.323225L66.7363 0.323225L66.7363 0.772443C67.8269 1.02548 68.6387 1.98769 68.6387 3.13768ZM83.7432 18.958C83.7431 20.3005 82.6376 21.3894 81.2725 21.3896C79.9085 21.3896 78.8028 20.3006 78.8027 18.958C78.8027 17.8079 79.6142 16.8457 80.7041 16.5928L80.7041 0.323225L81.8389 0.323225L81.8389 16.5928C82.9304 16.8451 83.7432 17.8073 83.7432 18.958ZM89.252 20.1474L89.252 29.167C90.3426 29.4199 91.1541 30.3813 91.1543 31.5312C91.1543 32.8752 90.0489 33.9639 88.6836 33.9639C87.3196 33.9638 86.2139 32.8752 86.2139 31.5312C86.214 30.3809 87.0268 29.4194 88.1172 29.167L88.1172 19.6709L95.8096 12.0976L95.8096 0.323226L96.9443 0.323226L96.9443 12.5742L89.252 20.1474ZM91.2949 3.13768C91.2949 4.48029 90.1895 5.56932 88.8242 5.56932C87.4603 5.56927 86.3546 4.48026 86.3545 3.13768C86.3545 1.98743 87.1667 1.02521 88.2568 0.772444L88.2568 0.323226L89.3916 0.323226L89.3916 0.772444C90.4829 1.02498 91.2949 1.9872 91.2949 3.13768ZM90.0186 31.5312C90.0183 30.8167 89.4195 30.2353 88.6836 30.2353C87.9478 30.2354 87.3488 30.8168 87.3486 31.5312C87.3486 32.2459 87.9476 32.829 88.6836 32.8291C89.4196 32.8291 90.0186 32.2459 90.0186 31.5312ZM106.399 12.168C106.399 13.5104 105.294 14.5994 103.929 14.5996C102.565 14.5996 101.459 13.5106 101.459 12.168C101.459 11.0183 102.27 10.057 103.359 9.8037L103.359 0.323226L104.496 0.323226L104.496 9.80272C105.587 10.0554 106.399 11.0176 106.399 12.168ZM121.504 18.958C121.504 20.3018 120.397 21.3894 119.033 21.3896C117.669 21.3896 116.564 20.3019 116.563 18.958C116.563 17.8329 117.34 16.8888 118.395 16.6113L118.395 8.20116L110.913 0.838852L110.913 0.324203L112.048 0.324203L112.048 0.362289L119.529 7.72459L119.529 16.5752C120.656 16.8016 121.504 17.7827 121.504 18.958ZM119.589 27.1474L119.589 39.0556C120.685 39.3043 121.504 40.2687 121.504 41.4228C121.504 42.7667 120.397 43.8552 119.033 43.8555C117.669 43.8555 116.563 42.7668 116.563 41.4228C116.564 40.2768 117.37 39.3183 118.454 39.0615L118.454 26.6699L126.019 19.2236L126.019 0.323227L127.152 0.323227L127.152 19.6992L119.589 27.1474ZM120.367 18.958C120.367 18.2435 119.769 17.6603 119.033 17.6601C118.297 17.6601 117.698 18.2433 117.698 18.958C117.698 19.6726 118.297 20.2549 119.033 20.2549C119.769 20.2547 120.367 19.6725 120.367 18.958ZM120.367 41.4228C120.367 40.7085 119.769 40.1271 119.033 40.1269C118.297 40.1269 117.698 40.7083 117.698 41.4228C117.698 42.1375 118.297 42.7207 119.033 42.7207C119.769 42.7205 120.367 42.1374 120.367 41.4228ZM127.141 51.374L127.141 57.165C128.231 57.4179 129.043 58.3793 129.043 59.5293C129.043 60.8719 127.938 61.9619 126.572 61.9619C125.208 61.9618 124.103 60.8719 124.103 59.5293C124.103 58.3789 124.915 57.4175 126.006 57.165L126.006 50.8965L133.57 43.4473L133.57 0.323228L134.704 0.323228L134.704 43.9248L127.141 51.374ZM143.859 61.4648C144.1 61.8398 144.24 62.2828 144.24 62.7588C144.24 64.1014 143.135 65.1914 141.77 65.1914C140.406 65.1913 139.3 64.1014 139.3 62.7588C139.3 61.4163 140.406 60.3272 141.77 60.3271C142.235 60.3271 142.669 60.4559 143.04 60.6758L148.703 55.1015L148.703 48.1191L141.121 40.6562L141.121 0.323228L142.258 0.323228L142.258 40.1797L149.838 47.6426L149.838 55.5771L143.859 61.4648ZM143.872 72.2519C144.104 72.6225 144.24 73.0574 144.24 73.5244C144.24 74.8671 143.135 75.957 141.77 75.957C140.406 75.957 139.3 74.867 139.3 73.5244C139.3 72.1819 140.406 71.0928 141.77 71.0928C142.245 71.0928 142.687 71.2266 143.063 71.4551L156.098 58.6221L156.098 44.9463L148.675 37.6377L148.675 0.323228L149.811 0.323228L149.811 37.1621L157.232 44.4697L157.232 59.0976L143.872 72.2519ZM174.351 62.7588C174.351 64.1014 173.245 65.1914 171.88 65.1914C170.516 65.1913 169.41 64.1014 169.41 62.7588C169.41 61.6084 170.223 60.647 171.313 60.3945L171.313 42.1826L156.227 27.3262L156.227 0.324205L157.362 0.324205L157.362 26.8506L172.448 41.7051L172.448 60.3945C173.539 60.6474 174.35 61.6088 174.351 62.7588ZM174.368 29.0166C174.368 30.3593 173.263 31.4492 171.897 31.4492C170.534 31.4492 169.428 30.3592 169.428 29.0166C169.428 27.8488 170.263 26.8759 171.377 26.6406L171.377 20.5586L163.779 13.0771L163.779 0.324205L164.914 0.324206L164.914 12.6015L172.512 20.082L172.512 26.664C173.579 26.9328 174.368 27.8818 174.368 29.0166ZM174.304 3.3662C174.304 4.70881 173.198 5.79784 171.833 5.79784C170.469 5.79779 169.363 4.70878 169.363 3.3662C169.363 2.1932 170.207 1.21322 171.33 0.984362L171.33 0.323229L172.465 0.323229L172.465 1.01757C173.523 1.29261 174.304 2.23858 174.304 3.3662ZM173.232 29.0166C173.232 28.3021 172.633 27.7197 171.897 27.7197C171.162 27.7198 170.563 28.3021 170.562 29.0166C170.562 29.7312 171.162 30.3144 171.897 30.3144C172.633 30.3144 173.232 29.7313 173.232 29.0166ZM181.912 48.8086C181.912 50.1511 180.807 51.24 179.441 51.2402C178.077 51.2402 176.972 50.1512 176.972 48.8086C176.972 47.6548 177.789 46.6905 178.884 46.4414L178.884 0.32323L180.019 0.32323L180.019 46.4463C181.105 46.7025 181.912 47.6618 181.912 48.8086ZM196.96 54.2041C196.96 55.5467 195.855 56.6357 194.489 56.6357C193.125 56.6357 192.02 55.5467 192.02 54.2041C192.02 53.0621 192.819 52.1076 193.896 51.8457L193.896 42.9961L186.435 35.6504L186.435 0.32323L187.57 0.32323L187.57 35.1738L195.032 42.5205L195.032 51.833C196.136 52.0764 196.96 53.0439 196.96 54.2041ZM196.961 34.4814C196.961 35.8239 195.855 36.9129 194.49 36.9131C193.126 36.9131 192.021 35.824 192.021 34.4814C192.021 33.3087 192.864 32.3297 193.986 32.1006L193.986 0.32323L195.122 0.32323L195.122 32.1328C196.18 32.408 196.961 33.354 196.961 34.4814ZM195.824 54.2041C195.824 53.4894 195.225 52.9062 194.489 52.9062C193.753 52.9063 193.154 53.4895 193.154 54.2041C193.154 54.9187 193.753 55.5009 194.489 55.501C195.225 55.501 195.824 54.9187 195.824 54.2041ZM204.577 9.64159C204.577 10.9856 203.472 12.0742 202.106 12.0742C200.742 12.0742 199.637 10.9856 199.637 9.64159C199.637 8.49122 200.45 7.52978 201.54 7.27733L201.54 0.323231L202.675 0.323231L202.675 7.27733C203.765 7.53021 204.577 8.49164 204.577 9.64159ZM202.764 21.415L202.764 30.6279C203.854 30.881 204.666 31.8432 204.666 32.9932C204.666 34.337 203.56 35.4246 202.195 35.4248C200.831 35.4248 199.726 34.3371 199.726 32.9932C199.726 31.8431 200.537 30.8809 201.627 30.6279L201.627 20.9394L209.092 13.5898L209.092 0.323231L210.227 0.323231L210.227 14.0674L202.764 21.415ZM203.441 9.64159C203.441 8.92709 202.842 8.34569 202.106 8.34569C201.371 8.34574 200.772 8.92712 200.771 9.64159C200.771 10.3562 201.37 10.9394 202.106 10.9394C202.842 10.9394 203.441 10.3563 203.441 9.64159ZM203.529 32.9932C203.529 32.2786 202.931 31.6975 202.195 31.6973C201.459 31.6973 200.86 32.2785 200.86 32.9932C200.86 33.7078 201.459 34.29 202.195 34.29C202.931 34.2898 203.529 33.7076 203.529 32.9932ZM219.617 37.9238C219.617 39.2663 218.512 40.3552 217.146 40.3555C215.783 40.3555 214.677 39.2664 214.677 37.9238C214.677 36.7507 215.521 35.7707 216.644 35.542L216.644 0.323231L217.778 0.323231L217.778 35.5752C218.837 35.8504 219.617 36.7964 219.617 37.9238ZM225.139 5.41112L225.139 13.0449C226.229 13.2978 227.041 14.2592 227.041 15.4092C227.041 16.7532 225.936 17.8418 224.57 17.8418C223.206 17.8417 222.101 16.7531 222.101 15.4092C222.101 14.2594 222.912 13.298 224.002 13.0449L224.002 4.93554L228.687 0.323232L230.307 0.323232L225.139 5.41112ZM225.227 28.6689L225.227 43.1103C226.285 43.3852 227.066 44.3313 227.066 45.459C227.066 46.8015 225.961 47.8914 224.596 47.8916C223.232 47.8916 222.126 46.8016 222.126 45.459C222.126 44.2864 222.97 43.3082 224.092 43.0791L224.092 28.1914L239.3 13.2178L239.3 0.323232L240.435 0.323232L240.435 13.6943L225.227 28.6689ZM225.905 15.4092C225.905 14.6947 225.306 14.1133 224.57 14.1133C223.834 14.1133 223.236 14.6947 223.235 15.4092C223.235 16.1238 223.834 16.707 224.57 16.707C225.306 16.707 225.905 16.1238 225.905 15.4092ZM240.291 25.5537L240.291 30.2558C241.381 30.509 242.193 31.4705 242.193 32.6201C242.193 33.964 241.086 35.0525 239.723 35.0527C238.359 35.0527 237.253 33.9641 237.253 32.6201C237.253 31.4702 238.065 30.5088 239.154 30.2558L239.154 25.0762L246.853 17.498L246.853 0.323233L247.986 0.323233L247.986 17.9736L240.291 25.5537ZM241.057 32.6201C241.056 31.9057 240.458 31.3234 239.723 31.3232C238.987 31.3232 238.388 31.9056 238.388 32.6201C238.388 33.3348 238.987 33.918 239.723 33.918C240.458 33.9178 241.057 33.3346 241.057 32.6201ZM247.732 29.0166L247.732 43.0947C248.823 43.348 249.634 44.3092 249.634 45.459C249.634 46.8029 248.528 47.8906 247.163 47.8906C245.799 47.8906 244.693 46.8029 244.693 45.459C244.693 44.3084 245.506 43.3462 246.597 43.0937L246.597 28.541L254.404 20.8516L254.404 0.323233L255.539 0.323233L255.539 21.3281L247.732 29.0166ZM248.498 45.459C248.498 44.7443 247.899 44.1631 247.163 44.1631C246.427 44.1631 245.828 44.7443 245.828 45.459C245.828 46.1736 246.427 46.7558 247.163 46.7558C247.899 46.7558 248.498 46.1736 248.498 45.459ZM255.394 31.9736L255.394 35.5752C256.452 35.8502 257.232 36.7962 257.232 37.9238C257.232 39.2664 256.127 40.3555 254.762 40.3555C253.398 40.3554 252.292 39.2664 252.292 37.9238C252.292 36.7508 253.136 35.7708 254.259 35.542L254.259 31.4951L261.957 23.917L261.957 0.323233L263.091 0.323233L263.091 24.3926L255.394 31.9736ZM270.593 45.6475L270.593 56.042C271.651 56.3172 272.432 57.2632 272.432 58.3906C272.432 59.7331 271.326 60.822 269.961 60.8223C268.597 60.8223 267.491 59.7332 267.491 58.3906C267.491 57.2175 268.335 56.2375 269.458 56.0088L269.458 45.1709L277.061 37.6846L277.061 0.323234L278.195 0.323234L278.195 38.1621L270.593 45.6475ZM272.547 24.7129C272.547 26.0554 271.44 27.1453 270.076 27.1455C268.712 27.1455 267.606 26.0555 267.606 24.7129C267.607 23.5619 268.418 22.6013 269.508 22.3486L269.508 0.323234L270.644 0.323234L270.644 22.3486C271.734 22.6012 272.547 23.5618 272.547 24.7129ZM271.41 24.7129C271.41 23.9985 270.812 23.4162 270.076 23.416C269.34 23.416 268.741 23.9984 268.741 24.7129C268.741 25.4275 269.34 26.0088 270.076 26.0088C270.812 26.0086 271.41 25.4274 271.41 24.7129ZM287.531 50.4824C287.531 51.825 286.426 52.9148 285.061 52.915C283.697 52.915 282.591 51.8251 282.591 50.4824C282.591 49.2909 283.462 48.3008 284.611 48.0928L284.611 0.323234L285.746 0.323234L285.746 48.1475C286.777 48.4402 287.531 49.3742 287.531 50.4824ZM293.061 45.4619L293.061 56.0254C294.151 56.278 294.964 57.2393 294.964 58.3906C294.964 59.7331 293.857 60.822 292.493 60.8223C291.129 60.8223 290.024 59.7332 290.023 58.3906C290.023 57.2391 290.835 56.2777 291.926 56.0254L291.926 44.9844L299.719 37.3135L299.719 0.323235L300.853 0.323235L300.853 37.791L293.061 45.4619ZM295.203 19.6894C295.203 21.0319 294.098 22.1209 292.732 22.1211C291.368 22.1211 290.263 21.0321 290.263 19.6894C290.263 18.5387 291.075 17.5765 292.166 17.3242L292.166 0.323235L293.301 0.323235L293.301 17.3242C294.391 17.5772 295.203 18.5395 295.203 19.6894ZM293.827 58.3906C293.827 57.6761 293.229 57.093 292.493 57.0928C291.757 57.0928 291.158 57.676 291.158 58.3906C291.158 59.1052 291.757 59.6865 292.493 59.6865C293.229 59.6863 293.827 59.1051 293.827 58.3906ZM310.308 2.43163C310.308 3.77417 309.202 4.86404 307.837 4.86425C306.473 4.86425 305.367 3.7743 305.367 2.43163C305.367 1.08914 306.473 -7.01686e-06 307.837 -6.95724e-06C309.202 0.000202382 310.307 1.08926 310.308 2.43163ZM325.228 60.2461C325.227 61.5887 324.122 62.6777 322.757 62.6777C321.393 62.6777 320.287 61.5887 320.287 60.2461C320.287 59.7791 320.424 59.3441 320.655 58.9736L307.172 45.6973L307.172 17.0283L314.821 9.49706L314.821 0.323236L315.958 0.323236L315.958 9.97363L308.307 17.5059L308.307 45.2217L321.465 58.1758C321.841 57.9476 322.283 57.8145 322.757 57.8144C324.122 57.8144 325.228 58.9034 325.228 60.2461ZM325.182 49.5986C325.182 50.9411 324.076 52.0301 322.711 52.0303C321.347 52.0303 320.241 50.9412 320.241 49.5986C320.241 49.1316 320.378 48.6967 320.609 48.3262L314.727 42.5342L314.727 20.2402L322.374 12.7109L322.374 0.323236L323.51 0.323236L323.51 13.1875L315.861 20.7178L315.861 42.0566L321.418 47.5283C321.794 47.3 322.237 47.167 322.711 47.167C324.076 47.1672 325.182 48.2561 325.182 49.5986ZM323.575 23.4863L323.575 28.2891C324.665 28.5424 325.476 29.5038 325.477 30.6533C325.477 31.9973 324.37 33.0859 323.006 33.0859C321.642 33.0859 320.536 31.9973 320.536 30.6533C320.536 29.5033 321.349 28.5418 322.438 28.2891L322.438 23.0088L329.927 15.6367L329.927 0.323236L331.062 0.323236L331.062 16.1123L323.575 23.4863ZM324.341 30.6533C324.341 29.9388 323.742 29.3574 323.006 29.3574C322.27 29.3575 321.671 29.9388 321.671 30.6533C321.671 31.3679 322.27 31.9511 323.006 31.9512C323.742 31.9512 324.341 31.368 324.341 30.6533ZM348.068 37.8301C348.068 39.1739 346.963 40.2625 345.598 40.2627C344.234 40.2627 343.128 39.1741 343.128 37.8301C343.128 36.7041 343.906 35.7598 344.962 35.4834L344.962 31.7178L337.478 24.3477L337.478 0.323237L338.613 0.323237L338.613 23.8721L346.097 31.2412L346.097 35.4482C347.222 35.6756 348.068 36.6558 348.068 37.8301ZM346.932 37.8301C346.931 37.1157 346.333 36.5344 345.598 36.5342C344.862 36.5342 344.263 37.1156 344.263 37.8301C344.263 38.5447 344.862 39.1279 345.598 39.1279C346.333 39.1277 346.932 38.5446 346.932 37.8301ZM355.671 45.5518C355.671 46.8944 354.566 47.9844 353.2 47.9844C351.836 47.9843 350.73 46.8944 350.73 45.5518C350.731 44.4014 351.543 43.4399 352.634 43.1875L352.634 28.8086L345.03 21.3232L345.03 0.323237L346.167 0.323237L346.167 20.8477L353.769 28.333L353.769 43.1875C354.859 43.4404 355.671 44.4018 355.671 45.5518ZM363.081 32.5273C363.081 33.8713 361.976 34.96 360.61 34.96C359.246 34.9599 358.141 33.8713 358.141 32.5273C358.141 31.3773 358.953 30.4159 360.043 30.1631L360.043 25.5986L352.582 18.2529L352.582 0.324214L353.718 0.324214L353.718 17.7754L361.18 25.1221L361.18 30.1631C362.27 30.4163 363.081 31.3777 363.081 32.5273ZM361.945 32.5273C361.945 31.8128 361.346 31.2314 360.61 31.2314C359.875 31.2315 359.276 31.8129 359.275 32.5273C359.275 33.242 359.874 33.8251 360.61 33.8252C361.346 33.8252 361.945 33.242 361.945 32.5273ZM378.331 45.5518C378.331 46.8943 377.226 47.9842 375.86 47.9844C374.496 47.9844 373.391 46.8944 373.391 45.5518C373.391 44.4015 374.203 43.4401 375.293 43.1875L375.293 28.7129L360.134 13.7871L360.134 0.323238L361.271 0.323238L361.271 13.3115L376.428 28.2353L376.428 43.1875C377.519 43.4402 378.331 44.4016 378.331 45.5518ZM378.139 15.5957C378.139 16.9396 377.032 18.0281 375.668 18.0283C374.304 18.0283 373.198 16.9397 373.198 15.5957C373.198 14.4455 374.01 13.4841 375.101 13.2314L375.101 5.45703L369.885 0.323238L371.505 0.323238L376.235 4.98144L376.235 13.2314C377.325 13.4843 378.139 14.4457 378.139 15.5957ZM377.002 15.5957C377.002 14.8813 376.404 14.299 375.668 14.2988C374.932 14.2988 374.333 14.8812 374.333 15.5957C374.333 16.3104 374.932 16.8936 375.668 16.8936C376.404 16.8933 377.002 16.3102 377.002 15.5957ZM385.829 37.8301C385.829 39.1726 384.724 40.2625 383.358 40.2627C381.994 40.2627 380.889 39.1727 380.889 37.8301C380.889 36.6802 381.7 35.7188 382.79 35.4658L382.79 0.323239L383.925 0.323239L383.925 35.4658C385.016 35.7182 385.829 36.6796 385.829 37.8301ZM400.795 33.0859C400.795 34.4297 399.689 35.5174 398.324 35.5176C396.96 35.5176 395.855 34.4299 395.854 33.0859C395.854 31.9355 396.666 30.9733 397.757 30.7207L397.757 21.46L390.343 14.1611L390.343 0.324215L391.478 0.324215L391.478 13.6836L398.893 20.9834L398.893 30.7207C399.983 30.9737 400.795 31.9359 400.795 33.0859ZM399.658 33.0859C399.658 32.3714 399.06 31.7883 398.324 31.7881C397.588 31.7881 396.989 32.3713 396.989 33.0859C396.989 33.8005 397.588 34.3828 398.324 34.3828C399.06 34.3826 399.658 33.8004 399.658 33.0859ZM406.581 42.8096L406.581 51.8398C407.671 52.0933 408.482 53.0545 408.482 54.2041C408.482 55.5466 407.377 56.6355 406.012 56.6357C404.648 56.6357 403.542 55.5467 403.542 54.2041C403.542 53.0537 404.354 52.0915 405.444 51.8389L405.444 42.333L412.999 34.8936L412.999 0.32324L414.134 0.32324L414.134 35.3711L406.581 42.8096ZM408.485 34.2949C408.485 35.6376 407.38 36.7275 406.015 36.7275C404.651 36.7275 403.545 35.6376 403.545 34.2949C403.545 33.1452 404.357 32.1838 405.446 31.9307L405.446 0.323239L406.581 0.32324L406.581 31.9307C407.673 32.1829 408.485 33.1443 408.485 34.2949ZM423.59 16.7637C423.59 18.1075 422.484 19.1961 421.119 19.1963C419.755 19.1963 418.649 18.1077 418.649 16.7637C418.65 15.6135 419.462 14.652 420.552 14.3994L420.552 0.32324L421.687 0.32324L421.687 14.3994C422.777 14.6521 423.59 15.6136 423.59 16.7637ZM422.453 16.7637C422.453 16.0493 421.855 15.468 421.119 15.4678C420.383 15.4678 419.784 16.0492 419.784 16.7637C419.784 17.4783 420.383 18.0615 421.119 18.0615C421.855 18.0613 422.453 17.4782 422.453 16.7637ZM438.622 25.085C438.622 26.4275 437.515 27.5174 436.151 27.5176C434.787 27.5176 433.682 26.4276 433.682 25.085C433.682 23.9232 434.508 22.9545 435.613 22.7129L435.613 14.3896L428.103 6.99609L428.103 0.32324L429.238 0.323241L429.238 6.52051L436.748 13.9131L436.748 22.7285C437.823 22.9915 438.622 23.9443 438.622 25.085ZM438.694 3.40918C438.694 4.75166 437.589 5.84061 436.224 5.84082C434.86 5.84082 433.754 4.75179 433.754 3.40918C433.754 2.25909 434.565 1.29688 435.655 1.04394L435.655 0.323241L436.792 0.323241L436.792 1.04394C437.883 1.29698 438.694 2.25919 438.694 3.40918ZM437.485 25.085C437.485 24.3706 436.887 23.7883 436.151 23.7881C435.415 23.7881 434.817 24.3705 434.816 25.085C434.816 25.7996 435.415 26.3828 436.151 26.3828C436.887 26.3826 437.485 25.7995 437.485 25.085ZM444.341 20.1113L444.341 29.4189C445.43 29.6719 446.243 30.6324 446.243 31.7832C446.243 33.1257 445.136 34.2156 443.772 34.2158C442.408 34.2158 441.303 33.1259 441.303 31.7832C441.303 30.6319 442.115 29.6713 443.205 29.4189L443.205 19.6338L450.761 12.1953L450.761 0.323241L451.896 0.323242L451.896 12.6729L444.341 20.1113ZM445.106 31.7832C445.106 31.0688 444.508 30.4865 443.772 30.4863C443.037 30.4863 442.438 31.0687 442.437 31.7832C442.437 32.4979 443.036 33.0811 443.772 33.0811C444.508 33.0808 445.106 32.4977 445.106 31.7832ZM461.258 49.8301C461.258 51.1726 460.152 52.2615 458.787 52.2617C457.423 52.2617 456.317 51.1727 456.317 49.8301C456.317 49.363 456.454 48.9282 456.686 48.5576L450.379 42.3477L450.379 20.4766L458.313 12.666L458.313 0.323242L459.448 0.323242L459.448 13.1416L451.515 20.9541L451.515 41.8711L457.495 47.7598C457.871 47.5317 458.313 47.3984 458.787 47.3984C460.152 47.3986 461.258 48.4875 461.258 49.8301ZM459.303 23.7861L459.303 28.4756C460.42 28.7093 461.258 29.685 461.258 30.8535C461.258 32.196 460.152 33.2849 458.787 33.2852C457.423 33.2852 456.317 32.1961 456.317 30.8535C456.317 29.7221 457.103 28.7734 458.166 28.502L458.166 23.3086L465.865 15.7295L465.865 0.323242L467 0.323242L467 16.2061L459.303 23.7861Z" fill="url(#paint0_linear_91_241)"/>
</g>
<defs>
<linearGradient id="paint0_linear_91_241" x1="-2" y1="1.21275e-05" x2="467" y2="58.5" gradientUnits="userSpaceOnUse">
<stop stop-color="#C9A95B"/>
<stop offset="0.503101" stop-color="#C9A95B"/>
<stop offset="0.627057" stop-color="#E2CE9C"/>
<stop offset="0.759957" stop-color="#C9A95B"/>
<stop offset="1" stop-color="#C9A95B"/>
</linearGradient>
<clipPath id="clip0_91_241">
<rect width="88" height="468" fill="white" transform="translate(468) rotate(90)"/>
</clipPath>
</defs>
</svg>
