<svg width="468" height="88" viewBox="0 0 468 88" fill="none" xmlns="http://www.w3.org/2000/svg">
<g clip-path="url(#clip0_49_911)">
<path d="M6.27086 23.0548L-1.23447 15.6668L-1.23447 0.322754L-2.36914 0.322754L-2.36914 16.1428L5.13619 23.5308L5.13619 30.9014L6.27086 30.9014L6.27086 23.0548Z" fill="#C9A95B"/>
<path d="M13.8018 20.0681L6.31911 12.6988L6.31911 0.322754L5.18311 0.322754L5.1831 13.1748L12.6671 20.5441L12.6671 33.4588L5.3111 40.7028L6.1071 41.5121L13.8018 33.9347L13.8018 20.0681Z" fill="#C9A95B"/>
<path d="M21.4377 19.6828L13.871 12.2321L13.871 0.322754L12.7363 0.322754L12.7363 12.7081L20.303 20.1588L20.303 29.8534L21.4377 29.8534L21.4377 19.6828Z" fill="#C9A95B"/>
<path d="M20.2881 0.323242L20.2881 8.91524L21.4228 8.91524L21.4228 0.323242L20.2881 0.323242Z" fill="#C9A95B"/>
<path d="M27.8398 0.323242L27.8398 3.13791L28.9758 3.13791L28.9758 0.323242L27.8398 0.323242Z" fill="#C9A95B"/>
<path d="M36.5277 0.323243L35.3931 0.323243L35.3931 6.26991L27.7197 13.8259L27.7197 23.0792L28.8544 23.0792L28.8544 14.3019L36.5277 6.74591L36.5277 0.323243Z" fill="#C9A95B"/>
<path d="M42.9438 0.323242L42.9438 16.5539L44.0785 16.5539L44.0785 0.323242L42.9438 0.323242Z" fill="#C9A95B"/>
<path d="M59.1944 32.9011L51.6317 25.4544L51.6317 0.323731L50.4971 0.32373L50.4971 25.9317L58.0597 33.3771L58.0597 44.4424L59.1944 44.4424L59.1944 32.9011Z" fill="#C9A95B"/>
<path d="M58.0479 0.323242L58.0479 24.6059L59.1825 24.6059L59.1825 0.323242L58.0479 0.323242Z" fill="#C9A95B"/>
<path d="M65.6001 0.323242L65.6001 3.13791L66.7361 3.13791L66.7361 0.323242L65.6001 0.323242Z" fill="#C9A95B"/>
<path d="M74.2881 0.323243L73.1534 0.323243L73.1534 7.31924L65.5454 14.8086L65.5454 32.2859L66.6814 32.2859L66.6814 15.2846L74.2881 7.79524L74.2881 0.323243Z" fill="#C9A95B"/>
<path d="M80.7041 0.323242L80.7041 18.9579L81.8388 18.9579L81.8388 0.323242L80.7041 0.323242Z" fill="#C9A95B"/>
<path d="M88.2573 0.323242L88.2573 3.21524L89.392 3.21524L89.392 0.323242L88.2573 0.323242Z" fill="#C9A95B"/>
<path d="M96.9439 0.323243L95.8092 0.323243L95.8092 12.0979L88.1172 19.6712L88.1172 29.5939L89.2519 29.5939L89.2519 20.1472L96.9439 12.5739L96.9439 0.323243Z" fill="#C9A95B"/>
<path d="M103.36 0.323242L103.36 12.1686L104.496 12.1686L104.496 0.323242L103.36 0.323242Z" fill="#C9A95B"/>
<path d="M119.529 7.72506L112.048 0.362398L112.048 0.323731L110.913 0.32373L110.913 0.838397L118.394 8.20106L118.394 17.1544L119.529 17.1544L119.529 7.72506Z" fill="#C9A95B"/>
<path d="M127.153 0.323243L126.018 0.323243L126.018 19.2232L118.454 26.6699L118.454 39.5179L119.589 39.5179L119.589 27.1472L127.153 19.6992L127.153 0.323243Z" fill="#C9A95B"/>
<path d="M134.705 0.323243L133.57 0.323243L133.57 43.4472L126.006 50.8966L126.006 59.5299L127.141 59.5299L127.141 51.3739L134.705 43.9246L134.705 0.323243Z" fill="#C9A95B"/>
<path d="M149.838 47.6428L142.258 40.1801L142.258 0.322754L141.122 0.322754L141.122 40.6561L148.703 48.1188L148.703 55.1014L141.336 62.3534L142.134 63.1641L149.838 55.5774L149.838 47.6428Z" fill="#C9A95B"/>
<path d="M157.232 44.4699L149.811 37.1619L149.811 0.323243L148.675 0.323243L148.675 37.6379L156.097 44.9459L156.097 58.6219L141.372 73.1206L142.168 73.9299L157.232 59.0979L157.232 44.4699Z" fill="#C9A95B"/>
<path d="M172.448 41.7051L157.363 26.8504L157.363 0.323731L156.227 0.32373L156.227 27.3264L171.313 42.1824L171.313 62.7584L172.448 62.7584L172.448 41.7051Z" fill="#C9A95B"/>
<path d="M172.511 20.0824L164.914 12.6011L164.914 0.323731L163.779 0.32373L163.779 13.0771L171.377 20.5584L171.377 27.1731L172.511 27.1731L172.511 20.0824Z" fill="#C9A95B"/>
<path d="M171.331 0.323242L171.331 3.36591L172.465 3.36591L172.465 0.323242L171.331 0.323242Z" fill="#C9A95B"/>
<path d="M178.884 0.323242L178.884 48.8086L180.018 48.8086L180.018 0.323242L178.884 0.323242Z" fill="#C9A95B"/>
<path d="M195.032 42.5201L187.571 35.1734L187.571 0.322754L186.435 0.322754L186.435 35.6508L193.896 42.9961L193.896 52.3481L195.032 52.3481L195.032 42.5201Z" fill="#C9A95B"/>
<path d="M193.986 0.323242L193.986 34.4806L195.122 34.4806L195.122 0.323242L193.986 0.323242Z" fill="#C9A95B"/>
<path d="M201.54 0.323242L201.54 7.72191L202.675 7.72191L202.675 0.323242L201.54 0.323242Z" fill="#C9A95B"/>
<path d="M210.226 0.323243L209.091 0.323243L209.091 13.5899L201.627 20.9392L201.627 31.0819L202.763 31.0819L202.763 21.4152L210.226 14.0672L210.226 0.323243Z" fill="#C9A95B"/>
<path d="M216.644 0.323242L216.644 37.9232L217.779 37.9232L217.779 0.323242L216.644 0.323242Z" fill="#C9A95B"/>
<path d="M228.686 0.323242L224.002 4.93524L224.002 13.4566L225.138 13.4566L225.138 5.41124L230.306 0.323242L228.686 0.323242Z" fill="#C9A95B"/>
<path d="M240.435 0.323243L239.3 0.323243L239.3 13.2179L224.092 28.1912L224.092 45.4606L225.227 45.4606L225.227 28.6686L240.435 13.6939L240.435 0.323243Z" fill="#C9A95B"/>
<path d="M247.987 0.323243L246.852 0.323243L246.852 17.4979L239.155 25.0766L239.155 30.7552L240.291 30.7552L240.291 25.5539L247.987 17.9739L247.987 0.323243Z" fill="#C9A95B"/>
<path d="M255.539 0.323243L254.405 0.323243L254.405 20.8512L246.597 28.5406L246.597 43.5926L247.733 43.5926L247.733 29.0166L255.539 21.3286L255.539 0.323243Z" fill="#C9A95B"/>
<path d="M263.091 0.323243L261.957 0.323243L261.957 23.9166L254.259 31.4952L254.259 37.9232L255.394 37.9232L255.394 31.9739L263.091 24.3926L263.091 0.323243Z" fill="#C9A95B"/>
<path d="M269.508 0.323242L269.508 22.7686L270.644 22.7686L270.644 0.323242L269.508 0.323242Z" fill="#C9A95B"/>
<path d="M278.195 0.323243L277.061 0.323243L277.061 37.6846L269.458 45.1712L269.458 58.3899L270.593 58.3899L270.593 45.6472L278.195 38.1619L278.195 0.323243Z" fill="#C9A95B"/>
<path d="M284.612 0.323242L284.612 50.4832L285.746 50.4832L285.746 0.323242L284.612 0.323242Z" fill="#C9A95B"/>
<path d="M292.167 0.323242L292.167 19.6886L293.301 19.6886L293.301 0.323242L292.167 0.323242Z" fill="#C9A95B"/>
<path d="M300.853 0.323243L299.718 0.323243L299.718 37.3139L291.926 44.9846L291.926 56.4259L293.061 56.4259L293.061 45.4619L300.853 37.7912L300.853 0.323243Z" fill="#C9A95B"/>
<path d="M307.271 0.323242L307.271 0.432576L308.405 0.432576L308.405 0.323242L307.271 0.323242Z" fill="#C9A95B"/>
<path d="M308.307 45.2214L308.307 17.5054L315.958 9.97342L315.958 0.322754L314.822 0.322754L314.822 9.49742L307.172 17.0281L307.172 45.6974L322.358 60.6507L323.155 59.8414L308.307 45.2214Z" fill="#C9A95B"/>
<path d="M323.51 0.323243L322.374 0.323243L322.374 12.7112L314.727 20.2406L314.727 42.5339L322.312 50.0046L323.108 49.1939L315.862 42.0566L315.862 20.7179L323.51 13.1872L323.51 0.323243Z" fill="#C9A95B"/>
<path d="M331.062 0.323243L329.927 0.323243L329.927 15.6366L322.439 23.0086L322.439 28.7219L323.575 28.7219L323.575 23.4859L331.062 16.1126L331.062 0.323243Z" fill="#C9A95B"/>
<path d="M346.096 31.2414L338.614 23.8721L338.614 0.322754L337.478 0.322754L337.478 24.3481L344.962 31.7174L344.962 35.9254L346.096 35.9254L346.096 31.2414Z" fill="#C9A95B"/>
<path d="M353.768 28.3326L346.167 20.8472L346.167 0.323242L345.031 0.323242L345.031 21.3232L352.633 28.8086L352.633 45.5526L353.768 45.5526L353.768 28.3326Z" fill="#C9A95B"/>
<path d="M361.179 25.1224L353.718 17.7757L353.718 0.323731L352.582 0.32373L352.582 18.2531L360.043 25.5984L360.043 30.5717L361.179 30.5717L361.179 25.1224Z" fill="#C9A95B"/>
<path d="M376.428 28.2352L361.27 13.3112L361.27 0.323242L360.134 0.323242L360.134 13.7872L375.293 28.7126L375.293 45.5526L376.428 45.5526L376.428 28.2352Z" fill="#C9A95B"/>
<path d="M376.235 4.98142L371.505 0.322754L369.885 0.322754L375.101 5.45742L375.101 13.7054L376.235 13.7054L376.235 4.98142Z" fill="#C9A95B"/>
<path d="M382.791 0.323242L382.791 37.8299L383.925 37.8299L383.925 0.323242L382.791 0.323242Z" fill="#C9A95B"/>
<path d="M398.893 20.9837L391.478 13.6837L391.478 0.323731L390.343 0.32373L390.343 14.1611L397.757 21.4597L397.757 31.1184L398.893 31.1184L398.893 20.9837Z" fill="#C9A95B"/>
<path d="M405.447 0.323242L405.447 34.2952L406.581 34.2952L406.581 0.323242L405.447 0.323242Z" fill="#C9A95B"/>
<path d="M414.134 0.323243L412.999 0.323243L412.999 34.8939L405.445 42.3326L405.445 54.2046L406.581 54.2046L406.581 42.8099L414.134 35.3712L414.134 0.323243Z" fill="#C9A95B"/>
<path d="M420.552 0.323242L420.552 14.7912L421.686 14.7912L421.686 0.323242L420.552 0.323242Z" fill="#C9A95B"/>
<path d="M436.748 13.9134L429.239 6.52009L429.239 0.322754L428.103 0.322754L428.103 6.99609L435.613 14.3894L435.613 23.1641L436.748 23.1641L436.748 13.9134Z" fill="#C9A95B"/>
<path d="M435.656 0.323242L435.656 3.40858L436.792 3.40858L436.792 0.323242L435.656 0.323242Z" fill="#C9A95B"/>
<path d="M451.896 0.323243L450.761 0.323243L450.761 12.1952L443.205 19.6339L443.205 29.8259L444.341 29.8259L444.341 20.1112L451.896 12.6726L451.896 0.323243Z" fill="#C9A95B"/>
<path d="M459.448 0.323243L458.314 0.323243L458.314 12.6659L450.379 20.4766L450.379 42.3472L458.388 50.2352L459.186 49.4246L451.515 41.8712L451.515 20.9539L459.448 13.1419L459.448 0.323243Z" fill="#C9A95B"/>
<path d="M467 0.323243L465.865 0.323243L465.865 15.7299L458.167 23.3086L458.167 30.8526L459.303 30.8526L459.303 23.7859L467 16.2059L467 0.323243Z" fill="#C9A95B"/>
<path d="M8.17291 30.9012C8.17291 29.5586 7.06758 28.4692 5.70224 28.4692C4.33824 28.4692 3.23291 29.5586 3.23291 30.9012C3.23291 32.2439 4.33824 33.3332 5.70224 33.3332C7.06758 33.3332 8.17291 32.2439 8.17291 30.9012Z" fill="#C9A95B"/>
<path d="M8.17828 41.1073C8.17828 39.7646 7.07295 38.6753 5.70761 38.6753C4.34361 38.6753 3.23828 39.7646 3.23828 41.1073C3.23828 42.45 4.34361 43.5393 5.70761 43.5393C7.07295 43.5393 8.17828 42.45 8.17828 41.1073Z" fill="#C9A95B"/>
<path d="M30.8775 3.13757C30.8775 1.7949 29.7722 0.705567 28.4068 0.705567C27.0428 0.705566 25.9375 1.7949 25.9375 3.13757C25.9375 4.48023 27.0428 5.56957 28.4068 5.56957C29.7722 5.56957 30.8775 4.48023 30.8775 3.13757Z" fill="#C9A95B"/>
<path d="M61.0967 24.6073C61.0967 23.2646 59.9914 22.1753 58.6261 22.1753C57.2621 22.1753 56.1567 23.2646 56.1567 24.6073C56.1567 25.95 57.2621 27.0393 58.6261 27.0393C59.9914 27.0393 61.0967 25.95 61.0967 24.6073Z" fill="#C9A95B"/>
<path d="M68.6382 3.13757C68.6382 1.7949 67.5329 0.705567 66.1676 0.705567C64.8036 0.705566 63.6982 1.7949 63.6982 3.13757C63.6982 4.48023 64.8036 5.56957 66.1676 5.56957C67.5329 5.56957 68.6382 4.48023 68.6382 3.13757Z" fill="#C9A95B"/>
<path d="M61.0967 44.4432C61.0967 43.1006 59.9914 42.0112 58.6261 42.0112C57.2621 42.0112 56.1567 43.1006 56.1567 44.4432C56.1567 45.7859 57.2621 46.8752 58.6261 46.8752C59.9914 46.8752 61.0967 45.7859 61.0967 44.4432Z" fill="#C9A95B"/>
<path d="M68.5831 32.286C68.5831 30.9433 67.4777 29.854 66.1124 29.854C64.7484 29.854 63.6431 30.9433 63.6431 32.286C63.6431 33.6287 64.7484 34.718 66.1124 34.718C67.4777 34.718 68.5831 33.6287 68.5831 32.286Z" fill="#C9A95B"/>
<path d="M83.7427 18.9579C83.7427 17.6152 82.6374 16.5259 81.2721 16.5259C79.9081 16.5259 78.8027 17.6152 78.8027 18.9579C78.8027 20.3005 79.9081 21.3899 81.2721 21.3899C82.6374 21.3899 83.7427 20.3005 83.7427 18.9579Z" fill="#C9A95B"/>
<path d="M91.295 3.13757C91.295 1.7949 90.1896 0.705567 88.8243 0.705567C87.4603 0.705566 86.355 1.7949 86.355 3.13757C86.355 4.48023 87.4603 5.56957 88.8243 5.56957C90.1896 5.56957 91.295 4.48023 91.295 3.13757Z" fill="#C9A95B"/>
<path d="M129.043 59.5297C129.043 58.187 127.938 57.0977 126.572 57.0977C125.208 57.0977 124.103 58.187 124.103 59.5297C124.103 60.8723 125.208 61.9617 126.572 61.9617C127.938 61.9617 129.043 60.8723 129.043 59.5297Z" fill="#C9A95B"/>
<path d="M144.24 62.7591C144.24 61.4165 143.135 60.3271 141.77 60.3271C140.406 60.3271 139.3 61.4165 139.3 62.7591C139.3 64.1018 140.406 65.1911 141.77 65.1911C143.135 65.1911 144.24 64.1018 144.24 62.7591Z" fill="#C9A95B"/>
<path d="M144.24 73.5248C144.24 72.1821 143.135 71.0928 141.77 71.0928C140.406 71.0928 139.3 72.1821 139.3 73.5248C139.3 74.8674 140.406 75.9568 141.77 75.9568C143.135 75.9568 144.24 74.8674 144.24 73.5248Z" fill="#C9A95B"/>
<path d="M174.351 62.7591C174.351 61.4165 173.245 60.3271 171.88 60.3271C170.516 60.3271 169.411 61.4165 169.411 62.7591C169.411 64.1018 170.516 65.1911 171.88 65.1911C173.245 65.1911 174.351 64.1018 174.351 62.7591Z" fill="#C9A95B"/>
<path d="M181.912 48.8085C181.912 47.4658 180.806 46.3765 179.441 46.3765C178.077 46.3765 176.972 47.4658 176.972 48.8085C176.972 50.1511 178.077 51.2405 179.441 51.2405C180.806 51.2405 181.912 50.1511 181.912 48.8085Z" fill="#C9A95B"/>
<path d="M174.304 3.36608C174.304 2.02342 173.198 0.934082 171.833 0.934082C170.469 0.934082 169.364 2.02342 169.364 3.36608C169.364 4.70875 170.469 5.79808 171.833 5.79808C173.198 5.79808 174.304 4.70875 174.304 3.36608Z" fill="#C9A95B"/>
<path d="M196.961 34.4813C196.961 33.1386 195.855 32.0493 194.49 32.0493C193.126 32.0493 192.021 33.1386 192.021 34.4813C192.021 35.824 193.126 36.9133 194.49 36.9133C195.855 36.9133 196.961 35.824 196.961 34.4813Z" fill="#C9A95B"/>
<path d="M219.617 37.9237C219.617 36.581 218.511 35.4917 217.146 35.4917C215.782 35.4917 214.677 36.581 214.677 37.9237C214.677 39.2664 215.782 40.3557 217.146 40.3557C218.511 40.3557 219.617 39.2664 219.617 37.9237Z" fill="#C9A95B"/>
<path d="M227.066 45.4593C227.066 44.1167 225.961 43.0273 224.595 43.0273C223.231 43.0273 222.126 44.1167 222.126 45.4593C222.126 46.802 223.231 47.8913 224.595 47.8913C225.961 47.8913 227.066 46.802 227.066 45.4593Z" fill="#C9A95B"/>
<path d="M257.232 37.9237C257.232 36.581 256.127 35.4917 254.762 35.4917C253.398 35.4917 252.292 36.581 252.292 37.9237C252.292 39.2664 253.398 40.3557 254.762 40.3557C256.127 40.3557 257.232 39.2664 257.232 37.9237Z" fill="#C9A95B"/>
<path d="M272.431 58.3905C272.431 57.0478 271.326 55.9585 269.961 55.9585C268.597 55.9585 267.491 57.0478 267.491 58.3905C267.491 59.7332 268.597 60.8225 269.961 60.8225C271.326 60.8225 272.431 59.7332 272.431 58.3905Z" fill="#C9A95B"/>
<path d="M287.531 50.4828C287.531 49.1401 286.425 48.0508 285.06 48.0508C283.696 48.0508 282.591 49.1401 282.591 50.4828C282.591 51.8254 283.696 52.9148 285.06 52.9148C286.425 52.9148 287.531 51.8254 287.531 50.4828Z" fill="#C9A95B"/>
<path d="M295.203 19.6893C295.203 18.3467 294.097 17.2573 292.732 17.2573C291.368 17.2573 290.263 18.3467 290.263 19.6893C290.263 21.032 291.368 22.1213 292.732 22.1213C294.097 22.1213 295.203 21.032 295.203 19.6893Z" fill="#C9A95B"/>
<path d="M325.228 60.246C325.228 58.9033 324.122 57.814 322.757 57.814C321.393 57.814 320.288 58.9033 320.288 60.246C320.288 61.5886 321.393 62.678 322.757 62.678C324.122 62.678 325.228 61.5886 325.228 60.246Z" fill="#C9A95B"/>
<path d="M325.181 49.5985C325.181 48.2558 324.076 47.1665 322.711 47.1665C321.347 47.1665 320.241 48.2558 320.241 49.5985C320.241 50.9412 321.347 52.0305 322.711 52.0305C324.076 52.0305 325.181 50.9412 325.181 49.5985Z" fill="#C9A95B"/>
<path d="M355.671 45.5521C355.671 44.2095 354.566 43.1201 353.2 43.1201C351.836 43.1201 350.731 44.2095 350.731 45.5521C350.731 46.8948 351.836 47.9841 353.2 47.9841C354.566 47.9841 355.671 46.8948 355.671 45.5521Z" fill="#C9A95B"/>
<path d="M378.331 45.5521C378.331 44.2095 377.225 43.1201 375.86 43.1201C374.496 43.1201 373.391 44.2095 373.391 45.5521C373.391 46.8948 374.496 47.9841 375.86 47.9841C377.225 47.9841 378.331 46.8948 378.331 45.5521Z" fill="#C9A95B"/>
<path d="M408.485 34.2953C408.485 32.9526 407.38 31.8633 406.015 31.8633C404.651 31.8633 403.545 32.9526 403.545 34.2953C403.545 35.6379 404.651 36.7273 406.015 36.7273C407.38 36.7273 408.485 35.6379 408.485 34.2953Z" fill="#C9A95B"/>
<path d="M385.829 37.8304C385.829 36.4878 384.723 35.3984 383.358 35.3984C381.994 35.3984 380.889 36.4878 380.889 37.8304C380.889 39.1731 381.994 40.2624 383.358 40.2624C384.723 40.2624 385.829 39.1731 385.829 37.8304Z" fill="#C9A95B"/>
<path d="M408.482 54.204C408.482 52.8613 407.377 51.772 406.011 51.772C404.647 51.772 403.542 52.8613 403.542 54.204C403.542 55.5466 404.647 56.636 406.011 56.636C407.377 56.636 408.482 55.5466 408.482 54.204Z" fill="#C9A95B"/>
<path d="M461.257 49.8299C461.257 48.4873 460.152 47.3979 458.787 47.3979C457.423 47.3979 456.317 48.4873 456.317 49.8299C456.317 51.1726 457.423 52.2619 458.787 52.2619C460.152 52.2619 461.257 51.1726 461.257 49.8299Z" fill="#C9A95B"/>
<path d="M461.257 30.8534C461.257 29.5107 460.152 28.4214 458.787 28.4214C457.423 28.4214 456.317 29.5107 456.317 30.8534C456.317 32.1961 457.423 33.2854 458.787 33.2854C460.152 33.2854 461.257 32.1961 461.257 30.8534Z" fill="#C9A95B"/>
<path d="M446.243 31.7836C446.243 30.4396 445.136 29.3516 443.772 29.3516C442.408 29.3516 441.303 30.4396 441.303 31.7836C441.303 33.1262 442.408 34.2156 443.772 34.2156C445.136 34.2156 446.243 33.1262 446.243 31.7836ZM445.107 31.7836C445.107 32.4982 444.508 33.0809 443.772 33.0809C443.036 33.0809 442.437 32.4982 442.437 31.7836C442.437 31.0689 443.036 30.4862 443.772 30.4862C444.508 30.4862 445.107 31.0689 445.107 31.7836Z" fill="#C9A95B"/>
<path d="M438.622 25.0853C438.622 23.7413 437.515 22.6533 436.151 22.6533C434.787 22.6533 433.682 23.7413 433.682 25.0853C433.682 26.428 434.787 27.5173 436.151 27.5173C437.515 27.5173 438.622 26.428 438.622 25.0853ZM437.486 25.0853C437.486 25.8 436.887 26.3827 436.151 26.3827C435.415 26.3827 434.816 25.8 434.816 25.0853C434.816 24.3707 435.415 23.788 436.151 23.788C436.887 23.788 437.486 24.3707 437.486 25.0853Z" fill="#C9A95B"/>
<path d="M423.589 16.764C423.589 15.4214 422.484 14.332 421.119 14.332C419.755 14.332 418.649 15.4214 418.649 16.764C418.649 18.108 419.755 19.196 421.119 19.196C422.484 19.196 423.589 18.108 423.589 16.764ZM422.453 16.764C422.453 17.4787 421.855 18.0614 421.119 18.0614C420.383 18.0614 419.784 17.4787 419.784 16.764C419.784 16.0494 420.383 15.468 421.119 15.468C421.855 15.468 422.453 16.0494 422.453 16.764Z" fill="#C9A95B"/>
<path d="M400.794 33.0858C400.794 31.7431 399.689 30.6538 398.324 30.6538C396.96 30.6538 395.854 31.7431 395.854 33.0858C395.854 34.4298 396.96 35.5178 398.324 35.5178C399.689 35.5178 400.794 34.4298 400.794 33.0858ZM399.658 33.0858C399.658 33.8005 399.06 34.3831 398.324 34.3831C397.588 34.3831 396.989 33.8005 396.989 33.0858C396.989 32.3711 397.588 31.7885 398.324 31.7885C399.06 31.7885 399.658 32.3711 399.658 33.0858Z" fill="#C9A95B"/>
<path d="M363.081 32.5277C363.081 31.185 361.976 30.0957 360.61 30.0957C359.246 30.0957 358.141 31.185 358.141 32.5277C358.141 33.8717 359.246 34.9597 360.61 34.9597C361.976 34.9597 363.081 33.8717 363.081 32.5277ZM361.945 32.5277C361.945 33.2424 361.346 33.825 360.61 33.825C359.874 33.825 359.276 33.2424 359.276 32.5277C359.276 31.813 359.874 31.2317 360.61 31.2317C361.346 31.2317 361.945 31.813 361.945 32.5277Z" fill="#C9A95B"/>
<path d="M348.068 37.8304C348.068 36.4878 346.963 35.3984 345.597 35.3984C344.233 35.3984 343.128 36.4878 343.128 37.8304C343.128 39.1744 344.233 40.2624 345.597 40.2624C346.963 40.2624 348.068 39.1744 348.068 37.8304ZM346.932 37.8304C346.932 38.5451 346.333 39.1278 345.597 39.1278C344.861 39.1278 344.263 38.5451 344.263 37.8304C344.263 37.1158 344.861 36.5344 345.597 36.5344C346.333 36.5344 346.932 37.1158 346.932 37.8304Z" fill="#C9A95B"/>
<path d="M325.477 30.6537C325.477 29.311 324.37 28.2217 323.006 28.2217C321.642 28.2217 320.537 29.311 320.537 30.6537C320.537 31.9977 321.642 33.0857 323.006 33.0857C324.37 33.0857 325.477 31.9977 325.477 30.6537ZM324.341 30.6537C324.341 31.3683 323.742 31.951 323.006 31.951C322.27 31.951 321.671 31.3683 321.671 30.6537C321.671 29.939 322.27 29.3577 323.006 29.3577C323.742 29.3577 324.341 29.939 324.341 30.6537Z" fill="#C9A95B"/>
<path d="M294.963 58.3905C294.963 57.0465 293.857 55.9585 292.493 55.9585C291.129 55.9585 290.023 57.0465 290.023 58.3905C290.023 59.7332 291.129 60.8225 292.493 60.8225C293.857 60.8225 294.963 59.7332 294.963 58.3905ZM293.827 58.3905C293.827 59.1052 293.229 59.6865 292.493 59.6865C291.757 59.6865 291.158 59.1052 291.158 58.3905C291.158 57.6758 291.757 57.0932 292.493 57.0932C293.229 57.0932 293.827 57.6758 293.827 58.3905Z" fill="#C9A95B"/>
<path d="M272.546 24.7133C272.546 23.3693 271.44 22.2813 270.076 22.2813C268.712 22.2813 267.606 23.3692 267.606 24.7132C267.606 26.0559 268.712 27.1452 270.076 27.1452C271.44 27.1453 272.546 26.0559 272.546 24.7133ZM271.41 24.7133C271.41 25.4279 270.812 26.0092 270.076 26.0092C269.34 26.0092 268.741 25.4279 268.741 24.7132C268.741 23.9986 269.34 23.4159 270.076 23.4159C270.812 23.4159 271.41 23.9986 271.41 24.7133Z" fill="#C9A95B"/>
<path d="M249.634 45.4589C249.634 44.1162 248.529 43.0269 247.163 43.0269C245.799 43.0269 244.694 44.1162 244.694 45.4589C244.694 46.8029 245.799 47.8909 247.163 47.8909C248.529 47.8909 249.634 46.8029 249.634 45.4589ZM248.498 45.4589C248.498 46.1735 247.899 46.7562 247.163 46.7562C246.427 46.7562 245.829 46.1735 245.829 45.4589C245.829 44.7442 246.427 44.1629 247.163 44.1629C247.899 44.1629 248.498 44.7442 248.498 45.4589Z" fill="#C9A95B"/>
<path d="M242.193 32.6205C242.193 31.2778 241.086 30.1885 239.722 30.1885C238.358 30.1885 237.253 31.2778 237.253 32.6205C237.253 33.9645 238.358 35.0525 239.722 35.0525C241.086 35.0525 242.193 33.9645 242.193 32.6205ZM241.057 32.6205C241.057 33.3351 240.458 33.9178 239.722 33.9178C238.986 33.9178 238.388 33.3351 238.388 32.6205C238.388 31.9058 238.986 31.3231 239.722 31.3231C240.458 31.3231 241.057 31.9058 241.057 32.6205Z" fill="#C9A95B"/>
<path d="M227.041 15.4095C227.041 14.0669 225.936 12.9775 224.57 12.9775C223.206 12.9775 222.101 14.0669 222.101 15.4095C222.101 16.7535 223.206 17.8415 224.57 17.8415C225.936 17.8415 227.041 16.7535 227.041 15.4095ZM225.905 15.4095C225.905 16.1242 225.306 16.7069 224.57 16.7069C223.834 16.7069 223.236 16.1242 223.236 15.4095C223.236 14.6949 223.834 14.1135 224.57 14.1135C225.306 14.1135 225.905 14.6949 225.905 15.4095Z" fill="#C9A95B"/>
<path d="M204.666 32.993C204.666 31.6504 203.56 30.561 202.195 30.561C200.831 30.561 199.726 31.6504 199.726 32.993C199.726 34.337 200.831 35.425 202.195 35.425C203.56 35.425 204.666 34.337 204.666 32.993ZM203.53 32.993C203.53 33.7077 202.931 34.2904 202.195 34.2904C201.459 34.2904 200.86 33.7077 200.86 32.993C200.86 32.2784 201.459 31.697 202.195 31.697C202.931 31.697 203.53 32.2784 203.53 32.993Z" fill="#C9A95B"/>
<path d="M196.96 54.204C196.96 52.86 195.855 51.772 194.489 51.772C193.125 51.772 192.02 52.86 192.02 54.204C192.02 55.5466 193.125 56.636 194.489 56.636C195.855 56.636 196.96 55.5466 196.96 54.204ZM195.824 54.204C195.824 54.9186 195.225 55.5013 194.489 55.5013C193.753 55.5013 193.155 54.9186 193.155 54.204C193.155 53.4893 193.753 52.9066 194.489 52.9066C195.225 52.9066 195.824 53.4893 195.824 54.204Z" fill="#C9A95B"/>
<path d="M174.368 29.017C174.368 27.673 173.263 26.585 171.898 26.585C170.534 26.585 169.428 27.673 169.428 29.017C169.428 30.3596 170.534 31.449 171.898 31.449C173.263 31.449 174.368 30.3596 174.368 29.017ZM173.232 29.017C173.232 29.7316 172.634 30.3143 171.898 30.3143C171.162 30.3143 170.563 29.7316 170.563 29.017C170.563 28.3023 171.162 27.7196 171.898 27.7196C172.634 27.7196 173.232 28.3023 173.232 29.017Z" fill="#C9A95B"/>
<path d="M121.503 18.9579C121.503 17.6152 120.397 16.5259 119.033 16.5259C117.669 16.5259 116.563 17.6152 116.563 18.9579C116.563 20.3019 117.669 21.3899 119.033 21.3899C120.397 21.3899 121.503 20.3019 121.503 18.9579ZM120.367 18.9579C120.367 19.6725 119.769 20.2552 119.033 20.2552C118.297 20.2552 117.698 19.6725 117.698 18.9579C117.698 18.2432 118.297 17.6605 119.033 17.6605C119.769 17.6605 120.367 18.2432 120.367 18.9579Z" fill="#C9A95B"/>
<path d="M121.503 41.4232C121.503 40.0805 120.397 38.9912 119.033 38.9912C117.669 38.9912 116.563 40.0805 116.563 41.4232C116.563 42.7672 117.669 43.8552 119.033 43.8552C120.397 43.8552 121.503 42.7672 121.503 41.4232ZM120.367 41.4232C120.367 42.1379 119.769 42.7205 119.033 42.7205C118.297 42.7205 117.698 42.1379 117.698 41.4232C117.698 40.7085 118.297 40.1272 119.033 40.1272C119.769 40.1272 120.367 40.7085 120.367 41.4232Z" fill="#C9A95B"/>
<path d="M91.1544 31.5316C91.1544 30.1889 90.049 29.0996 88.6837 29.0996C87.3197 29.0996 86.2144 30.1889 86.2144 31.5316C86.2144 32.8756 87.3197 33.9636 88.6837 33.9636C90.049 33.9636 91.1544 32.8756 91.1544 31.5316ZM90.0184 31.5316C90.0184 32.2463 89.4197 32.8289 88.6837 32.8289C87.9477 32.8289 87.349 32.2463 87.349 31.5316C87.349 30.8169 87.9477 30.2356 88.6837 30.2356C89.4197 30.2356 90.0184 30.8169 90.0184 31.5316Z" fill="#C9A95B"/>
<path d="M45.982 18.4535C45.982 17.1108 44.8753 16.0215 43.5113 16.0215C42.1473 16.0215 41.042 17.1108 41.042 18.4535C41.042 19.7975 42.1473 20.8855 43.5113 20.8855C44.8753 20.8855 45.982 19.7975 45.982 18.4535ZM44.846 18.4535C44.846 19.1682 44.2473 19.7508 43.5113 19.7508C42.7753 19.7508 42.1767 19.1682 42.1767 18.4535C42.1767 17.7388 42.7753 17.1575 43.5113 17.1575C44.2473 17.1575 44.846 17.7388 44.846 18.4535Z" fill="#C9A95B"/>
<path d="M30.7569 24.9691C30.7569 23.6264 29.6516 22.5371 28.2862 22.5371C26.9222 22.5371 25.8169 23.6264 25.8169 24.9691C25.8169 26.3131 26.9222 27.4011 28.2862 27.4011C29.6516 27.4011 30.7569 26.3131 30.7569 24.9691ZM29.6209 24.9691C29.6209 25.6838 29.0222 26.2664 28.2862 26.2664C27.5502 26.2664 26.9516 25.6838 26.9516 24.9691C26.9516 24.2544 27.5502 23.6718 28.2862 23.6718C29.0222 23.6718 29.6209 24.2544 29.6209 24.9691Z" fill="#C9A95B"/>
<path d="M23.3253 10.5507C23.3253 9.20665 22.2186 8.11865 20.8546 8.11865C19.4906 8.11865 18.3853 9.20665 18.3853 10.5507C18.3853 11.8933 19.4906 12.9827 20.8546 12.9827C22.2186 12.9827 23.3253 11.8933 23.3253 10.5507ZM22.1893 10.5507C22.1893 11.2653 21.5906 11.848 20.8546 11.848C20.1186 11.848 19.5199 11.2653 19.5199 10.5507C19.5199 9.83599 20.1186 9.25332 20.8546 9.25332C21.5906 9.25332 22.1893 9.83599 22.1893 10.5507Z" fill="#C9A95B"/>
<path d="M23.3253 31.5922C23.3253 30.2482 22.2186 29.1602 20.8546 29.1602C19.4906 29.1602 18.3853 30.2482 18.3853 31.5922C18.3853 32.9348 19.4906 34.0242 20.8546 34.0242C22.2186 34.0242 23.3253 32.9348 23.3253 31.5922ZM22.1893 31.5922C22.1893 32.3068 21.5906 32.8882 20.8546 32.8882C20.1186 32.8882 19.5199 32.3068 19.5199 31.5922C19.5199 30.8775 20.1186 30.2948 20.8546 30.2948C21.5906 30.2948 22.1893 30.8775 22.1893 31.5922Z" fill="#C9A95B"/>
<path d="M204.577 9.64196C204.577 8.29929 203.472 7.20996 202.107 7.20996C200.743 7.20996 199.637 8.29929 199.637 9.64196C199.637 10.986 200.743 12.074 202.107 12.074C203.472 12.074 204.577 10.986 204.577 9.64196ZM203.441 9.64196C203.441 10.3566 202.843 10.9393 202.107 10.9393C201.371 10.9393 200.772 10.3566 200.772 9.64196C200.772 8.92729 201.371 8.34596 202.107 8.34596C202.843 8.34596 203.441 8.92729 203.441 9.64196Z" fill="#C9A95B"/>
<path d="M378.138 15.5961C378.138 14.2534 377.032 13.1641 375.668 13.1641C374.304 13.1641 373.198 14.2534 373.198 15.5961C373.198 16.9401 374.304 18.0281 375.668 18.0281C377.032 18.0281 378.138 16.9401 378.138 15.5961ZM377.002 15.5961C377.002 16.3107 376.404 16.8934 375.668 16.8934C374.932 16.8934 374.333 16.3107 374.333 15.5961C374.333 14.8814 374.932 14.2987 375.668 14.2987C376.404 14.2987 377.002 14.8814 377.002 15.5961Z" fill="#C9A95B"/>
<path d="M438.694 3.40905C438.694 2.06638 437.589 0.977051 436.223 0.977051C434.859 0.977051 433.754 2.06638 433.754 3.40905C433.754 4.75172 434.859 5.84105 436.223 5.84105C437.589 5.84105 438.694 4.75172 438.694 3.40905Z" fill="#C9A95B"/>
<path d="M310.307 2.432C310.307 1.08933 309.202 1.67619e-07 307.837 1.07938e-07C306.473 4.83156e-08 305.367 1.08933 305.367 2.432C305.367 3.77467 306.473 4.864 307.837 4.864C309.202 4.864 310.307 3.77467 310.307 2.432Z" fill="#C9A95B"/>
<path d="M106.399 12.1678C106.399 10.8252 105.294 9.73584 103.928 9.73584C102.564 9.73584 101.459 10.8252 101.459 12.1678C101.459 13.5105 102.564 14.5998 103.928 14.5998C105.294 14.5998 106.399 13.5105 106.399 12.1678Z" fill="#C9A95B"/>
</g>
<defs>
<clipPath id="clip0_49_911">
<rect width="88" height="468" fill="white" transform="translate(468) rotate(90)"/>
</clipPath>
</defs>
</svg>
